<svg width="16" height="16" viewBox="0 0 16 16" fill="none" xmlns="http://www.w3.org/2000/svg">
<path d="M2 0.5H5.5C6.32843 0.5 7 1.17157 7 2V5.5C7 6.32843 6.32843 7 5.5 7H2C1.17157 7 0.5 6.32843 0.5 5.5V2C0.5 1.17157 1.17157 0.5 2 0.5Z" stroke="currentColor" strokeOpacity="0.6"/>
<path d="M10.5 0.5H14C14.8284 0.5 15.5 1.17157 15.5 2V5.5C15.5 6.32843 14.8284 7 14 7H10.5C9.67157 7 9 6.32843 9 5.5V2C9 1.17157 9.67157 0.5 10.5 0.5Z" stroke="currentColor" strokeOpacity="0.6"/>
<path d="M2 9H5.5C6.32843 9 7 9.67157 7 10.5V14C7 14.8284 6.32843 15.5 5.5 15.5H2C1.17157 15.5 0.5 14.8284 0.5 14V10.5C0.5 9.67157 1.17157 9 2 9Z" stroke="currentColor" strokeOpacity="0.6"/>
<path d="M10.5 9H14C14.8284 9 15.5 9.67157 15.5 10.5V14C15.5 14.8284 14.8284 15.5 14 15.5H10.5C9.67157 15.5 9 14.8284 9 14V10.5C9 9.67157 9.67157 9 10.5 9Z" stroke="currentColor" strokeOpacity="0.6"/>
</svg>
