<svg width="20" height="24" viewBox="0 0 20 24" fill="none" xmlns="http://www.w3.org/2000/svg">
<path d="M9.87736 0C12.497 0 15.0093 1.04065 16.8617 2.89301C18.7141 4.74537 19.7547 7.25772 19.7547 9.87736C19.7547 14.0512 16.8219 18.5998 11.0322 23.5719C10.7103 23.8485 10.2999 24.0004 9.87546 24C9.45106 23.9996 9.04087 23.847 8.71943 23.5699L8.33649 23.2376C2.80314 18.3952 0 13.958 0 9.87736C0 7.25772 1.04065 4.74537 2.89301 2.89301C4.74538 1.04065 7.25772 0 9.87736 0ZM9.87736 1.51959C7.66074 1.51959 5.53491 2.40014 3.96753 3.96753C2.40014 5.53491 1.51959 7.66074 1.51959 9.87736C1.51959 13.4251 4.10088 17.5128 9.33436 22.0918L9.71223 22.4191C9.75817 22.4586 9.81676 22.4803 9.87736 22.4803C9.93795 22.4803 9.99654 22.4586 10.0425 22.4191C15.5292 17.7063 18.2351 13.5092 18.2351 9.87736C18.2351 8.7798 18.0189 7.69299 17.5989 6.67898C17.1789 5.66497 16.5633 4.74362 15.7872 3.96753C15.0111 3.19144 14.0897 2.57581 13.0757 2.15579C12.0617 1.73577 10.9749 1.51959 9.87736 1.51959ZM9.87736 6.07837C10.8849 6.07837 11.8512 6.47862 12.5636 7.19107C13.2761 7.90352 13.6763 8.8698 13.6763 9.87736C13.6763 10.8849 13.2761 11.8512 12.5636 12.5636C11.8512 13.2761 10.8849 13.6763 9.87736 13.6763C8.8698 13.6763 7.90352 13.2761 7.19107 12.5636C6.47862 11.8512 6.07837 10.8849 6.07837 9.87736C6.07837 8.8698 6.47862 7.90352 7.19107 7.19107C7.90352 6.47862 8.8698 6.07837 9.87736 6.07837ZM9.87736 7.59797C9.27283 7.59797 8.69305 7.83812 8.26559 8.26558C7.83812 8.69305 7.59797 9.27283 7.59797 9.87736C7.59797 10.4819 7.83812 11.0617 8.26559 11.4891C8.69305 11.9166 9.27283 12.1567 9.87736 12.1567C10.4819 12.1567 11.0617 11.9166 11.4891 11.4891C11.9166 11.0617 12.1567 10.4819 12.1567 9.87736C12.1567 9.27283 11.9166 8.69305 11.4891 8.26558C11.0617 7.83812 10.4819 7.59797 9.87736 7.59797Z" fill="white"/>
</svg>
