<svg width="24" height="34" viewBox="0 0 24 34" fill="none" xmlns="http://www.w3.org/2000/svg">
<path fill-rule="evenodd" clip-rule="evenodd" d="M22.425 10.526L12.9555 18.368C12.6864 18.5909 12.3479 18.7129 11.9985 18.7129C11.6491 18.7129 11.3106 18.5909 11.0415 18.368L1.5765 10.526C1.52571 10.6789 1.49988 10.8389 1.5 11V23C1.5 23.3978 1.65804 23.7794 1.93934 24.0607C2.22064 24.342 2.60218 24.5 3 24.5H21C21.3978 24.5 21.7794 24.342 22.0607 24.0607C22.342 23.7794 22.5 23.3978 22.5 23V11C22.5006 10.839 22.4753 10.679 22.425 10.526ZM3 8H21C21.7956 8 22.5587 8.31607 23.1213 8.87868C23.6839 9.44129 24 10.2044 24 11V23C24 23.7956 23.6839 24.5587 23.1213 25.1213C22.5587 25.6839 21.7956 26 21 26H3C2.20435 26 1.44129 25.6839 0.87868 25.1213C0.316071 24.5587 0 23.7956 0 23V11C0 10.2044 0.316071 9.44129 0.87868 8.87868C1.44129 8.31607 2.20435 8 3 8ZM2.685 9.5L11.049 16.4045C11.3169 16.6258 11.6533 16.7472 12.0007 16.748C12.3481 16.7488 12.6851 16.629 12.954 16.409L21.402 9.5H2.685Z" fill="white"/>
</svg>
