<svg width="24" height="24" viewBox="0 0 24 24" fill="none" xmlns="http://www.w3.org/2000/svg">
<path d="M7.42834 17.1906C7.65336 17.4156 7.99589 17.4742 8.28286 17.3366C12.2438 15.4379 15.4379 12.2438 17.3366 8.28286C17.4742 7.99589 17.4156 7.65336 17.1906 7.42834L15.194 5.43173C15.6353 4.19795 15.9239 2.91415 16.053 1.60895L16.0531 1.60841C16.1029 1.10087 16.5011 0.75 16.9202 0.75H18.4584C21.5128 0.75 23.8086 3.21765 23.1247 5.9058C22.061 10.0555 19.9015 13.8432 16.8723 16.8723C13.8432 19.9015 10.0555 22.061 5.9058 23.1247C3.21765 23.8086 0.75 21.5128 0.75 18.4584V16.9202C0.75 16.5021 1.10135 16.1029 1.6087 16.0515C2.91387 15.9229 4.19772 15.6347 5.4316 15.1939L7.42834 17.1906Z" stroke="white" strokeWidth="1.5" strokeLinecap="round" strokeLinejoin="round"/>
</svg>
