<svg width="24" height="24" viewBox="0 0 24 24" fill="none" xmlns="http://www.w3.org/2000/svg">
<g clip-path="url(#clip0_3038_26945)">
<path d="M3.18538 21.1354C2.64794 21.1354 2.19955 20.9558 1.84022 20.5964C1.48088 20.2371 1.30083 19.7883 1.30005 19.2501V7.85409C1.30005 7.31664 1.4801 6.86825 1.84022 6.50892C2.20033 6.14959 2.64833 5.96953 3.18422 5.96875H8.30005V4.35292C8.30005 3.81625 8.4801 3.36786 8.84022 3.00775C9.20033 2.64764 9.64872 2.46797 10.1854 2.46875H13.4159C13.9525 2.46875 14.4009 2.64842 14.761 3.00775C15.1212 3.36709 15.3008 3.81547 15.3 4.35292V5.96875H20.4159C20.9525 5.96875 21.4005 6.14881 21.7599 6.50892C22.1192 6.86903 22.2993 7.31742 22.3 7.85409V19.2513C22.3 19.7879 22.12 20.2363 21.7599 20.5964C21.3998 20.9565 20.9518 21.1362 20.4159 21.1354H3.18538ZM9.46671 5.96875H14.1334V4.35292C14.1334 4.17403 14.0587 4.00953 13.9094 3.85942C13.76 3.70931 13.5955 3.63464 13.4159 3.63542H10.1842C10.0053 3.63542 9.84083 3.71009 9.69072 3.85942C9.5406 4.00875 9.46594 4.17325 9.46671 4.35292V5.96875ZM21.1334 14.7188H14.1334V16.4688H9.46671V14.7188H2.46672V19.2513C2.46672 19.4301 2.54138 19.5946 2.69072 19.7448C2.84005 19.8949 3.00455 19.9695 3.18422 19.9688H20.4159C20.5948 19.9688 20.7593 19.8941 20.9094 19.7448C21.0595 19.5954 21.1342 19.4305 21.1334 19.2501V14.7188ZM10.6334 15.3021H12.9667V12.9688H10.6334V15.3021ZM2.46672 13.5521H9.46671V11.8021H14.1334V13.5521H21.1334V7.85409C21.1334 7.67442 21.0587 7.50953 20.9094 7.35942C20.76 7.20931 20.5955 7.13464 20.4159 7.13542H3.18422C3.00533 7.13542 2.84083 7.21009 2.69072 7.35942C2.5406 7.50875 2.46594 7.67364 2.46672 7.85409V13.5521Z" fill="#588065" stroke="#588065" stroke-width="0.3"/>
</g>
<defs>
<clipPath id="clip0_3038_26945">
<rect width="24" height="24" fill="white"/>
</clipPath>
</defs>
</svg>
