<svg width="17" height="16" viewBox="0 0 17 16" fill="none" xmlns="http://www.w3.org/2000/svg">
<path d="M14.2962 4.17143L10.2962 0.171429C10.1819 0.0571428 10.0676 0 9.89621 0H4.18192C3.55335 0 3.03906 0.514286 3.03906 1.14286V14.8571C3.03906 15.4857 3.55335 16 4.18192 16H13.3248C13.9533 16 14.4676 15.4857 14.4676 14.8571V4.57143C14.4676 4.4 14.4105 4.28571 14.2962 4.17143ZM9.89621 1.37143L13.0962 4.57143H9.89621V1.37143ZM13.3248 14.8571H4.18192V1.14286H8.75335V4.57143C8.75335 5.2 9.26763 5.71429 9.89621 5.71429H13.3248V14.8571Z" fill="#4B5563"/>
<path d="M5.32422 11.4286H12.1814V12.5714H5.32422V11.4286ZM5.32422 8H12.1814V9.14286H5.32422V8Z" fill="#4B5563"/>
</svg>
