<svg width="16" height="16" viewBox="0 0 16 16" fill="none" xmlns="http://www.w3.org/2000/svg">
<path d="M5.33374 9.99792C5.92496 9.99777 6.49945 10.1941 6.9669 10.5561C7.43434 10.9181 7.76821 11.4252 7.91601 11.9976H15.3322C15.4988 11.9973 15.6594 12.0594 15.7825 12.1716C15.9056 12.2838 15.9822 12.4381 15.9973 12.6039C16.0123 12.7698 15.9647 12.9353 15.8638 13.0679C15.7629 13.2004 15.6161 13.2904 15.4522 13.3201L15.3322 13.3307L7.91601 13.3321C7.76871 13.905 7.43505 14.4127 6.96756 14.7752C6.50007 15.1377 5.92531 15.3344 5.33374 15.3344C4.74218 15.3344 4.16741 15.1377 3.69993 14.7752C3.23244 14.4127 2.89878 13.905 2.75147 13.3321L0.667793 13.3307C0.501224 13.331 0.340576 13.269 0.217485 13.1568C0.094393 13.0445 0.0177782 12.8903 0.00272788 12.7244C-0.0123224 12.5585 0.0352823 12.393 0.136167 12.2605C0.237053 12.1279 0.383907 12.0379 0.547811 12.0083L0.667793 11.9976H2.75147C2.89928 11.4252 3.23315 10.9181 3.70059 10.5561C4.16803 10.1941 4.74253 9.99777 5.33374 9.99792ZM5.33374 11.331C4.98018 11.331 4.64109 11.4715 4.39108 11.7215C4.14107 11.9715 4.00061 12.3106 4.00061 12.6642C4.00061 13.0177 4.14107 13.3568 4.39108 13.6068C4.64109 13.8568 4.98018 13.9973 5.33374 13.9973C5.68731 13.9973 6.0264 13.8568 6.27641 13.6068C6.52642 13.3568 6.66687 13.0177 6.66687 12.6642C6.66687 12.3106 6.52642 11.9715 6.27641 11.7215C6.0264 11.4715 5.68731 11.331 5.33374 11.331ZM10.6663 0.666016C11.2575 0.665865 11.832 0.86222 12.2994 1.2242C12.7669 1.58619 13.1007 2.09327 13.2485 2.66571H15.3322C15.4988 2.6654 15.6594 2.72747 15.7825 2.83969C15.9056 2.95192 15.9822 3.10616 15.9973 3.27204C16.0123 3.43793 15.9647 3.60344 15.8638 3.73599C15.7629 3.86853 15.6161 3.9585 15.4522 3.98817L15.3322 3.99884L13.2485 4.00017C13.1012 4.5731 12.7676 5.08077 12.3001 5.44327C11.8326 5.80576 11.2578 6.00249 10.6663 6.00249C10.0747 6.00249 9.49993 5.80576 9.03244 5.44327C8.56495 5.08077 8.23129 4.5731 8.08399 4.00017L0.667793 3.99884C0.501224 3.99914 0.340576 3.93707 0.217485 3.82485C0.094393 3.71263 0.0177782 3.55839 0.00272788 3.3925C-0.0123224 3.22661 0.0352823 3.0611 0.136167 2.92856C0.237053 2.79602 0.383907 2.70605 0.547811 2.67637L0.667793 2.66571H8.08399C8.23179 2.09327 8.56566 1.58619 9.03311 1.2242C9.50055 0.86222 10.075 0.665865 10.6663 0.666016ZM10.6663 1.99914C10.3127 1.99914 9.9736 2.1396 9.72359 2.38961C9.47358 2.63962 9.33313 2.97871 9.33313 3.33227C9.33313 3.68584 9.47358 4.02493 9.72359 4.27494C9.9736 4.52495 10.3127 4.6654 10.6663 4.6654C11.0198 4.6654 11.3589 4.52495 11.6089 4.27494C11.8589 4.02493 11.9994 3.68584 11.9994 3.33227C11.9994 2.97871 11.8589 2.63962 11.6089 2.38961C11.3589 2.1396 11.0198 1.99914 10.6663 1.99914Z" fill="#E5E7EB"/>
</svg>
