<svg width="24" height="24" viewBox="0 0 24 24" fill="none" xmlns="http://www.w3.org/2000/svg">
<path d="M21.2106 9.75761C21.8114 9.75761 22.3 9.26336 22.3 8.65564V7.31202C22.3 6.90564 22.0793 6.53222 21.7282 6.34184L12.6579 1.39935C12.1222 1.10647 11.4779 1.10647 10.9422 1.39935L1.87194 6.3381C1.51724 6.53213 1.30005 6.90189 1.30005 7.30827V8.65189C1.30005 9.25963 1.78868 9.75386 2.3895 9.75386H2.79127V19.2579C1.96964 19.2652 1.30366 19.9425 1.30366 20.7772V22.0476C1.30366 22.249 1.46654 22.4137 1.66561 22.4137H21.9346C22.1337 22.4137 22.2965 22.249 22.2965 22.0476V20.7772C22.2965 19.9461 21.6305 19.2689 20.8089 19.2579V9.75386H21.2107L21.2106 9.75761ZM2.02016 8.65564V7.31202C2.02016 7.17656 2.09255 7.04842 2.212 6.98619L11.286 2.0437C11.6081 1.86797 11.9918 1.86797 12.3139 2.0437L21.3842 6.98244C21.5037 7.04834 21.5761 7.17282 21.5761 7.30827V8.65189C21.5761 8.85691 21.4096 9.02165 21.2105 9.02165H2.38932C2.18663 9.02165 2.02376 8.85324 2.02376 8.65189L2.02016 8.65564ZM21.5724 20.7811V21.6854H2.02735V20.7811C2.02735 20.3454 2.37481 19.9939 2.80554 19.9939H13.1209C13.1209 19.9939 13.1463 20.0013 13.1571 20.0013V19.9939H20.7942C21.225 19.9939 21.5724 20.3454 21.5724 20.7811ZM7.69895 19.2617H5.70824V12.5877C5.70824 12.0312 6.15344 11.5809 6.70359 11.5809C7.25375 11.5809 7.69895 12.0312 7.69895 12.5877V19.2617ZM12.7952 19.2617H10.8044V12.5877C10.8044 12.0312 11.2496 11.5809 11.7998 11.5809C12.35 11.5809 12.7952 12.0312 12.7952 12.5877V19.2617ZM17.8913 19.2617H15.9006V12.5877C15.9006 12.0312 16.3458 11.5809 16.896 11.5809C17.4461 11.5809 17.8913 12.0312 17.8913 12.5877V19.2617ZM20.0848 19.2617H18.6152V12.5877C18.6152 11.6285 17.8443 10.8487 16.896 10.8487C15.9477 10.8487 15.1767 11.6285 15.1767 12.5877V19.2617H13.519V12.5877C13.519 11.6285 12.7481 10.8487 11.7998 10.8487C10.8515 10.8487 10.0805 11.6285 10.0805 12.5877V19.2617H8.42284V12.5877C8.42284 11.6285 7.6519 10.8487 6.70359 10.8487C5.75528 10.8487 4.98435 11.6285 4.98435 12.5877V19.2617H3.51483V9.76124H20.0847L20.0848 19.2617ZM11.7997 4.16339C10.7935 4.16339 9.97552 4.99078 9.97552 6.00856C9.97552 7.02635 10.7935 7.85374 11.7997 7.85374C12.8059 7.85374 13.6239 7.02635 13.6239 6.00856C13.6239 4.99078 12.8059 4.16339 11.7997 4.16339ZM11.7997 7.11778C11.1953 7.11778 10.6994 6.61987 10.6994 6.00482C10.6994 5.38976 11.1917 4.89185 11.7997 4.89185C12.4078 4.89185 12.9 5.38976 12.9 6.00482C12.9 6.61987 12.4078 7.11778 11.7997 7.11778Z" fill="#588065" stroke="#588065" strokeWidth="0.5"/>
</svg>
