<svg width="24" height="24" viewBox="0 0 24 24" fill="none" xmlns="http://www.w3.org/2000/svg">
<g clip-path="url(#clip0_3038_32748)">
<path d="M11.75 5.32648L11.202 5.83848C11.2722 5.91358 11.357 5.97345 11.4513 6.01438C11.5456 6.05531 11.6472 6.07643 11.75 6.07643C11.8528 6.07643 11.9544 6.05531 12.0487 6.01438C12.143 5.97345 12.2278 5.91358 12.298 5.83848L11.75 5.32648ZM9.184 18.5485C7.734 17.3725 6.042 15.8295 4.718 14.1405C3.379 12.4335 2.5 10.6805 2.5 9.07048H1C1 11.1875 2.13 13.2725 3.537 15.0665C4.959 16.8795 6.747 18.5025 8.239 19.7135L9.184 18.5485ZM2.5 9.07048C2.5 6.16548 3.768 4.37048 5.336 3.75548C6.901 3.14248 9.09 3.58048 11.202 5.83848L12.298 4.81448C9.91 2.26048 7.099 1.45448 4.789 2.35848C2.482 3.26248 1 5.74448 1 9.07048H2.5ZM15.26 19.7125C16.753 18.5015 18.541 16.8785 19.963 15.0655C21.37 13.2715 22.5 11.1865 22.5 9.06848H21C21 10.6805 20.12 12.4325 18.782 14.1395C17.458 15.8285 15.766 17.3715 14.316 18.5475L15.26 19.7125ZM22.5 9.06848C22.5 5.74348 21.018 3.26148 18.71 2.35848C16.4 1.45348 13.59 2.25848 11.202 4.81348L12.298 5.83848C14.41 3.58048 16.599 3.14148 18.164 3.75448C19.732 4.36848 21 6.16448 21 9.06848H22.5ZM8.239 19.7135C9.509 20.7455 10.392 21.5025 11.75 21.5025V20.0025C11.027 20.0025 10.577 19.6785 9.184 18.5485L8.239 19.7135ZM14.316 18.5475C12.923 19.6775 12.473 20.0025 11.75 20.0025V21.5025C13.108 21.5025 13.991 20.7455 15.261 19.7135L14.316 18.5475Z" fill="#588065"/>
<path d="M18.25 8.75H16.25M16.25 8.75H14.25M16.25 8.75V6.75M16.25 8.75V10.75" stroke="#588065" stroke-width="1.5" stroke-linecap="round"/>
</g>
<defs>
<clipPath id="clip0_3038_32748">
<rect width="24" height="24" fill="white"/>
</clipPath>
</defs>
</svg>
