<svg width="15" height="20" viewBox="0 0 15 20" fill="none" xmlns="http://www.w3.org/2000/svg">
<path d="M7.5 2.50003L7.825 2.12003C7.73443 2.04257 7.61918 2 7.5 2C7.38082 2 7.26557 2.04257 7.175 2.12003L7.5 2.50003ZM0.5 8.50003L0.175 8.12003L0 8.27003V8.50003H0.5ZM5.5 16.5V17C5.63261 17 5.75979 16.9474 5.85355 16.8536C5.94732 16.7598 6 16.6326 6 16.5H5.5ZM9.5 16.5H9C9 16.6326 9.05268 16.7598 9.14645 16.8536C9.24021 16.9474 9.36739 17 9.5 17V16.5ZM14.5 8.50003H15V8.27003L14.825 8.12003L14.5 8.50003ZM1.5 17H5.5V16H1.5V17ZM14.825 8.12003L7.825 2.12003L7.175 2.88003L14.175 8.88003L14.825 8.12003ZM7.175 2.12003L0.175 8.12003L0.825 8.88003L7.825 2.88003L7.175 2.12003ZM6 16.5V13.5H5V16.5H6ZM9 13.5V16.5H10V13.5H9ZM9.5 17H13.5V16H9.5V17ZM15 15.5V8.50003H14V15.5H15ZM0 8.50003V15.5H1V8.50003H0ZM7.5 12C7.89782 12 8.27936 12.1581 8.56066 12.4394C8.84196 12.7207 9 13.1022 9 13.5H10C10 12.837 9.73661 12.2011 9.26777 11.7323C8.79893 11.2634 8.16304 11 7.5 11V12ZM7.5 11C6.83696 11 6.20107 11.2634 5.73223 11.7323C5.26339 12.2011 5 12.837 5 13.5H6C6 13.1022 6.15804 12.7207 6.43934 12.4394C6.72064 12.1581 7.10218 12 7.5 12V11ZM13.5 17C13.8978 17 14.2794 16.842 14.5607 16.5607C14.842 16.2794 15 15.8979 15 15.5H14C14 15.6326 13.9473 15.7598 13.8536 15.8536C13.7598 15.9474 13.6326 16 13.5 16V17ZM1.5 16C1.36739 16 1.24021 15.9474 1.14645 15.8536C1.05268 15.7598 1 15.6326 1 15.5H0C0 15.8979 0.158035 16.2794 0.43934 16.5607C0.720644 16.842 1.10218 17 1.5 17V16Z" fill="black"/>
</svg>
