<svg width="16" height="16" viewBox="0 0 16 16" fill="none" xmlns="http://www.w3.org/2000/svg">
<path d="M15.1836 13.1427H14.0407V11.9998H14.6121V9.71414H12.3264V10.2856H11.1836V9.14271C11.1836 8.99116 11.2438 8.84582 11.351 8.73865C11.4581 8.63149 11.6035 8.57129 11.755 8.57129H15.1836C15.3351 8.57129 15.4805 8.63149 15.5876 8.73865C15.6948 8.84582 15.755 8.99116 15.755 9.14271V12.5713C15.755 12.7228 15.6948 12.8682 15.5876 12.9753C15.4805 13.0825 15.3351 13.1427 15.1836 13.1427Z" fill="#4B5563"/>
<path d="M12.3261 15.9998H8.89756C8.74601 15.9998 8.60067 15.9396 8.4935 15.8325C8.38634 15.7253 8.32614 15.58 8.32614 15.4284V11.9999C8.32614 11.8483 8.38634 11.703 8.4935 11.5958C8.60067 11.4886 8.74601 11.4284 8.89756 11.4284H12.3261C12.4777 11.4284 12.623 11.4886 12.7302 11.5958C12.8373 11.703 12.8975 11.8483 12.8975 11.9999V15.4284C12.8975 15.58 12.8373 15.7253 12.7302 15.8325C12.623 15.9396 12.4777 15.9998 12.3261 15.9998ZM9.46899 14.857H11.7547V12.5713H9.46899V14.857ZM7.18329 10.2044C6.7704 10.0968 6.39596 9.87562 6.10248 9.5659C5.809 9.25618 5.60825 8.87038 5.52301 8.4523C5.43778 8.03423 5.47147 7.60062 5.62028 7.20074C5.76909 6.80085 6.02705 6.4507 6.36485 6.19004C6.70266 5.92939 7.10679 5.76868 7.53134 5.72616C7.9559 5.68364 8.38387 5.76102 8.76666 5.9495C9.14945 6.13799 9.47172 6.43003 9.69687 6.79247C9.92203 7.15491 10.041 7.57321 10.0404 7.99989H11.1833C11.1839 7.34607 10.9976 6.70569 10.6463 6.15426C10.295 5.60284 9.79338 5.16335 9.20054 4.88764C8.6077 4.61192 7.94838 4.51147 7.30032 4.59812C6.65227 4.68477 6.04251 4.95492 5.54293 5.3767C5.04335 5.79849 4.67479 6.35433 4.48071 6.97868C4.28663 7.60303 4.27511 8.26986 4.44753 8.90054C4.61994 9.53121 4.9691 10.0994 5.45382 10.5382C5.93854 10.977 6.53861 11.268 7.18329 11.377V10.2044Z" fill="#4B5563"/>
<path d="M15.1207 6.59995L13.8008 7.75994L12.9893 6.94852L14.3665 5.7371L13.0179 3.40569L11.0522 4.06854C10.5916 3.68555 10.0701 3.38232 9.50936 3.1714L9.10365 1.14285H6.40653L6.00082 3.1714C5.43566 3.37656 4.91136 3.68031 4.45226 4.06854L2.49227 3.40569L1.14371 5.7371L2.69799 7.1028C2.59233 7.6943 2.59233 8.29985 2.69799 8.89136L1.14371 10.2628L2.49227 12.5942L4.45797 11.9313C4.91863 12.3143 5.44011 12.6176 6.00082 12.8285L6.40653 14.857H7.18366V15.9999H6.40653C6.14226 15.9997 5.88624 15.9079 5.68204 15.7401C5.47783 15.5724 5.33807 15.3391 5.28654 15.0799L4.99511 13.6399C4.73607 13.5143 4.48596 13.3712 4.24655 13.2113L2.85799 13.6799C2.74 13.7187 2.61647 13.738 2.49227 13.737C2.29151 13.7386 2.09398 13.6864 1.92016 13.586C1.74635 13.4855 1.60256 13.3404 1.50371 13.1656L0.15515 10.8342C0.021772 10.6051 -0.0277907 10.3367 0.0149505 10.075C0.0576916 9.81337 0.190077 9.57471 0.389434 9.39993L1.48657 8.43993C1.47514 8.29136 1.46943 8.14851 1.46943 7.99994C1.46943 7.85137 1.48085 7.70851 1.49228 7.56565L0.389434 6.59995C0.190077 6.42516 0.0576916 6.18651 0.0149505 5.92485C-0.0277907 5.66319 0.021772 5.39481 0.15515 5.16567L1.50371 2.83426C1.60256 2.65952 1.74635 2.51438 1.92016 2.41391C2.09398 2.31344 2.29151 2.26128 2.49227 2.26284C2.61647 2.26189 2.74 2.28119 2.85799 2.31998L4.24083 2.78855C4.48296 2.62992 4.73489 2.48677 4.99511 2.35998L5.28654 0.919993C5.33807 0.660801 5.47783 0.427478 5.68204 0.259739C5.88624 0.092 6.14226 0.000212285 6.40653 0H9.10365C9.36791 0.000212285 9.62394 0.092 9.82814 0.259739C10.0323 0.427478 10.1721 0.660801 10.2236 0.919993L10.5151 2.35998C10.7741 2.48553 11.0242 2.62872 11.2636 2.78855L12.6522 2.31998C12.7702 2.28119 12.8937 2.26189 13.0179 2.26284C13.2187 2.26128 13.4162 2.31344 13.59 2.41391C13.7638 2.51438 13.9076 2.65952 14.0065 2.83426L15.355 5.16567C15.4884 5.39481 15.538 5.66319 15.4952 5.92485C15.4525 6.18651 15.3201 6.42516 15.1207 6.59995Z" fill="#4B5563"/>
</svg>
