<svg width="24" height="24" viewBox="0 0 24 24" fill="none" xmlns="http://www.w3.org/2000/svg">
<path d="M21.75 18.75H20.25V17.25H21V14.25H18V15H16.5V13.5C16.5 13.3011 16.579 13.1103 16.7197 12.9697C16.8603 12.829 17.0511 12.75 17.25 12.75H21.75C21.9489 12.75 22.1397 12.829 22.2803 12.9697C22.421 13.1103 22.5 13.3011 22.5 13.5V18C22.5 18.1989 22.421 18.3897 22.2803 18.5303C22.1397 18.671 21.9489 18.75 21.75 18.75Z" fill="#C026D3"/>
<path d="M18 22.4967H13.5C13.3011 22.4967 13.1103 22.4177 12.9697 22.2771C12.829 22.1364 12.75 21.9457 12.75 21.7467V17.2467C12.75 17.0478 12.829 16.8571 12.9697 16.7164C13.1103 16.5758 13.3011 16.4967 13.5 16.4967H18C18.1989 16.4967 18.3897 16.5758 18.5303 16.7164C18.671 16.8571 18.75 17.0478 18.75 17.2467V21.7467C18.75 21.9457 18.671 22.1364 18.5303 22.2771C18.3897 22.4177 18.1989 22.4967 18 22.4967ZM14.25 20.9967H17.25V17.9967H14.25V20.9967ZM11.25 14.8902C10.7081 14.749 10.2166 14.4587 9.83142 14.0522C9.44623 13.6456 9.18274 13.1393 9.07086 12.5905C8.95899 12.0418 9.00322 11.4727 9.19853 10.9479C9.39385 10.423 9.73242 9.96342 10.1758 9.62131C10.6192 9.2792 11.1496 9.06826 11.7068 9.01246C12.2641 8.95665 12.8258 9.05821 13.3282 9.3056C13.8306 9.55299 14.2536 9.93629 14.5491 10.412C14.8446 10.8877 15.0008 11.4367 15 11.9967H16.5C16.5009 11.1386 16.2563 10.2981 15.7953 9.57435C15.3342 8.85059 14.6758 8.27377 13.8977 7.91188C13.1195 7.55 12.2542 7.41815 11.4036 7.53189C10.553 7.64562 9.75271 8.00019 9.097 8.55379C8.4413 9.10739 7.95757 9.83693 7.70283 10.6564C7.4481 11.4759 7.43299 12.3511 7.65928 13.1789C7.88558 14.0066 8.34384 14.7524 8.98005 15.3283C9.61625 15.9042 10.4039 16.2862 11.25 16.4292V14.8902Z" fill="#C026D3"/>
<path d="M21.6674 10.1625L19.9349 11.685L18.8699 10.62L20.6774 9.03L18.9074 5.97L16.3274 6.84C15.7228 6.33732 15.0384 5.93933 14.3024 5.6625L13.7699 3H10.2299L9.69742 5.6625C8.95565 5.93177 8.26749 6.33044 7.66492 6.84L5.09242 5.97L3.32242 9.03L5.36242 10.8225C5.22375 11.5989 5.22375 12.3936 5.36242 13.17L3.32242 14.97L5.09242 18.03L7.67242 17.16C8.27704 17.6627 8.96148 18.0607 9.69742 18.3375L10.2299 21H11.2499V22.5H10.2299C9.88307 22.4997 9.54704 22.3792 9.27902 22.1591C9.011 21.9389 8.82756 21.6327 8.75992 21.2925L8.37742 19.4025C8.03743 19.2377 7.70916 19.0498 7.39492 18.84L5.57242 19.455C5.41756 19.5059 5.25544 19.5312 5.09242 19.53C4.82892 19.5321 4.56967 19.4636 4.34153 19.3317C4.11339 19.1998 3.92467 19.0094 3.79492 18.78L2.02492 15.72C1.84987 15.4193 1.78481 15.067 1.84091 14.7236C1.89701 14.3801 2.07077 14.0669 2.33242 13.8375L3.77242 12.5775C3.75742 12.3825 3.74992 12.195 3.74992 12C3.74992 11.805 3.76492 11.6175 3.77992 11.43L2.33242 10.1625C2.07077 9.93309 1.89701 9.61985 1.84091 9.27642C1.78481 8.93299 1.84987 8.58074 2.02492 8.28L3.79492 5.22C3.92467 4.99064 4.11339 4.80015 4.34153 4.66828C4.56967 4.53641 4.82892 4.46795 5.09242 4.47C5.25544 4.46875 5.41756 4.49408 5.57242 4.545L7.38742 5.16C7.70522 4.95179 8.03588 4.76392 8.37742 4.5975L8.75992 2.7075C8.82756 2.36731 9.011 2.06107 9.27902 1.84091C9.54704 1.62075 9.88307 1.50028 10.2299 1.5H13.7699C14.1168 1.50028 14.4528 1.62075 14.7208 1.84091C14.9888 2.06107 15.1723 2.36731 15.2399 2.7075L15.6224 4.5975C15.9624 4.76228 16.2907 4.95022 16.6049 5.16L18.4274 4.545C18.5823 4.49408 18.7444 4.46875 18.9074 4.47C19.1709 4.46795 19.4302 4.53641 19.6583 4.66828C19.8865 4.80015 20.0752 4.99064 20.2049 5.22L21.9749 8.28C22.15 8.58074 22.215 8.93299 22.1589 9.27642C22.1028 9.61985 21.9291 9.93309 21.6674 10.1625Z" fill="#C026D3"/>
</svg>
