<svg width="131" height="44" viewBox="0 0 131 44" fill="none" xmlns="http://www.w3.org/2000/svg">
<mask id="path-1-outside-1_185_3245" maskUnits="userSpaceOnUse" x="1" y="1" width="42" height="42" fill="black">
<rect fill="white" x="1" y="1" width="42" height="42"/>
<path d="M12.4028 40.5668C12.5732 40.1489 12.3103 39.9967 12.0551 39.7468C11.6624 39.3632 11.3034 39.1037 10.7282 39.1838C10.5552 39.2075 10.2766 39.0447 10.1832 38.8846C10.1054 38.7518 10.2732 38.4913 10.249 38.2986C10.2126 38.0109 10.1244 37.7241 10.0145 37.4558C9.96438 37.3335 9.74034 37.2701 9.71612 37.1549C9.54052 36.2971 8.78018 35.7894 8.49386 35.002C8.39957 34.7415 8.68589 34.072 8.95145 33.9866C9.38222 33.8476 9.46353 33.4508 9.57512 33.1007C9.69536 32.725 9.88133 32.6194 10.2749 32.6599C10.6685 32.7003 10.8969 32.3836 11.0699 32.0405C11.2844 31.6164 11.5387 31.2134 11.7454 30.7867C11.8414 30.5888 11.9176 30.3539 11.9124 30.1374C11.9063 29.8673 11.844 29.5831 11.7402 29.3333C11.5716 28.9294 11.1434 28.9066 10.8484 28.9998C9.50592 29.4265 8.19024 29.0253 6.86505 28.9514C6.60554 28.9365 6.54932 28.7781 6.57008 28.5669C6.60468 28.2133 6.47493 27.9713 6.20504 27.7355C6.05367 27.6027 5.96803 27.315 5.9663 27.0959C5.95679 26.1826 5.58137 25.792 4.66273 25.8298C4.23369 25.8474 3.98024 25.6679 3.89028 25.2403C3.87298 25.1568 3.84876 25.0644 3.79859 24.9984C3.52438 24.6341 3.60915 24.4441 4.04511 24.3227C4.40323 24.2224 4.72328 23.4226 4.62554 23.0628C4.57623 22.8798 4.5598 22.6713 4.5918 22.4856C4.65408 22.1258 4.57018 21.8706 4.20341 21.7782C3.5832 21.6225 3.28391 21.1527 3.01662 20.616C2.87908 20.3406 2.65937 20.1031 2.45436 19.869C1.95698 19.2989 1.97082 18.6232 2.02705 17.9281C2.053 17.6061 2.0677 17.2762 2.02791 16.9577C1.98812 16.6427 1.96044 16.4272 2.37478 16.3753C2.49502 16.3603 2.67667 16.0568 2.66543 15.8975C2.63082 15.3969 2.78826 15.0353 3.15762 14.7045C3.31937 14.5593 3.43528 14.2663 3.43096 14.0437C3.42058 13.4613 3.32197 12.8815 3.28131 12.2999C3.26661 12.0923 3.2718 11.86 3.35051 11.6753C3.48632 11.3541 3.46988 11.1025 3.24585 10.8271C2.94915 10.462 2.99932 10.3766 3.4422 10.2455C3.68181 10.1743 3.96726 10.1013 4.1221 9.92793C4.3669 9.65343 4.35046 9.30854 4.18006 8.94517C3.94218 8.43839 3.43788 8.06447 3.44134 7.44068C3.4422 7.24184 3.46037 7.04212 3.48891 6.84592C3.50102 6.76321 3.59012 6.69019 3.59618 6.60924C3.69392 5.28775 4.76653 4.76074 5.60473 4.04193C5.6376 4.01377 5.67739 3.99442 5.71285 3.96978C6.26646 3.59058 6.28289 3.45508 5.91008 3.05741C5.99917 2.75739 6.09605 2.52423 6.13411 2.2814C6.16871 2.06057 6.23445 1.94443 6.46368 2.02626C6.8538 2.16439 7.23787 2.31924 7.62971 2.44945C7.98177 2.56647 8.33556 2.69932 8.69887 2.75563C9.26545 2.84361 9.65124 3.52371 9.41336 4.05952C9.29053 4.33579 9.23777 4.64812 9.09331 4.91031C8.89955 5.26224 9.0613 5.50595 9.31821 5.6388C9.87355 5.9265 9.93496 6.35762 9.8476 6.91806C9.74207 7.592 9.70401 8.27651 9.63481 8.95573C9.6028 9.26894 9.69709 9.48362 10.0422 9.4801C10.4419 9.47658 10.8493 9.50474 11.2377 9.43347C12.0395 9.28566 12.8293 9.06922 13.6294 8.90646C13.908 8.84927 14.2038 8.83959 14.4884 8.85807C14.9096 8.88534 15.2133 9.1009 15.3551 9.52937C15.5385 10.0828 15.7643 10.6239 15.9139 11.1852C15.9831 11.4465 15.9693 11.7597 15.9001 12.0245C15.7989 12.4152 15.644 12.7997 15.4606 13.1586C15.1518 13.7613 14.5273 13.9628 13.9841 14.2496C13.1736 14.6772 13.1632 14.6913 13.895 15.2429C14.0567 15.3652 14.2185 15.4884 14.3725 15.6195C14.709 15.9072 15.0498 15.9952 15.4183 15.6776C15.6207 15.5034 15.7997 15.5192 15.8707 15.7963C15.9364 16.0541 16.0073 16.3295 15.9822 16.5882C15.9528 16.8926 15.9987 17.0835 16.2824 17.2313C16.4459 17.3167 16.6128 17.4786 16.6855 17.6466C16.8646 18.0654 17.163 18.3276 17.5557 18.5123C17.8602 18.6558 18.0981 18.8185 18.1318 19.24C18.1699 19.7168 18.9224 19.9306 19.4224 19.6482C19.5098 19.5989 19.5859 19.5285 19.6637 19.4643C20.1109 19.0913 20.2511 18.8168 20.9007 19.4124C21.0754 19.5734 21.4898 19.496 21.7908 19.4766C22.2172 19.4485 22.6428 19.3139 23.0649 19.3297C23.8063 19.3579 24.4922 19.1634 25.1453 18.8696C25.4307 18.7411 25.6626 18.4543 25.8728 18.2C26.2136 17.7874 26.608 17.6105 27.1495 17.629C27.672 17.6475 28.2195 17.622 28.7178 17.4777C29.7428 17.1812 29.8155 16.8917 29.3639 15.894C29.2013 15.5333 29.1364 15.1189 29.0768 14.7212C29.024 14.3657 29.2515 14.2426 29.5638 14.3174C30.3379 14.5039 31.1701 14.5285 31.8249 15.0696C32.0584 15.2623 32.273 15.4919 32.4494 15.7391C32.5809 15.9239 32.6129 16.1799 32.7357 16.3735C32.8153 16.4984 32.9814 16.6515 33.1034 16.648C33.458 16.6366 33.8179 16.5794 34.163 16.4896C34.6007 16.3761 34.9804 16.3911 35.3965 16.6322C36.5305 17.2894 37.7018 17.878 38.8375 18.5326C39.1091 18.6892 39.2934 18.998 39.5252 19.2294C39.7233 19.4265 39.9058 19.6596 40.1411 19.7916C40.6549 20.0793 40.981 21.099 40.7172 21.6181C40.4966 22.0519 40.507 22.5023 40.7405 22.951C40.8322 23.1279 40.8867 23.3505 40.8798 23.5484C40.8469 24.4159 41.1108 25.1911 41.4628 25.968C41.6626 26.4087 41.7085 26.9226 41.8149 27.4065C41.8426 27.5332 41.7967 27.6862 41.8495 27.7953C42.2301 28.5845 41.8158 29.1925 41.4161 29.7987C41.3521 29.8964 41.2137 29.9773 41.0978 29.9993C40.6886 30.0767 40.2726 30.1893 39.8634 30.1735C38.4327 30.1181 37.4163 30.8677 36.483 31.8443C36.1387 32.205 35.7192 32.4901 35.3377 32.8147C34.8109 33.2634 34.2435 33.6725 33.7712 34.1749C32.2704 35.7709 30.8362 37.4329 29.3138 39.0069C28.4392 39.9105 27.4895 40.7542 26.3373 41.305C26.2724 41.3358 26.2075 41.3727 26.1556 41.422C25.3555 42.1769 24.4204 42.0396 23.4732 41.8549C22.8547 41.7344 22.2103 41.7018 21.6169 41.5047C20.6395 41.1809 19.6854 40.7745 18.7373 40.3653C18.2278 40.1454 17.7815 39.7477 17.1699 39.8665C17.0575 39.8885 16.9381 39.8938 16.836 39.9395C15.9485 40.3363 15.0316 40.375 14.0853 40.236C13.8984 40.2087 13.6476 40.2888 13.4971 40.4102C13.036 40.7806 13.049 40.7973 12.4028 40.5668Z"/>
</mask>
<path d="M12.4028 40.5668C12.5732 40.1489 12.3103 39.9967 12.0551 39.7468C11.6624 39.3632 11.3034 39.1037 10.7282 39.1838C10.5552 39.2075 10.2766 39.0447 10.1832 38.8846C10.1054 38.7518 10.2732 38.4913 10.249 38.2986C10.2126 38.0109 10.1244 37.7241 10.0145 37.4558C9.96438 37.3335 9.74034 37.2701 9.71612 37.1549C9.54052 36.2971 8.78018 35.7894 8.49386 35.002C8.39957 34.7415 8.68589 34.072 8.95145 33.9866C9.38222 33.8476 9.46353 33.4508 9.57512 33.1007C9.69536 32.725 9.88133 32.6194 10.2749 32.6599C10.6685 32.7003 10.8969 32.3836 11.0699 32.0405C11.2844 31.6164 11.5387 31.2134 11.7454 30.7867C11.8414 30.5888 11.9176 30.3539 11.9124 30.1374C11.9063 29.8673 11.844 29.5831 11.7402 29.3333C11.5716 28.9294 11.1434 28.9066 10.8484 28.9998C9.50592 29.4265 8.19024 29.0253 6.86505 28.9514C6.60554 28.9365 6.54932 28.7781 6.57008 28.5669C6.60468 28.2133 6.47493 27.9713 6.20504 27.7355C6.05367 27.6027 5.96803 27.315 5.9663 27.0959C5.95679 26.1826 5.58137 25.792 4.66273 25.8298C4.23369 25.8474 3.98024 25.6679 3.89028 25.2403C3.87298 25.1568 3.84876 25.0644 3.79859 24.9984C3.52438 24.6341 3.60915 24.4441 4.04511 24.3227C4.40323 24.2224 4.72328 23.4226 4.62554 23.0628C4.57623 22.8798 4.5598 22.6713 4.5918 22.4856C4.65408 22.1258 4.57018 21.8706 4.20341 21.7782C3.5832 21.6225 3.28391 21.1527 3.01662 20.616C2.87908 20.3406 2.65937 20.1031 2.45436 19.869C1.95698 19.2989 1.97082 18.6232 2.02705 17.9281C2.053 17.6061 2.0677 17.2762 2.02791 16.9577C1.98812 16.6427 1.96044 16.4272 2.37478 16.3753C2.49502 16.3603 2.67667 16.0568 2.66543 15.8975C2.63082 15.3969 2.78826 15.0353 3.15762 14.7045C3.31937 14.5593 3.43528 14.2663 3.43096 14.0437C3.42058 13.4613 3.32197 12.8815 3.28131 12.2999C3.26661 12.0923 3.2718 11.86 3.35051 11.6753C3.48632 11.3541 3.46988 11.1025 3.24585 10.8271C2.94915 10.462 2.99932 10.3766 3.4422 10.2455C3.68181 10.1743 3.96726 10.1013 4.1221 9.92793C4.3669 9.65343 4.35046 9.30854 4.18006 8.94517C3.94218 8.43839 3.43788 8.06447 3.44134 7.44068C3.4422 7.24184 3.46037 7.04212 3.48891 6.84592C3.50102 6.76321 3.59012 6.69019 3.59618 6.60924C3.69392 5.28775 4.76653 4.76074 5.60473 4.04193C5.6376 4.01377 5.67739 3.99442 5.71285 3.96978C6.26646 3.59058 6.28289 3.45508 5.91008 3.05741C5.99917 2.75739 6.09605 2.52423 6.13411 2.2814C6.16871 2.06057 6.23445 1.94443 6.46368 2.02626C6.8538 2.16439 7.23787 2.31924 7.62971 2.44945C7.98177 2.56647 8.33556 2.69932 8.69887 2.75563C9.26545 2.84361 9.65124 3.52371 9.41336 4.05952C9.29053 4.33579 9.23777 4.64812 9.09331 4.91031C8.89955 5.26224 9.0613 5.50595 9.31821 5.6388C9.87355 5.9265 9.93496 6.35762 9.8476 6.91806C9.74207 7.592 9.70401 8.27651 9.63481 8.95573C9.6028 9.26894 9.69709 9.48362 10.0422 9.4801C10.4419 9.47658 10.8493 9.50474 11.2377 9.43347C12.0395 9.28566 12.8293 9.06922 13.6294 8.90646C13.908 8.84927 14.2038 8.83959 14.4884 8.85807C14.9096 8.88534 15.2133 9.1009 15.3551 9.52937C15.5385 10.0828 15.7643 10.6239 15.9139 11.1852C15.9831 11.4465 15.9693 11.7597 15.9001 12.0245C15.7989 12.4152 15.644 12.7997 15.4606 13.1586C15.1518 13.7613 14.5273 13.9628 13.9841 14.2496C13.1736 14.6772 13.1632 14.6913 13.895 15.2429C14.0567 15.3652 14.2185 15.4884 14.3725 15.6195C14.709 15.9072 15.0498 15.9952 15.4183 15.6776C15.6207 15.5034 15.7997 15.5192 15.8707 15.7963C15.9364 16.0541 16.0073 16.3295 15.9822 16.5882C15.9528 16.8926 15.9987 17.0835 16.2824 17.2313C16.4459 17.3167 16.6128 17.4786 16.6855 17.6466C16.8646 18.0654 17.163 18.3276 17.5557 18.5123C17.8602 18.6558 18.0981 18.8185 18.1318 19.24C18.1699 19.7168 18.9224 19.9306 19.4224 19.6482C19.5098 19.5989 19.5859 19.5285 19.6637 19.4643C20.1109 19.0913 20.2511 18.8168 20.9007 19.4124C21.0754 19.5734 21.4898 19.496 21.7908 19.4766C22.2172 19.4485 22.6428 19.3139 23.0649 19.3297C23.8063 19.3579 24.4922 19.1634 25.1453 18.8696C25.4307 18.7411 25.6626 18.4543 25.8728 18.2C26.2136 17.7874 26.608 17.6105 27.1495 17.629C27.672 17.6475 28.2195 17.622 28.7178 17.4777C29.7428 17.1812 29.8155 16.8917 29.3639 15.894C29.2013 15.5333 29.1364 15.1189 29.0768 14.7212C29.024 14.3657 29.2515 14.2426 29.5638 14.3174C30.3379 14.5039 31.1701 14.5285 31.8249 15.0696C32.0584 15.2623 32.273 15.4919 32.4494 15.7391C32.5809 15.9239 32.6129 16.1799 32.7357 16.3735C32.8153 16.4984 32.9814 16.6515 33.1034 16.648C33.458 16.6366 33.8179 16.5794 34.163 16.4896C34.6007 16.3761 34.9804 16.3911 35.3965 16.6322C36.5305 17.2894 37.7018 17.878 38.8375 18.5326C39.1091 18.6892 39.2934 18.998 39.5252 19.2294C39.7233 19.4265 39.9058 19.6596 40.1411 19.7916C40.6549 20.0793 40.981 21.099 40.7172 21.6181C40.4966 22.0519 40.507 22.5023 40.7405 22.951C40.8322 23.1279 40.8867 23.3505 40.8798 23.5484C40.8469 24.4159 41.1108 25.1911 41.4628 25.968C41.6626 26.4087 41.7085 26.9226 41.8149 27.4065C41.8426 27.5332 41.7967 27.6862 41.8495 27.7953C42.2301 28.5845 41.8158 29.1925 41.4161 29.7987C41.3521 29.8964 41.2137 29.9773 41.0978 29.9993C40.6886 30.0767 40.2726 30.1893 39.8634 30.1735C38.4327 30.1181 37.4163 30.8677 36.483 31.8443C36.1387 32.205 35.7192 32.4901 35.3377 32.8147C34.8109 33.2634 34.2435 33.6725 33.7712 34.1749C32.2704 35.7709 30.8362 37.4329 29.3138 39.0069C28.4392 39.9105 27.4895 40.7542 26.3373 41.305C26.2724 41.3358 26.2075 41.3727 26.1556 41.422C25.3555 42.1769 24.4204 42.0396 23.4732 41.8549C22.8547 41.7344 22.2103 41.7018 21.6169 41.5047C20.6395 41.1809 19.6854 40.7745 18.7373 40.3653C18.2278 40.1454 17.7815 39.7477 17.1699 39.8665C17.0575 39.8885 16.9381 39.8938 16.836 39.9395C15.9485 40.3363 15.0316 40.375 14.0853 40.236C13.8984 40.2087 13.6476 40.2888 13.4971 40.4102C13.036 40.7806 13.049 40.7973 12.4028 40.5668Z" fill="#B1D362"/>
<path d="M12.4028 40.5668C12.5732 40.1489 12.3103 39.9967 12.0551 39.7468C11.6624 39.3632 11.3034 39.1037 10.7282 39.1838C10.5552 39.2075 10.2766 39.0447 10.1832 38.8846C10.1054 38.7518 10.2732 38.4913 10.249 38.2986C10.2126 38.0109 10.1244 37.7241 10.0145 37.4558C9.96438 37.3335 9.74034 37.2701 9.71612 37.1549C9.54052 36.2971 8.78018 35.7894 8.49386 35.002C8.39957 34.7415 8.68589 34.072 8.95145 33.9866C9.38222 33.8476 9.46353 33.4508 9.57512 33.1007C9.69536 32.725 9.88133 32.6194 10.2749 32.6599C10.6685 32.7003 10.8969 32.3836 11.0699 32.0405C11.2844 31.6164 11.5387 31.2134 11.7454 30.7867C11.8414 30.5888 11.9176 30.3539 11.9124 30.1374C11.9063 29.8673 11.844 29.5831 11.7402 29.3333C11.5716 28.9294 11.1434 28.9066 10.8484 28.9998C9.50592 29.4265 8.19024 29.0253 6.86505 28.9514C6.60554 28.9365 6.54932 28.7781 6.57008 28.5669C6.60468 28.2133 6.47493 27.9713 6.20504 27.7355C6.05367 27.6027 5.96803 27.315 5.9663 27.0959C5.95679 26.1826 5.58137 25.792 4.66273 25.8298C4.23369 25.8474 3.98024 25.6679 3.89028 25.2403C3.87298 25.1568 3.84876 25.0644 3.79859 24.9984C3.52438 24.6341 3.60915 24.4441 4.04511 24.3227C4.40323 24.2224 4.72328 23.4226 4.62554 23.0628C4.57623 22.8798 4.5598 22.6713 4.5918 22.4856C4.65408 22.1258 4.57018 21.8706 4.20341 21.7782C3.5832 21.6225 3.28391 21.1527 3.01662 20.616C2.87908 20.3406 2.65937 20.1031 2.45436 19.869C1.95698 19.2989 1.97082 18.6232 2.02705 17.9281C2.053 17.6061 2.0677 17.2762 2.02791 16.9577C1.98812 16.6427 1.96044 16.4272 2.37478 16.3753C2.49502 16.3603 2.67667 16.0568 2.66543 15.8975C2.63082 15.3969 2.78826 15.0353 3.15762 14.7045C3.31937 14.5593 3.43528 14.2663 3.43096 14.0437C3.42058 13.4613 3.32197 12.8815 3.28131 12.2999C3.26661 12.0923 3.2718 11.86 3.35051 11.6753C3.48632 11.3541 3.46988 11.1025 3.24585 10.8271C2.94915 10.462 2.99932 10.3766 3.4422 10.2455C3.68181 10.1743 3.96726 10.1013 4.1221 9.92793C4.3669 9.65343 4.35046 9.30854 4.18006 8.94517C3.94218 8.43839 3.43788 8.06447 3.44134 7.44068C3.4422 7.24184 3.46037 7.04212 3.48891 6.84592C3.50102 6.76321 3.59012 6.69019 3.59618 6.60924C3.69392 5.28775 4.76653 4.76074 5.60473 4.04193C5.6376 4.01377 5.67739 3.99442 5.71285 3.96978C6.26646 3.59058 6.28289 3.45508 5.91008 3.05741C5.99917 2.75739 6.09605 2.52423 6.13411 2.2814C6.16871 2.06057 6.23445 1.94443 6.46368 2.02626C6.8538 2.16439 7.23787 2.31924 7.62971 2.44945C7.98177 2.56647 8.33556 2.69932 8.69887 2.75563C9.26545 2.84361 9.65124 3.52371 9.41336 4.05952C9.29053 4.33579 9.23777 4.64812 9.09331 4.91031C8.89955 5.26224 9.0613 5.50595 9.31821 5.6388C9.87355 5.9265 9.93496 6.35762 9.8476 6.91806C9.74207 7.592 9.70401 8.27651 9.63481 8.95573C9.6028 9.26894 9.69709 9.48362 10.0422 9.4801C10.4419 9.47658 10.8493 9.50474 11.2377 9.43347C12.0395 9.28566 12.8293 9.06922 13.6294 8.90646C13.908 8.84927 14.2038 8.83959 14.4884 8.85807C14.9096 8.88534 15.2133 9.1009 15.3551 9.52937C15.5385 10.0828 15.7643 10.6239 15.9139 11.1852C15.9831 11.4465 15.9693 11.7597 15.9001 12.0245C15.7989 12.4152 15.644 12.7997 15.4606 13.1586C15.1518 13.7613 14.5273 13.9628 13.9841 14.2496C13.1736 14.6772 13.1632 14.6913 13.895 15.2429C14.0567 15.3652 14.2185 15.4884 14.3725 15.6195C14.709 15.9072 15.0498 15.9952 15.4183 15.6776C15.6207 15.5034 15.7997 15.5192 15.8707 15.7963C15.9364 16.0541 16.0073 16.3295 15.9822 16.5882C15.9528 16.8926 15.9987 17.0835 16.2824 17.2313C16.4459 17.3167 16.6128 17.4786 16.6855 17.6466C16.8646 18.0654 17.163 18.3276 17.5557 18.5123C17.8602 18.6558 18.0981 18.8185 18.1318 19.24C18.1699 19.7168 18.9224 19.9306 19.4224 19.6482C19.5098 19.5989 19.5859 19.5285 19.6637 19.4643C20.1109 19.0913 20.2511 18.8168 20.9007 19.4124C21.0754 19.5734 21.4898 19.496 21.7908 19.4766C22.2172 19.4485 22.6428 19.3139 23.0649 19.3297C23.8063 19.3579 24.4922 19.1634 25.1453 18.8696C25.4307 18.7411 25.6626 18.4543 25.8728 18.2C26.2136 17.7874 26.608 17.6105 27.1495 17.629C27.672 17.6475 28.2195 17.622 28.7178 17.4777C29.7428 17.1812 29.8155 16.8917 29.3639 15.894C29.2013 15.5333 29.1364 15.1189 29.0768 14.7212C29.024 14.3657 29.2515 14.2426 29.5638 14.3174C30.3379 14.5039 31.1701 14.5285 31.8249 15.0696C32.0584 15.2623 32.273 15.4919 32.4494 15.7391C32.5809 15.9239 32.6129 16.1799 32.7357 16.3735C32.8153 16.4984 32.9814 16.6515 33.1034 16.648C33.458 16.6366 33.8179 16.5794 34.163 16.4896C34.6007 16.3761 34.9804 16.3911 35.3965 16.6322C36.5305 17.2894 37.7018 17.878 38.8375 18.5326C39.1091 18.6892 39.2934 18.998 39.5252 19.2294C39.7233 19.4265 39.9058 19.6596 40.1411 19.7916C40.6549 20.0793 40.981 21.099 40.7172 21.6181C40.4966 22.0519 40.507 22.5023 40.7405 22.951C40.8322 23.1279 40.8867 23.3505 40.8798 23.5484C40.8469 24.4159 41.1108 25.1911 41.4628 25.968C41.6626 26.4087 41.7085 26.9226 41.8149 27.4065C41.8426 27.5332 41.7967 27.6862 41.8495 27.7953C42.2301 28.5845 41.8158 29.1925 41.4161 29.7987C41.3521 29.8964 41.2137 29.9773 41.0978 29.9993C40.6886 30.0767 40.2726 30.1893 39.8634 30.1735C38.4327 30.1181 37.4163 30.8677 36.483 31.8443C36.1387 32.205 35.7192 32.4901 35.3377 32.8147C34.8109 33.2634 34.2435 33.6725 33.7712 34.1749C32.2704 35.7709 30.8362 37.4329 29.3138 39.0069C28.4392 39.9105 27.4895 40.7542 26.3373 41.305C26.2724 41.3358 26.2075 41.3727 26.1556 41.422C25.3555 42.1769 24.4204 42.0396 23.4732 41.8549C22.8547 41.7344 22.2103 41.7018 21.6169 41.5047C20.6395 41.1809 19.6854 40.7745 18.7373 40.3653C18.2278 40.1454 17.7815 39.7477 17.1699 39.8665C17.0575 39.8885 16.9381 39.8938 16.836 39.9395C15.9485 40.3363 15.0316 40.375 14.0853 40.236C13.8984 40.2087 13.6476 40.2888 13.4971 40.4102C13.036 40.7806 13.049 40.7973 12.4028 40.5668Z" stroke="#B1D362" mask="url(#path-1-outside-1_185_3245)"/>
<path d="M56.24 12.12H63.94C65.4707 12.12 66.7867 12.372 67.888 12.876C69.008 13.38 69.8667 14.108 70.464 15.06C71.0613 16.012 71.36 17.1413 71.36 18.448C71.36 19.7733 71.0613 20.9213 70.464 21.892C69.8667 22.844 69.008 23.572 67.888 24.076C66.7867 24.58 65.4707 24.832 63.94 24.832H59.88V32H56.24V12.12ZM63.772 21.668C65.004 21.668 65.9467 21.3973 66.6 20.856C67.272 20.3147 67.608 19.512 67.608 18.448C67.608 17.4213 67.272 16.6373 66.6 16.096C65.9467 15.5547 65.004 15.284 63.772 15.284H59.88V21.668H63.772ZM74.2738 12.12H77.9138V30.88L75.9258 28.836H87.3498V32H74.2738V12.12ZM96.6403 32.448C94.9976 32.448 93.5789 32.168 92.3843 31.608C91.1896 31.0293 90.2469 30.2173 89.5563 29.172C88.8656 28.1267 88.4643 26.9133 88.3523 25.532L92.0483 25.308C92.1789 26.1853 92.4309 26.9227 92.8043 27.52C93.1776 28.0987 93.6816 28.5467 94.3163 28.864C94.9696 29.1627 95.7629 29.312 96.6963 29.312C97.8723 29.312 98.7776 29.0973 99.4123 28.668C100.066 28.22 100.392 27.576 100.392 26.736C100.392 26.1947 100.262 25.7373 100 25.364C99.7389 24.972 99.2629 24.6173 98.5723 24.3C97.8816 23.964 96.8736 23.6373 95.5483 23.32C93.8496 22.928 92.5149 22.4987 91.5443 22.032C90.5736 21.5467 89.8643 20.9493 89.4163 20.24C88.9869 19.5307 88.7723 18.6347 88.7723 17.552C88.7723 16.3947 89.0523 15.3773 89.6123 14.5C90.1909 13.604 91.0216 12.9133 92.1043 12.428C93.1869 11.924 94.4656 11.672 95.9403 11.672C97.4709 11.672 98.7963 11.952 99.9163 12.512C101.036 13.072 101.914 13.8467 102.548 14.836C103.183 15.8253 103.575 16.9733 103.724 18.28L100.056 18.448C99.9816 17.72 99.7669 17.0853 99.4123 16.544C99.0576 15.984 98.5816 15.5547 97.9843 15.256C97.4056 14.9573 96.7056 14.808 95.8843 14.808C94.8389 14.808 94.0083 15.0507 93.3923 15.536C92.7763 16.0027 92.4683 16.628 92.4683 17.412C92.4683 17.9533 92.5989 18.4013 92.8603 18.756C93.1216 19.1107 93.5603 19.4187 94.1763 19.68C94.8109 19.9227 95.7349 20.184 96.9483 20.464C98.7029 20.8373 100.103 21.3133 101.148 21.892C102.194 22.452 102.94 23.1147 103.388 23.88C103.855 24.6267 104.088 25.5133 104.088 26.54C104.088 27.7347 103.78 28.78 103.164 29.676C102.548 30.5533 101.671 31.2347 100.532 31.72C99.4123 32.2053 98.1149 32.448 96.6403 32.448ZM105.613 28.08H109.729V32H105.613V28.08ZM120.087 32.448C118.221 32.448 116.597 32.0093 115.215 31.132C113.853 30.2547 112.807 29.0413 112.079 27.492C111.351 25.924 110.987 24.1227 110.987 22.088C110.987 20.0907 111.361 18.308 112.107 16.74C112.854 15.1533 113.918 13.912 115.299 13.016C116.699 12.12 118.351 11.672 120.255 11.672C122.682 11.672 124.586 12.2787 125.967 13.492C127.367 14.7053 128.282 16.376 128.711 18.504L124.931 18.7C124.707 17.468 124.213 16.516 123.447 15.844C122.701 15.172 121.646 14.836 120.283 14.836C118.473 14.836 117.101 15.5173 116.167 16.88C115.234 18.224 114.767 19.96 114.767 22.088C114.767 23.5067 114.963 24.7573 115.355 25.84C115.747 26.9227 116.363 27.772 117.203 28.388C118.043 28.9853 119.089 29.284 120.339 29.284C121.291 29.284 122.122 29.0787 122.831 28.668C123.559 28.2573 124.129 27.6973 124.539 26.988C124.95 26.2787 125.183 25.476 125.239 24.58H120.311V21.752H128.767V32H126.415L126.191 27.632L126.639 27.912C126.453 28.7893 126.042 29.5733 125.407 30.264C124.791 30.9547 124.017 31.496 123.083 31.888C122.15 32.2613 121.151 32.448 120.087 32.448Z" fill="#B1D362"/>
</svg>
