<svg width="16" height="16" viewBox="0 0 16 16" fill="none" xmlns="http://www.w3.org/2000/svg">
<path d="M15.1831 13.1427H14.0402V11.9998H14.6116V9.71414H12.326V10.2856H11.1831V9.14271C11.1831 8.99116 11.2433 8.84582 11.3505 8.73865C11.4576 8.63149 11.603 8.57129 11.7545 8.57129H15.1831C15.3346 8.57129 15.48 8.63149 15.5871 8.73865C15.6943 8.84582 15.7545 8.99116 15.7545 9.14271V12.5713C15.7545 12.7228 15.6943 12.8682 15.5871 12.9753C15.48 13.0825 15.3346 13.1427 15.1831 13.1427Z" fill="currentColor" fill-opacity="0.6"/>
<path d="M12.3256 16.0003H8.89707C8.74552 16.0003 8.60018 15.9401 8.49302 15.8329C8.38585 15.7258 8.32565 15.5804 8.32565 15.4289V12.0003C8.32565 11.8488 8.38585 11.7035 8.49302 11.5963C8.60018 11.4891 8.74552 11.4289 8.89707 11.4289H12.3256C12.4772 11.4289 12.6225 11.4891 12.7297 11.5963C12.8368 11.7035 12.897 11.8488 12.897 12.0003V15.4289C12.897 15.5804 12.8368 15.7258 12.7297 15.8329C12.6225 15.9401 12.4772 16.0003 12.3256 16.0003ZM9.4685 14.8575H11.7542V12.5718H9.4685V14.8575ZM7.1828 10.2049C6.76991 10.0973 6.39547 9.87611 6.10199 9.56639C5.80851 9.25667 5.60776 8.87087 5.52252 8.45279C5.43729 8.03471 5.47099 7.60111 5.61979 7.20122C5.7686 6.80134 6.02656 6.45118 6.36437 6.19053C6.70217 5.92988 7.1063 5.76917 7.53086 5.72665C7.95541 5.68413 8.38338 5.76151 8.76617 5.94999C9.14896 6.13848 9.47123 6.43052 9.69638 6.79296C9.92154 7.15539 10.0406 7.5737 10.0399 8.00038H11.1828C11.1834 7.34656 10.9971 6.70618 10.6458 6.15475C10.2945 5.60333 9.79289 5.16384 9.20005 4.88813C8.60721 4.61241 7.94789 4.51195 7.29984 4.59861C6.65178 4.68526 6.04202 4.9554 5.54244 5.37719C5.04286 5.79898 4.6743 6.35482 4.48022 6.97917C4.28614 7.60352 4.27463 8.27034 4.44704 8.90102C4.61946 9.5317 4.96861 10.0999 5.45333 10.5387C5.93805 10.9775 6.53813 11.2685 7.1828 11.3775V10.2049Z" fill="currentColor" fill-opacity="0.6"/>
<path d="M15.1207 6.59995L13.8008 7.75994L12.9893 6.94852L14.3665 5.7371L13.0179 3.40569L11.0522 4.06854C10.5916 3.68555 10.0701 3.38232 9.50936 3.1714L9.10365 1.14285H6.40653L6.00082 3.1714C5.43566 3.37656 4.91136 3.68031 4.45226 4.06854L2.49227 3.40569L1.14371 5.7371L2.69799 7.1028C2.59233 7.6943 2.59233 8.29985 2.69799 8.89136L1.14371 10.2628L2.49227 12.5942L4.45797 11.9313C4.91863 12.3143 5.44011 12.6176 6.00082 12.8285L6.40653 14.857H7.18366V15.9999H6.40653C6.14226 15.9997 5.88624 15.9079 5.68204 15.7401C5.47783 15.5724 5.33807 15.3391 5.28654 15.0799L4.99511 13.6399C4.73607 13.5143 4.48596 13.3712 4.24655 13.2113L2.85799 13.6799C2.74 13.7187 2.61647 13.738 2.49227 13.737C2.29151 13.7386 2.09398 13.6864 1.92016 13.586C1.74635 13.4855 1.60256 13.3404 1.50371 13.1656L0.15515 10.8342C0.021772 10.6051 -0.0277907 10.3367 0.0149505 10.075C0.0576916 9.81337 0.190077 9.57471 0.389434 9.39993L1.48657 8.43993C1.47514 8.29136 1.46943 8.14851 1.46943 7.99994C1.46943 7.85137 1.48085 7.70851 1.49228 7.56565L0.389434 6.59995C0.190077 6.42516 0.0576916 6.18651 0.0149505 5.92485C-0.0277907 5.66319 0.021772 5.39481 0.15515 5.16567L1.50371 2.83426C1.60256 2.65952 1.74635 2.51438 1.92016 2.41391C2.09398 2.31344 2.29151 2.26128 2.49227 2.26284C2.61647 2.26189 2.74 2.28119 2.85799 2.31998L4.24083 2.78855C4.48296 2.62992 4.73489 2.48677 4.99511 2.35998L5.28654 0.919993C5.33807 0.660801 5.47783 0.427478 5.68204 0.259739C5.88624 0.092 6.14226 0.000212285 6.40653 0H9.10365C9.36791 0.000212285 9.62394 0.092 9.82814 0.259739C10.0323 0.427478 10.1721 0.660801 10.2236 0.919993L10.5151 2.35998C10.7741 2.48553 11.0242 2.62872 11.2636 2.78855L12.6522 2.31998C12.7702 2.28119 12.8937 2.26189 13.0179 2.26284C13.2187 2.26128 13.4162 2.31344 13.59 2.41391C13.7638 2.51438 13.9076 2.65952 14.0065 2.83426L15.355 5.16567C15.4884 5.39481 15.538 5.66319 15.4952 5.92485C15.4525 6.18651 15.3201 6.42516 15.1207 6.59995Z" fill="currentColor" fill-opacity="0.6"/>
</svg>
