<svg width="558" height="700" viewBox="0 0 558 700" fill="none" xmlns="http://www.w3.org/2000/svg">
<path d="M59.2225 41.3324C57.1197 38.0121 55.2382 35.0682 55.2382 35.0682L53.3568 26.4356L43.5954 17.8031L42.4665 0.537979L52.6042 -15.5982L52.9805 -36.25C52.9805 -36.25 56.7434 -45.6351 61.9893 -48.6454C67.2353 -51.6558 83.7699 -66.6631 83.7699 -66.6631L110.044 -83.9282C110.044 -83.9282 124.675 -89.9268 122.439 -106.816C122.439 -106.816 113.807 -114.319 122.439 -125.962C131.072 -137.605 126.202 -129.725 126.202 -129.725L131.072 -144.732L137.823 -140.239H147.961C147.961 -140.239 147.208 -142.873 155.088 -138.734C162.968 -134.595 170.095 -133.112 170.095 -133.112L178.728 -125.984H192.607L208.366 -123.727C208.366 -123.727 215.118 -123.727 218.128 -116.223C221.138 -108.719 226.008 -99.7103 226.008 -99.7103V-87.6912L215.87 -76.0483L216.246 -65.5343L213.612 -61.0409V-46.4099L232.006 -34.3907C232.006 -34.3907 239.51 -32.5092 239.51 -21.6189C239.51 -10.7286 237.629 -9.59975 237.629 -9.59975L234.995 14.4165C234.995 14.4165 230.501 35.8208 230.125 42.9482C229.749 50.0756 228.62 56.8267 226.738 59.0844C226.738 59.0844 208.566 63.3343 203.851 63.0466C199.114 62.7588 194.112 64.441 190.769 67.23C187.427 70.019 182.425 75.8625 176.847 76.6815C171.291 77.5227 167.107 85.3141 167.107 85.3141L156.261 95.0534L152.366 100.344L149.577 104.793L144.286 109.242L141.232 116.192L138.443 122.589C138.443 122.589 136.495 124.825 140.103 130.093C143.711 135.383 146.876 147.668 145.659 149.859C141.475 157.429 139.527 157.097 139.527 157.097L132.577 169.072C132.577 169.072 125.339 176.576 126.18 186.337C127.021 196.076 126.114 197.471 126.114 197.471C126.114 197.471 126.733 204.156 113.94 211.106C101.146 218.056 99.1979 220.292 99.1979 220.292L92.5132 222.24L85.2751 225.582L73.3002 226.977C73.3002 226.977 66.9475 233.705 55.7695 231.16C51.8737 230.275 44.6357 230.053 44.6357 230.053L34.9185 220.889L42.7985 211.881L43.9274 202.119L40.917 193.863L43.9274 177.35L42.4222 160.462C42.4222 160.462 42.0459 150.7 39.7882 148.066C37.5304 145.432 36.7778 134.564 40.917 129.672C45.0562 124.802 51.4311 118.029 41.6696 109.397C31.9082 100.764 31.9082 100.764 31.9082 100.764C31.9082 100.764 33.4134 87.2619 45.0562 87.9924C56.6991 88.745 73.9642 89.1213 72.4591 71.8562C70.9539 54.5911 64.9554 50.4519 64.9554 50.4519C64.9554 50.4519 61.9229 45.5822 59.2225 41.3324Z" fill="#284F51" stroke="#638283" strokeWidth="1.5"/>
<path d="M245.127 146.742C249.753 135.187 243.91 122.017 239.505 114.956C235.1 107.895 234.945 101.233 234.945 101.233V87.7967L238.487 84.9413L240.125 78.8321C240.125 78.8321 244.065 70.0004 244.109 69.9118C247.894 70.3102 253.494 70.5316 258.718 69.2257C267.727 66.9679 291.367 63.9797 291.367 63.9797L326.273 52.7131L346.549 50.4554L374.704 50.0791L381.832 51.9605C381.832 51.9605 392.722 56.8302 396.086 64.356C399.451 71.8818 401.332 83.5026 401.332 83.5026C401.332 83.5026 403.59 93.6403 406.578 98.1336C409.589 102.627 411.448 106.39 412.953 115.022C414.458 123.655 415.963 134.169 415.963 134.169C415.963 134.169 415.587 142.049 412.2 145.059C408.814 148.07 406.202 158.562 406.202 158.562C406.202 158.562 405.073 182.201 379.175 194.973C353.278 207.745 348.386 209.604 348.386 209.604L342.011 213.367C342.011 213.367 336.367 215.492 338.669 219.521C338.647 219.521 331.564 222.819 331.564 222.819L319.456 229.769L316.136 234.307L309.783 235.524L301.305 245.817L284.372 244.002L277.112 242.497L271.069 242.806C271.069 242.806 243.666 235.015 240.523 212.26C238.332 196.301 238.708 194.42 238.708 194.42L235.676 191.1C235.676 191.1 234.746 183.972 236.163 173.834C237.247 165.955 239.749 156.304 245.127 146.742Z" fill="#284F51" stroke="#638283" strokeWidth="1.5"/>
<path d="M252.643 392.175C252.643 392.175 254.723 395.318 258.043 401.317C261.386 407.315 266.698 411.653 266.698 411.653L276.703 415.992C276.703 415.992 291.024 430.645 293.039 433.323C295.031 435.98 310.702 452.647 310.702 452.647L320.375 468.65V485.65V501.653C320.375 501.653 320.375 510.662 323.031 515.311C325.687 519.981 326.019 530.008 325.023 538.154C324.027 546.299 322.699 550.97 322.699 550.97L319.711 564.627L316.723 582.954C316.723 582.954 314.908 593.114 309.795 601.791C317.188 597.652 320.043 608.963 322.721 617.285C325.377 625.608 322.721 643.604 322.721 648.274C322.721 662.042 337.374 646.282 337.374 646.282L342.709 640.947L349.703 636.941L355.038 625.608H360.372L369.027 613.943L384.012 597.276H390.343L396.673 590.281L402.672 588.621L421.132 580.962L419.339 572.64L414.669 566.973C414.669 566.973 410.995 560.975 409.003 557.986C407.01 554.976 405.66 535.32 407.674 526.666C409.667 518.011 407.674 518.011 405.682 514.005C403.69 509.998 408.006 502.672 408.006 502.672L404.332 487.686C404.332 487.686 399.662 472.015 400.99 462.032C402.318 452.027 408.98 445.697 408.98 445.697L412.655 437.042L419.981 426.085L421.641 419.378L423.966 411.056C423.966 411.056 424.298 399.723 427.95 390.072C431.602 380.399 424.298 367.738 424.298 367.738C424.298 367.738 424.962 366.41 415.975 336.749C406.988 307.089 441.452 314.415 441.452 314.415L439.194 305.407C439.194 305.407 433.196 299.032 433.948 293.387C434.701 287.765 422.682 289.625 422.682 289.625C422.682 289.625 420.048 288.496 417.037 285.131C414.027 281.745 411.792 286.636 415.909 270.876C420.048 255.116 411.415 241.592 411.415 241.592C411.415 241.592 403.912 232.96 394.903 242.721C385.894 252.482 385.518 247.591 376.885 246.108C368.252 244.602 364.49 239.357 364.49 239.357C364.49 239.357 351.718 229.595 342.355 223.22C340.385 221.892 339.234 220.697 338.636 219.612C338.614 219.612 331.531 222.91 331.531 222.91L319.423 229.861L316.103 234.398L309.75 235.616L301.273 245.908C301.273 245.908 305.5 251.663 307.935 258.016C310.37 264.369 316.103 268.309 320.331 269.504C324.558 270.721 333.036 274.352 330.004 288.562C326.971 302.773 311.255 309.125 311.255 309.125C311.255 309.125 297.643 315.168 294.322 315.478C291.002 315.788 284.937 317.293 283.122 322.428C281.307 327.563 277.677 326.656 273.139 329.091C268.602 331.504 264.972 325.771 262.559 343.611C260.213 361.319 265.946 367.672 252.643 392.175Z" fill="#284F51" stroke="#638283" strokeWidth="1.5"/>
<path d="M539.371 487.697C538.663 485.705 537.976 483.69 537.976 483.69C537.976 483.69 535.32 478.599 531.314 470.609C527.307 462.618 518.653 458.944 518.653 458.944C517.657 449.935 517.989 444.29 529.034 443.604C540.079 442.918 537.667 425.963 537.667 425.963C537.667 425.963 532 424.258 538.663 408.941C545.325 393.602 533.992 393.602 533.992 393.602C533.992 393.602 528.326 393.934 521.065 390.946C513.805 387.935 518.985 378.617 520.645 372.286C522.283 366.022 518.476 354.113 518.387 353.826C510.684 358.319 499.993 358.961 489.523 357.456C476.375 355.574 478.633 346.189 478.633 346.189C478.633 346.189 476.752 342.05 476.375 337.933C475.999 333.816 474.494 329.677 466.99 327.043C459.487 324.409 453.488 318.034 453.488 318.034L447.49 315.776L441.491 314.271C441.491 314.271 407.005 306.944 416.014 336.605C425.023 366.265 424.337 367.593 424.337 367.593C424.337 367.593 431.663 380.255 427.989 389.927C424.337 399.6 424.005 410.911 424.005 410.911L421.68 419.234L420.02 425.941L412.694 436.897L409.019 445.552C409.019 445.552 402.357 451.883 401.029 461.888C399.701 471.892 404.371 487.542 404.371 487.542L408.045 502.527C408.045 502.527 403.707 509.853 405.721 513.86C407.713 517.866 409.728 517.866 407.713 526.521C405.721 535.176 407.049 554.854 409.041 557.842C411.034 560.83 414.708 566.828 414.708 566.828L419.378 572.495L421.171 580.818C421.171 580.818 425.377 585.156 434.032 582.81C442.686 580.486 456.366 587.148 456.366 587.148L483.016 601.137L485.008 605.808L496.673 616.145C496.673 616.145 498.665 620.483 509.002 624.467C519.339 628.474 517.325 606.472 517.325 606.472L520.667 599.809C530.672 580.818 543.333 605.144 543.333 605.144C559.336 598.149 554.002 614.817 554.002 614.817H558.008L559.004 609.15C559.004 609.15 558.672 603.484 562.546 591.154C566.42 578.825 573.68 584.492 574.012 597.817C574.344 611.142 582.002 603.152 588.51 591.154C594.996 579.157 614.673 568.489 614.673 568.489H630.677L638.003 547.837C638.003 547.837 641.678 542.17 644.002 531.014C646.326 519.858 653.675 513.506 653.675 513.506C645.684 508.503 644.002 496.838 643.006 489.512C642.01 482.185 632.669 485.173 632.669 485.173C632.669 485.173 622.332 486.169 619.012 481.167C615.692 476.164 608.011 478.157 608.011 478.157C608.011 478.157 597.342 484.819 593.026 500.823C588.709 516.826 582.246 513.484 582.246 513.484C582.246 513.484 578.372 513.484 569.032 523.157C559.691 532.829 551.368 530.815 551.368 530.815C551.368 530.815 551.368 524.485 551.368 515.83C551.368 507.175 547.694 496.506 547.694 496.506L540.788 491.504C540.743 491.592 540.057 489.667 539.371 487.697Z" fill="#284F51" stroke="#638283" strokeWidth="1.5"/>
<path d="M417.313 908.772C414.944 911.229 412.31 912.823 412.31 912.823C412.31 912.823 403.633 932.434 405.316 944.785C386.833 948.106 368.439 948.836 360.736 943.391C347.965 934.382 334.839 954.281 334.839 954.281L325.83 962.914L322.067 958.42L311.929 957.668C311.929 957.668 304.426 958.044 308.543 946.025C312.682 934.006 299.534 929.889 299.534 929.889C299.534 929.889 286.386 929.512 285.279 918.622C284.15 907.732 275.141 913 275.141 913C275.141 913 264.627 921.256 250.749 912.624C236.87 903.991 237.247 898.369 240.235 895.358C243.245 892.348 246.233 887.855 243.998 881.856C241.762 875.858 243.998 871.718 243.998 871.718C243.998 871.718 244.75 864.215 234.612 861.957C224.475 859.699 223.346 849.562 222.97 844.316C222.593 839.07 219.583 834.554 219.583 834.554L218.83 829.685L214.691 826.674L208.693 821.052L204.199 817.665C204.199 817.665 202.694 803.411 196.696 797.39C190.697 791.392 192.202 782.759 193.685 781.63C195.19 780.501 201.189 781.63 197.072 772.621C192.955 763.612 206.081 762.107 206.081 762.107C206.081 762.107 223.722 765.118 225.98 738.844C225.98 738.844 223.346 732.092 227.861 728.33C232.355 724.567 234.989 722.331 234.989 722.331L251.878 723.46C251.878 723.46 263.52 725.341 266.885 712.193C270.272 699.045 279.878 678.726 287.16 673.524C289.794 671.642 298.051 678.394 293.535 661.505C293.535 661.505 289.042 659.623 291.654 650.991C293.491 644.948 291.831 634.279 287.957 628.568C291.233 618.608 293.004 618.209 303.341 609.886C306.041 607.695 308.277 604.818 310.092 601.741C317.485 597.602 320.34 608.913 323.019 617.235C325.675 625.558 323.019 643.553 323.019 648.224C323.019 661.992 337.672 646.232 337.672 646.232L343.006 640.897L350.001 636.891L355.335 625.558H360.67L369.325 613.893L384.31 597.225H390.64L396.971 590.231L402.969 588.571L421.43 580.912C421.43 580.912 425.635 585.251 434.312 582.904C434.312 582.904 429.642 627.882 434.312 641.561L445.977 653.868C445.977 653.868 455.982 663.895 448.301 682.223C440.643 700.55 443.963 711.219 443.963 711.219C443.963 711.219 443.299 727.555 457.62 729.547C471.941 731.539 471.277 729.547 471.277 729.547C471.277 729.547 490.933 734.881 468.621 746.214C468.621 746.214 457.222 746.547 455.761 757.547L453.636 764.21L448.965 772.201L448.301 781.542L449.629 789.532L448.633 791.856L446.641 804.517C446.641 804.517 439.979 814.19 443.299 822.513C446.641 830.836 449.629 851.841 438.961 867.159C428.292 882.498 420.301 894.495 420.965 900.826C421.297 903.814 419.416 906.625 417.313 908.772Z" fill="#284F51" stroke="#638283" strokeWidth="1.5"/>
<path d="M665.845 996.091C652.697 994.01 610.398 987.326 610.398 987.326C610.398 987.326 543.971 972.318 523.32 963.686C502.668 955.053 472.277 938.164 472.277 938.164C472.277 938.164 461.763 927.274 438.499 935.907C429.291 939.315 417.139 942.636 405.009 944.805C403.327 932.454 412.004 912.842 412.004 912.842C412.004 912.842 421.345 907.176 420.659 900.845C419.995 894.515 427.985 882.518 438.654 867.178C449.323 851.839 446.313 830.855 442.993 822.532C439.65 814.21 446.335 804.537 446.335 804.537L448.327 791.876L449.323 789.552L447.995 781.561L448.659 772.22L453.33 764.23L455.454 757.567C456.915 746.566 468.315 746.234 468.315 746.234C490.649 734.901 470.971 729.567 470.971 729.567C470.971 729.567 471.635 731.559 457.314 729.567C442.993 727.574 443.657 711.239 443.657 711.239C443.657 711.239 440.314 700.57 447.995 682.242C455.676 663.915 445.671 653.888 445.671 653.888L434.006 641.581C429.335 627.924 434.006 582.924 434.006 582.924C442.661 580.6 456.34 587.262 456.34 587.262C456.34 587.262 444.011 604.926 443.679 621.261C443.347 637.597 445.007 656.544 465.681 653.888C486.332 651.254 490.339 648.575 490.339 648.575C490.339 648.575 512.341 641.913 525.666 662.233C538.991 682.552 546.65 680.228 546.65 680.228L562.52 680.317L593.642 683.239C593.642 683.239 610.309 686.913 617.636 685.231C624.962 683.571 629.965 679.232 634.967 680.228C639.97 681.224 643.622 680.892 650.971 677.572C658.32 674.252 676.293 670.577 679.303 672.57C682.314 674.562 694.975 673.234 693.957 690.565C692.96 707.897 694.023 707.874 694.023 707.874L690.636 715.887C690.636 715.887 685.966 753.87 687.294 759.537C688.622 765.203 682.956 781.207 665.624 781.871C648.292 782.535 649.953 779.215 638.288 786.873C626.623 794.532 623.634 820.208 623.634 820.208L621.974 834.198L623.634 843.538L622.306 848.209L623.966 856.2L623.302 865.208L621.974 872.203L623.634 877.205L625.294 888.538L634.967 903.192L636.627 916.517L642.958 921.519L646.964 933.516L649.975 940.511L652.299 947.837L666.288 965.501L666.62 980.486L679.48 996.711H669.719C669.697 996.711 668.258 996.49 665.845 996.091Z" fill="#284F51" stroke="#638283" strokeWidth="1.5"/>
<path d="M81.158 226.049L86.3154 235.19L88.4403 241.853C88.4403 241.853 82.9951 249.423 81.2686 256.971C76.7089 276.826 101.146 274.214 101.146 274.214C101.146 274.214 117.171 276.339 119.894 287.76C122.616 299.204 132.001 294.157 136.827 282.05C141.652 269.942 151.347 284.484 151.347 284.484C165.27 292.652 171.003 282.979 171.003 282.979L179.481 276.317C179.481 276.317 181.251 272.62 181.273 272.576C181.273 277.091 181.65 283.51 182.734 292.608C185.656 316.801 172.84 323.774 172.84 323.774L146.079 347.236L143.157 354.563L117.127 381.324L112.368 389.381L102.474 397.084L99.5519 405.517L85.2529 425.992L81.2022 431.481C82.0876 425.549 80.4939 419.108 69.9356 417.935C49.6602 415.677 54.4192 418.223 36.158 389.403C26.3966 374.019 30.5358 372.891 21.9032 370.257C13.2707 367.622 5.39068 350.734 2.00406 329.728C-1.38256 308.7 5.76697 305.335 5.76697 305.335C5.76697 305.335 13.2707 292.187 3.88552 276.804C-5.49962 261.42 11.0129 262.549 11.0129 262.549C11.0129 262.549 33.3247 271.115 23.0321 238.156C17.4098 220.139 35.0513 220.891 35.0513 220.891L44.7684 230.055C44.7684 230.055 52.0065 230.276 55.9022 231.162C67.0802 233.729 73.4329 226.978 73.4329 226.978L81.158 226.049Z" fill="#284F51" stroke="#638283" strokeWidth="1.5"/>
<path d="M256.621 384.134C264.679 366.005 260.473 359.188 262.62 343.472C265.033 325.632 268.663 331.364 273.2 328.952C277.738 326.539 281.368 327.447 283.183 322.289C284.998 317.154 291.041 315.627 294.383 315.339C297.704 315.029 311.316 308.986 311.316 308.986C311.316 308.986 327.032 302.634 330.065 288.423C333.097 274.213 324.619 270.582 320.392 269.365C316.164 268.148 310.409 264.23 307.996 257.877C305.584 251.524 301.334 245.769 301.334 245.769L284.401 243.954L277.14 242.449L271.098 242.759C271.098 242.759 243.695 234.968 240.552 212.213C238.36 196.254 238.737 194.372 238.737 194.372L235.704 191.052C235.704 191.052 234.774 183.925 236.191 173.787C236.191 173.787 225.124 171.087 224.836 183.792C224.526 196.497 222.711 207.388 222.711 207.388C222.711 207.388 223.021 214.958 214.233 221.001C205.446 227.043 201.218 231.736 201.218 231.736L194.268 243.379L188.513 251.856L184.573 258.519L183.068 268.812C183.068 268.812 182.16 270.715 181.231 272.619C181.231 277.134 181.607 283.553 182.691 292.651C185.613 316.844 172.797 323.817 172.797 323.817L146.036 347.279L143.114 354.606L117.084 381.367L112.325 389.424L102.431 397.127L99.509 405.56L85.2099 426.035L81.1593 431.524C80.3403 436.992 77.3964 441.994 77.3964 441.994V449.874L81.1593 460.388L85.5862 457.444H95.4583L100.394 455.164H107.987L119.364 444.163H136.341C136.341 444.163 151.614 432.011 158.055 434.291C164.497 436.571 177.025 442.813 195.994 426.035C214.964 409.257 232.65 390.331 252.637 392.213C253.832 390.022 254.851 387.985 255.758 386.059C256.068 385.373 256.356 384.731 256.621 384.134Z" fill="#FCFF45" stroke="#FCFF45" strokeWidth="1.5"/>
<g filter="url(#filter0_b_1030_17324)">
<rect x="186.396" y="327.45" width="52" height="22" fill="white" fill-opacity="0.08"/>
<rect x="186.396" y="327.45" width="52" height="22" fill="#325B5D" fill-opacity="0.16"/>
<rect x="186.896" y="327.95" width="51" height="21" stroke="white" strokeOpacity="0.2"/>
<path d="M203.256 335.35H205.806C206.666 335.35 207.31 335.507 207.736 335.82C208.17 336.127 208.386 336.61 208.386 337.27C208.386 337.57 208.323 337.834 208.196 338.06C208.07 338.287 207.883 338.467 207.636 338.6C207.396 338.727 207.11 338.794 206.776 338.8L206.766 338.76C207.366 338.774 207.836 338.937 208.176 339.25C208.516 339.564 208.686 339.98 208.686 340.5C208.686 341.14 208.47 341.627 208.036 341.96C207.61 342.287 206.993 342.45 206.186 342.45H203.256V335.35ZM206.156 341.48C206.61 341.48 206.96 341.387 207.206 341.2C207.453 341.014 207.576 340.747 207.576 340.4C207.576 340.054 207.453 339.784 207.206 339.59C206.96 339.397 206.61 339.3 206.156 339.3H204.336V341.48H206.156ZM205.786 338.38C206.26 338.38 206.626 338.29 206.886 338.11C207.146 337.93 207.276 337.677 207.276 337.35C207.276 337.004 207.15 336.747 206.896 336.58C206.65 336.407 206.28 336.32 205.786 336.32H204.336V338.38H205.786ZM210.131 335.35H211.211V342.05L210.641 341.46H214.671V342.45H210.131V335.35ZM215.961 335.35H218.241C219.355 335.35 220.211 335.66 220.811 336.28C221.411 336.894 221.711 337.77 221.711 338.91C221.711 340.044 221.415 340.917 220.821 341.53C220.235 342.144 219.395 342.45 218.301 342.45H215.961V335.35ZM218.241 341.46C219.028 341.46 219.615 341.25 220.001 340.83C220.395 340.404 220.591 339.764 220.591 338.91C220.591 338.05 220.395 337.407 220.001 336.98C219.615 336.554 219.028 336.34 218.241 336.34H217.041V341.46H218.241Z" fill="#0E3E40"/>
</g>
<path d="M134.037 618.888C132.643 616.453 132.665 612.181 136.339 604.832C141.209 595.071 131.846 591.684 131.846 591.684L123.966 586.815C123.966 586.815 114.581 581.192 117.967 568.797C121.354 556.402 121.73 535.019 94.7038 537.454C67.6773 539.889 60.5499 528.622 60.5499 528.622L59.0447 514.744L53.7988 507.24L48.1766 503.854C48.1766 503.854 43.6832 498.608 49.6817 494.469C55.6802 490.329 65.4417 488.094 65.4417 488.094C65.4417 488.094 77.4608 483.6 75.5794 473.086C73.6979 462.572 81.2016 460.315 81.2016 460.315L85.6286 457.371H95.5007L100.437 455.091H108.029L119.406 444.09H136.384C136.384 444.09 151.657 431.938 158.098 434.218C164.539 436.498 177.067 442.74 196.037 425.961C215.006 409.183 232.692 390.258 252.68 392.14C252.68 392.14 254.76 395.283 258.08 401.281C261.423 407.28 266.735 411.618 266.735 411.618L276.74 415.957C276.74 415.957 291.061 430.61 293.075 433.288C295.068 435.944 310.739 452.612 310.739 452.612L320.412 468.615V485.615V501.618C320.412 501.618 320.412 510.627 323.068 515.275C325.724 519.946 326.056 529.973 325.06 538.118C324.064 546.264 322.736 550.934 322.736 550.934L319.748 564.591L316.76 582.919C316.76 582.919 314.945 593.079 309.832 601.756C308.016 604.832 305.803 607.732 303.08 609.901C292.743 618.224 290.995 618.622 287.697 628.583C286.037 626.148 283.978 624.621 281.632 624.732C273.752 625.108 259.497 627.366 259.497 627.366C259.497 627.366 210.336 635.998 183.309 626.613C156.283 617.228 142.028 622.12 142.028 622.12C142.028 622.12 136.229 622.784 134.037 618.888Z" fill="#284F51" stroke="#638283" strokeWidth="1.5"/>
<path d="M81.1533 226.046L85.3368 225.559L92.5748 222.217L99.2595 220.269C99.2595 220.269 101.207 218.034 114.001 211.083C126.795 204.133 126.175 197.448 126.175 197.448C126.175 197.448 127.083 196.054 126.242 186.315C125.401 176.575 132.639 169.049 132.639 169.049L139.589 157.075C139.589 157.075 141.537 157.407 145.72 149.836C146.938 147.645 143.773 135.36 140.165 130.07C138.881 128.211 138.305 126.728 138.084 125.599L143.529 130.137C143.529 130.137 156.301 140.451 157.651 147.512C160.197 160.749 172.039 157.827 172.039 157.827C172.039 157.827 173.522 157.141 182.353 156.875C191.185 156.61 193.62 151.718 199.729 149.814C205.838 147.911 209.646 151.297 214.405 155.392C219.164 159.465 224.321 159.863 230.032 160.55C234.304 161.059 238.044 159.509 241.586 153.843C238.554 160.97 236.96 167.854 236.141 173.742C236.141 173.742 225.073 171.042 224.786 183.747C224.476 196.452 222.661 207.343 222.661 207.343C222.661 207.343 222.971 214.913 214.183 220.955C205.396 226.998 201.168 231.691 201.168 231.691L194.218 243.334L188.463 251.811L184.523 258.474L183.017 268.766L179.387 276.337L170.91 282.999C170.91 282.999 165.155 292.672 151.254 284.504C151.254 284.504 141.581 269.94 136.734 282.069C131.886 294.199 122.523 299.224 119.801 287.78C117.078 276.337 101.052 274.234 101.052 274.234C101.052 274.234 76.5936 276.846 81.1754 256.991C82.9241 249.421 88.3471 241.873 88.3471 241.873L86.2222 235.21L81.1533 226.046Z" fill="#284F51" stroke="#638283" strokeWidth="1.5"/>
<path d="M508.321 624.314C508.542 624.402 508.764 624.491 508.985 624.579C519.322 628.586 517.308 606.584 517.308 606.584L520.65 599.921C530.655 580.93 543.316 605.256 543.316 605.256C559.319 598.261 553.985 614.929 553.985 614.929H557.991L558.988 609.262C558.988 609.262 558.656 603.596 562.529 591.267C566.403 578.937 573.663 584.604 573.995 597.929C574.327 611.254 581.985 603.264 588.493 591.267C594.979 579.27 614.656 568.601 614.656 568.601H630.66C630.66 568.601 637.986 568.269 642.325 576.259C646.663 584.25 651.666 582.922 651.666 582.922C651.666 582.922 658.328 578.915 661.671 590.58C665.013 602.245 666.009 611.232 668.997 613.578C671.985 615.903 672.34 623.251 672.34 623.251L682.012 627.922C682.012 627.922 685.023 639.255 700.34 640.915C715.679 642.575 725.662 642.243 723.006 656.918C720.35 671.571 718.668 673.918 718.668 673.918L714.329 681.576L710.655 688.903L707.999 694.237L693.921 701.719C693.921 701.719 693.744 701.808 693.589 701.896C693.611 699.351 693.722 695.721 694.01 690.563C695.006 673.232 682.344 674.56 679.356 672.568C676.346 670.575 658.373 674.228 651.024 677.57C643.675 680.912 640.023 681.244 635.02 680.226C630.018 679.208 625.015 683.569 617.689 685.229C610.362 686.889 593.695 683.237 593.695 683.237L562.573 680.315L546.703 680.226C546.703 680.226 539.044 682.55 525.719 662.231C512.394 641.911 490.392 648.573 490.392 648.573C490.392 648.573 486.386 651.23 465.734 653.886C445.082 656.52 443.4 637.573 443.732 621.259C444.064 604.924 456.393 587.26 456.393 587.26L483.043 601.249L485.035 605.92L496.7 616.257C496.656 616.235 498.56 620.374 508.321 624.314Z" fill="#284F51" stroke="#638283" strokeWidth="1.5"/>
<path d="M519.667 353.03C519.247 353.318 518.826 353.584 518.383 353.827C518.428 353.96 522.301 366.001 520.641 372.287C518.981 378.618 513.802 387.959 521.062 390.947C528.322 393.935 533.988 393.603 533.988 393.603C533.988 393.603 545.321 393.603 538.659 408.943C531.996 424.282 537.663 425.964 537.663 425.964C537.663 425.964 540.076 442.919 529.03 443.606C517.985 444.292 517.653 449.936 518.649 458.945C518.649 458.945 527.304 462.619 531.31 470.61C535.317 478.601 537.973 483.692 537.973 483.692L540.74 491.594L547.646 496.596C547.646 496.596 551.32 507.265 551.32 515.92C551.32 524.574 551.32 530.905 551.32 530.905C551.32 530.905 559.643 532.897 568.984 523.246C578.324 513.574 582.198 513.574 582.198 513.574C582.198 513.574 588.661 516.916 592.978 500.912C597.294 484.909 607.963 478.246 607.963 478.246C607.963 478.246 615.621 476.254 618.964 481.257C622.306 486.259 632.621 485.263 632.621 485.263C632.621 485.263 641.962 482.253 642.958 489.602C643.954 496.928 645.614 508.593 653.627 513.596L667.306 499.983C667.306 499.983 673.637 494.051 676.005 484.555C678.373 475.059 684.948 473.266 684.948 473.266C678.617 458.945 682.601 447.28 682.601 447.28C682.601 447.28 686.608 438.625 686.94 429.948C687.272 421.294 697.609 414.609 697.609 414.609C697.609 414.609 697.609 414.609 697.941 391.943C698.273 369.277 685.612 361.618 681.273 355.952C676.935 350.285 671.954 338.311 671.954 338.311L656.194 341.321C656.194 341.321 637.048 351.835 627.663 347.696C618.278 343.556 607.011 346.567 607.011 346.567C607.011 346.567 589.746 351.06 572.481 354.823C555.216 358.586 551.076 346.19 551.076 346.19C551.076 346.19 551.077 341.321 545.078 337.558C539.079 333.795 531.199 341.321 523.674 349.577C522.501 350.905 521.15 352.056 519.667 353.03Z" fill="#284F51" stroke="#638283" strokeWidth="1.5"/>
<path d="M181.909 156.937C173.498 157.225 172.059 157.867 172.059 157.867C172.059 157.867 160.217 160.789 157.672 147.552C156.321 140.491 143.55 130.176 143.55 130.176L138.104 125.639C137.684 123.536 138.503 122.606 138.503 122.606L141.292 116.209L144.346 109.259L149.637 104.81L152.426 100.361L156.321 95.0705L167.167 85.3312C167.167 85.3312 171.351 77.5398 176.907 76.6987C182.463 75.8576 187.487 70.014 190.829 67.2471C194.172 64.4582 199.174 62.7981 203.911 63.0637C208.648 63.3514 226.798 59.1016 226.798 59.1016L239.57 69.2393L244.108 69.9255C244.086 69.9919 240.124 78.8458 240.124 78.8458L238.486 84.9549L234.944 87.8103V101.246C234.944 101.246 235.121 107.909 239.504 114.97C243.886 122.031 249.73 135.201 245.126 146.755C240.5 158.31 235.763 161.298 230.052 160.612C224.341 159.925 219.184 159.527 214.425 155.454C209.666 151.381 205.859 147.995 199.75 149.876C193.641 151.78 191.184 156.672 182.374 156.937C182.219 156.915 182.064 156.937 181.909 156.937Z" fill="#284F51" stroke="#638283" strokeWidth="1.5"/>
<defs>
<filter id="filter0_b_1030_17324" x="120.396" y="261.45" width="184" height="154" filterUnits="userSpaceOnUse" color-interpolation-filters="sRGB">
<feFlood flood-opacity="0" result="BackgroundImageFix"/>
<feGaussianBlur in="BackgroundImageFix" stdDeviation="33"/>
<feComposite in2="SourceAlpha" operator="in" result="effect1_backgroundBlur_1030_17324"/>
<feBlend mode="normal" in="SourceGraphic" in2="effect1_backgroundBlur_1030_17324" result="shape"/>
</filter>
</defs>
</svg>
