<svg width="471" height="554" viewBox="0 0 471 554" fill="none" xmlns="http://www.w3.org/2000/svg">
<path d="M65.6289 195.194C65.5456 195.121 65.4769 195.064 65.4247 195.023L65.3502 194.904L64.9695 194.294C64.6429 193.77 64.1793 193.029 63.6312 192.154C62.5354 190.405 61.1016 188.124 59.7505 185.998C58.6987 184.337 57.7023 182.771 56.9689 181.619C56.6022 181.044 56.3012 180.572 56.0919 180.244L55.8499 179.865L55.8251 179.826L53.9674 171.303L53.9239 171.103L53.7708 170.967L44.2022 162.505L43.1034 145.699L53.1334 129.734L53.2259 129.587L53.2291 129.413L53.6032 108.879C53.6311 108.812 53.6723 108.714 53.7264 108.588C53.8372 108.331 54.002 107.959 54.2163 107.502C54.6451 106.588 55.2706 105.338 56.0568 103.997C57.646 101.287 59.8293 98.3147 62.3004 96.8966C64.9873 95.3548 70.4839 90.8025 75.2549 86.6902C77.653 84.6233 79.8864 82.6509 81.5202 81.1955C82.3371 80.4677 83.0043 79.869 83.4674 79.4521C83.6989 79.2437 83.8794 79.0807 84.0021 78.9697L84.142 78.8432L84.1537 78.8325L110.34 61.6251C110.37 61.612 110.412 61.5937 110.464 61.5701C110.578 61.5189 110.741 61.4428 110.947 61.3405C111.357 61.136 111.937 60.8266 112.624 60.4022C113.995 59.5544 115.801 58.2433 117.536 56.3884C121.02 52.6656 124.205 46.7634 123.059 38.1024L123.028 37.8679L122.85 37.7134L122.85 37.7131L122.849 37.7127L122.848 37.7114L122.834 37.6993C122.822 37.6876 122.801 37.6689 122.774 37.6432C122.72 37.5918 122.638 37.5124 122.536 37.406C122.331 37.1931 122.043 36.8726 121.723 36.4513C121.08 35.6075 120.31 34.3678 119.797 32.7846C118.782 29.6533 118.74 25.076 122.941 19.4101C124.29 17.5907 125.306 16.2535 126.059 15.291L126.734 15.6035L126.202 15.2749C126.734 15.6035 126.734 15.6034 126.734 15.6033L126.734 15.603L126.735 15.6018L126.738 15.5973L126.748 15.5801L126.788 15.5154C126.822 15.4596 126.871 15.3796 126.93 15.282C127.047 15.0871 127.206 14.8211 127.369 14.5382C127.532 14.2563 127.703 13.9527 127.842 13.6839C127.971 13.4356 128.107 13.1573 128.162 12.9526C128.176 12.9003 128.197 12.8077 128.196 12.7009C128.194 12.6276 128.177 12.3169 127.878 12.137L131.412 1.24467L137.477 5.28123L137.634 5.38593H137.823H147.961H148.789L148.567 4.60793C148.587 4.59909 148.622 4.58679 148.678 4.57674C148.925 4.53307 149.452 4.55437 150.458 4.87943C151.449 5.19945 152.844 5.79347 154.797 6.81941C158.777 8.90996 162.564 10.3285 165.356 11.2245C166.752 11.6727 167.901 11.9908 168.703 12.1972C169.104 12.3004 169.418 12.3757 169.633 12.4254C169.705 12.442 169.765 12.4557 169.814 12.4667L178.33 19.4977L178.503 19.6407H178.728H192.562L208.278 21.8921L208.322 21.8985L208.365 21.8985H208.365L208.366 21.8985L208.375 21.8986C208.384 21.8988 208.399 21.8991 208.42 21.8999C208.462 21.9014 208.528 21.9046 208.614 21.9113C208.787 21.9246 209.043 21.9517 209.362 22.0066C210 22.1167 210.885 22.3377 211.86 22.7804C213.797 23.6606 216.11 25.4259 217.548 29.0098C219.062 32.785 221.041 36.9308 222.638 40.1266C223.437 41.7259 224.141 43.0901 224.646 44.0547C224.899 44.537 225.101 44.9196 225.241 45.1818C225.3 45.2919 225.347 45.3809 225.383 45.447V57.0749L215.399 68.5413L215.237 68.7274L215.246 68.9741L215.615 79.3065L213.073 83.643L212.987 83.7894V83.9591V98.5901V98.9284L213.271 99.1134L231.665 111.133L231.752 111.19L231.853 111.215L231.853 111.215L231.853 111.215L231.854 111.215L231.854 111.216L231.863 111.218C231.872 111.22 231.889 111.225 231.912 111.232C231.957 111.246 232.028 111.268 232.12 111.301C232.305 111.366 232.575 111.473 232.903 111.634C233.558 111.957 234.439 112.497 235.322 113.359C237.072 115.068 238.885 118.097 238.885 123.381C238.885 128.798 238.416 131.738 237.968 133.303C237.745 134.083 237.532 134.505 237.396 134.717C237.333 134.815 237.288 134.867 237.268 134.887L237.041 135.024L237.007 135.332L234.377 159.318L234.37 159.35L234.332 159.531C234.299 159.69 234.251 159.924 234.189 160.224C234.065 160.824 233.888 161.689 233.674 162.749C233.246 164.869 232.672 167.77 232.087 170.894C230.918 177.124 229.692 184.302 229.501 187.915C229.314 191.46 228.94 194.898 228.383 197.721C228.104 199.133 227.782 200.38 227.419 201.404C227.091 202.33 226.741 203.041 226.383 203.525C226.249 203.556 226.056 203.601 225.809 203.657C225.304 203.773 224.577 203.937 223.69 204.134C221.915 204.527 219.501 205.048 216.94 205.561C214.378 206.073 211.675 206.575 209.323 206.931C206.95 207.29 204.992 207.49 203.889 207.423L203.889 207.423C198.996 207.125 193.836 208.857 190.369 211.75C189.641 212.357 188.837 213.106 187.984 213.9C187.839 214.035 187.691 214.172 187.543 214.31C186.518 215.262 185.418 216.267 184.253 217.208C181.91 219.102 179.374 220.679 176.756 221.063L176.753 221.064C173.739 221.52 171.177 223.833 169.417 225.909C168.524 226.962 167.812 227.985 167.322 228.745C167.077 229.125 166.887 229.441 166.758 229.663C166.694 229.772 166.645 229.859 166.611 229.92L155.844 239.588L155.796 239.631L155.758 239.683L151.862 244.973L151.848 244.992L151.836 245.012L149.099 249.378L143.884 253.763L143.773 253.857L143.714 253.99L140.66 260.941L140.659 260.942L137.9 267.27C137.883 267.294 137.863 267.323 137.841 267.356C137.778 267.454 137.699 267.593 137.621 267.773C137.465 268.134 137.316 268.656 137.295 269.347C137.254 270.732 137.731 272.736 139.587 275.445C141.333 278.005 143.004 282.32 144.087 286.302C144.627 288.286 145.014 290.16 145.191 291.663C145.28 292.416 145.314 293.06 145.293 293.572C145.271 294.104 145.191 294.414 145.112 294.556L145.112 294.557C143.036 298.312 141.547 300.048 140.618 300.842C140.157 301.236 139.849 301.385 139.69 301.441C139.636 301.46 139.599 301.468 139.579 301.472L139.205 301.408L138.987 301.783L132.073 313.696C132.062 313.707 132.05 313.72 132.036 313.735C131.98 313.796 131.899 313.886 131.797 314.002C131.594 314.234 131.307 314.575 130.966 315.013C130.285 315.89 129.387 317.16 128.516 318.743C126.777 321.901 125.123 326.344 125.557 331.391L126.18 331.337L125.557 331.391C125.976 336.243 125.957 338.989 125.839 340.508C125.78 341.267 125.697 341.708 125.637 341.947C125.606 342.066 125.583 342.131 125.572 342.157C125.572 342.158 125.571 342.158 125.571 342.159L125.471 342.312L125.491 342.524L125.491 342.525L125.491 342.527L125.491 342.527L125.491 342.528L125.491 342.529L125.492 342.542C125.492 342.548 125.493 342.556 125.493 342.565C125.494 342.602 125.494 342.663 125.491 342.746C125.484 342.913 125.462 343.17 125.397 343.506C125.268 344.176 124.969 345.164 124.281 346.373C122.907 348.789 119.961 352.124 113.641 355.557C107.233 359.038 103.528 361.346 101.418 362.789C100.363 363.512 99.7033 364.02 99.3024 364.353C99.1018 364.52 98.9649 364.644 98.875 364.73C98.8725 364.732 98.8701 364.735 98.8677 364.737L92.3383 366.64L92.2935 366.653L92.2511 366.672L85.1038 369.973L73.2279 371.356L73.0019 371.382L72.8464 371.547L72.8461 371.547L72.8457 371.547L72.8447 371.549L72.8345 371.559C72.8247 371.569 72.8088 371.585 72.7869 371.607C72.743 371.65 72.675 371.716 72.5833 371.8C72.3999 371.968 72.122 372.209 71.7524 372.492C71.013 373.06 69.9097 373.795 68.4669 374.454C65.5872 375.77 61.3446 376.789 55.9082 375.551L55.908 375.551C53.9098 375.096 51.0848 374.817 48.7867 374.651C47.632 374.568 46.6 374.512 45.8567 374.477C45.4849 374.46 45.1851 374.448 44.978 374.44C44.9476 374.439 44.9192 374.438 44.8929 374.437L35.7853 365.848L43.2689 357.292L43.397 357.146L43.4194 356.952L44.5482 347.191L44.5652 347.044L44.5146 346.905L41.5623 338.808L44.5422 322.463L44.5574 322.379L44.5499 322.295L43.0464 305.429L43.0461 305.421L43.0455 305.407L43.0418 305.323C43.0384 305.249 43.0332 305.141 43.0257 305.003C43.0108 304.728 42.9871 304.332 42.9514 303.849C42.8803 302.885 42.7615 301.569 42.5712 300.167C42.3811 298.769 42.1179 297.272 41.7549 295.949C41.3981 294.648 40.9225 293.429 40.2627 292.659C39.8007 292.12 39.3574 291.071 39.0403 289.634C38.7284 288.22 38.5557 286.51 38.5787 284.724C38.625 281.12 39.4636 277.358 41.3933 275.077C41.5352 274.91 41.6807 274.74 41.8288 274.567C43.8025 272.258 46.2405 269.406 47.1104 266.105C47.5853 264.303 47.5976 262.362 46.8386 260.305C46.0828 258.258 44.5775 256.134 42.0837 253.929L33.5424 246.375L32.5739 245.519C32.5843 245.453 32.5967 245.377 32.6114 245.292C32.6729 244.939 32.7738 244.431 32.9306 243.822C33.2449 242.601 33.78 240.99 34.662 239.409C36.4169 236.262 39.509 233.271 45.0171 233.616C50.8202 233.991 58.1739 234.289 63.8961 232.27C66.7751 231.255 69.285 229.638 70.9695 227.114C72.6558 224.587 73.4671 221.222 73.0817 216.802C72.3233 208.102 70.4291 202.667 68.6954 199.388C67.8285 197.748 67.0031 196.649 66.3829 195.953C66.0729 195.605 65.8147 195.358 65.6289 195.194Z" fill="#FCFF45" stroke="#FCFF45" strokeWidth="1.25"/>
<g filter="url(#filter0_b_1043_18071)">
<rect x="109.908" y="153.588" width="52" height="22" fill="white" fill-opacity="0.08"/>
<rect x="109.908" y="153.588" width="52" height="22" fill="#325B5D" fill-opacity="0.16"/>
<rect x="110.408" y="154.088" width="51" height="21" stroke="white" strokeOpacity="0.2"/>
<path d="M126.768 161.488H129.318C130.178 161.488 130.822 161.645 131.248 161.958C131.682 162.265 131.898 162.748 131.898 163.408C131.898 163.708 131.835 163.971 131.708 164.198C131.582 164.425 131.395 164.605 131.148 164.738C130.908 164.865 130.622 164.931 130.288 164.938L130.278 164.898C130.878 164.911 131.348 165.075 131.688 165.388C132.028 165.701 132.198 166.118 132.198 166.638C132.198 167.278 131.982 167.765 131.548 168.098C131.122 168.425 130.505 168.588 129.698 168.588H126.768V161.488ZM129.668 167.618C130.122 167.618 130.472 167.525 130.718 167.338C130.965 167.151 131.088 166.885 131.088 166.538C131.088 166.191 130.965 165.921 130.718 165.728C130.472 165.535 130.122 165.438 129.668 165.438H127.848V167.618H129.668ZM129.298 164.518C129.772 164.518 130.138 164.428 130.398 164.248C130.658 164.068 130.788 163.815 130.788 163.488C130.788 163.141 130.662 162.885 130.408 162.718C130.162 162.545 129.792 162.458 129.298 162.458H127.848V164.518H129.298ZM135.368 161.488H136.748L139.308 168.588H138.148L137.508 166.738H134.608L133.958 168.588H132.808L135.368 161.488ZM137.168 165.758L136.058 162.518L134.948 165.758H137.168ZM142.61 168.748C142.05 168.748 141.56 168.648 141.14 168.448C140.727 168.241 140.397 167.955 140.15 167.588C139.91 167.215 139.77 166.785 139.73 166.298L140.84 166.228C140.887 166.561 140.983 166.845 141.13 167.078C141.277 167.305 141.473 167.478 141.72 167.598C141.973 167.711 142.277 167.768 142.63 167.768C143.097 167.768 143.453 167.681 143.7 167.508C143.953 167.328 144.08 167.075 144.08 166.748C144.08 166.535 144.03 166.351 143.93 166.198C143.83 166.045 143.643 165.905 143.37 165.778C143.103 165.651 142.713 165.525 142.2 165.398C141.613 165.258 141.153 165.105 140.82 164.938C140.493 164.771 140.253 164.565 140.1 164.318C139.953 164.071 139.88 163.761 139.88 163.388C139.88 162.988 139.977 162.631 140.17 162.318C140.37 162.005 140.653 161.761 141.02 161.588C141.393 161.415 141.833 161.328 142.34 161.328C142.867 161.328 143.323 161.428 143.71 161.628C144.097 161.821 144.403 162.091 144.63 162.438C144.857 162.785 144.997 163.185 145.05 163.638L143.95 163.698C143.91 163.425 143.823 163.185 143.69 162.978C143.557 162.765 143.373 162.601 143.14 162.488C142.913 162.368 142.64 162.308 142.32 162.308C141.913 162.308 141.59 162.405 141.35 162.598C141.11 162.785 140.99 163.035 140.99 163.348C140.99 163.555 141.037 163.725 141.13 163.858C141.23 163.991 141.4 164.108 141.64 164.208C141.88 164.308 142.24 164.415 142.72 164.528C143.327 164.668 143.81 164.838 144.17 165.038C144.537 165.238 144.797 165.475 144.95 165.748C145.11 166.015 145.19 166.328 145.19 166.688C145.19 167.101 145.08 167.465 144.86 167.778C144.647 168.085 144.343 168.325 143.95 168.498C143.563 168.665 143.117 168.748 142.61 168.748Z" fill="white"/>
</g>
<path d="M245.127 291.742C249.753 280.187 243.91 267.017 239.505 259.956C235.1 252.895 234.945 246.233 234.945 246.233V232.797L238.487 229.941L240.125 223.832C240.125 223.832 244.065 215 244.109 214.912C247.894 215.31 253.494 215.532 258.718 214.226C267.727 211.968 291.367 208.98 291.367 208.98L326.273 197.713L346.549 195.455L374.704 195.079L381.832 196.961C381.832 196.961 392.722 201.83 396.086 209.356C399.451 216.882 401.332 228.503 401.332 228.503C401.332 228.503 403.59 238.64 406.578 243.134C409.589 247.627 411.448 251.39 412.953 260.022C414.458 268.655 415.963 279.169 415.963 279.169C415.963 279.169 415.587 287.049 412.2 290.059C408.814 293.07 406.202 303.562 406.202 303.562C406.202 303.562 405.073 327.201 379.175 339.973C353.278 352.745 348.386 354.604 348.386 354.604L342.011 358.367C342.011 358.367 336.367 360.492 338.669 364.521C338.647 364.521 331.564 367.819 331.564 367.819L319.456 374.769L316.136 379.307L309.783 380.524L301.305 390.817L284.372 389.002L277.112 387.497L271.069 387.806C271.069 387.806 243.666 380.015 240.523 357.26C238.332 341.301 238.708 339.42 238.708 339.42L235.676 336.1C235.676 336.1 234.746 328.972 236.163 318.834C237.247 310.955 239.749 301.304 245.127 291.742Z" fill="#284F51" stroke="#638283" strokeWidth="1.5"/>
<path d="M252.643 537.175C252.643 537.175 254.723 540.318 258.043 546.317C261.386 552.315 266.698 556.653 266.698 556.653L276.703 560.992C276.703 560.992 291.024 575.645 293.039 578.323C295.031 580.98 310.702 597.647 310.702 597.647L320.375 613.65V630.65V646.653C320.375 646.653 320.375 655.662 323.031 660.311C325.687 664.981 326.019 675.008 325.023 683.154C324.027 691.299 322.699 695.97 322.699 695.97L319.711 709.627L316.723 727.954C316.723 727.954 314.908 738.114 309.795 746.791C317.188 742.652 320.043 753.963 322.721 762.285C325.377 770.608 322.721 788.604 322.721 793.274C322.721 807.042 337.374 791.282 337.374 791.282L342.709 785.947L349.703 781.941L355.038 770.608H360.372L369.027 758.943L384.012 742.276H390.343L396.673 735.281L402.672 733.621L421.132 725.962L419.339 717.64L414.669 711.973C414.669 711.973 410.995 705.975 409.003 702.986C407.01 699.976 405.66 680.32 407.674 671.666C409.667 663.011 407.674 663.011 405.682 659.005C403.69 654.998 408.006 647.672 408.006 647.672L404.332 632.686C404.332 632.686 399.662 617.015 400.99 607.032C402.318 597.027 408.98 590.697 408.98 590.697L412.655 582.042L419.981 571.085L421.641 564.378L423.966 556.056C423.966 556.056 424.298 544.723 427.95 535.072C431.602 525.399 424.298 512.738 424.298 512.738C424.298 512.738 424.962 511.41 415.975 481.749C406.988 452.089 441.452 459.415 441.452 459.415L439.194 450.407C439.194 450.407 433.196 444.032 433.948 438.387C434.701 432.765 422.682 434.625 422.682 434.625C422.682 434.625 420.048 433.496 417.037 430.131C414.027 426.745 411.792 431.636 415.909 415.876C420.048 400.116 411.415 386.592 411.415 386.592C411.415 386.592 403.912 377.96 394.903 387.721C385.894 397.482 385.518 392.591 376.885 391.108C368.252 389.602 364.49 384.357 364.49 384.357C364.49 384.357 351.718 374.595 342.355 368.22C340.385 366.892 339.234 365.697 338.636 364.612C338.614 364.612 331.531 367.91 331.531 367.91L319.423 374.861L316.103 379.398L309.75 380.616L301.273 390.908C301.273 390.908 305.5 396.663 307.935 403.016C310.37 409.369 316.103 413.309 320.331 414.504C324.558 415.721 333.036 419.352 330.004 433.562C326.971 447.773 311.255 454.125 311.255 454.125C311.255 454.125 297.643 460.168 294.322 460.478C291.002 460.788 284.937 462.293 283.122 467.428C281.307 472.563 277.677 471.656 273.139 474.091C268.602 476.504 264.972 470.771 262.559 488.611C260.213 506.319 265.946 512.672 252.643 537.175Z" fill="#284F51" stroke="#638283" strokeWidth="1.5"/>
<path d="M539.371 632.697C538.663 630.705 537.976 628.69 537.976 628.69C537.976 628.69 535.32 623.599 531.314 615.609C527.307 607.618 518.653 603.944 518.653 603.944C517.657 594.935 517.989 589.29 529.034 588.604C540.079 587.918 537.667 570.963 537.667 570.963C537.667 570.963 532 569.258 538.663 553.941C545.325 538.602 533.992 538.602 533.992 538.602C533.992 538.602 528.326 538.934 521.065 535.946C513.805 532.935 518.985 523.617 520.645 517.286C522.283 511.022 518.476 499.113 518.387 498.826C510.684 503.319 499.993 503.961 489.523 502.456C476.375 500.574 478.633 491.189 478.633 491.189C478.633 491.189 476.752 487.05 476.375 482.933C475.999 478.816 474.494 474.677 466.99 472.043C459.487 469.409 453.488 463.034 453.488 463.034L447.49 460.776L441.491 459.271C441.491 459.271 407.005 451.944 416.014 481.605C425.023 511.265 424.337 512.593 424.337 512.593C424.337 512.593 431.663 525.255 427.989 534.927C424.337 544.6 424.005 555.911 424.005 555.911L421.68 564.234L420.02 570.941L412.694 581.897L409.019 590.552C409.019 590.552 402.357 596.883 401.029 606.888C399.701 616.892 404.371 632.542 404.371 632.542L408.045 647.527C408.045 647.527 403.707 654.853 405.721 658.86C407.713 662.866 409.728 662.866 407.713 671.521C405.721 680.176 407.049 699.854 409.041 702.842C411.034 705.83 414.708 711.828 414.708 711.828L419.378 717.495L421.171 725.818C421.171 725.818 425.377 730.156 434.032 727.81C442.686 725.486 456.366 732.148 456.366 732.148L483.016 746.137L485.008 750.808L496.673 761.145C496.673 761.145 498.665 765.483 509.002 769.467C519.339 773.474 517.325 751.472 517.325 751.472L520.667 744.809C530.672 725.818 543.333 750.144 543.333 750.144C559.336 743.149 554.002 759.817 554.002 759.817H558.008L559.004 754.15C559.004 754.15 558.672 748.484 562.546 736.154C566.42 723.825 573.68 729.492 574.012 742.817C574.344 756.142 582.002 748.152 588.51 736.154C594.996 724.157 614.673 713.489 614.673 713.489H630.677L638.003 692.837C638.003 692.837 641.678 687.17 644.002 676.014C646.326 664.858 653.675 658.506 653.675 658.506C645.684 653.503 644.002 641.838 643.006 634.512C642.01 627.185 632.669 630.173 632.669 630.173C632.669 630.173 622.332 631.169 619.012 626.167C615.692 621.164 608.011 623.157 608.011 623.157C608.011 623.157 597.342 629.819 593.026 645.823C588.709 661.826 582.246 658.484 582.246 658.484C582.246 658.484 578.372 658.484 569.032 668.157C559.691 677.829 551.368 675.815 551.368 675.815C551.368 675.815 551.368 669.485 551.368 660.83C551.368 652.175 547.694 641.506 547.694 641.506L540.788 636.504C540.743 636.592 540.057 634.667 539.371 632.697Z" fill="#284F51" stroke="#638283" strokeWidth="1.5"/>
<path d="M81.158 371.049L86.3154 380.19L88.4403 386.853C88.4403 386.853 82.9951 394.423 81.2686 401.971C76.7089 421.826 101.146 419.214 101.146 419.214C101.146 419.214 117.171 421.339 119.894 432.76C122.616 444.204 132.001 439.157 136.827 427.05C141.652 414.942 151.347 429.484 151.347 429.484C165.27 437.652 171.003 427.979 171.003 427.979L179.481 421.317C179.481 421.317 181.251 417.62 181.273 417.576C181.273 422.091 181.65 428.51 182.734 437.608C185.656 461.801 172.84 468.774 172.84 468.774L146.079 492.236L143.157 499.563L117.127 526.324L112.368 534.381L102.474 542.084L99.5519 550.517L85.2529 570.992L81.2022 576.481C82.0876 570.549 80.4939 564.108 69.9356 562.935C49.6602 560.677 54.4192 563.223 36.158 534.403C26.3966 519.019 30.5358 517.891 21.9032 515.257C13.2707 512.622 5.39068 495.734 2.00406 474.728C-1.38256 453.7 5.76697 450.335 5.76697 450.335C5.76697 450.335 13.2707 437.187 3.88552 421.804C-5.49962 406.42 11.0129 407.549 11.0129 407.549C11.0129 407.549 33.3247 416.115 23.0321 383.156C17.4098 365.139 35.0513 365.891 35.0513 365.891L44.7684 375.055C44.7684 375.055 52.0065 375.276 55.9022 376.162C67.0802 378.729 73.4329 371.978 73.4329 371.978L81.158 371.049Z" fill="#284F51" stroke="#638283" strokeWidth="1.5"/>
<path d="M256.621 529.134C264.679 511.005 260.473 504.188 262.62 488.472C265.033 470.632 268.663 476.364 273.2 473.952C277.738 471.539 281.368 472.447 283.183 467.289C284.998 462.154 291.041 460.627 294.383 460.339C297.704 460.029 311.316 453.986 311.316 453.986C311.316 453.986 327.032 447.634 330.065 433.423C333.097 419.213 324.619 415.582 320.392 414.365C316.164 413.148 310.409 409.23 307.996 402.877C305.584 396.524 301.334 390.769 301.334 390.769L284.401 388.954L277.14 387.449L271.098 387.759C271.098 387.759 243.695 379.968 240.552 357.213C238.36 341.254 238.737 339.372 238.737 339.372L235.704 336.052C235.704 336.052 234.774 328.925 236.191 318.787C236.191 318.787 225.124 316.087 224.836 328.792C224.526 341.497 222.711 352.388 222.711 352.388C222.711 352.388 223.021 359.958 214.233 366.001C205.446 372.043 201.218 376.736 201.218 376.736L194.268 388.379L188.513 396.856L184.573 403.519L183.068 413.812C183.068 413.812 182.16 415.715 181.231 417.619C181.231 422.134 181.607 428.553 182.691 437.651C185.613 461.844 172.797 468.817 172.797 468.817L146.036 492.279L143.114 499.606L117.084 526.367L112.325 534.424L102.431 542.127L99.509 550.56L85.2099 571.035L81.1593 576.524C80.3403 581.992 77.3964 586.994 77.3964 586.994V594.874L81.1593 605.388L85.5862 602.444H95.4583L100.394 600.164H107.987L119.364 589.163H136.341C136.341 589.163 151.614 577.011 158.055 579.291C164.497 581.571 177.025 587.813 195.994 571.035C214.964 554.257 232.65 535.331 252.637 537.213C253.832 535.022 254.851 532.985 255.758 531.059C256.068 530.373 256.356 529.731 256.621 529.134Z" fill="#284F51" stroke="#638283" strokeWidth="1.5"/>
<path d="M134.037 763.888C132.643 761.453 132.665 757.181 136.339 749.832C141.209 740.071 131.846 736.684 131.846 736.684L123.966 731.815C123.966 731.815 114.581 726.192 117.967 713.797C121.354 701.402 121.73 680.019 94.7038 682.454C67.6773 684.889 60.5499 673.622 60.5499 673.622L59.0447 659.744L53.7988 652.24L48.1766 648.854C48.1766 648.854 43.6832 643.608 49.6817 639.469C55.6802 635.329 65.4417 633.094 65.4417 633.094C65.4417 633.094 77.4608 628.6 75.5794 618.086C73.6979 607.572 81.2016 605.315 81.2016 605.315L85.6286 602.371H95.5007L100.437 600.091H108.029L119.406 589.09H136.384C136.384 589.09 151.657 576.938 158.098 579.218C164.539 581.498 177.067 587.74 196.037 570.961C215.006 554.183 232.692 535.258 252.68 537.14C252.68 537.14 254.76 540.283 258.08 546.281C261.423 552.28 266.735 556.618 266.735 556.618L276.74 560.957C276.74 560.957 291.061 575.61 293.075 578.288C295.068 580.944 310.739 597.612 310.739 597.612L320.412 613.615V630.615V646.618C320.412 646.618 320.412 655.627 323.068 660.275C325.724 664.946 326.056 674.973 325.06 683.118C324.064 691.264 322.736 695.934 322.736 695.934L319.748 709.591L316.76 727.919C316.76 727.919 314.945 738.079 309.832 746.756C308.016 749.832 305.803 752.732 303.08 754.901C292.743 763.224 290.995 763.622 287.697 773.583C286.037 771.148 283.978 769.621 281.632 769.732C273.752 770.108 259.497 772.366 259.497 772.366C259.497 772.366 210.336 780.998 183.309 771.613C156.283 762.228 142.028 767.12 142.028 767.12C142.028 767.12 136.229 767.784 134.037 763.888Z" fill="#284F51" stroke="#638283" strokeWidth="1.5"/>
<path d="M81.1533 371.046L85.3368 370.559L92.5748 367.217L99.2595 365.269C99.2595 365.269 101.207 363.033 114.001 356.083C126.795 349.133 126.175 342.448 126.175 342.448C126.175 342.448 127.083 341.054 126.242 331.314C125.401 321.575 132.639 314.049 132.639 314.049L139.589 302.074C139.589 302.074 141.537 302.406 145.72 294.836C146.938 292.645 143.773 280.36 140.165 275.07C138.881 273.211 138.305 271.728 138.084 270.599L143.529 275.136C143.529 275.136 156.301 285.451 157.651 292.512C160.197 305.749 172.039 302.827 172.039 302.827C172.039 302.827 173.522 302.141 182.353 301.875C191.185 301.609 193.62 296.718 199.729 294.814C205.838 292.91 209.646 296.297 214.405 300.392C219.164 304.465 224.321 304.863 230.032 305.549C234.304 306.058 238.044 304.509 241.586 298.843C238.554 305.97 236.96 312.854 236.141 318.742C236.141 318.742 225.073 316.041 224.786 328.747C224.476 341.452 222.661 352.342 222.661 352.342C222.661 352.342 222.971 359.912 214.183 365.955C205.396 371.998 201.168 376.691 201.168 376.691L194.218 388.333L188.463 396.811L184.523 403.474L183.017 413.766L179.387 421.336L170.91 427.999C170.91 427.999 165.155 437.672 151.254 429.504C151.254 429.504 141.581 414.939 136.734 427.069C131.886 439.199 122.523 444.224 119.801 432.78C117.078 421.336 101.052 419.234 101.052 419.234C101.052 419.234 76.5936 421.845 81.1754 401.991C82.9241 394.42 88.3471 386.873 88.3471 386.873L86.2222 380.21L81.1533 371.046Z" fill="#284F51" stroke="#638283" strokeWidth="1.5"/>
<path d="M181.909 301.937C173.498 302.225 172.059 302.867 172.059 302.867C172.059 302.867 160.217 305.789 157.672 292.552C156.321 285.491 143.55 275.176 143.55 275.176L138.104 270.639C137.684 268.536 138.503 267.606 138.503 267.606L141.292 261.209L144.346 254.259L149.637 249.81L152.426 245.361L156.321 240.071L167.167 230.331C167.167 230.331 171.351 222.54 176.907 221.699C182.463 220.858 187.487 215.014 190.829 212.247C194.172 209.458 199.174 207.798 203.911 208.064C208.648 208.351 226.798 204.102 226.798 204.102L239.57 214.239L244.108 214.925C244.086 214.992 240.124 223.846 240.124 223.846L238.486 229.955L234.944 232.81V246.246C234.944 246.246 235.121 252.909 239.504 259.97C243.886 267.031 249.73 280.201 245.126 291.755C240.5 303.31 235.763 306.298 230.052 305.612C224.341 304.925 219.184 304.527 214.425 300.454C209.666 296.381 205.859 292.995 199.75 294.876C193.641 296.78 191.184 301.672 182.374 301.937C182.219 301.915 182.064 301.937 181.909 301.937Z" fill="#284F51" stroke="#638283" strokeWidth="1.5"/>
<defs>
<filter id="filter0_b_1043_18071" x="43.9082" y="87.5879" width="184" height="154" filterUnits="userSpaceOnUse" color-interpolation-filters="sRGB">
<feFlood flood-opacity="0" result="BackgroundImageFix"/>
<feGaussianBlur in="BackgroundImageFix" stdDeviation="33"/>
<feComposite in2="SourceAlpha" operator="in" result="effect1_backgroundBlur_1043_18071"/>
<feBlend mode="normal" in="SourceGraphic" in2="effect1_backgroundBlur_1043_18071" result="shape"/>
</filter>
</defs>
</svg>
