<svg width="562" height="700" viewBox="0 0 562 700" fill="none" xmlns="http://www.w3.org/2000/svg">
<path d="M59.2225 -152.668C57.1197 -155.988 55.2382 -158.932 55.2382 -158.932L53.3568 -167.564L43.5954 -176.197L42.4665 -193.462L52.6042 -209.598L52.9805 -230.25C52.9805 -230.25 56.7434 -239.635 61.9893 -242.645C67.2353 -245.656 83.7699 -260.663 83.7699 -260.663L110.044 -277.928C110.044 -277.928 124.675 -283.927 122.439 -300.816C122.439 -300.816 113.807 -308.319 122.439 -319.962C131.072 -331.605 126.202 -323.725 126.202 -323.725L131.072 -338.732L137.823 -334.239H147.961C147.961 -334.239 147.208 -336.873 155.088 -332.734C162.968 -328.595 170.095 -327.112 170.095 -327.112L178.728 -319.984H192.607L208.366 -317.727C208.366 -317.727 215.118 -317.727 218.128 -310.223C221.138 -302.719 226.008 -293.71 226.008 -293.71V-281.691L215.87 -270.048L216.246 -259.534L213.612 -255.041V-240.41L232.006 -228.391C232.006 -228.391 239.51 -226.509 239.51 -215.619C239.51 -204.729 237.629 -203.6 237.629 -203.6L234.995 -179.584C234.995 -179.584 230.501 -158.179 230.125 -151.052C229.749 -143.924 228.62 -137.173 226.738 -134.916C226.738 -134.916 208.566 -130.666 203.851 -130.953C199.114 -131.241 194.112 -129.559 190.769 -126.77C187.427 -123.981 182.425 -118.137 176.847 -117.318C171.291 -116.477 167.107 -108.686 167.107 -108.686L156.261 -98.9466L152.366 -93.6564L149.577 -89.2073L144.286 -84.7582L141.232 -77.8079L138.443 -71.411C138.443 -71.411 136.495 -69.1754 140.103 -63.9073C143.711 -58.6171 146.876 -46.3323 145.659 -44.141C141.475 -36.5709 139.527 -36.9029 139.527 -36.9029L132.577 -24.928C132.577 -24.928 125.339 -17.4243 126.18 -7.66284C127.021 2.07645 126.114 3.47095 126.114 3.47095C126.114 3.47095 126.733 10.1556 113.94 17.106C101.146 24.0563 99.1979 26.2919 99.1979 26.2919L92.5132 28.2397L85.2751 31.582L73.3002 32.9765C73.3002 32.9765 66.9475 39.7055 55.7695 37.16C51.8737 36.2746 44.6357 36.0532 44.6357 36.0532L34.9185 26.8895L42.7985 17.8806L43.9274 8.11926L40.917 -0.137054L43.9274 -16.6495L42.4222 -33.5384C42.4222 -33.5384 42.0459 -43.2998 39.7882 -45.9339C37.5304 -48.5679 36.7778 -59.4361 40.917 -64.3279C45.0562 -69.1975 51.4311 -75.9707 41.6696 -84.6033C31.9082 -93.2358 31.9082 -93.2358 31.9082 -93.2358C31.9082 -93.2358 33.4134 -106.738 45.0562 -106.008C56.6991 -105.255 73.9642 -104.879 72.4591 -122.144C70.9539 -139.409 64.9554 -143.548 64.9554 -143.548C64.9554 -143.548 61.9229 -148.418 59.2225 -152.668Z" fill="#284F51" stroke="#638283" strokeWidth="1.5"/>
<path d="M245.127 -47.2584C249.753 -58.8128 243.91 -71.9829 239.505 -79.0439C235.1 -86.1049 234.945 -92.7675 234.945 -92.7675V-106.203L238.487 -109.059L240.125 -115.168C240.125 -115.168 244.065 -124 244.109 -124.088C247.894 -123.69 253.494 -123.468 258.718 -124.774C267.727 -127.032 291.367 -130.02 291.367 -130.02L326.273 -141.287L346.549 -143.545L374.704 -143.921L381.832 -142.039C381.832 -142.039 392.722 -137.17 396.086 -129.644C399.451 -122.118 401.332 -110.497 401.332 -110.497C401.332 -110.497 403.59 -100.36 406.578 -95.8664C409.589 -91.373 411.448 -87.6101 412.953 -78.9775C414.458 -70.345 415.963 -59.831 415.963 -59.831C415.963 -59.831 415.587 -51.951 412.2 -48.9407C408.814 -45.9304 406.202 -35.4385 406.202 -35.4385C406.202 -35.4385 405.073 -11.7986 379.175 0.97319C353.278 13.7449 348.386 15.6043 348.386 15.6043L342.011 19.3672C342.011 19.3672 336.367 21.4921 338.669 25.5207C338.647 25.5207 331.564 28.8187 331.564 28.8187L319.456 35.7691L316.136 40.3067L309.783 41.524L301.305 51.8168L284.372 50.0017L277.112 48.4965L271.069 48.8064C271.069 48.8064 243.666 41.015 240.523 18.2604C238.332 2.30127 238.708 0.419815 238.708 0.419815L235.676 -2.90039C235.676 -2.90039 234.746 -10.0278 236.163 -20.1655C237.247 -28.0455 239.749 -37.6962 245.127 -47.2584Z" fill="#284F51" stroke="#638283" strokeWidth="1.5"/>
<path d="M252.643 198.175C252.643 198.175 254.723 201.318 258.043 207.317C261.386 213.315 266.698 217.653 266.698 217.653L276.703 221.992C276.703 221.992 291.024 236.645 293.039 239.323C295.031 241.98 310.702 258.647 310.702 258.647L320.375 274.65V291.65V307.653C320.375 307.653 320.375 316.662 323.031 321.311C325.687 325.981 326.019 336.008 325.023 344.154C324.027 352.299 322.699 356.97 322.699 356.97L319.711 370.627L316.723 388.954C316.723 388.954 314.908 399.114 309.795 407.791C317.188 403.652 320.043 414.963 322.721 423.285C325.377 431.608 322.721 449.604 322.721 454.274C322.721 468.042 337.374 452.282 337.374 452.282L342.709 446.947L349.703 442.941L355.038 431.608H360.372L369.027 419.943L384.012 403.276H390.343L396.673 396.281L402.672 394.621L421.132 386.962L419.339 378.64L414.669 372.973C414.669 372.973 410.995 366.975 409.003 363.986C407.01 360.976 405.66 341.32 407.674 332.666C409.667 324.011 407.674 324.011 405.682 320.005C403.69 315.998 408.006 308.672 408.006 308.672L404.332 293.686C404.332 293.686 399.662 278.015 400.99 268.032C402.318 258.027 408.98 251.697 408.98 251.697L412.655 243.042L419.981 232.085L421.641 225.378L423.966 217.056C423.966 217.056 424.298 205.723 427.95 196.072C431.602 186.399 424.298 173.738 424.298 173.738C424.298 173.738 424.962 172.41 415.975 142.749C406.988 113.089 441.452 120.415 441.452 120.415L439.194 111.407C439.194 111.407 433.196 105.032 433.948 99.3874C434.701 93.7652 422.682 95.6245 422.682 95.6245C422.682 95.6245 420.048 94.4956 417.037 91.1312C414.027 87.7445 411.792 92.6363 415.909 76.8764C420.048 61.1164 411.415 47.5921 411.415 47.5921C411.415 47.5921 403.912 38.9595 394.903 48.721C385.894 58.4824 385.518 53.5906 376.885 52.1076C368.252 50.6024 364.49 45.3565 364.49 45.3565C364.49 45.3565 351.718 35.5951 342.355 29.2203C340.385 27.8922 339.234 26.6969 338.636 25.6123C338.614 25.6123 331.531 28.9104 331.531 28.9104L319.423 35.8607L316.103 40.3983L309.75 41.6157L301.273 51.9084C301.273 51.9084 305.5 57.6634 307.935 64.0161C310.37 70.3688 316.103 74.3088 320.331 75.504C324.558 76.7214 333.036 80.3516 330.004 94.5621C326.971 108.773 311.255 115.125 311.255 115.125C311.255 115.125 297.643 121.168 294.322 121.478C291.002 121.788 284.937 123.293 283.122 128.428C281.307 133.563 277.677 132.656 273.139 135.091C268.602 137.504 264.972 131.771 262.559 149.611C260.213 167.319 265.946 173.672 252.643 198.175Z" fill="#284F51" stroke="#638283" strokeWidth="1.5"/>
<path d="M539.371 293.697C538.663 291.705 537.976 289.69 537.976 289.69C537.976 289.69 535.32 284.599 531.314 276.609C527.307 268.618 518.653 264.944 518.653 264.944C517.657 255.935 517.989 250.29 529.034 249.604C540.079 248.918 537.667 231.963 537.667 231.963C537.667 231.963 532 230.258 538.663 214.941C545.325 199.602 533.992 199.602 533.992 199.602C533.992 199.602 528.326 199.934 521.065 196.946C513.805 193.935 518.985 184.617 520.645 178.286C522.283 172.022 518.476 160.113 518.387 159.826C510.684 164.319 499.993 164.961 489.523 163.456C476.375 161.574 478.633 152.189 478.633 152.189C478.633 152.189 476.752 148.05 476.375 143.933C475.999 139.816 474.494 135.677 466.99 133.043C459.487 130.409 453.488 124.034 453.488 124.034L447.49 121.776L441.491 120.271C441.491 120.271 407.005 112.944 416.014 142.605C425.023 172.265 424.337 173.593 424.337 173.593C424.337 173.593 431.663 186.255 427.989 195.927C424.337 205.6 424.005 216.911 424.005 216.911L421.68 225.234L420.02 231.941L412.694 242.897L409.019 251.552C409.019 251.552 402.357 257.883 401.029 267.888C399.701 277.892 404.371 293.542 404.371 293.542L408.045 308.527C408.045 308.527 403.707 315.853 405.721 319.86C407.713 323.866 409.728 323.866 407.713 332.521C405.721 341.176 407.049 360.854 409.041 363.842C411.034 366.83 414.708 372.828 414.708 372.828L419.378 378.495L421.171 386.818C421.171 386.818 425.377 391.156 434.032 388.81C442.686 386.486 456.366 393.148 456.366 393.148L483.016 407.137L485.008 411.808L496.673 422.145C496.673 422.145 498.665 426.483 509.002 430.467C519.339 434.474 517.325 412.472 517.325 412.472L520.667 405.809C530.672 386.818 543.333 411.144 543.333 411.144C559.336 404.149 554.002 420.817 554.002 420.817H558.008L559.004 415.15C559.004 415.15 558.672 409.484 562.546 397.154C566.42 384.825 573.68 390.492 574.012 403.817C574.344 417.142 582.002 409.152 588.51 397.154C594.996 385.157 614.673 374.489 614.673 374.489H630.677L638.003 353.837C638.003 353.837 641.678 348.17 644.002 337.014C646.326 325.858 653.675 319.506 653.675 319.506C645.684 314.503 644.002 302.838 643.006 295.512C642.01 288.185 632.669 291.173 632.669 291.173C632.669 291.173 622.332 292.169 619.012 287.167C615.692 282.164 608.011 284.157 608.011 284.157C608.011 284.157 597.342 290.819 593.026 306.823C588.709 322.826 582.246 319.484 582.246 319.484C582.246 319.484 578.372 319.484 569.032 329.157C559.691 338.829 551.368 336.815 551.368 336.815C551.368 336.815 551.368 330.485 551.368 321.83C551.368 313.175 547.694 302.506 547.694 302.506L540.788 297.504C540.743 297.592 540.057 295.667 539.371 293.697Z" fill="#284F51" stroke="#638283" strokeWidth="1.5"/>
<path d="M417.313 714.772C414.944 717.229 412.31 718.823 412.31 718.823C412.31 718.823 403.633 738.434 405.316 750.785C386.833 754.106 368.439 754.836 360.736 749.391C347.965 740.382 334.839 760.281 334.839 760.281L325.83 768.914L322.067 764.42L311.929 763.668C311.929 763.668 304.426 764.044 308.543 752.025C312.682 740.006 299.534 735.889 299.534 735.889C299.534 735.889 286.386 735.512 285.279 724.622C284.15 713.732 275.141 719 275.141 719C275.141 719 264.627 727.256 250.749 718.624C236.87 709.991 237.247 704.369 240.235 701.358C243.245 698.348 246.233 693.855 243.998 687.856C241.762 681.858 243.998 677.718 243.998 677.718C243.998 677.718 244.75 670.215 234.612 667.957C224.475 665.699 223.346 655.562 222.97 650.316C222.593 645.07 219.583 640.554 219.583 640.554L218.83 635.685L214.691 632.674L208.693 627.052L204.199 623.665C204.199 623.665 202.694 609.411 196.696 603.39C190.697 597.392 192.202 588.759 193.685 587.63C195.19 586.501 201.189 587.63 197.072 578.621C192.955 569.612 206.081 568.107 206.081 568.107C206.081 568.107 223.722 571.118 225.98 544.844C225.98 544.844 223.346 538.092 227.861 534.33C232.355 530.567 234.989 528.331 234.989 528.331L251.878 529.46C251.878 529.46 263.52 531.341 266.885 518.193C270.272 505.045 279.878 484.726 287.16 479.524C289.794 477.642 298.051 484.394 293.535 467.505C293.535 467.505 289.042 465.623 291.654 456.991C293.491 450.948 291.831 440.279 287.957 434.568C291.233 424.608 293.004 424.209 303.341 415.886C306.041 413.695 308.277 410.818 310.092 407.741C317.485 403.602 320.34 414.913 323.019 423.235C325.675 431.558 323.019 449.553 323.019 454.224C323.019 467.992 337.672 452.232 337.672 452.232L343.006 446.897L350.001 442.891L355.335 431.558H360.67L369.325 419.893L384.31 403.225H390.64L396.971 396.231L402.969 394.571L421.43 386.912C421.43 386.912 425.635 391.251 434.312 388.904C434.312 388.904 429.642 433.882 434.312 447.561L445.977 459.868C445.977 459.868 455.982 469.895 448.301 488.223C440.643 506.55 443.963 517.219 443.963 517.219C443.963 517.219 443.299 533.555 457.62 535.547C471.941 537.539 471.277 535.547 471.277 535.547C471.277 535.547 490.933 540.881 468.621 552.214C468.621 552.214 457.222 552.547 455.761 563.547L453.636 570.21L448.965 578.201L448.301 587.542L449.629 595.532L448.633 597.856L446.641 610.517C446.641 610.517 439.979 620.19 443.299 628.513C446.641 636.836 449.629 657.841 438.961 673.159C428.292 688.498 420.301 700.495 420.965 706.826C421.297 709.814 419.416 712.625 417.313 714.772Z" fill="#284F51" stroke="#638283" strokeWidth="1.5"/>
<path d="M665.845 802.091C652.697 800.01 610.398 793.326 610.398 793.326C610.398 793.326 543.971 778.318 523.32 769.686C502.668 761.053 472.277 744.164 472.277 744.164C472.277 744.164 461.763 733.274 438.499 741.907C429.291 745.315 417.139 748.636 405.009 750.805C403.327 738.454 412.004 718.842 412.004 718.842C412.004 718.842 421.345 713.176 420.659 706.845C419.995 700.515 427.985 688.518 438.654 673.178C449.323 657.839 446.313 636.855 442.993 628.532C439.65 620.21 446.335 610.537 446.335 610.537L448.327 597.876L449.323 595.552L447.995 587.561L448.659 578.22L453.33 570.23L455.454 563.567C456.915 552.566 468.315 552.234 468.315 552.234C490.649 540.901 470.971 535.567 470.971 535.567C470.971 535.567 471.635 537.559 457.314 535.567C442.993 533.574 443.657 517.239 443.657 517.239C443.657 517.239 440.314 506.57 447.995 488.242C455.676 469.915 445.671 459.888 445.671 459.888L434.006 447.581C429.335 433.924 434.006 388.924 434.006 388.924C442.661 386.6 456.34 393.262 456.34 393.262C456.34 393.262 444.011 410.926 443.679 427.261C443.347 443.597 445.007 462.544 465.681 459.888C486.332 457.254 490.339 454.575 490.339 454.575C490.339 454.575 512.341 447.913 525.666 468.233C538.991 488.552 546.65 486.228 546.65 486.228L562.52 486.317L593.642 489.239C593.642 489.239 610.309 492.913 617.636 491.231C624.962 489.571 629.965 485.232 634.967 486.228C639.97 487.224 643.622 486.892 650.971 483.572C658.32 480.252 676.293 476.577 679.303 478.57C682.314 480.562 694.975 479.234 693.957 496.565C692.96 513.897 694.023 513.874 694.023 513.874L690.636 521.887C690.636 521.887 685.966 559.87 687.294 565.537C688.622 571.203 682.956 587.207 665.624 587.871C648.292 588.535 649.953 585.215 638.288 592.873C626.623 600.532 623.634 626.208 623.634 626.208L621.974 640.198L623.634 649.538L622.306 654.209L623.966 662.2L623.302 671.208L621.974 678.203L623.634 683.205L625.294 694.538L634.967 709.192L636.627 722.517L642.958 727.519L646.964 739.516L649.975 746.511L652.299 753.837L666.288 771.501L666.62 786.486L679.48 802.711H669.719C669.697 802.711 668.258 802.49 665.845 802.091Z" fill="#284F51" stroke="#638283" strokeWidth="1.5"/>
<path d="M81.158 32.0486L86.3154 41.1902L88.4403 47.8528C88.4403 47.8528 82.9951 55.4229 81.2686 62.9708C76.7089 82.8257 101.146 80.2138 101.146 80.2138C101.146 80.2138 117.171 82.3387 119.894 93.7603C122.616 105.204 132.001 100.157 136.827 88.0495C141.652 75.9418 151.347 90.4844 151.347 90.4844C165.27 98.6521 171.003 88.9791 171.003 88.9791L179.481 82.3166C179.481 82.3166 181.251 78.6201 181.273 78.5759C181.273 83.0913 181.65 89.5104 182.734 98.6078C185.656 122.801 172.84 129.774 172.84 129.774L146.079 153.236L143.157 160.563L117.127 187.324L112.368 195.381L102.474 203.084L99.5519 211.517L85.2529 231.992L81.2022 237.481C82.0876 231.549 80.4939 225.108 69.9356 223.935C49.6602 221.677 54.4192 224.223 36.158 195.403C26.3966 180.019 30.5358 178.891 21.9032 176.257C13.2707 173.622 5.39068 156.734 2.00406 135.728C-1.38256 114.7 5.76697 111.335 5.76697 111.335C5.76697 111.335 13.2707 98.1873 3.88552 82.8036C-5.49962 67.4199 11.0129 68.5488 11.0129 68.5488C11.0129 68.5488 33.3247 77.1149 23.0321 44.1563C17.4098 26.1386 35.0513 26.8912 35.0513 26.8912L44.7684 36.0549C44.7684 36.0549 52.0065 36.2763 55.9022 37.1617C67.0802 39.7293 73.4329 32.9782 73.4329 32.9782L81.158 32.0486Z" fill="#284F51" stroke="#638283" strokeWidth="1.5"/>
<path d="M256.621 190.134C264.679 172.005 260.473 165.188 262.62 149.472C265.033 131.632 268.663 137.364 273.2 134.952C277.738 132.539 281.368 133.447 283.183 128.289C284.998 123.154 291.041 121.627 294.383 121.339C297.704 121.029 311.316 114.986 311.316 114.986C311.316 114.986 327.032 108.634 330.065 94.4231C333.097 80.2126 324.619 76.5824 320.392 75.365C316.164 74.1476 310.409 70.2297 307.996 63.8771C305.584 57.5244 301.334 51.7694 301.334 51.7694L284.401 49.9543L277.14 48.4491L271.098 48.7591C271.098 48.7591 243.695 40.9676 240.552 18.2131C238.36 2.25393 238.737 0.372482 238.737 0.372482L235.704 -2.94773C235.704 -2.94773 234.774 -10.0751 236.191 -20.2128C236.191 -20.2128 225.124 -22.9133 224.836 -10.208C224.526 2.49739 222.711 13.3877 222.711 13.3877C222.711 13.3877 223.021 20.9578 214.233 27.0006C205.446 33.0434 201.218 37.7359 201.218 37.7359L194.268 49.3788L188.513 57.8564L184.573 64.519L183.068 74.8116C183.068 74.8116 182.16 76.7152 181.231 78.6188C181.231 83.1343 181.607 89.5534 182.691 98.6507C185.613 122.844 172.797 129.817 172.797 129.817L146.036 153.279L143.114 160.606L117.084 187.367L112.325 195.424L102.431 203.127L99.509 211.56L85.2099 232.035L81.1593 237.524C80.3403 242.992 77.3964 247.994 77.3964 247.994V255.874L81.1593 266.388L85.5862 263.444H95.4583L100.394 261.164H107.987L119.364 250.163H136.341C136.341 250.163 151.614 238.011 158.055 240.291C164.497 242.571 177.025 248.813 195.994 232.035C214.964 215.257 232.65 196.331 252.637 198.213C253.832 196.022 254.851 193.985 255.758 192.059C256.068 191.373 256.356 190.731 256.621 190.134Z" fill="#284F51" stroke="#638283" strokeWidth="1.5"/>
<path d="M134.037 424.888C132.643 422.453 132.665 418.181 136.339 410.832C141.209 401.071 131.846 397.684 131.846 397.684L123.966 392.815C123.966 392.815 114.581 387.192 117.967 374.797C121.354 362.402 121.73 341.019 94.7038 343.454C67.6773 345.889 60.5499 334.622 60.5499 334.622L59.0447 320.744L53.7988 313.24L48.1766 309.854C48.1766 309.854 43.6832 304.608 49.6817 300.469C55.6802 296.329 65.4417 294.094 65.4417 294.094C65.4417 294.094 77.4608 289.6 75.5794 279.086C73.6979 268.572 81.2016 266.315 81.2016 266.315L85.6286 263.371H95.5007L100.437 261.091H108.029L119.406 250.09H136.384C136.384 250.09 151.657 237.938 158.098 240.218C164.539 242.498 177.067 248.74 196.037 231.961C215.006 215.183 232.692 196.258 252.68 198.14C252.68 198.14 254.76 201.283 258.08 207.281C261.423 213.28 266.735 217.618 266.735 217.618L276.74 221.957C276.74 221.957 291.061 236.61 293.075 239.288C295.068 241.944 310.739 258.612 310.739 258.612L320.412 274.615V291.615V307.618C320.412 307.618 320.412 316.627 323.068 321.275C325.724 325.946 326.056 335.973 325.06 344.118C324.064 352.264 322.736 356.934 322.736 356.934L319.748 370.591L316.76 388.919C316.76 388.919 314.945 399.079 309.832 407.756C308.016 410.832 305.803 413.732 303.08 415.901C292.743 424.224 290.995 424.622 287.697 434.583C286.037 432.148 283.978 430.621 281.632 430.732C273.752 431.108 259.497 433.366 259.497 433.366C259.497 433.366 210.336 441.998 183.309 432.613C156.283 423.228 142.028 428.12 142.028 428.12C142.028 428.12 136.229 428.784 134.037 424.888Z" fill="#FCFF45" stroke="#FCFF45" strokeWidth="1.25"/>
<g filter="url(#filter0_b_1030_16849)">
<rect x="172.955" y="310.126" width="60.8565" height="25.747" fill="white" fill-opacity="0.08"/>
<rect x="172.955" y="310.126" width="60.8565" height="25.747" fill="#325B5D" fill-opacity="0.16"/>
<rect x="173.455" y="310.626" width="59.8565" height="24.747" stroke="white" strokeOpacity="0.2"/>
<path d="M193.743 319.9H196.293C197.153 319.9 197.796 320.056 198.223 320.37C198.656 320.676 198.873 321.16 198.873 321.82C198.873 322.12 198.81 322.383 198.683 322.61C198.556 322.836 198.37 323.016 198.123 323.15C197.883 323.276 197.596 323.343 197.263 323.35L197.253 323.31C197.853 323.323 198.323 323.486 198.663 323.8C199.003 324.113 199.173 324.53 199.173 325.05C199.173 325.69 198.956 326.176 198.523 326.51C198.096 326.836 197.48 327 196.673 327H193.743V319.9ZM196.643 326.03C197.096 326.03 197.446 325.936 197.693 325.75C197.94 325.563 198.063 325.296 198.063 324.95C198.063 324.603 197.94 324.333 197.693 324.14C197.446 323.946 197.096 323.85 196.643 323.85H194.823V326.03H196.643ZM196.273 322.93C196.746 322.93 197.113 322.84 197.373 322.66C197.633 322.48 197.763 322.226 197.763 321.9C197.763 321.553 197.636 321.296 197.383 321.13C197.136 320.956 196.766 320.87 196.273 320.87H194.823V322.93H196.273ZM203.43 327.16C202.75 327.16 202.16 327.013 201.66 326.72C201.167 326.42 200.787 325.993 200.52 325.44C200.254 324.88 200.12 324.22 200.12 323.46C200.12 322.7 200.254 322.04 200.52 321.48C200.787 320.92 201.167 320.49 201.66 320.19C202.16 319.89 202.75 319.74 203.43 319.74C204.117 319.74 204.71 319.89 205.21 320.19C205.71 320.49 206.09 320.92 206.35 321.48C206.617 322.04 206.75 322.7 206.75 323.46C206.75 324.22 206.617 324.88 206.35 325.44C206.09 325.993 205.71 326.42 205.21 326.72C204.71 327.013 204.117 327.16 203.43 327.16ZM203.43 326.17C203.89 326.17 204.284 326.063 204.61 325.85C204.944 325.636 205.197 325.326 205.37 324.92C205.544 324.513 205.63 324.026 205.63 323.46C205.63 322.893 205.544 322.406 205.37 322C205.197 321.586 204.944 321.273 204.61 321.06C204.284 320.84 203.89 320.73 203.43 320.73C202.977 320.73 202.587 320.84 202.26 321.06C201.934 321.273 201.68 321.586 201.5 322C201.327 322.406 201.24 322.893 201.24 323.46C201.24 324.026 201.327 324.513 201.5 324.92C201.68 325.326 201.934 325.636 202.26 325.85C202.587 326.063 202.977 326.17 203.43 326.17ZM207.972 319.9H209.052V323.29L212.042 319.9H213.352L210.632 323L213.532 327H212.262L209.912 323.76L209.052 324.72V327H207.972V319.9Z" fill="#0E3E40"/>
</g>
<path d="M81.1533 32.0464L85.3368 31.5594L92.5748 28.2171L99.2595 26.2692C99.2595 26.2692 101.207 24.0336 114.001 17.0833C126.795 10.133 126.175 3.4483 126.175 3.4483C126.175 3.4483 127.083 2.05382 126.242 -7.68547C125.401 -17.4248 132.639 -24.9506 132.639 -24.9506L139.589 -36.9255C139.589 -36.9255 141.537 -36.5935 145.72 -44.1636C146.938 -46.3549 143.773 -58.6397 140.165 -63.9299C138.881 -65.7892 138.305 -67.2723 138.084 -68.4011L143.529 -63.8635C143.529 -63.8635 156.301 -53.5487 157.651 -46.4877C160.197 -33.2511 172.039 -36.1729 172.039 -36.1729C172.039 -36.1729 173.522 -36.8591 182.353 -37.1247C191.185 -37.3903 193.62 -42.2821 199.729 -44.1857C205.838 -46.0893 209.646 -42.7027 214.405 -38.6077C219.164 -34.5349 224.321 -34.1365 230.032 -33.4504C234.304 -32.9413 238.044 -34.4907 241.586 -40.1572C238.554 -33.0298 236.96 -26.1459 236.141 -20.258C236.141 -20.258 225.073 -22.9585 224.786 -10.2531C224.476 2.45223 222.661 13.3425 222.661 13.3425C222.661 13.3425 222.971 20.9126 214.183 26.9554C205.396 32.9982 201.168 37.6908 201.168 37.6908L194.218 49.3336L188.463 57.8113L184.523 64.4738L183.017 74.7665L179.387 82.3365L170.91 88.9991C170.91 88.9991 165.155 98.672 151.254 90.5043C151.254 90.5043 141.581 75.9396 136.734 88.0694C131.886 100.199 122.523 105.224 119.801 93.7802C117.078 82.3366 101.052 80.2338 101.052 80.2338C101.052 80.2338 76.5936 82.8457 81.1754 62.9908C82.9241 55.4207 88.3471 47.8728 88.3471 47.8728L86.2222 41.2102L81.1533 32.0464Z" fill="#284F51" stroke="#638283" strokeWidth="1.5"/>
<path d="M508.321 430.314C508.542 430.402 508.764 430.491 508.985 430.579C519.322 434.586 517.308 412.584 517.308 412.584L520.65 405.921C530.655 386.93 543.316 411.256 543.316 411.256C559.319 404.261 553.985 420.929 553.985 420.929H557.991L558.988 415.262C558.988 415.262 558.656 409.596 562.529 397.267C566.403 384.937 573.663 390.604 573.995 403.929C574.327 417.254 581.985 409.264 588.493 397.267C594.979 385.27 614.656 374.601 614.656 374.601H630.66C630.66 374.601 637.986 374.269 642.325 382.259C646.663 390.25 651.666 388.922 651.666 388.922C651.666 388.922 658.328 384.915 661.671 396.58C665.013 408.245 666.009 417.232 668.997 419.578C671.985 421.903 672.34 429.251 672.34 429.251L682.012 433.922C682.012 433.922 685.023 445.255 700.34 446.915C715.679 448.575 725.662 448.243 723.006 462.918C720.35 477.571 718.668 479.918 718.668 479.918L714.329 487.576L710.655 494.903L707.999 500.237L693.921 507.719C693.921 507.719 693.744 507.808 693.589 507.896C693.611 505.351 693.722 501.721 694.01 496.563C695.006 479.232 682.344 480.56 679.356 478.568C676.346 476.575 658.373 480.228 651.024 483.57C643.675 486.912 640.023 487.244 635.02 486.226C630.018 485.208 625.015 489.569 617.689 491.229C610.362 492.889 593.695 489.237 593.695 489.237L562.573 486.315L546.703 486.226C546.703 486.226 539.044 488.55 525.719 468.231C512.394 447.911 490.392 454.573 490.392 454.573C490.392 454.573 486.386 457.23 465.734 459.886C445.082 462.52 443.4 443.573 443.732 427.259C444.064 410.924 456.393 393.26 456.393 393.26L483.043 407.249L485.035 411.92L496.7 422.257C496.656 422.235 498.56 426.374 508.321 430.314Z" fill="#284F51" stroke="#638283" strokeWidth="1.5"/>
<path d="M519.667 159.03C519.247 159.318 518.826 159.584 518.383 159.827C518.428 159.96 522.301 172.001 520.641 178.287C518.981 184.618 513.802 193.959 521.062 196.947C528.322 199.935 533.988 199.603 533.988 199.603C533.988 199.603 545.321 199.603 538.659 214.943C531.996 230.282 537.663 231.964 537.663 231.964C537.663 231.964 540.076 248.919 529.03 249.606C517.985 250.292 517.653 255.936 518.649 264.945C518.649 264.945 527.304 268.619 531.31 276.61C535.317 284.601 537.973 289.692 537.973 289.692L540.74 297.594L547.646 302.596C547.646 302.596 551.32 313.265 551.32 321.92C551.32 330.574 551.32 336.905 551.32 336.905C551.32 336.905 559.643 338.897 568.984 329.246C578.324 319.574 582.198 319.574 582.198 319.574C582.198 319.574 588.661 322.916 592.978 306.912C597.294 290.909 607.963 284.246 607.963 284.246C607.963 284.246 615.621 282.254 618.964 287.257C622.306 292.259 632.621 291.263 632.621 291.263C632.621 291.263 641.962 288.253 642.958 295.602C643.954 302.928 645.614 314.593 653.627 319.596L667.306 305.983C667.306 305.983 673.637 300.051 676.005 290.555C678.373 281.059 684.948 279.266 684.948 279.266C678.617 264.945 682.601 253.28 682.601 253.28C682.601 253.28 686.608 244.625 686.94 235.948C687.272 227.294 697.609 220.609 697.609 220.609C697.609 220.609 697.609 220.609 697.941 197.943C698.273 175.277 685.612 167.618 681.273 161.952C676.935 156.285 671.954 144.311 671.954 144.311L656.194 147.321C656.194 147.321 637.048 157.835 627.663 153.696C618.278 149.556 607.011 152.567 607.011 152.567C607.011 152.567 589.746 157.06 572.481 160.823C555.216 164.586 551.076 152.19 551.076 152.19C551.076 152.19 551.077 147.321 545.078 143.558C539.079 139.795 531.199 147.321 523.674 155.577C522.501 156.905 521.15 158.056 519.667 159.03Z" fill="#284F51" stroke="#638283" strokeWidth="1.5"/>
<defs>
<filter id="filter0_b_1030_16849" x="106.955" y="244.126" width="192.856" height="157.747" filterUnits="userSpaceOnUse" color-interpolation-filters="sRGB">
<feFlood flood-opacity="0" result="BackgroundImageFix"/>
<feGaussianBlur in="BackgroundImageFix" stdDeviation="33"/>
<feComposite in2="SourceAlpha" operator="in" result="effect1_backgroundBlur_1030_16849"/>
<feBlend mode="normal" in="SourceGraphic" in2="effect1_backgroundBlur_1030_16849" result="shape"/>
</filter>
</defs>
</svg>
