<svg width="697" height="683" viewBox="0 0 697 683" fill="none" xmlns="http://www.w3.org/2000/svg">
<path d="M59.2225 187.332C57.1197 184.012 55.2382 181.068 55.2382 181.068L53.3568 172.436L43.5954 163.803L42.4665 146.538L52.6042 130.402L52.9805 109.75C52.9805 109.75 56.7434 100.365 61.9893 97.3546C67.2353 94.3442 83.7699 79.3369 83.7699 79.3369L110.044 62.0718C110.044 62.0718 124.675 56.0732 122.439 39.1844C122.439 39.1844 113.807 31.6807 122.439 20.0378C131.072 8.39496 126.202 16.2749 126.202 16.2749L131.072 1.26758L137.823 5.76093H147.961C147.961 5.76093 147.208 3.1269 155.088 7.2661C162.968 11.4053 170.095 12.8883 170.095 12.8883L178.728 20.0157H192.607L208.366 22.2735C208.366 22.2735 215.118 22.2735 218.128 29.7771C221.138 37.2808 226.008 46.2897 226.008 46.2897V58.3088L215.87 69.9517L216.246 80.4657L213.612 84.9591V99.5901L232.006 111.609C232.006 111.609 239.51 113.491 239.51 124.381C239.51 135.271 237.629 136.4 237.629 136.4L234.995 160.416C234.995 160.416 230.501 181.821 230.125 188.948C229.749 196.076 228.62 202.827 226.738 205.084C226.738 205.084 208.566 209.334 203.851 209.047C199.114 208.759 194.112 210.441 190.769 213.23C187.427 216.019 182.425 221.863 176.847 222.682C171.291 223.523 167.107 231.314 167.107 231.314L156.261 241.053L152.366 246.344L149.577 250.793L144.286 255.242L141.232 262.192L138.443 268.589C138.443 268.589 136.495 270.825 140.103 276.093C143.711 281.383 146.876 293.668 145.659 295.859C141.475 303.429 139.527 303.097 139.527 303.097L132.577 315.072C132.577 315.072 125.339 322.576 126.18 332.337C127.021 342.076 126.114 343.471 126.114 343.471C126.114 343.471 126.733 350.156 113.94 357.106C101.146 364.056 99.1979 366.292 99.1979 366.292L92.5132 368.24L85.2751 371.582L73.3002 372.977C73.3002 372.977 66.9475 379.705 55.7695 377.16C51.8737 376.275 44.6357 376.053 44.6357 376.053L34.9185 366.889L42.7985 357.881L43.9274 348.119L40.917 339.863L43.9274 323.35L42.4222 306.462C42.4222 306.462 42.0459 296.7 39.7882 294.066C37.5304 291.432 36.7778 280.564 40.917 275.672C45.0562 270.802 51.4311 264.029 41.6696 255.397C31.9082 246.764 31.9082 246.764 31.9082 246.764C31.9082 246.764 33.4134 233.262 45.0562 233.992C56.6991 234.745 73.9642 235.121 72.4591 217.856C70.9539 200.591 64.9554 196.452 64.9554 196.452C64.9554 196.452 61.9229 191.582 59.2225 187.332Z" fill="#284F51" stroke="#638283" strokeWidth="1.5"/>
<path d="M1101.96 558.713C1120.14 557.916 1137.38 560.926 1137.38 560.926C1137.38 560.926 1147.52 553.046 1143 539.146C1138.49 525.245 1130.61 518.87 1120.87 511.743C1111.11 504.616 1097.98 486.222 1092.71 477.213C1087.47 468.204 1077.33 468.58 1077.33 468.58L1073.94 465.57L1061.17 458.819L1034.52 449.057L1018.76 441.177L1013.14 435.931L1000.37 424.665C1000.37 424.665 983.853 417.161 975.597 411.517C967.341 405.895 947.442 413.398 947.442 413.398C947.442 413.398 940.314 411.517 921.92 416.785C903.526 422.053 905.031 410.034 905.031 410.034C905.031 410.034 901.269 401.778 893.389 383.76C885.509 365.742 828.445 353.347 828.445 353.347L796.925 350.336C796.925 350.336 797.302 347.326 795.42 361.979C793.539 376.61 799.914 384.114 799.914 384.114C799.914 384.114 801.042 389.736 807.041 407.001C813.039 424.266 814.921 415.634 807.041 431.018C799.161 446.401 778.133 442.66 778.133 442.66C778.133 442.66 722.951 437.414 707.567 456.539C685.698 483.743 671.908 479.803 671.908 479.803V484.34C671.908 484.34 676.889 496.315 681.227 501.982C685.565 507.648 698.226 515.307 697.894 537.973C697.562 560.639 697.562 560.639 697.562 560.639C697.562 560.639 687.225 567.301 686.893 575.978C686.561 584.633 682.555 593.31 682.555 593.31C682.555 593.31 678.571 604.975 684.901 619.296C696.898 611.637 711.884 615.289 711.884 615.289C738.534 615.953 736.542 624.298 736.542 624.298C736.542 624.298 736.874 637.955 746.215 639.97C755.555 641.984 749.889 652.631 749.889 652.631C748.893 663.3 743.89 665.624 767.885 667.97C791.879 670.294 792.875 654.313 792.875 654.313C792.875 654.313 805.226 655.021 813.526 651.325C832.496 642.869 829.862 638 816.515 630.673C803.167 623.346 816.515 613.009 816.515 613.009L848.499 593.686C872.493 593.686 869.151 568.364 869.151 568.364L875.814 547.38C894.473 518.051 917.803 529.384 917.803 529.384C917.803 529.384 944.121 543.374 960.125 532.373C976.128 521.372 991.114 530.712 991.114 530.712C991.114 530.712 1006.78 547.38 1022.77 561.015C1038.75 574.65 1054.09 572.37 1076.75 563.383C1084.21 560.373 1093.2 559.089 1101.96 558.713Z" fill="#284F51" stroke="#638283" strokeWidth="1.5"/>
<path d="M743.809 876.499C743.189 874.307 742.591 872.204 742.591 872.204C742.591 872.204 752.264 867.202 745.933 857.219C739.603 847.214 750.604 843.562 750.604 843.562C750.604 843.562 756.27 832.229 747.616 823.574C738.961 814.92 747.616 801.572 747.616 801.572C747.616 801.572 752.95 794.246 745.291 785.901C737.633 777.556 743.963 767.573 748.634 764.563C753.304 761.553 761.295 756.572 761.295 756.572C761.295 756.572 768.29 755.908 770.304 746.568C772.296 737.227 775.638 733.907 770.968 727.576C766.297 721.245 771.964 712.591 773.292 708.252C774.62 703.914 776.457 701.014 770.636 687.269C769.308 684.125 767.98 667.945 767.98 667.945C743.986 665.621 748.988 663.274 749.984 652.606C749.984 652.606 755.651 641.937 746.31 639.944C736.969 637.952 736.637 624.273 736.637 624.273C736.637 624.273 738.629 615.95 711.979 615.264C711.979 615.264 696.993 611.59 684.996 619.271C684.996 619.271 678.422 621.064 676.054 630.559C673.686 640.055 667.355 645.987 667.355 645.987L653.676 659.6C653.676 659.6 646.349 665.931 644.003 677.109C641.657 688.287 638.004 693.931 638.004 693.931L630.678 714.583C630.678 714.583 638.004 714.251 642.343 722.242C646.681 730.232 651.684 728.904 651.684 728.904C651.684 728.904 658.346 724.898 661.689 736.563C665.031 748.228 666.027 757.214 669.015 759.561C672.003 761.885 672.358 769.234 672.358 769.234L682.03 773.904C682.03 773.904 685.041 785.237 700.358 786.897C715.697 788.557 725.68 788.225 723.024 802.901C720.368 817.554 718.686 819.9 718.686 819.9L714.347 827.559L710.673 834.885L708.017 840.22C708.017 840.22 694.116 847.613 693.607 847.878C693.695 852.062 694.072 853.855 694.072 853.855L690.685 861.867C690.685 861.867 687.476 888.075 687.144 900.205C689.6 904.189 698.344 902.529 698.344 902.529L709.013 895.534L716.339 904.875L720.014 903.215L725.016 901.555L729.023 903.547L738.031 904.875H746.022L744.694 897.881L742.702 888.208L745.358 881.545C745.247 881.545 744.517 878.956 743.809 876.499Z" fill="#284F51" stroke="#638283" strokeWidth="1.5"/>
<path d="M245.127 292.742C249.753 281.187 243.91 268.017 239.505 260.956C235.1 253.895 234.945 247.233 234.945 247.233V233.797L238.487 230.941L240.125 224.832C240.125 224.832 244.065 216 244.109 215.912C247.894 216.31 253.494 216.532 258.718 215.226C267.727 212.968 291.367 209.98 291.367 209.98L326.273 198.713L346.549 196.455L374.704 196.079L381.832 197.961C381.832 197.961 392.722 202.83 396.086 210.356C399.451 217.882 401.332 229.503 401.332 229.503C401.332 229.503 403.59 239.64 406.578 244.134C409.589 248.627 411.448 252.39 412.953 261.022C414.458 269.655 415.963 280.169 415.963 280.169C415.963 280.169 415.587 288.049 412.2 291.059C408.814 294.07 406.202 304.562 406.202 304.562C406.202 304.562 405.073 328.201 379.175 340.973C353.278 353.745 348.386 355.604 348.386 355.604L342.011 359.367C342.011 359.367 336.367 361.492 338.669 365.521C338.647 365.521 331.564 368.819 331.564 368.819L319.456 375.769L316.136 380.307L309.783 381.524L301.305 391.817L284.372 390.002L277.112 388.497L271.069 388.806C271.069 388.806 243.666 381.015 240.523 358.26C238.332 342.301 238.708 340.42 238.708 340.42L235.676 337.1C235.676 337.1 234.746 329.972 236.163 319.834C237.247 311.955 239.749 302.304 245.127 292.742Z" fill="#FCFF45" stroke="#FCFF45" strokeWidth="1.25"/>
<g filter="url(#filter0_b_1030_16995)">
<rect x="294.631" y="275.366" width="60.8565" height="25.747" fill="white" fill-opacity="0.08"/>
<rect x="294.631" y="275.366" width="60.8565" height="25.747" fill="#325B5D" fill-opacity="0.16"/>
<rect x="295.131" y="275.866" width="59.8565" height="24.747" stroke="white" strokeOpacity="0.2"/>
<path d="M321.54 292.399C321.073 292.399 320.66 292.293 320.3 292.079C319.94 291.859 319.66 291.556 319.46 291.169C319.266 290.783 319.17 290.343 319.17 289.849L320.27 289.789C320.276 290.316 320.39 290.719 320.61 290.999C320.83 291.273 321.14 291.409 321.54 291.409C321.96 291.409 322.28 291.266 322.5 290.979C322.726 290.693 322.84 290.279 322.84 289.739V285.139H323.92V289.739C323.92 290.273 323.823 290.743 323.63 291.149C323.436 291.549 323.16 291.859 322.8 292.079C322.44 292.293 322.02 292.399 321.54 292.399ZM325.494 285.139H330.114V286.129H326.574V288.199H329.994V289.159H326.574V291.249H330.194V292.239H325.494V285.139Z" fill="#0E3E40"/>
</g>
<path d="M252.643 538.175C252.643 538.175 254.723 541.318 258.043 547.317C261.386 553.315 266.698 557.653 266.698 557.653L276.703 561.992C276.703 561.992 291.024 576.645 293.039 579.323C295.031 581.98 310.702 598.647 310.702 598.647L320.375 614.65V631.65V647.653C320.375 647.653 320.375 656.662 323.031 661.311C325.687 665.981 326.019 676.008 325.023 684.154C324.027 692.299 322.699 696.97 322.699 696.97L319.711 710.627L316.723 728.954C316.723 728.954 314.908 739.114 309.795 747.791C317.188 743.652 320.043 754.963 322.721 763.285C325.377 771.608 322.721 789.604 322.721 794.274C322.721 808.042 337.374 792.282 337.374 792.282L342.709 786.947L349.703 782.941L355.038 771.608H360.372L369.027 759.943L384.012 743.276H390.343L396.673 736.281L402.672 734.621L421.132 726.962L419.339 718.64L414.669 712.973C414.669 712.973 410.995 706.975 409.003 703.986C407.01 700.976 405.66 681.32 407.674 672.666C409.667 664.011 407.674 664.011 405.682 660.005C403.69 655.998 408.006 648.672 408.006 648.672L404.332 633.686C404.332 633.686 399.662 618.015 400.99 608.032C402.318 598.027 408.98 591.697 408.98 591.697L412.655 583.042L419.981 572.085L421.641 565.378L423.966 557.056C423.966 557.056 424.298 545.723 427.95 536.072C431.602 526.399 424.298 513.738 424.298 513.738C424.298 513.738 424.962 512.41 415.975 482.749C406.988 453.089 441.452 460.415 441.452 460.415L439.194 451.407C439.194 451.407 433.196 445.032 433.948 439.387C434.701 433.765 422.682 435.625 422.682 435.625C422.682 435.625 420.048 434.496 417.037 431.131C414.027 427.745 411.792 432.636 415.909 416.876C420.048 401.116 411.415 387.592 411.415 387.592C411.415 387.592 403.912 378.96 394.903 388.721C385.894 398.482 385.518 393.591 376.885 392.108C368.252 390.602 364.49 385.357 364.49 385.357C364.49 385.357 351.718 375.595 342.355 369.22C340.385 367.892 339.234 366.697 338.636 365.612C338.614 365.612 331.531 368.91 331.531 368.91L319.423 375.861L316.103 380.398L309.75 381.616L301.273 391.908C301.273 391.908 305.5 397.663 307.935 404.016C310.37 410.369 316.103 414.309 320.331 415.504C324.558 416.721 333.036 420.352 330.004 434.562C326.971 448.773 311.255 455.125 311.255 455.125C311.255 455.125 297.643 461.168 294.322 461.478C291.002 461.788 284.937 463.293 283.122 468.428C281.307 473.563 277.677 472.656 273.139 475.091C268.602 477.504 264.972 471.771 262.559 489.611C260.213 507.319 265.946 513.672 252.643 538.175Z" fill="#284F51" stroke="#638283" strokeWidth="1.5"/>
<path d="M539.371 633.697C538.663 631.705 537.976 629.69 537.976 629.69C537.976 629.69 535.32 624.599 531.314 616.609C527.307 608.618 518.653 604.944 518.653 604.944C517.657 595.935 517.989 590.29 529.034 589.604C540.079 588.918 537.667 571.963 537.667 571.963C537.667 571.963 532 570.258 538.663 554.941C545.325 539.602 533.992 539.602 533.992 539.602C533.992 539.602 528.326 539.934 521.065 536.946C513.805 533.935 518.985 524.617 520.645 518.286C522.283 512.022 518.476 500.113 518.387 499.826C510.684 504.319 499.993 504.961 489.523 503.456C476.375 501.574 478.633 492.189 478.633 492.189C478.633 492.189 476.752 488.05 476.375 483.933C475.999 479.816 474.494 475.677 466.99 473.043C459.487 470.409 453.488 464.034 453.488 464.034L447.49 461.776L441.491 460.271C441.491 460.271 407.005 452.944 416.014 482.605C425.023 512.265 424.337 513.593 424.337 513.593C424.337 513.593 431.663 526.255 427.989 535.927C424.337 545.6 424.005 556.911 424.005 556.911L421.68 565.234L420.02 571.941L412.694 582.897L409.019 591.552C409.019 591.552 402.357 597.883 401.029 607.888C399.701 617.892 404.371 633.542 404.371 633.542L408.045 648.527C408.045 648.527 403.707 655.853 405.721 659.86C407.713 663.866 409.728 663.866 407.713 672.521C405.721 681.176 407.049 700.854 409.041 703.842C411.034 706.83 414.708 712.828 414.708 712.828L419.378 718.495L421.171 726.818C421.171 726.818 425.377 731.156 434.032 728.81C442.686 726.486 456.366 733.148 456.366 733.148L483.016 747.137L485.008 751.808L496.673 762.145C496.673 762.145 498.665 766.483 509.002 770.467C519.339 774.474 517.325 752.472 517.325 752.472L520.667 745.809C530.672 726.818 543.333 751.144 543.333 751.144C559.336 744.149 554.002 760.817 554.002 760.817H558.008L559.004 755.15C559.004 755.15 558.672 749.484 562.546 737.154C566.42 724.825 573.68 730.492 574.012 743.817C574.344 757.142 582.002 749.152 588.51 737.154C594.996 725.157 614.673 714.489 614.673 714.489H630.677L638.003 693.837C638.003 693.837 641.678 688.17 644.002 677.014C646.326 665.858 653.675 659.506 653.675 659.506C645.684 654.503 644.002 642.838 643.006 635.512C642.01 628.185 632.669 631.173 632.669 631.173C632.669 631.173 622.332 632.169 619.012 627.167C615.692 622.164 608.011 624.157 608.011 624.157C608.011 624.157 597.342 630.819 593.026 646.823C588.709 662.826 582.246 659.484 582.246 659.484C582.246 659.484 578.372 659.484 569.032 669.157C559.691 678.829 551.368 676.815 551.368 676.815C551.368 676.815 551.368 670.485 551.368 661.83C551.368 653.175 547.694 642.506 547.694 642.506L540.788 637.504C540.743 637.592 540.057 635.667 539.371 633.697Z" fill="#284F51" stroke="#638283" strokeWidth="1.5"/>
<path d="M81.158 372.049L86.3154 381.19L88.4403 387.853C88.4403 387.853 82.9951 395.423 81.2686 402.971C76.7089 422.826 101.146 420.214 101.146 420.214C101.146 420.214 117.171 422.339 119.894 433.76C122.616 445.204 132.001 440.157 136.827 428.05C141.652 415.942 151.347 430.484 151.347 430.484C165.27 438.652 171.003 428.979 171.003 428.979L179.481 422.317C179.481 422.317 181.251 418.62 181.273 418.576C181.273 423.091 181.65 429.51 182.734 438.608C185.656 462.801 172.84 469.774 172.84 469.774L146.079 493.236L143.157 500.563L117.127 527.324L112.368 535.381L102.474 543.084L99.5519 551.517L85.2529 571.992L81.2022 577.481C82.0876 571.549 80.4939 565.108 69.9356 563.935C49.6602 561.677 54.4192 564.223 36.158 535.403C26.3966 520.019 30.5358 518.891 21.9032 516.257C13.2707 513.622 5.39068 496.734 2.00406 475.728C-1.38256 454.7 5.76697 451.335 5.76697 451.335C5.76697 451.335 13.2707 438.187 3.88552 422.804C-5.49962 407.42 11.0129 408.549 11.0129 408.549C11.0129 408.549 33.3247 417.115 23.0321 384.156C17.4098 366.139 35.0513 366.891 35.0513 366.891L44.7684 376.055C44.7684 376.055 52.0065 376.276 55.9022 377.162C67.0802 379.729 73.4329 372.978 73.4329 372.978L81.158 372.049Z" fill="#284F51" stroke="#638283" strokeWidth="1.5"/>
<path d="M256.621 530.134C264.679 512.005 260.473 505.188 262.62 489.472C265.033 471.632 268.663 477.364 273.2 474.952C277.738 472.539 281.368 473.447 283.183 468.289C284.998 463.154 291.041 461.627 294.383 461.339C297.704 461.029 311.316 454.986 311.316 454.986C311.316 454.986 327.032 448.634 330.065 434.423C333.097 420.213 324.619 416.582 320.392 415.365C316.164 414.148 310.409 410.23 307.996 403.877C305.584 397.524 301.334 391.769 301.334 391.769L284.401 389.954L277.14 388.449L271.098 388.759C271.098 388.759 243.695 380.968 240.552 358.213C238.36 342.254 238.737 340.372 238.737 340.372L235.704 337.052C235.704 337.052 234.774 329.925 236.191 319.787C236.191 319.787 225.124 317.087 224.836 329.792C224.526 342.497 222.711 353.388 222.711 353.388C222.711 353.388 223.021 360.958 214.233 367.001C205.446 373.043 201.218 377.736 201.218 377.736L194.268 389.379L188.513 397.856L184.573 404.519L183.068 414.812C183.068 414.812 182.16 416.715 181.231 418.619C181.231 423.134 181.607 429.553 182.691 438.651C185.613 462.844 172.797 469.817 172.797 469.817L146.036 493.279L143.114 500.606L117.084 527.367L112.325 535.424L102.431 543.127L99.509 551.56L85.2099 572.035L81.1593 577.524C80.3403 582.992 77.3964 587.994 77.3964 587.994V595.874L81.1593 606.388L85.5862 603.444H95.4583L100.394 601.164H107.987L119.364 590.163H136.341C136.341 590.163 151.614 578.011 158.055 580.291C164.497 582.571 177.025 588.813 195.994 572.035C214.964 555.257 232.65 536.331 252.637 538.213C253.832 536.022 254.851 533.985 255.758 532.059C256.068 531.373 256.356 530.731 256.621 530.134Z" fill="#284F51" stroke="#638283" strokeWidth="1.5"/>
<path d="M134.037 764.888C132.643 762.453 132.665 758.181 136.339 750.832C141.209 741.071 131.846 737.684 131.846 737.684L123.966 732.815C123.966 732.815 114.581 727.192 117.967 714.797C121.354 702.402 121.73 681.019 94.7038 683.454C67.6773 685.889 60.5499 674.622 60.5499 674.622L59.0447 660.744L53.7988 653.24L48.1766 649.854C48.1766 649.854 43.6832 644.608 49.6817 640.469C55.6802 636.329 65.4417 634.094 65.4417 634.094C65.4417 634.094 77.4608 629.6 75.5794 619.086C73.6979 608.572 81.2016 606.315 81.2016 606.315L85.6286 603.371H95.5007L100.437 601.091H108.029L119.406 590.09H136.384C136.384 590.09 151.657 577.938 158.098 580.218C164.539 582.498 177.067 588.74 196.037 571.961C215.006 555.183 232.692 536.258 252.68 538.14C252.68 538.14 254.76 541.283 258.08 547.281C261.423 553.28 266.735 557.618 266.735 557.618L276.74 561.957C276.74 561.957 291.061 576.61 293.075 579.288C295.068 581.944 310.739 598.612 310.739 598.612L320.412 614.615V631.615V647.618C320.412 647.618 320.412 656.627 323.068 661.275C325.724 665.946 326.056 675.973 325.06 684.118C324.064 692.264 322.736 696.934 322.736 696.934L319.748 710.591L316.76 728.919C316.76 728.919 314.945 739.079 309.832 747.756C308.016 750.832 305.803 753.732 303.08 755.901C292.743 764.224 290.995 764.622 287.697 774.583C286.037 772.148 283.978 770.621 281.632 770.732C273.752 771.108 259.497 773.366 259.497 773.366C259.497 773.366 210.336 781.998 183.309 772.613C156.283 763.228 142.028 768.12 142.028 768.12C142.028 768.12 136.229 768.784 134.037 764.888Z" fill="#284F51" stroke="#638283" strokeWidth="1.5"/>
<path d="M81.1533 372.046L85.3368 371.559L92.5748 368.217L99.2595 366.269C99.2595 366.269 101.207 364.034 114.001 357.083C126.795 350.133 126.175 343.448 126.175 343.448C126.175 343.448 127.083 342.054 126.242 332.314C125.401 322.575 132.639 315.049 132.639 315.049L139.589 303.074C139.589 303.074 141.537 303.406 145.72 295.836C146.938 293.645 143.773 281.36 140.165 276.07C138.881 274.211 138.305 272.728 138.084 271.599L143.529 276.136C143.529 276.136 156.301 286.451 157.651 293.512C160.197 306.749 172.039 303.827 172.039 303.827C172.039 303.827 173.522 303.141 182.353 302.875C191.185 302.61 193.62 297.718 199.729 295.814C205.838 293.911 209.646 297.297 214.405 301.392C219.164 305.465 224.321 305.863 230.032 306.55C234.304 307.059 238.044 305.509 241.586 299.843C238.554 306.97 236.96 313.854 236.141 319.742C236.141 319.742 225.073 317.041 224.786 329.747C224.476 342.452 222.661 353.342 222.661 353.342C222.661 353.342 222.971 360.913 214.183 366.955C205.396 372.998 201.168 377.691 201.168 377.691L194.218 389.334L188.463 397.811L184.523 404.474L183.017 414.766L179.387 422.336L170.91 428.999C170.91 428.999 165.155 438.672 151.254 430.504C151.254 430.504 141.581 415.94 136.734 428.069C131.886 440.199 122.523 445.224 119.801 433.78C117.078 422.337 101.052 420.234 101.052 420.234C101.052 420.234 76.5936 422.846 81.1754 402.991C82.9241 395.421 88.3471 387.873 88.3471 387.873L86.2222 381.21L81.1533 372.046Z" fill="#284F51" stroke="#638283" strokeWidth="1.5"/>
<path d="M519.667 499.03C519.247 499.318 518.826 499.584 518.383 499.827C518.428 499.96 522.301 512.001 520.641 518.287C518.981 524.618 513.802 533.959 521.062 536.947C528.322 539.935 533.988 539.603 533.988 539.603C533.988 539.603 545.321 539.603 538.659 554.943C531.996 570.282 537.663 571.964 537.663 571.964C537.663 571.964 540.076 588.919 529.03 589.606C517.985 590.292 517.653 595.936 518.649 604.945C518.649 604.945 527.304 608.619 531.31 616.61C535.317 624.601 537.973 629.692 537.973 629.692L540.74 637.594L547.646 642.596C547.646 642.596 551.32 653.265 551.32 661.92C551.32 670.574 551.32 676.905 551.32 676.905C551.32 676.905 559.643 678.897 568.984 669.246C578.324 659.574 582.198 659.574 582.198 659.574C582.198 659.574 588.661 662.916 592.978 646.912C597.294 630.909 607.963 624.246 607.963 624.246C607.963 624.246 615.621 622.254 618.964 627.257C622.306 632.259 632.621 631.263 632.621 631.263C632.621 631.263 641.962 628.253 642.958 635.602C643.954 642.928 645.614 654.593 653.627 659.596L667.306 645.983C667.306 645.983 673.637 640.051 676.005 630.555C678.373 621.059 684.948 619.266 684.948 619.266C678.617 604.945 682.601 593.28 682.601 593.28C682.601 593.28 686.608 584.625 686.94 575.948C687.272 567.294 697.609 560.609 697.609 560.609C697.609 560.609 697.609 560.609 697.941 537.943C698.273 515.277 685.612 507.618 681.273 501.952C676.935 496.285 671.954 484.311 671.954 484.311L656.194 487.321C656.194 487.321 637.048 497.835 627.663 493.696C618.278 489.556 607.011 492.567 607.011 492.567C607.011 492.567 589.746 497.06 572.481 500.823C555.216 504.586 551.076 492.19 551.076 492.19C551.076 492.19 551.077 487.321 545.078 483.558C539.079 479.795 531.199 487.321 523.674 495.577C522.501 496.905 521.15 498.056 519.667 499.03Z" fill="#284F51" stroke="#638283" strokeWidth="1.5"/>
<path d="M181.909 302.937C173.498 303.225 172.059 303.867 172.059 303.867C172.059 303.867 160.217 306.789 157.672 293.552C156.321 286.491 143.55 276.176 143.55 276.176L138.104 271.639C137.684 269.536 138.503 268.606 138.503 268.606L141.292 262.209L144.346 255.259L149.637 250.81L152.426 246.361L156.321 241.071L167.167 231.331C167.167 231.331 171.351 223.54 176.907 222.699C182.463 221.858 187.487 216.014 190.829 213.247C194.172 210.458 199.174 208.798 203.911 209.064C208.648 209.351 226.798 205.102 226.798 205.102L239.57 215.239L244.108 215.925C244.086 215.992 240.124 224.846 240.124 224.846L238.486 230.955L234.944 233.81V247.246C234.944 247.246 235.121 253.909 239.504 260.97C243.886 268.031 249.73 281.201 245.126 292.755C240.5 304.31 235.763 307.298 230.052 306.612C224.341 305.925 219.184 305.527 214.425 301.454C209.666 297.381 205.859 293.995 199.75 295.876C193.641 297.78 191.184 302.672 182.374 302.937C182.219 302.915 182.064 302.937 181.909 302.937Z" fill="#284F51" stroke="#638283" strokeWidth="1.5"/>
<defs>
<filter id="filter0_b_1030_16995" x="228.631" y="209.366" width="192.856" height="157.747" filterUnits="userSpaceOnUse" color-interpolation-filters="sRGB">
<feFlood flood-opacity="0" result="BackgroundImageFix"/>
<feGaussianBlur in="BackgroundImageFix" stdDeviation="33"/>
<feComposite in2="SourceAlpha" operator="in" result="effect1_backgroundBlur_1030_16995"/>
<feBlend mode="normal" in="SourceGraphic" in2="effect1_backgroundBlur_1030_16995" result="shape"/>
</filter>
</defs>
</svg>
