<svg width="528" height="700" viewBox="0 0 528 700" fill="none" xmlns="http://www.w3.org/2000/svg">
<path d="M59.2225 145.332C57.1197 142.012 55.2382 139.068 55.2382 139.068L53.3568 130.436L43.5954 121.803L42.4665 104.538L52.6042 88.4018L52.9805 67.75C52.9805 67.75 56.7434 58.3649 61.9893 55.3546C67.2353 52.3442 83.7699 37.3369 83.7699 37.3369L110.044 20.0718C110.044 20.0718 124.675 14.0732 122.439 -2.81559C122.439 -2.81559 113.807 -10.3193 122.439 -21.9622C131.072 -33.605 126.202 -25.7251 126.202 -25.7251L131.072 -40.7324L137.823 -36.2391H147.961C147.961 -36.2391 147.208 -38.8731 155.088 -34.7339C162.968 -30.5947 170.095 -29.1117 170.095 -29.1117L178.728 -21.9843H192.607L208.366 -19.7265C208.366 -19.7265 215.118 -19.7265 218.128 -12.2229C221.138 -4.71918 226.008 4.28967 226.008 4.28967V16.3088L215.87 27.9517L216.246 38.4657L213.612 42.9591V57.5901L232.006 69.6093C232.006 69.6093 239.51 71.4908 239.51 82.3811C239.51 93.2714 237.629 94.4003 237.629 94.4003L234.995 118.416C234.995 118.416 230.501 139.821 230.125 146.948C229.749 154.076 228.62 160.827 226.738 163.084C226.738 163.084 208.566 167.334 203.851 167.047C199.114 166.759 194.112 168.441 190.769 171.23C187.427 174.019 182.425 179.863 176.847 180.682C171.291 181.523 167.107 189.314 167.107 189.314L156.261 199.053L152.366 204.344L149.577 208.793L144.286 213.242L141.232 220.192L138.443 226.589C138.443 226.589 136.495 228.825 140.103 234.093C143.711 239.383 146.876 251.668 145.659 253.859C141.475 261.429 139.527 261.097 139.527 261.097L132.577 273.072C132.577 273.072 125.339 280.576 126.18 290.337C127.021 300.076 126.114 301.471 126.114 301.471C126.114 301.471 126.733 308.156 113.94 315.106C101.146 322.056 99.1979 324.292 99.1979 324.292L92.5132 326.24L85.2751 329.582L73.3002 330.977C73.3002 330.977 66.9475 337.705 55.7695 335.16C51.8737 334.275 44.6357 334.053 44.6357 334.053L34.9185 324.889L42.7985 315.881L43.9274 306.119L40.917 297.863L43.9274 281.35L42.4222 264.462C42.4222 264.462 42.0459 254.7 39.7882 252.066C37.5304 249.432 36.7778 238.564 40.917 233.672C45.0562 228.802 51.4311 222.029 41.6696 213.397C31.9082 204.764 31.9082 204.764 31.9082 204.764C31.9082 204.764 33.4134 191.262 45.0562 191.992C56.6991 192.745 73.9642 193.121 72.4591 175.856C70.9539 158.591 64.9554 154.452 64.9554 154.452C64.9554 154.452 61.9229 149.582 59.2225 145.332Z" fill="#284F51" stroke="#638283" strokeWidth="1.5"/>
<path d="M245.127 250.742C249.753 239.187 243.91 226.017 239.505 218.956C235.1 211.895 234.945 205.233 234.945 205.233V191.797L238.487 188.941L240.125 182.832C240.125 182.832 244.065 174 244.109 173.912C247.894 174.31 253.494 174.532 258.718 173.226C267.727 170.968 291.367 167.98 291.367 167.98L326.273 156.713L346.549 154.455L374.704 154.079L381.832 155.961C381.832 155.961 392.722 160.83 396.086 168.356C399.451 175.882 401.332 187.503 401.332 187.503C401.332 187.503 403.59 197.64 406.578 202.134C409.589 206.627 411.448 210.39 412.953 219.022C414.458 227.655 415.963 238.169 415.963 238.169C415.963 238.169 415.587 246.049 412.2 249.059C408.814 252.07 406.202 262.562 406.202 262.562C406.202 262.562 405.073 286.201 379.175 298.973C353.278 311.745 348.386 313.604 348.386 313.604L342.011 317.367C342.011 317.367 336.367 319.492 338.669 323.521C338.647 323.521 331.564 326.819 331.564 326.819L319.456 333.769L316.136 338.307L309.783 339.524L301.305 349.817L284.372 348.002L277.112 346.497L271.069 346.806C271.069 346.806 243.666 339.015 240.523 316.26C238.332 300.301 238.708 298.42 238.708 298.42L235.676 295.1C235.676 295.1 234.746 287.972 236.163 277.834C237.247 269.955 239.749 260.304 245.127 250.742Z" fill="#284F51" stroke="#638283" strokeWidth="1.5"/>
<path d="M252.643 496.175C252.643 496.175 254.723 499.318 258.043 505.317C261.386 511.315 266.698 515.653 266.698 515.653L276.703 519.992C276.703 519.992 291.024 534.645 293.039 537.323C295.031 539.98 310.702 556.647 310.702 556.647L320.375 572.65V589.65V605.653C320.375 605.653 320.375 614.662 323.031 619.311C325.687 623.981 326.019 634.008 325.023 642.154C324.027 650.299 322.699 654.97 322.699 654.97L319.711 668.627L316.723 686.954C316.723 686.954 314.908 697.114 309.795 705.791C317.188 701.652 320.043 712.963 322.721 721.285C325.377 729.608 322.721 747.604 322.721 752.274C322.721 766.042 337.374 750.282 337.374 750.282L342.709 744.947L349.703 740.941L355.038 729.608H360.372L369.027 717.943L384.012 701.276H390.343L396.673 694.281L402.672 692.621L421.132 684.962L419.339 676.64L414.669 670.973C414.669 670.973 410.995 664.975 409.003 661.986C407.01 658.976 405.66 639.32 407.674 630.666C409.667 622.011 407.674 622.011 405.682 618.005C403.69 613.998 408.006 606.672 408.006 606.672L404.332 591.686C404.332 591.686 399.662 576.015 400.99 566.032C402.318 556.027 408.98 549.697 408.98 549.697L412.655 541.042L419.981 530.085L421.641 523.378L423.966 515.056C423.966 515.056 424.298 503.723 427.95 494.072C431.602 484.399 424.298 471.738 424.298 471.738C424.298 471.738 424.962 470.41 415.975 440.749C406.988 411.089 441.452 418.415 441.452 418.415L439.194 409.407C439.194 409.407 433.196 403.032 433.948 397.387C434.701 391.765 422.682 393.625 422.682 393.625C422.682 393.625 420.048 392.496 417.037 389.131C414.027 385.745 411.792 390.636 415.909 374.876C420.048 359.116 411.415 345.592 411.415 345.592C411.415 345.592 403.912 336.96 394.903 346.721C385.894 356.482 385.518 351.591 376.885 350.108C368.252 348.602 364.49 343.357 364.49 343.357C364.49 343.357 351.718 333.595 342.355 327.22C340.385 325.892 339.234 324.697 338.636 323.612C338.614 323.612 331.531 326.91 331.531 326.91L319.423 333.861L316.103 338.398L309.75 339.616L301.273 349.908C301.273 349.908 305.5 355.663 307.935 362.016C310.37 368.369 316.103 372.309 320.331 373.504C324.558 374.721 333.036 378.352 330.004 392.562C326.971 406.773 311.255 413.125 311.255 413.125C311.255 413.125 297.643 419.168 294.322 419.478C291.002 419.788 284.937 421.293 283.122 426.428C281.307 431.563 277.677 430.656 273.139 433.091C268.602 435.504 264.972 429.771 262.559 447.611C260.213 465.319 265.946 471.672 252.643 496.175Z" fill="#284F51" stroke="#638283" strokeWidth="1.5"/>
<path d="M539.371 591.697C538.663 589.705 537.976 587.69 537.976 587.69C537.976 587.69 535.32 582.599 531.314 574.609C527.307 566.618 518.653 562.944 518.653 562.944C517.657 553.935 517.989 548.29 529.034 547.604C540.079 546.918 537.667 529.963 537.667 529.963C537.667 529.963 532 528.258 538.663 512.941C545.325 497.602 533.992 497.602 533.992 497.602C533.992 497.602 528.326 497.934 521.065 494.946C513.805 491.935 518.985 482.617 520.645 476.286C522.283 470.022 518.476 458.113 518.387 457.826C510.684 462.319 499.993 462.961 489.523 461.456C476.375 459.574 478.633 450.189 478.633 450.189C478.633 450.189 476.752 446.05 476.375 441.933C475.999 437.816 474.494 433.677 466.99 431.043C459.487 428.409 453.488 422.034 453.488 422.034L447.49 419.776L441.491 418.271C441.491 418.271 407.005 410.944 416.014 440.605C425.023 470.265 424.337 471.593 424.337 471.593C424.337 471.593 431.663 484.255 427.989 493.927C424.337 503.6 424.005 514.911 424.005 514.911L421.68 523.234L420.02 529.941L412.694 540.897L409.019 549.552C409.019 549.552 402.357 555.883 401.029 565.888C399.701 575.892 404.371 591.542 404.371 591.542L408.045 606.527C408.045 606.527 403.707 613.853 405.721 617.86C407.713 621.866 409.728 621.866 407.713 630.521C405.721 639.176 407.049 658.854 409.041 661.842C411.034 664.83 414.708 670.828 414.708 670.828L419.378 676.495L421.171 684.818C421.171 684.818 425.377 689.156 434.032 686.81C442.686 684.486 456.366 691.148 456.366 691.148L483.016 705.137L485.008 709.808L496.673 720.145C496.673 720.145 498.665 724.483 509.002 728.467C519.339 732.474 517.325 710.472 517.325 710.472L520.667 703.809C530.672 684.818 543.333 709.144 543.333 709.144C559.336 702.149 554.002 718.817 554.002 718.817H558.008L559.004 713.15C559.004 713.15 558.672 707.484 562.546 695.154C566.42 682.825 573.68 688.492 574.012 701.817C574.344 715.142 582.002 707.152 588.51 695.154C594.996 683.157 614.673 672.489 614.673 672.489H630.677L638.003 651.837C638.003 651.837 641.678 646.17 644.002 635.014C646.326 623.858 653.675 617.506 653.675 617.506C645.684 612.503 644.002 600.838 643.006 593.512C642.01 586.185 632.669 589.173 632.669 589.173C632.669 589.173 622.332 590.169 619.012 585.167C615.692 580.164 608.011 582.157 608.011 582.157C608.011 582.157 597.342 588.819 593.026 604.823C588.709 620.826 582.246 617.484 582.246 617.484C582.246 617.484 578.372 617.484 569.032 627.157C559.691 636.829 551.368 634.815 551.368 634.815C551.368 634.815 551.368 628.485 551.368 619.83C551.368 611.175 547.694 600.506 547.694 600.506L540.788 595.504C540.743 595.592 540.057 593.667 539.371 591.697Z" fill="#284F51" stroke="#638283" strokeWidth="1.5"/>
<path d="M417.313 1012.77C414.944 1015.23 412.31 1016.82 412.31 1016.82C412.31 1016.82 403.633 1036.43 405.316 1048.79C386.833 1052.11 368.439 1052.84 360.736 1047.39C347.965 1038.38 334.839 1058.28 334.839 1058.28L325.83 1066.91L322.067 1062.42L311.929 1061.67C311.929 1061.67 304.426 1062.04 308.543 1050.02C312.682 1038.01 299.534 1033.89 299.534 1033.89C299.534 1033.89 286.386 1033.51 285.279 1022.62C284.15 1011.73 275.141 1017 275.141 1017C275.141 1017 264.627 1025.26 250.749 1016.62C236.87 1007.99 237.247 1002.37 240.235 999.358C243.245 996.348 246.233 991.855 243.998 985.856C241.762 979.858 243.998 975.718 243.998 975.718C243.998 975.718 244.75 968.215 234.612 965.957C224.475 963.699 223.346 953.562 222.97 948.316C222.593 943.07 219.583 938.554 219.583 938.554L218.83 933.685L214.691 930.674L208.693 925.052L204.199 921.665C204.199 921.665 202.694 907.411 196.696 901.39C190.697 895.392 192.202 886.759 193.685 885.63C195.19 884.501 201.189 885.63 197.072 876.621C192.955 867.612 206.081 866.107 206.081 866.107C206.081 866.107 223.722 869.118 225.98 842.844C225.98 842.844 223.346 836.092 227.861 832.33C232.355 828.567 234.989 826.331 234.989 826.331L251.878 827.46C251.878 827.46 263.52 829.341 266.885 816.193C270.272 803.045 279.878 782.726 287.16 777.524C289.794 775.642 298.051 782.394 293.535 765.505C293.535 765.505 289.042 763.623 291.654 754.991C293.491 748.948 291.831 738.279 287.957 732.568C291.233 722.608 293.004 722.209 303.341 713.886C306.041 711.695 308.277 708.818 310.092 705.741C317.485 701.602 320.34 712.913 323.019 721.235C325.675 729.558 323.019 747.553 323.019 752.224C323.019 765.992 337.672 750.232 337.672 750.232L343.006 744.897L350.001 740.891L355.335 729.558H360.67L369.325 717.893L384.31 701.225H390.64L396.971 694.231L402.969 692.571L421.43 684.912C421.43 684.912 425.635 689.251 434.312 686.904C434.312 686.904 429.642 731.882 434.312 745.561L445.977 757.868C445.977 757.868 455.982 767.895 448.301 786.223C440.643 804.55 443.963 815.219 443.963 815.219C443.963 815.219 443.299 831.555 457.62 833.547C471.941 835.539 471.277 833.547 471.277 833.547C471.277 833.547 490.933 838.881 468.621 850.214C468.621 850.214 457.222 850.547 455.761 861.547L453.636 868.21L448.965 876.201L448.301 885.542L449.629 893.532L448.633 895.856L446.641 908.517C446.641 908.517 439.979 918.19 443.299 926.513C446.641 934.836 449.629 955.841 438.961 971.159C428.292 986.498 420.301 998.495 420.965 1004.83C421.297 1007.81 419.416 1010.63 417.313 1012.77Z" fill="#284F51" stroke="#638283" strokeWidth="1.5"/>
<path d="M665.845 1100.09C652.697 1098.01 610.398 1091.33 610.398 1091.33C610.398 1091.33 543.971 1076.32 523.32 1067.69C502.668 1059.05 472.277 1042.16 472.277 1042.16C472.277 1042.16 461.763 1031.27 438.499 1039.91C429.291 1043.32 417.139 1046.64 405.009 1048.8C403.327 1036.45 412.004 1016.84 412.004 1016.84C412.004 1016.84 421.345 1011.18 420.659 1004.85C419.995 998.515 427.985 986.518 438.654 971.178C449.323 955.839 446.313 934.855 442.993 926.532C439.65 918.21 446.335 908.537 446.335 908.537L448.327 895.876L449.323 893.552L447.995 885.561L448.659 876.22L453.33 868.23L455.454 861.567C456.915 850.566 468.315 850.234 468.315 850.234C490.649 838.901 470.971 833.567 470.971 833.567C470.971 833.567 471.635 835.559 457.314 833.567C442.993 831.574 443.657 815.239 443.657 815.239C443.657 815.239 440.314 804.57 447.995 786.242C455.676 767.915 445.671 757.888 445.671 757.888L434.006 745.581C429.335 731.924 434.006 686.924 434.006 686.924C442.661 684.6 456.34 691.262 456.34 691.262C456.34 691.262 444.011 708.926 443.679 725.261C443.347 741.597 445.007 760.544 465.681 757.888C486.332 755.254 490.339 752.575 490.339 752.575C490.339 752.575 512.341 745.913 525.666 766.233C538.991 786.552 546.65 784.228 546.65 784.228L562.52 784.317L593.642 787.239C593.642 787.239 610.309 790.913 617.636 789.231C624.962 787.571 629.965 783.232 634.967 784.228C639.97 785.224 643.622 784.892 650.971 781.572C658.32 778.252 676.293 774.577 679.303 776.57C682.314 778.562 694.975 777.234 693.957 794.565C692.96 811.897 694.023 811.874 694.023 811.874L690.636 819.887C690.636 819.887 685.966 857.87 687.294 863.537C688.622 869.203 682.956 885.207 665.624 885.871C648.292 886.535 649.953 883.215 638.288 890.873C626.623 898.532 623.634 924.208 623.634 924.208L621.974 938.198L623.634 947.538L622.306 952.209L623.966 960.2L623.302 969.208L621.974 976.203L623.634 981.205L625.294 992.538L634.967 1007.19L636.627 1020.52L642.958 1025.52L646.964 1037.52L649.975 1044.51L652.299 1051.84L666.288 1069.5L666.62 1084.49L679.48 1100.71H669.719C669.697 1100.71 668.258 1100.49 665.845 1100.09Z" fill="#284F51" stroke="#638283" strokeWidth="1.5"/>
<path d="M81.158 330.049L86.3154 339.19L88.4403 345.853C88.4403 345.853 82.9951 353.423 81.2686 360.971C76.7089 380.826 101.146 378.214 101.146 378.214C101.146 378.214 117.171 380.339 119.894 391.76C122.616 403.204 132.001 398.157 136.827 386.05C141.652 373.942 151.347 388.484 151.347 388.484C165.27 396.652 171.003 386.979 171.003 386.979L179.481 380.317C179.481 380.317 181.251 376.62 181.273 376.576C181.273 381.091 181.65 387.51 182.734 396.608C185.656 420.801 172.84 427.774 172.84 427.774L146.079 451.236L143.157 458.563L117.127 485.324L112.368 493.381L102.474 501.084L99.5519 509.517L85.2529 529.992L81.2022 535.481C82.0876 529.549 80.4939 523.108 69.9356 521.935C49.6602 519.677 54.4192 522.223 36.158 493.403C26.3966 478.019 30.5358 476.891 21.9032 474.257C13.2707 471.622 5.39068 454.734 2.00406 433.728C-1.38256 412.7 5.76697 409.335 5.76697 409.335C5.76697 409.335 13.2707 396.187 3.88552 380.804C-5.49962 365.42 11.0129 366.549 11.0129 366.549C11.0129 366.549 33.3247 375.115 23.0321 342.156C17.4098 324.139 35.0513 324.891 35.0513 324.891L44.7684 334.055C44.7684 334.055 52.0065 334.276 55.9022 335.162C67.0802 337.729 73.4329 330.978 73.4329 330.978L81.158 330.049Z" fill="#284F51" stroke="#638283" strokeWidth="1.5"/>
<path d="M256.621 488.134C264.679 470.005 260.473 463.188 262.62 447.472C265.033 429.632 268.663 435.365 273.2 432.952C277.738 430.539 281.368 431.447 283.183 426.289C284.998 421.154 291.041 419.627 294.383 419.339C297.704 419.029 311.316 412.986 311.316 412.986C311.316 412.986 327.032 406.634 330.065 392.423C333.097 378.213 324.619 374.582 320.392 373.365C316.164 372.148 310.409 368.23 307.996 361.877C305.584 355.524 301.334 349.769 301.334 349.769L284.401 347.954L277.14 346.449L271.098 346.759C271.098 346.759 243.695 338.968 240.552 316.213C238.36 300.254 238.737 298.373 238.737 298.373L235.704 295.052C235.704 295.052 234.774 287.925 236.191 277.787C236.191 277.787 225.124 275.087 224.836 287.792C224.526 300.497 222.711 311.388 222.711 311.388C222.711 311.388 223.021 318.958 214.233 325.001C205.446 331.043 201.218 335.736 201.218 335.736L194.268 347.379L188.513 355.856L184.573 362.519L183.068 372.812C183.068 372.812 182.16 374.715 181.231 376.619C181.231 381.134 181.607 387.553 182.691 396.651C185.613 420.844 172.797 427.817 172.797 427.817L146.036 451.279L143.114 458.606L117.084 485.367L112.325 493.424L102.431 501.127L99.509 509.56L85.2099 530.035L81.1593 535.524C80.3403 540.992 77.3964 545.994 77.3964 545.994V553.874L81.1593 564.388L85.5862 561.444H95.4583L100.394 559.164H107.987L119.364 548.163H136.341C136.341 548.163 151.614 536.011 158.055 538.291C164.497 540.571 177.025 546.813 195.994 530.035C214.964 513.257 232.65 494.331 252.637 496.213C253.832 494.022 254.851 491.985 255.758 490.059C256.068 489.373 256.356 488.731 256.621 488.134Z" fill="#284F51" stroke="#638283" strokeWidth="1.5"/>
<path d="M134.037 722.888C132.643 720.453 132.665 716.181 136.339 708.832C141.209 699.071 131.846 695.684 131.846 695.684L123.966 690.815C123.966 690.815 114.581 685.192 117.967 672.797C121.354 660.402 121.73 639.019 94.7038 641.454C67.6773 643.889 60.5499 632.622 60.5499 632.622L59.0447 618.744L53.7988 611.24L48.1766 607.854C48.1766 607.854 43.6832 602.608 49.6817 598.469C55.6802 594.329 65.4417 592.094 65.4417 592.094C65.4417 592.094 77.4608 587.6 75.5794 577.086C73.6979 566.572 81.2016 564.315 81.2016 564.315L85.6286 561.371H95.5007L100.437 559.091H108.029L119.406 548.09H136.384C136.384 548.09 151.657 535.938 158.098 538.218C164.539 540.498 177.067 546.74 196.037 529.961C215.006 513.183 232.692 494.258 252.68 496.14C252.68 496.14 254.76 499.283 258.08 505.281C261.423 511.28 266.735 515.618 266.735 515.618L276.74 519.957C276.74 519.957 291.061 534.61 293.075 537.288C295.068 539.944 310.739 556.612 310.739 556.612L320.412 572.615V589.615V605.618C320.412 605.618 320.412 614.627 323.068 619.275C325.724 623.946 326.056 633.973 325.06 642.118C324.064 650.264 322.736 654.934 322.736 654.934L319.748 668.591L316.76 686.919C316.76 686.919 314.945 697.079 309.832 705.756C308.016 708.832 305.803 711.732 303.08 713.901C292.743 722.224 290.995 722.622 287.697 732.583C286.037 730.148 283.978 728.621 281.632 728.732C273.752 729.108 259.497 731.366 259.497 731.366C259.497 731.366 210.336 739.998 183.309 730.613C156.283 721.228 142.028 726.12 142.028 726.12C142.028 726.12 136.229 726.784 134.037 722.888Z" fill="#284F51" stroke="#638283" strokeWidth="1.5"/>
<path d="M81.1533 330.046L85.3368 329.559L92.5748 326.217L99.2595 324.269C99.2595 324.269 101.207 322.034 114.001 315.083C126.795 308.133 126.175 301.448 126.175 301.448C126.175 301.448 127.083 300.054 126.242 290.314C125.401 280.575 132.639 273.049 132.639 273.049L139.589 261.074C139.589 261.074 141.537 261.406 145.72 253.836C146.938 251.645 143.773 239.36 140.165 234.07C138.881 232.211 138.305 230.728 138.084 229.599L143.529 234.136C143.529 234.136 156.301 244.451 157.651 251.512C160.197 264.749 172.039 261.827 172.039 261.827C172.039 261.827 173.522 261.141 182.353 260.875C191.185 260.61 193.62 255.718 199.729 253.814C205.838 251.911 209.646 255.297 214.405 259.392C219.164 263.465 224.321 263.863 230.032 264.55C234.304 265.059 238.044 263.509 241.586 257.843C238.554 264.97 236.96 271.854 236.141 277.742C236.141 277.742 225.073 275.041 224.786 287.747C224.476 300.452 222.661 311.342 222.661 311.342C222.661 311.342 222.971 318.913 214.183 324.955C205.396 330.998 201.168 335.691 201.168 335.691L194.218 347.334L188.463 355.811L184.523 362.474L183.017 372.766L179.387 380.336L170.91 386.999C170.91 386.999 165.155 396.672 151.254 388.504C151.254 388.504 141.581 373.94 136.734 386.069C131.886 398.199 122.523 403.224 119.801 391.78C117.078 380.337 101.052 378.234 101.052 378.234C101.052 378.234 76.5936 380.846 81.1754 360.991C82.9241 353.421 88.3471 345.873 88.3471 345.873L86.2222 339.21L81.1533 330.046Z" fill="#FCFF45" stroke="#FCFF45" strokeWidth="1.25"/>
<g filter="url(#filter0_b_1030_17064)">
<rect x="130.927" y="304.413" width="60.8565" height="25.747" fill="white" fill-opacity="0.08"/>
<rect x="130.927" y="304.413" width="60.8565" height="25.747" fill="#325B5D" fill-opacity="0.16"/>
<rect x="131.427" y="304.913" width="59.8565" height="24.747" stroke="white" strokeOpacity="0.2"/>
<path d="M157.835 321.447C157.369 321.447 156.955 321.34 156.595 321.127C156.235 320.907 155.955 320.604 155.755 320.217C155.562 319.83 155.465 319.39 155.465 318.897L156.565 318.837C156.572 319.364 156.685 319.767 156.905 320.047C157.125 320.32 157.435 320.457 157.835 320.457C158.255 320.457 158.575 320.314 158.795 320.027C159.022 319.74 159.135 319.327 159.135 318.787V314.187H160.215V318.787C160.215 319.32 160.119 319.79 159.925 320.197C159.732 320.597 159.455 320.907 159.095 321.127C158.735 321.34 158.315 321.447 157.835 321.447ZM164.37 321.447C163.81 321.447 163.32 321.347 162.9 321.147C162.486 320.94 162.156 320.654 161.91 320.287C161.67 319.914 161.53 319.484 161.49 318.997L162.6 318.927C162.646 319.26 162.743 319.544 162.89 319.777C163.036 320.004 163.233 320.177 163.48 320.297C163.733 320.41 164.036 320.467 164.39 320.467C164.856 320.467 165.213 320.38 165.46 320.207C165.713 320.027 165.84 319.774 165.84 319.447C165.84 319.234 165.79 319.05 165.69 318.897C165.59 318.744 165.403 318.604 165.13 318.477C164.863 318.35 164.473 318.224 163.96 318.097C163.373 317.957 162.913 317.804 162.58 317.637C162.253 317.47 162.013 317.264 161.86 317.017C161.713 316.77 161.64 316.46 161.64 316.087C161.64 315.687 161.736 315.33 161.93 315.017C162.13 314.704 162.413 314.46 162.78 314.287C163.153 314.114 163.593 314.027 164.1 314.027C164.626 314.027 165.083 314.127 165.47 314.327C165.856 314.52 166.163 314.79 166.39 315.137C166.616 315.484 166.756 315.884 166.81 316.337L165.71 316.397C165.67 316.124 165.583 315.884 165.45 315.677C165.316 315.464 165.133 315.3 164.9 315.187C164.673 315.067 164.4 315.007 164.08 315.007C163.673 315.007 163.35 315.104 163.11 315.297C162.87 315.484 162.75 315.734 162.75 316.047C162.75 316.254 162.796 316.424 162.89 316.557C162.99 316.69 163.16 316.807 163.4 316.907C163.64 317.007 164 317.114 164.48 317.227C165.086 317.367 165.57 317.537 165.93 317.737C166.296 317.937 166.556 318.174 166.71 318.447C166.87 318.714 166.95 319.027 166.95 319.387C166.95 319.8 166.84 320.164 166.62 320.477C166.406 320.784 166.103 321.024 165.71 321.197C165.323 321.364 164.876 321.447 164.37 321.447Z" fill="#0E3E40"/>
</g>
<path d="M508.321 728.314C508.542 728.402 508.764 728.491 508.985 728.579C519.322 732.586 517.308 710.584 517.308 710.584L520.65 703.921C530.655 684.93 543.316 709.256 543.316 709.256C559.319 702.261 553.985 718.929 553.985 718.929H557.991L558.988 713.262C558.988 713.262 558.656 707.596 562.529 695.267C566.403 682.937 573.663 688.604 573.995 701.929C574.327 715.254 581.985 707.264 588.493 695.267C594.979 683.27 614.656 672.601 614.656 672.601H630.66C630.66 672.601 637.986 672.269 642.325 680.259C646.663 688.25 651.666 686.922 651.666 686.922C651.666 686.922 658.328 682.915 661.671 694.58C665.013 706.245 666.009 715.232 668.997 717.578C671.985 719.903 672.34 727.251 672.34 727.251L682.012 731.922C682.012 731.922 685.023 743.255 700.34 744.915C715.679 746.575 725.662 746.243 723.006 760.918C720.35 775.571 718.668 777.918 718.668 777.918L714.329 785.576L710.655 792.903L707.999 798.237L693.921 805.719C693.921 805.719 693.744 805.808 693.589 805.896C693.611 803.351 693.722 799.721 694.01 794.563C695.006 777.232 682.344 778.56 679.356 776.568C676.346 774.575 658.373 778.228 651.024 781.57C643.675 784.912 640.023 785.244 635.02 784.226C630.018 783.208 625.015 787.569 617.689 789.229C610.362 790.889 593.695 787.237 593.695 787.237L562.573 784.315L546.703 784.226C546.703 784.226 539.044 786.55 525.719 766.231C512.394 745.911 490.392 752.573 490.392 752.573C490.392 752.573 486.386 755.23 465.734 757.886C445.082 760.52 443.4 741.573 443.732 725.259C444.064 708.924 456.393 691.26 456.393 691.26L483.043 705.249L485.035 709.92L496.7 720.257C496.656 720.235 498.56 724.374 508.321 728.314Z" fill="#284F51" stroke="#638283" strokeWidth="1.5"/>
<path d="M519.667 457.03C519.247 457.318 518.826 457.584 518.383 457.827C518.428 457.96 522.301 470.001 520.641 476.287C518.981 482.618 513.802 491.959 521.062 494.947C528.322 497.935 533.988 497.603 533.988 497.603C533.988 497.603 545.321 497.603 538.659 512.943C531.996 528.282 537.663 529.964 537.663 529.964C537.663 529.964 540.076 546.919 529.03 547.606C517.985 548.292 517.653 553.936 518.649 562.945C518.649 562.945 527.304 566.619 531.31 574.61C535.317 582.601 537.973 587.692 537.973 587.692L540.74 595.594L547.646 600.596C547.646 600.596 551.32 611.265 551.32 619.92C551.32 628.574 551.32 634.905 551.32 634.905C551.32 634.905 559.643 636.897 568.984 627.246C578.324 617.574 582.198 617.574 582.198 617.574C582.198 617.574 588.661 620.916 592.978 604.912C597.294 588.909 607.963 582.246 607.963 582.246C607.963 582.246 615.621 580.254 618.964 585.257C622.306 590.259 632.621 589.263 632.621 589.263C632.621 589.263 641.962 586.253 642.958 593.602C643.954 600.928 645.614 612.593 653.627 617.596L667.306 603.983C667.306 603.983 673.637 598.051 676.005 588.555C678.373 579.059 684.948 577.266 684.948 577.266C678.617 562.945 682.601 551.28 682.601 551.28C682.601 551.28 686.608 542.625 686.94 533.948C687.272 525.294 697.609 518.609 697.609 518.609C697.609 518.609 697.609 518.609 697.941 495.943C698.273 473.277 685.612 465.618 681.273 459.952C676.935 454.285 671.954 442.311 671.954 442.311L656.194 445.321C656.194 445.321 637.048 455.835 627.663 451.696C618.278 447.556 607.011 450.567 607.011 450.567C607.011 450.567 589.746 455.06 572.481 458.823C555.216 462.586 551.076 450.19 551.076 450.19C551.076 450.19 551.077 445.321 545.078 441.558C539.079 437.795 531.199 445.321 523.674 453.577C522.501 454.905 521.15 456.056 519.667 457.03Z" fill="#284F51" stroke="#638283" strokeWidth="1.5"/>
<path d="M181.909 260.937C173.498 261.225 172.059 261.867 172.059 261.867C172.059 261.867 160.217 264.789 157.672 251.552C156.321 244.491 143.55 234.176 143.55 234.176L138.104 229.639C137.684 227.536 138.503 226.606 138.503 226.606L141.292 220.209L144.346 213.259L149.637 208.81L152.426 204.361L156.321 199.071L167.167 189.331C167.167 189.331 171.351 181.54 176.907 180.699C182.463 179.858 187.487 174.014 190.829 171.247C194.172 168.458 199.174 166.798 203.911 167.064C208.648 167.351 226.798 163.102 226.798 163.102L239.57 173.239L244.108 173.925C244.086 173.992 240.124 182.846 240.124 182.846L238.486 188.955L234.944 191.81V205.246C234.944 205.246 235.121 211.909 239.504 218.97C243.886 226.031 249.73 239.201 245.126 250.755C240.5 262.31 235.763 265.298 230.052 264.612C224.341 263.925 219.184 263.527 214.425 259.454C209.666 255.381 205.859 251.995 199.75 253.876C193.641 255.78 191.184 260.672 182.374 260.937C182.219 260.915 182.064 260.937 181.909 260.937Z" fill="#284F51" stroke="#638283" strokeWidth="1.5"/>
<defs>
<filter id="filter0_b_1030_17064" x="64.9272" y="238.413" width="192.856" height="157.747" filterUnits="userSpaceOnUse" color-interpolation-filters="sRGB">
<feFlood flood-opacity="0" result="BackgroundImageFix"/>
<feGaussianBlur in="BackgroundImageFix" stdDeviation="33"/>
<feComposite in2="SourceAlpha" operator="in" result="effect1_backgroundBlur_1030_17064"/>
<feBlend mode="normal" in="SourceGraphic" in2="effect1_backgroundBlur_1030_17064" result="shape"/>
</filter>
</defs>
</svg>
