<svg width="1177" height="700" viewBox="0 0 1177 700" fill="none" xmlns="http://www.w3.org/2000/svg">
<path d="M59.2225 -3.66765C57.1197 -6.98785 55.2382 -9.93178 55.2382 -9.93178L53.3568 -18.5644L43.5954 -27.1969L42.4665 -44.462L52.6042 -60.5982L52.9805 -81.25C52.9805 -81.25 56.7434 -90.6351 61.9893 -93.6454C67.2353 -96.6558 83.7699 -111.663 83.7699 -111.663L110.044 -128.928C110.044 -128.928 124.675 -134.927 122.439 -151.816C122.439 -151.816 113.807 -159.319 122.439 -170.962C131.072 -182.605 126.202 -174.725 126.202 -174.725L131.072 -189.732L137.823 -185.239H147.961C147.961 -185.239 147.208 -187.873 155.088 -183.734C162.968 -179.595 170.095 -178.112 170.095 -178.112L178.728 -170.984H192.607L208.366 -168.727C208.366 -168.727 215.118 -168.727 218.128 -161.223C221.138 -153.719 226.008 -144.71 226.008 -144.71V-132.691L215.87 -121.048L216.246 -110.534L213.612 -106.041V-91.4099L232.006 -79.3907C232.006 -79.3907 239.51 -77.5092 239.51 -66.6189C239.51 -55.7286 237.629 -54.5997 237.629 -54.5997L234.995 -30.5835C234.995 -30.5835 230.501 -9.1792 230.125 -2.05182C229.749 5.07558 228.62 11.8267 226.738 14.0844C226.738 14.0844 208.566 18.3343 203.851 18.0466C199.114 17.7588 194.112 19.441 190.769 22.23C187.427 25.019 182.425 30.8625 176.847 31.6815C171.291 32.5227 167.107 40.3141 167.107 40.3141L156.261 50.0534L152.366 55.3436L149.577 59.7927L144.286 64.2418L141.232 71.1921L138.443 77.589C138.443 77.589 136.495 79.8246 140.103 85.0927C143.711 90.3829 146.876 102.668 145.659 104.859C141.475 112.429 139.527 112.097 139.527 112.097L132.577 124.072C132.577 124.072 125.339 131.576 126.18 141.337C127.021 151.076 126.114 152.471 126.114 152.471C126.114 152.471 126.733 159.156 113.94 166.106C101.146 173.056 99.1979 175.292 99.1979 175.292L92.5132 177.24L85.2751 180.582L73.3002 181.977C73.3002 181.977 66.9475 188.705 55.7695 186.16C51.8737 185.275 44.6357 185.053 44.6357 185.053L34.9185 175.889L42.7985 166.881L43.9274 157.119L40.917 148.863L43.9274 132.35L42.4222 115.462C42.4222 115.462 42.0459 105.7 39.7882 103.066C37.5304 100.432 36.7778 89.5639 40.917 84.6721C45.0562 79.8025 51.4311 73.0293 41.6696 64.3967C31.9082 55.7642 31.9082 55.7642 31.9082 55.7642C31.9082 55.7642 33.4134 42.2619 45.0562 42.9924C56.6991 43.745 73.9642 44.1213 72.4591 26.8562C70.9539 9.59106 64.9554 5.45187 64.9554 5.45187C64.9554 5.45187 61.9229 0.58223 59.2225 -3.66765Z" fill="#284F51" stroke="#638283" strokeWidth="1.5"/>
<path d="M765.147 762.769C764.97 757.147 764.549 751.458 763.597 750.197C761.605 747.541 760.941 740.192 760.587 733.529C760.255 726.867 751.932 722.196 751.932 722.196L745.934 713.874L744.606 706.879L742.613 697.206L745.27 690.544L742.613 681.203C742.613 681.203 752.286 676.2 745.956 666.217C739.625 656.212 750.626 652.56 750.626 652.56C750.626 652.56 756.293 641.227 747.638 632.573C738.983 623.918 747.638 610.571 747.638 610.571C747.638 610.571 752.973 603.244 745.314 594.899C737.655 586.554 743.986 576.572 748.656 573.561C753.327 570.551 761.317 565.571 761.317 565.571C761.317 565.571 768.312 564.907 770.326 555.566C772.318 546.225 775.661 542.905 770.99 536.574C766.32 530.244 771.986 521.589 773.314 517.25C774.642 512.912 776.48 510.012 770.658 496.267C769.33 493.124 768.002 476.943 768.002 476.943C791.996 479.267 792.992 463.286 792.992 463.286C792.992 463.286 805.343 463.994 813.644 460.298C832.613 451.842 829.979 446.973 816.632 439.646C803.285 432.319 816.632 421.982 816.632 421.982L848.617 402.659C872.611 402.659 869.269 377.337 869.269 377.337L875.931 356.353C894.591 327.024 917.921 338.357 917.921 338.357C917.921 338.357 944.239 352.347 960.242 341.346C976.246 330.345 991.231 339.685 991.231 339.685C991.231 339.685 1006.9 356.353 1022.88 369.988C1038.87 383.623 1054.2 381.343 1076.87 372.356C1099.54 363.37 1137.41 369.988 1137.41 369.988C1137.41 369.988 1131.79 374.481 1132.92 378.244C1134.04 382.007 1136.68 383.114 1133.67 392.499C1130.66 401.884 1140.8 405.271 1140.8 405.271C1140.8 405.271 1142.68 406.023 1142.68 425.922C1142.68 445.822 1144.2 456.336 1144.2 456.336C1144.2 456.336 1152.06 461.582 1153.19 472.472C1154.32 483.362 1152.81 481.857 1158.81 487.856C1164.81 493.854 1161.45 498.37 1161.45 498.37L1162.4 512.624C1162.4 512.624 1178.34 518.999 1173.47 532.147C1168.6 545.295 1163.71 537.393 1171.59 546.402C1179.47 555.411 1174.4 569.289 1174.4 569.289L1171.21 574.535C1171.21 574.535 1173.09 582.792 1164.08 592.177C1155.07 601.562 1156.58 603.443 1156.58 603.443C1156.58 603.443 1161.45 612.076 1124.31 613.581C1087.16 615.086 1074.77 611.699 1045.48 631.599C1016.2 651.498 1002.7 671.397 1002.7 671.397C1002.7 671.397 1001.19 677.772 984.679 685.275C968.167 692.779 960.287 701.035 960.287 701.035L948.644 712.678L925.004 735.566L918.629 744.198L917.5 749.444L910.749 752.831L884.475 778.352L851.826 818.15L843.946 827.159L828.186 839.931L819.642 848.896L821.657 815.937C821.657 815.937 816.654 804.936 807.003 803.608C797.331 802.28 794.01 803.608 794.01 803.608L779.689 794.267L765.368 775.275C765.257 775.187 765.346 769.011 765.147 762.769Z" fill="#284F51" stroke="#638283" strokeWidth="1.5"/>
<path d="M1101.96 367.713C1120.14 366.916 1137.38 369.926 1137.38 369.926C1137.38 369.926 1147.52 362.046 1143 348.146C1138.49 334.245 1130.61 327.87 1120.87 320.743C1111.11 313.616 1097.98 295.222 1092.71 286.213C1087.47 277.204 1077.33 277.58 1077.33 277.58L1073.94 274.57L1061.17 267.819L1034.52 258.057L1018.76 250.177L1013.14 244.931L1000.37 233.665C1000.37 233.665 983.853 226.161 975.597 220.517C967.341 214.895 947.442 222.398 947.442 222.398C947.442 222.398 940.314 220.517 921.92 225.785C903.526 231.053 905.031 219.034 905.031 219.034C905.031 219.034 901.269 210.778 893.389 192.76C885.509 174.742 828.445 162.347 828.445 162.347L796.925 159.336C796.925 159.336 797.302 156.326 795.42 170.979C793.539 185.61 799.914 193.114 799.914 193.114C799.914 193.114 801.042 198.736 807.041 216.001C813.039 233.266 814.921 224.634 807.041 240.018C799.161 255.401 778.133 251.66 778.133 251.66C778.133 251.66 722.951 246.414 707.567 265.539C685.698 292.743 671.908 288.803 671.908 288.803V293.34C671.908 293.34 676.889 305.315 681.227 310.982C685.565 316.648 698.226 324.307 697.894 346.973C697.562 369.639 697.562 369.639 697.562 369.639C697.562 369.639 687.225 376.301 686.893 384.978C686.561 393.633 682.555 402.31 682.555 402.31C682.555 402.31 678.571 413.975 684.901 428.296C696.898 420.637 711.884 424.289 711.884 424.289C738.534 424.953 736.542 433.298 736.542 433.298C736.542 433.298 736.874 446.955 746.215 448.97C755.555 450.984 749.889 461.631 749.889 461.631C748.893 472.3 743.89 474.624 767.885 476.97C791.879 479.294 792.875 463.313 792.875 463.313C792.875 463.313 805.226 464.021 813.526 460.325C832.496 451.869 829.862 447 816.515 439.673C803.167 432.346 816.515 422.009 816.515 422.009L848.499 402.686C872.493 402.686 869.151 377.364 869.151 377.364L875.814 356.38C894.473 327.051 917.803 338.384 917.803 338.384C917.803 338.384 944.121 352.374 960.125 341.373C976.128 330.372 991.114 339.712 991.114 339.712C991.114 339.712 1006.78 356.38 1022.77 370.015C1038.75 383.65 1054.09 381.37 1076.75 372.383C1084.21 369.373 1093.2 368.089 1101.96 367.713Z" fill="#FCFF45" stroke="#FCFF45" strokeWidth="1.25"/>
<g filter="url(#filter0_b_1030_16317)">
<rect x="824.049" y="277.489" width="60.8565" height="25.747" fill="white" fill-opacity="0.08"/>
<rect x="824.049" y="277.489" width="60.8565" height="25.747" fill="#325B5D" fill-opacity="0.16"/>
<rect x="824.549" y="277.989" width="59.8565" height="24.747" stroke="white" strokeOpacity="0.2"/>
<path d="M843.838 287.262H844.918V290.652L847.908 287.262H849.218L846.498 290.362L849.398 294.362H848.128L845.778 291.122L844.918 292.082V294.362H843.838V287.262ZM850.537 287.262H851.907L855.187 293.052V287.262H856.267V294.362H854.847L851.617 288.702V294.362H850.537V287.262ZM857.744 287.262H859.224L861.334 293.092L863.444 287.262H864.924V294.362H863.844V289.162L861.934 294.352H860.734L858.824 289.162V294.362H857.744V287.262Z" fill="#0E3E40"/>
</g>
<path d="M743.809 685.499C743.189 683.307 742.591 681.204 742.591 681.204C742.591 681.204 752.264 676.202 745.933 666.219C739.603 656.214 750.604 652.562 750.604 652.562C750.604 652.562 756.27 641.229 747.616 632.574C738.961 623.92 747.616 610.572 747.616 610.572C747.616 610.572 752.95 603.246 745.291 594.901C737.633 586.556 743.963 576.573 748.634 573.563C753.304 570.553 761.295 565.572 761.295 565.572C761.295 565.572 768.29 564.908 770.304 555.568C772.296 546.227 775.638 542.907 770.968 536.576C766.297 530.245 771.964 521.591 773.292 517.252C774.62 512.914 776.457 510.014 770.636 496.269C769.308 493.125 767.98 476.945 767.98 476.945C743.986 474.621 748.988 472.274 749.984 461.606C749.984 461.606 755.651 450.937 746.31 448.944C736.969 446.952 736.637 433.273 736.637 433.273C736.637 433.273 738.629 424.95 711.979 424.264C711.979 424.264 696.993 420.59 684.996 428.271C684.996 428.271 678.422 430.064 676.054 439.559C673.686 449.055 667.355 454.987 667.355 454.987L653.676 468.6C653.676 468.6 646.349 474.931 644.003 486.109C641.657 497.287 638.004 502.931 638.004 502.931L630.678 523.583C630.678 523.583 638.004 523.251 642.343 531.242C646.681 539.232 651.684 537.904 651.684 537.904C651.684 537.904 658.346 533.898 661.689 545.563C665.031 557.228 666.027 566.214 669.015 568.561C672.003 570.885 672.358 578.234 672.358 578.234L682.03 582.904C682.03 582.904 685.041 594.237 700.358 595.897C715.697 597.557 725.68 597.225 723.024 611.901C720.368 626.554 718.686 628.9 718.686 628.9L714.347 636.559L710.673 643.885L708.017 649.22C708.017 649.22 694.116 656.613 693.607 656.878C693.695 661.062 694.072 662.855 694.072 662.855L690.685 670.867C690.685 670.867 687.476 697.075 687.144 709.205C689.6 713.189 698.344 711.529 698.344 711.529L709.013 704.534L716.339 713.875L720.014 712.215L725.016 710.555L729.023 712.547L738.031 713.875H746.022L744.694 706.881L742.702 697.208L745.358 690.545C745.247 690.545 744.517 687.956 743.809 685.499Z" fill="#284F51" stroke="#638283" strokeWidth="1.5"/>
<path d="M245.127 101.742C249.753 90.1872 243.91 77.0171 239.505 69.9561C235.1 62.8951 234.945 56.2325 234.945 56.2325V42.7967L238.487 39.9413L240.125 33.8321C240.125 33.8321 244.065 25.0004 244.109 24.9118C247.894 25.3102 253.494 25.5316 258.718 24.2257C267.727 21.9679 291.367 18.9797 291.367 18.9797L326.273 7.71314L346.549 5.45539L374.704 5.0791L381.832 6.96054C381.832 6.96054 392.722 11.8302 396.086 19.356C399.451 26.8818 401.332 38.5026 401.332 38.5026C401.332 38.5026 403.59 48.6403 406.578 53.1336C409.589 57.627 411.448 61.3899 412.953 70.0225C414.458 78.655 415.963 89.169 415.963 89.169C415.963 89.169 415.587 97.049 412.2 100.059C408.814 103.07 406.202 113.562 406.202 113.562C406.202 113.562 405.073 137.201 379.175 149.973C353.278 162.745 348.386 164.604 348.386 164.604L342.011 168.367C342.011 168.367 336.367 170.492 338.669 174.521C338.647 174.521 331.564 177.819 331.564 177.819L319.456 184.769L316.136 189.307L309.783 190.524L301.305 200.817L284.372 199.002L277.112 197.497L271.069 197.806C271.069 197.806 243.666 190.015 240.523 167.26C238.332 151.301 238.708 149.42 238.708 149.42L235.676 146.1C235.676 146.1 234.746 138.972 236.163 128.834C237.247 120.955 239.749 111.304 245.127 101.742Z" fill="#284F51" stroke="#638283" strokeWidth="1.5"/>
<path d="M252.643 347.175C252.643 347.175 254.723 350.318 258.043 356.317C261.386 362.315 266.698 366.653 266.698 366.653L276.703 370.992C276.703 370.992 291.024 385.645 293.039 388.323C295.031 390.98 310.702 407.647 310.702 407.647L320.375 423.65V440.65V456.653C320.375 456.653 320.375 465.662 323.031 470.311C325.687 474.981 326.019 485.008 325.023 493.154C324.027 501.299 322.699 505.97 322.699 505.97L319.711 519.627L316.723 537.954C316.723 537.954 314.908 548.114 309.795 556.791C317.188 552.652 320.043 563.963 322.721 572.285C325.377 580.608 322.721 598.604 322.721 603.274C322.721 617.042 337.374 601.282 337.374 601.282L342.709 595.947L349.703 591.941L355.038 580.608H360.372L369.027 568.943L384.012 552.276H390.343L396.673 545.281L402.672 543.621L421.132 535.962L419.339 527.64L414.669 521.973C414.669 521.973 410.995 515.975 409.003 512.986C407.01 509.976 405.66 490.32 407.674 481.666C409.667 473.011 407.674 473.011 405.682 469.005C403.69 464.998 408.006 457.672 408.006 457.672L404.332 442.686C404.332 442.686 399.662 427.015 400.99 417.032C402.318 407.027 408.98 400.697 408.98 400.697L412.655 392.042L419.981 381.085L421.641 374.378L423.966 366.056C423.966 366.056 424.298 354.723 427.95 345.072C431.602 335.399 424.298 322.738 424.298 322.738C424.298 322.738 424.962 321.41 415.975 291.749C406.988 262.089 441.452 269.415 441.452 269.415L439.194 260.407C439.194 260.407 433.196 254.032 433.948 248.387C434.701 242.765 422.682 244.625 422.682 244.625C422.682 244.625 420.048 243.496 417.037 240.131C414.027 236.745 411.792 241.636 415.909 225.876C420.048 210.116 411.415 196.592 411.415 196.592C411.415 196.592 403.912 187.96 394.903 197.721C385.894 207.482 385.518 202.591 376.885 201.108C368.252 199.602 364.49 194.357 364.49 194.357C364.49 194.357 351.718 184.595 342.355 178.22C340.385 176.892 339.234 175.697 338.636 174.612C338.614 174.612 331.531 177.91 331.531 177.91L319.423 184.861L316.103 189.398L309.75 190.616L301.273 200.908C301.273 200.908 305.5 206.663 307.935 213.016C310.37 219.369 316.103 223.309 320.331 224.504C324.558 225.721 333.036 229.352 330.004 243.562C326.971 257.773 311.255 264.125 311.255 264.125C311.255 264.125 297.643 270.168 294.322 270.478C291.002 270.788 284.937 272.293 283.122 277.428C281.307 282.563 277.677 281.656 273.139 284.091C268.602 286.504 264.972 280.771 262.559 298.611C260.213 316.319 265.946 322.672 252.643 347.175Z" fill="#284F51" stroke="#638283" strokeWidth="1.5"/>
<path d="M539.371 442.697C538.663 440.705 537.976 438.69 537.976 438.69C537.976 438.69 535.32 433.599 531.314 425.609C527.307 417.618 518.653 413.944 518.653 413.944C517.657 404.935 517.989 399.29 529.034 398.604C540.079 397.918 537.667 380.963 537.667 380.963C537.667 380.963 532 379.258 538.663 363.941C545.325 348.602 533.992 348.602 533.992 348.602C533.992 348.602 528.326 348.934 521.065 345.946C513.805 342.935 518.985 333.617 520.645 327.286C522.283 321.022 518.476 309.113 518.387 308.826C510.684 313.319 499.993 313.961 489.523 312.456C476.375 310.574 478.633 301.189 478.633 301.189C478.633 301.189 476.752 297.05 476.375 292.933C475.999 288.816 474.494 284.677 466.99 282.043C459.487 279.409 453.488 273.034 453.488 273.034L447.49 270.776L441.491 269.271C441.491 269.271 407.005 261.944 416.014 291.605C425.023 321.265 424.337 322.593 424.337 322.593C424.337 322.593 431.663 335.255 427.989 344.927C424.337 354.6 424.005 365.911 424.005 365.911L421.68 374.234L420.02 380.941L412.694 391.897L409.019 400.552C409.019 400.552 402.357 406.883 401.029 416.888C399.701 426.892 404.371 442.542 404.371 442.542L408.045 457.527C408.045 457.527 403.707 464.853 405.721 468.86C407.713 472.866 409.728 472.866 407.713 481.521C405.721 490.176 407.049 509.854 409.041 512.842C411.034 515.83 414.708 521.828 414.708 521.828L419.378 527.495L421.171 535.818C421.171 535.818 425.377 540.156 434.032 537.81C442.686 535.486 456.366 542.148 456.366 542.148L483.016 556.137L485.008 560.808L496.673 571.145C496.673 571.145 498.665 575.483 509.002 579.467C519.339 583.474 517.325 561.472 517.325 561.472L520.667 554.809C530.672 535.818 543.333 560.144 543.333 560.144C559.336 553.149 554.002 569.817 554.002 569.817H558.008L559.004 564.15C559.004 564.15 558.672 558.484 562.546 546.154C566.42 533.825 573.68 539.492 574.012 552.817C574.344 566.142 582.002 558.152 588.51 546.154C594.996 534.157 614.673 523.489 614.673 523.489H630.677L638.003 502.837C638.003 502.837 641.678 497.17 644.002 486.014C646.326 474.858 653.675 468.506 653.675 468.506C645.684 463.503 644.002 451.838 643.006 444.512C642.01 437.185 632.669 440.173 632.669 440.173C632.669 440.173 622.332 441.169 619.012 436.167C615.692 431.164 608.011 433.157 608.011 433.157C608.011 433.157 597.342 439.819 593.026 455.823C588.709 471.826 582.246 468.484 582.246 468.484C582.246 468.484 578.372 468.484 569.032 478.157C559.691 487.829 551.368 485.815 551.368 485.815C551.368 485.815 551.368 479.485 551.368 470.83C551.368 462.175 547.694 451.506 547.694 451.506L540.788 446.504C540.743 446.592 540.057 444.667 539.371 442.697Z" fill="#284F51" stroke="#638283" strokeWidth="1.5"/>
<path d="M417.313 863.772C414.944 866.229 412.31 867.823 412.31 867.823C412.31 867.823 403.633 887.434 405.316 899.785C386.833 903.106 368.439 903.836 360.736 898.391C347.965 889.382 334.839 909.281 334.839 909.281L325.83 917.914L322.067 913.42L311.929 912.668C311.929 912.668 304.426 913.044 308.543 901.025C312.682 889.006 299.534 884.889 299.534 884.889C299.534 884.889 286.386 884.512 285.279 873.622C284.15 862.732 275.141 868 275.141 868C275.141 868 264.627 876.256 250.749 867.624C236.87 858.991 237.247 853.369 240.235 850.358C243.245 847.348 246.233 842.855 243.998 836.856C241.762 830.858 243.998 826.718 243.998 826.718C243.998 826.718 244.75 819.215 234.612 816.957C224.475 814.699 223.346 804.562 222.97 799.316C222.593 794.07 219.583 789.554 219.583 789.554L218.83 784.685L214.691 781.674L208.693 776.052L204.199 772.665C204.199 772.665 202.694 758.411 196.696 752.39C190.697 746.392 192.202 737.759 193.685 736.63C195.19 735.501 201.189 736.63 197.072 727.621C192.955 718.612 206.081 717.107 206.081 717.107C206.081 717.107 223.722 720.118 225.98 693.844C225.98 693.844 223.346 687.092 227.861 683.33C232.355 679.567 234.989 677.331 234.989 677.331L251.878 678.46C251.878 678.46 263.52 680.341 266.885 667.193C270.272 654.045 279.878 633.726 287.16 628.524C289.794 626.642 298.051 633.394 293.535 616.505C293.535 616.505 289.042 614.623 291.654 605.991C293.491 599.948 291.831 589.279 287.957 583.568C291.233 573.608 293.004 573.209 303.341 564.886C306.041 562.695 308.277 559.818 310.092 556.741C317.485 552.602 320.34 563.913 323.019 572.235C325.675 580.558 323.019 598.553 323.019 603.224C323.019 616.992 337.672 601.232 337.672 601.232L343.006 595.897L350.001 591.891L355.335 580.558H360.67L369.325 568.893L384.31 552.225H390.64L396.971 545.231L402.969 543.571L421.43 535.912C421.43 535.912 425.635 540.251 434.312 537.904C434.312 537.904 429.642 582.882 434.312 596.561L445.977 608.868C445.977 608.868 455.982 618.895 448.301 637.223C440.643 655.55 443.963 666.219 443.963 666.219C443.963 666.219 443.299 682.555 457.62 684.547C471.941 686.539 471.277 684.547 471.277 684.547C471.277 684.547 490.933 689.881 468.621 701.214C468.621 701.214 457.222 701.547 455.761 712.547L453.636 719.21L448.965 727.201L448.301 736.542L449.629 744.532L448.633 746.856L446.641 759.517C446.641 759.517 439.979 769.19 443.299 777.513C446.641 785.836 449.629 806.841 438.961 822.159C428.292 837.498 420.301 849.495 420.965 855.826C421.297 858.814 419.416 861.625 417.313 863.772Z" fill="#284F51" stroke="#638283" strokeWidth="1.5"/>
<path d="M665.845 951.091C652.697 949.01 610.398 942.326 610.398 942.326C610.398 942.326 543.971 927.318 523.32 918.686C502.668 910.053 472.277 893.164 472.277 893.164C472.277 893.164 461.763 882.274 438.499 890.907C429.291 894.315 417.139 897.636 405.009 899.805C403.327 887.454 412.004 867.842 412.004 867.842C412.004 867.842 421.345 862.176 420.659 855.845C419.995 849.515 427.985 837.518 438.654 822.178C449.323 806.839 446.313 785.855 442.993 777.532C439.65 769.21 446.335 759.537 446.335 759.537L448.327 746.876L449.323 744.552L447.995 736.561L448.659 727.22L453.33 719.23L455.454 712.567C456.915 701.566 468.315 701.234 468.315 701.234C490.649 689.901 470.971 684.567 470.971 684.567C470.971 684.567 471.635 686.559 457.314 684.567C442.993 682.574 443.657 666.239 443.657 666.239C443.657 666.239 440.314 655.57 447.995 637.242C455.676 618.915 445.671 608.888 445.671 608.888L434.006 596.581C429.335 582.924 434.006 537.924 434.006 537.924C442.661 535.6 456.34 542.262 456.34 542.262C456.34 542.262 444.011 559.926 443.679 576.261C443.347 592.597 445.007 611.544 465.681 608.888C486.332 606.254 490.339 603.575 490.339 603.575C490.339 603.575 512.341 596.913 525.666 617.233C538.991 637.552 546.65 635.228 546.65 635.228L562.52 635.317L593.642 638.239C593.642 638.239 610.309 641.913 617.636 640.231C624.962 638.571 629.965 634.232 634.967 635.228C639.97 636.224 643.622 635.892 650.971 632.572C658.32 629.252 676.293 625.577 679.303 627.57C682.314 629.562 694.975 628.234 693.957 645.565C692.96 662.897 694.023 662.874 694.023 662.874L690.636 670.887C690.636 670.887 685.966 708.87 687.294 714.537C688.622 720.203 682.956 736.207 665.624 736.871C648.292 737.535 649.953 734.215 638.288 741.873C626.623 749.532 623.634 775.208 623.634 775.208L621.974 789.198L623.634 798.538L622.306 803.209L623.966 811.2L623.302 820.208L621.974 827.203L623.634 832.205L625.294 843.538L634.967 858.192L636.627 871.517L642.958 876.519L646.964 888.516L649.975 895.511L652.299 902.837L666.288 920.501L666.62 935.486L679.48 951.711H669.719C669.697 951.711 668.258 951.49 665.845 951.091Z" fill="#284F51" stroke="#638283" strokeWidth="1.5"/>
<path d="M81.158 181.049L86.3154 190.19L88.4403 196.853C88.4403 196.853 82.9951 204.423 81.2686 211.971C76.7089 231.826 101.146 229.214 101.146 229.214C101.146 229.214 117.171 231.339 119.894 242.76C122.616 254.204 132.001 249.157 136.827 237.05C141.652 224.942 151.347 239.484 151.347 239.484C165.27 247.652 171.003 237.979 171.003 237.979L179.481 231.317C179.481 231.317 181.251 227.62 181.273 227.576C181.273 232.091 181.65 238.51 182.734 247.608C185.656 271.801 172.84 278.774 172.84 278.774L146.079 302.236L143.157 309.563L117.127 336.324L112.368 344.381L102.474 352.084L99.5519 360.517L85.2529 380.992L81.2022 386.481C82.0876 380.549 80.4939 374.108 69.9356 372.935C49.6602 370.677 54.4192 373.223 36.158 344.403C26.3966 329.019 30.5358 327.891 21.9032 325.257C13.2707 322.622 5.39068 305.734 2.00406 284.728C-1.38256 263.7 5.76697 260.335 5.76697 260.335C5.76697 260.335 13.2707 247.187 3.88552 231.804C-5.49962 216.42 11.0129 217.549 11.0129 217.549C11.0129 217.549 33.3247 226.115 23.0321 193.156C17.4098 175.139 35.0513 175.891 35.0513 175.891L44.7684 185.055C44.7684 185.055 52.0065 185.276 55.9022 186.162C67.0802 188.729 73.4329 181.978 73.4329 181.978L81.158 181.049Z" fill="#284F51" stroke="#638283" strokeWidth="1.5"/>
<path d="M256.621 339.134C264.678 321.005 260.473 314.188 262.62 298.472C265.033 280.632 268.663 286.364 273.2 283.952C277.738 281.539 281.368 282.447 283.183 277.289C284.998 272.154 291.041 270.627 294.383 270.339C297.704 270.029 311.316 263.986 311.316 263.986C311.316 263.986 327.032 257.634 330.065 243.423C333.097 229.213 324.619 225.582 320.392 224.365C316.164 223.148 310.409 219.23 307.996 212.877C305.584 206.524 301.334 200.769 301.334 200.769L284.401 198.954L277.14 197.449L271.098 197.759C271.098 197.759 243.695 189.968 240.552 167.213C238.36 151.254 238.737 149.372 238.737 149.372L235.704 146.052C235.704 146.052 234.774 138.925 236.191 128.787C236.191 128.787 225.124 126.087 224.836 138.792C224.526 151.497 222.711 162.388 222.711 162.388C222.711 162.388 223.021 169.958 214.233 176.001C205.446 182.043 201.218 186.736 201.218 186.736L194.268 198.379L188.513 206.856L184.573 213.519L183.068 223.812C183.068 223.812 182.16 225.715 181.23 227.619C181.23 232.134 181.607 238.553 182.691 247.651C185.613 271.844 172.797 278.817 172.797 278.817L146.036 302.279L143.114 309.606L117.084 336.367L112.325 344.424L102.431 352.127L99.509 360.56L85.2099 381.035L81.1593 386.524C80.3403 391.992 77.3963 396.994 77.3963 396.994V404.874L81.1593 415.388L85.5862 412.444H95.4583L100.394 410.164H107.987L119.364 399.163H136.341C136.341 399.163 151.614 387.011 158.055 389.291C164.497 391.571 177.025 397.813 195.994 381.035C214.964 364.257 232.649 345.331 252.637 347.213C253.832 345.022 254.851 342.985 255.758 341.059C256.068 340.373 256.356 339.731 256.621 339.134Z" fill="#284F51" stroke="#638283" strokeWidth="1.5"/>
<path d="M134.037 573.888C132.643 571.453 132.665 567.181 136.339 559.832C141.209 550.071 131.846 546.684 131.846 546.684L123.966 541.815C123.966 541.815 114.581 536.192 117.967 523.797C121.354 511.402 121.73 490.019 94.7038 492.454C67.6773 494.889 60.5499 483.622 60.5499 483.622L59.0447 469.744L53.7988 462.24L48.1766 458.854C48.1766 458.854 43.6832 453.608 49.6817 449.469C55.6802 445.329 65.4417 443.094 65.4417 443.094C65.4417 443.094 77.4608 438.6 75.5794 428.086C73.6979 417.572 81.2016 415.315 81.2016 415.315L85.6286 412.371H95.5007L100.437 410.091H108.029L119.406 399.09H136.384C136.384 399.09 151.657 386.938 158.098 389.218C164.539 391.498 177.067 397.74 196.037 380.961C215.006 364.183 232.692 345.258 252.68 347.14C252.68 347.14 254.76 350.283 258.08 356.281C261.423 362.28 266.735 366.618 266.735 366.618L276.74 370.957C276.74 370.957 291.061 385.61 293.075 388.288C295.068 390.944 310.739 407.612 310.739 407.612L320.412 423.615V440.615V456.618C320.412 456.618 320.412 465.627 323.068 470.275C325.724 474.946 326.056 484.973 325.06 493.118C324.064 501.264 322.736 505.934 322.736 505.934L319.748 519.591L316.76 537.919C316.76 537.919 314.945 548.079 309.832 556.756C308.016 559.832 305.803 562.732 303.08 564.901C292.743 573.224 290.995 573.622 287.697 583.583C286.037 581.148 283.978 579.621 281.632 579.732C273.752 580.108 259.497 582.366 259.497 582.366C259.497 582.366 210.336 590.998 183.309 581.613C156.283 572.228 142.028 577.12 142.028 577.12C142.028 577.12 136.229 577.784 134.037 573.888Z" fill="#284F51" stroke="#638283" strokeWidth="1.5"/>
<path d="M81.1533 181.046L85.3368 180.559L92.5748 177.217L99.2595 175.269C99.2595 175.269 101.207 173.033 114.001 166.083C126.795 159.133 126.175 152.448 126.175 152.448C126.175 152.448 127.083 151.054 126.242 141.314C125.401 131.575 132.639 124.049 132.639 124.049L139.589 112.074C139.589 112.074 141.537 112.406 145.72 104.836C146.938 102.645 143.773 90.3601 140.165 85.0699C138.881 83.2105 138.305 81.7275 138.084 80.5986L143.529 85.1363C143.529 85.1363 156.301 95.451 157.651 102.512C160.197 115.749 172.039 112.827 172.039 112.827C172.039 112.827 173.522 112.141 182.353 111.875C191.185 111.609 193.62 106.718 199.729 104.814C205.838 102.91 209.646 106.297 214.405 110.392C219.164 114.465 224.321 114.863 230.032 115.549C234.304 116.058 238.044 114.509 241.586 108.843C238.554 115.97 236.96 122.854 236.141 128.742C236.141 128.742 225.073 126.041 224.786 138.747C224.476 151.452 222.661 162.342 222.661 162.342C222.661 162.342 222.971 169.912 214.183 175.955C205.396 181.998 201.168 186.691 201.168 186.691L194.218 198.333L188.463 206.811L184.523 213.474L183.017 223.766L179.387 231.336L170.91 237.999C170.91 237.999 165.155 247.672 151.254 239.504C151.254 239.504 141.581 224.939 136.734 237.069C131.886 249.199 122.523 254.224 119.801 242.78C117.078 231.336 101.052 229.234 101.052 229.234C101.052 229.234 76.5936 231.845 81.1754 211.991C82.9241 204.42 88.3471 196.873 88.3471 196.873L86.2222 190.21L81.1533 181.046Z" fill="#284F51" stroke="#638283" strokeWidth="1.5"/>
<path d="M181.909 111.937C173.498 112.225 172.059 112.867 172.059 112.867C172.059 112.867 160.217 115.789 157.672 102.552C156.321 95.491 143.55 85.1763 143.55 85.1763L138.104 80.6386C137.684 78.5358 138.503 77.6061 138.503 77.6061L141.292 71.2092L144.346 64.2589L149.637 59.8098L152.426 55.3607L156.321 50.0705L167.167 40.3312C167.167 40.3312 171.351 32.5398 176.907 31.6987C182.463 30.8576 187.487 25.014 190.829 22.2471C194.172 19.4582 199.174 17.7981 203.911 18.0637C208.648 18.3514 226.798 14.1016 226.798 14.1016L239.57 24.2393L244.108 24.9255C244.086 24.9919 240.124 33.8458 240.124 33.8458L238.486 39.9549L234.944 42.8103V56.2461C234.944 56.2461 235.121 62.9087 239.504 69.9697C243.886 77.0306 249.73 90.2008 245.126 101.755C240.5 113.31 235.763 116.298 230.052 115.612C224.341 114.925 219.184 114.527 214.425 110.454C209.666 106.381 205.859 102.995 199.75 104.876C193.641 106.78 191.184 111.672 182.374 111.937C182.219 111.915 182.064 111.937 181.909 111.937Z" fill="#284F51" stroke="#638283" strokeWidth="1.5"/>
<path d="M519.667 308.03C519.247 308.318 518.826 308.584 518.383 308.827C518.428 308.96 522.301 321.001 520.641 327.287C518.981 333.618 513.802 342.959 521.062 345.947C528.322 348.935 533.988 348.603 533.988 348.603C533.988 348.603 545.321 348.603 538.659 363.943C531.996 379.282 537.663 380.964 537.663 380.964C537.663 380.964 540.076 397.919 529.03 398.606C517.985 399.292 517.653 404.936 518.649 413.945C518.649 413.945 527.304 417.619 531.31 425.61C535.317 433.601 537.973 438.692 537.973 438.692L540.74 446.594L547.646 451.596C547.646 451.596 551.32 462.265 551.32 470.92C551.32 479.574 551.32 485.905 551.32 485.905C551.32 485.905 559.643 487.897 568.984 478.246C578.324 468.574 582.198 468.574 582.198 468.574C582.198 468.574 588.661 471.916 592.978 455.912C597.294 439.909 607.963 433.246 607.963 433.246C607.963 433.246 615.621 431.254 618.964 436.257C622.306 441.259 632.621 440.263 632.621 440.263C632.621 440.263 641.962 437.253 642.958 444.602C643.954 451.928 645.614 463.593 653.627 468.596L667.306 454.983C667.306 454.983 673.637 449.051 676.005 439.555C678.373 430.059 684.948 428.266 684.948 428.266C678.617 413.945 682.601 402.28 682.601 402.28C682.601 402.28 686.608 393.625 686.94 384.948C687.272 376.294 697.609 369.609 697.609 369.609C697.609 369.609 697.609 369.609 697.941 346.943C698.273 324.277 685.612 316.618 681.273 310.952C676.935 305.285 671.954 293.311 671.954 293.311L656.194 296.321C656.194 296.321 637.048 306.835 627.663 302.696C618.278 298.556 607.011 301.567 607.011 301.567C607.011 301.567 589.746 306.06 572.481 309.823C555.216 313.586 551.076 301.19 551.076 301.19C551.076 301.19 551.077 296.321 545.078 292.558C539.079 288.795 531.199 296.321 523.674 304.577C522.501 305.905 521.15 307.056 519.667 308.03Z" fill="#284F51" stroke="#638283" strokeWidth="1.5"/>
<path d="M508.321 579.314C508.542 579.402 508.764 579.491 508.985 579.579C519.322 583.586 517.308 561.584 517.308 561.584L520.65 554.921C530.655 535.93 543.316 560.256 543.316 560.256C559.319 553.261 553.985 569.929 553.985 569.929H557.991L558.988 564.262C558.988 564.262 558.656 558.596 562.529 546.267C566.403 533.937 573.663 539.604 573.995 552.929C574.327 566.254 581.985 558.264 588.493 546.267C594.979 534.27 614.656 523.601 614.656 523.601H630.66C630.66 523.601 637.986 523.269 642.325 531.259C646.663 539.25 651.666 537.922 651.666 537.922C651.666 537.922 658.328 533.915 661.671 545.58C665.013 557.245 666.009 566.232 668.997 568.578C671.985 570.903 672.34 578.251 672.34 578.251L682.012 582.922C682.012 582.922 685.023 594.255 700.34 595.915C715.679 597.575 725.662 597.243 723.006 611.918C720.35 626.571 718.668 628.918 718.668 628.918L714.329 636.576L710.655 643.903L707.999 649.237L693.921 656.719C693.921 656.719 693.744 656.808 693.589 656.896C693.611 654.351 693.722 650.721 694.01 645.563C695.006 628.232 682.344 629.56 679.356 627.568C676.346 625.575 658.373 629.228 651.024 632.57C643.675 635.912 640.023 636.244 635.02 635.226C630.018 634.208 625.015 638.569 617.689 640.229C610.362 641.889 593.695 638.237 593.695 638.237L562.573 635.315L546.703 635.226C546.703 635.226 539.044 637.55 525.719 617.231C512.394 596.911 490.392 603.573 490.392 603.573C490.392 603.573 486.386 606.23 465.734 608.886C445.082 611.52 443.4 592.573 443.732 576.259C444.064 559.924 456.393 542.26 456.393 542.26L483.043 556.249L485.035 560.92L496.7 571.257C496.656 571.235 498.56 575.374 508.321 579.314Z" fill="#284F51" stroke="#638283" strokeWidth="1.5"/>
<defs>
<filter id="filter0_b_1030_16317" x="758.049" y="211.489" width="192.856" height="157.747" filterUnits="userSpaceOnUse" color-interpolation-filters="sRGB">
<feFlood flood-opacity="0" result="BackgroundImageFix"/>
<feGaussianBlur in="BackgroundImageFix" stdDeviation="33"/>
<feComposite in2="SourceAlpha" operator="in" result="effect1_backgroundBlur_1030_16317"/>
<feBlend mode="normal" in="SourceGraphic" in2="effect1_backgroundBlur_1030_16317" result="shape"/>
</filter>
</defs>
</svg>
