<svg width="1013" height="700" viewBox="0 0 1013 700" fill="none" xmlns="http://www.w3.org/2000/svg">
<path d="M59.2225 -53.6676C57.1197 -56.9879 55.2382 -59.9318 55.2382 -59.9318L53.3568 -68.5644L43.5954 -77.1969L42.4665 -94.462L52.6042 -110.598L52.9805 -131.25C52.9805 -131.25 56.7434 -140.635 61.9893 -143.645C67.2353 -146.656 83.7699 -161.663 83.7699 -161.663L110.044 -178.928C110.044 -178.928 124.675 -184.927 122.439 -201.816C122.439 -201.816 113.807 -209.319 122.439 -220.962C131.072 -232.605 126.202 -224.725 126.202 -224.725L131.072 -239.732L137.823 -235.239H147.961C147.961 -235.239 147.208 -237.873 155.088 -233.734C162.968 -229.595 170.095 -228.112 170.095 -228.112L178.728 -220.984H192.607L208.366 -218.727C208.366 -218.727 215.118 -218.727 218.128 -211.223C221.138 -203.719 226.008 -194.71 226.008 -194.71V-182.691L215.87 -171.048L216.246 -160.534L213.612 -156.041V-141.41L232.006 -129.391C232.006 -129.391 239.51 -127.509 239.51 -116.619C239.51 -105.729 237.629 -104.6 237.629 -104.6L234.995 -80.5835C234.995 -80.5835 230.501 -59.1792 230.125 -52.0518C229.749 -44.9244 228.62 -38.1733 226.738 -35.9156C226.738 -35.9156 208.566 -31.6657 203.851 -31.9534C199.114 -32.2412 194.112 -30.559 190.769 -27.77C187.427 -24.981 182.425 -19.1375 176.847 -18.3185C171.291 -17.4773 167.107 -9.6859 167.107 -9.6859L156.261 0.0533905L152.366 5.3436L149.577 9.79269L144.286 14.2418L141.232 21.1921L138.443 27.589C138.443 27.589 136.495 29.8246 140.103 35.0927C143.711 40.3829 146.876 52.6677 145.659 54.859C141.475 62.4291 139.527 62.0971 139.527 62.0971L132.577 74.072C132.577 74.072 125.339 81.5757 126.18 91.3372C127.021 101.076 126.114 102.471 126.114 102.471C126.114 102.471 126.733 109.156 113.94 116.106C101.146 123.056 99.1979 125.292 99.1979 125.292L92.5132 127.24L85.2751 130.582L73.3002 131.977C73.3002 131.977 66.9475 138.705 55.7695 136.16C51.8737 135.275 44.6357 135.053 44.6357 135.053L34.9185 125.889L42.7985 116.881L43.9274 107.119L40.917 98.8629L43.9274 82.3505L42.4222 65.4616C42.4222 65.4616 42.0459 55.7002 39.7882 53.0661C37.5304 50.4321 36.7778 39.5639 40.917 34.6721C45.0562 29.8025 51.4311 23.0293 41.6696 14.3967C31.9082 5.76418 31.9082 5.76416 31.9082 5.76416C31.9082 5.76416 33.4134 -7.73805 45.0562 -7.0076C56.6991 -6.25502 73.9642 -5.87872 72.4591 -23.1438C70.9539 -40.4089 64.9554 -44.5481 64.9554 -44.5481C64.9554 -44.5481 61.9229 -49.4178 59.2225 -53.6676Z" fill="#284F51" stroke="#638283" strokeWidth="1.5"/>
<path d="M765.147 712.769C764.97 707.147 764.549 701.458 763.597 700.197C761.605 697.541 760.941 690.192 760.587 683.529C760.255 676.867 751.932 672.196 751.932 672.196L745.934 663.874L744.606 656.879L742.613 647.206L745.27 640.544L742.613 631.203C742.613 631.203 752.286 626.2 745.956 616.217C739.625 606.212 750.626 602.56 750.626 602.56C750.626 602.56 756.293 591.227 747.638 582.573C738.983 573.918 747.638 560.571 747.638 560.571C747.638 560.571 752.973 553.244 745.314 544.899C737.655 536.554 743.986 526.572 748.656 523.561C753.327 520.551 761.317 515.571 761.317 515.571C761.317 515.571 768.312 514.907 770.326 505.566C772.318 496.225 775.661 492.905 770.99 486.574C766.32 480.244 771.986 471.589 773.314 467.25C774.642 462.912 776.48 460.012 770.658 446.267C769.33 443.124 768.002 426.943 768.002 426.943C791.996 429.267 792.992 413.286 792.992 413.286C792.992 413.286 805.343 413.994 813.644 410.298C832.613 401.842 829.979 396.973 816.632 389.646C803.285 382.319 816.632 371.982 816.632 371.982L848.617 352.659C872.611 352.659 869.269 327.337 869.269 327.337L875.931 306.353C894.591 277.024 917.921 288.357 917.921 288.357C917.921 288.357 944.239 302.347 960.242 291.346C976.246 280.345 991.231 289.685 991.231 289.685C991.231 289.685 1006.9 306.353 1022.88 319.988C1038.87 333.623 1054.2 331.343 1076.87 322.356C1099.54 313.37 1137.41 319.988 1137.41 319.988C1137.41 319.988 1131.79 324.481 1132.92 328.244C1134.04 332.007 1136.68 333.114 1133.67 342.499C1130.66 351.884 1140.8 355.271 1140.8 355.271C1140.8 355.271 1142.68 356.023 1142.68 375.922C1142.68 395.822 1144.2 406.336 1144.2 406.336C1144.2 406.336 1152.06 411.582 1153.19 422.472C1154.32 433.362 1152.81 431.857 1158.81 437.856C1164.81 443.854 1161.45 448.37 1161.45 448.37L1162.4 462.624C1162.4 462.624 1178.34 468.999 1173.47 482.147C1168.6 495.295 1163.71 487.393 1171.59 496.402C1179.47 505.411 1174.4 519.289 1174.4 519.289L1171.21 524.535C1171.21 524.535 1173.09 532.792 1164.08 542.177C1155.07 551.562 1156.58 553.443 1156.58 553.443C1156.58 553.443 1161.45 562.076 1124.31 563.581C1087.16 565.086 1074.77 561.699 1045.48 581.599C1016.2 601.498 1002.7 621.397 1002.7 621.397C1002.7 621.397 1001.19 627.772 984.679 635.275C968.167 642.779 960.287 651.035 960.287 651.035L948.644 662.678L925.004 685.566L918.629 694.198L917.5 699.444L910.749 702.831L884.475 728.352L851.826 768.15L843.946 777.159L828.186 789.931L819.642 798.896L821.657 765.937C821.657 765.937 816.654 754.936 807.003 753.608C797.331 752.28 794.01 753.608 794.01 753.608L779.689 744.267L765.368 725.275C765.257 725.187 765.346 719.011 765.147 712.769Z" fill="#284F51" stroke="#638283" strokeWidth="1.5"/>
<path d="M1101.96 317.713C1120.14 316.916 1137.38 319.926 1137.38 319.926C1137.38 319.926 1147.52 312.046 1143 298.146C1138.49 284.245 1130.61 277.87 1120.87 270.743C1111.11 263.616 1097.98 245.222 1092.71 236.213C1087.47 227.204 1077.33 227.58 1077.33 227.58L1073.94 224.57L1061.17 217.819L1034.52 208.057L1018.76 200.177L1013.14 194.931L1000.37 183.665C1000.37 183.665 983.853 176.161 975.597 170.517C967.341 164.895 947.442 172.398 947.442 172.398C947.442 172.398 940.314 170.517 921.92 175.785C903.526 181.053 905.031 169.034 905.031 169.034C905.031 169.034 901.269 160.778 893.389 142.76C885.509 124.742 828.445 112.347 828.445 112.347L796.925 109.336C796.925 109.336 797.302 106.326 795.42 120.979C793.539 135.61 799.914 143.114 799.914 143.114C799.914 143.114 801.042 148.736 807.041 166.001C813.039 183.266 814.921 174.634 807.041 190.018C799.161 205.401 778.133 201.66 778.133 201.66C778.133 201.66 722.951 196.414 707.567 215.539C685.698 242.743 671.908 238.803 671.908 238.803V243.34C671.908 243.34 676.889 255.315 681.227 260.982C685.565 266.648 698.226 274.307 697.894 296.973C697.562 319.639 697.562 319.639 697.562 319.639C697.562 319.639 687.225 326.301 686.893 334.978C686.561 343.633 682.555 352.31 682.555 352.31C682.555 352.31 678.571 363.975 684.901 378.296C696.898 370.637 711.884 374.289 711.884 374.289C738.534 374.953 736.542 383.298 736.542 383.298C736.542 383.298 736.874 396.955 746.215 398.97C755.555 400.984 749.889 411.631 749.889 411.631C748.893 422.3 743.89 424.624 767.885 426.97C791.879 429.294 792.875 413.313 792.875 413.313C792.875 413.313 805.226 414.021 813.526 410.325C832.496 401.869 829.862 397 816.515 389.673C803.167 382.346 816.515 372.009 816.515 372.009L848.499 352.686C872.493 352.686 869.151 327.364 869.151 327.364L875.814 306.38C894.473 277.051 917.803 288.384 917.803 288.384C917.803 288.384 944.121 302.374 960.125 291.373C976.128 280.372 991.114 289.712 991.114 289.712C991.114 289.712 1006.78 306.38 1022.77 320.015C1038.75 333.65 1054.09 331.37 1076.75 322.383C1084.21 319.373 1093.2 318.089 1101.96 317.713Z" fill="#284F51" stroke="#638283" strokeWidth="1.5"/>
<path d="M743.809 635.499C743.189 633.307 742.591 631.204 742.591 631.204C742.591 631.204 752.264 626.202 745.933 616.219C739.603 606.214 750.604 602.562 750.604 602.562C750.604 602.562 756.27 591.229 747.616 582.574C738.961 573.92 747.616 560.572 747.616 560.572C747.616 560.572 752.95 553.246 745.291 544.901C737.633 536.556 743.963 526.573 748.634 523.563C753.304 520.553 761.295 515.572 761.295 515.572C761.295 515.572 768.29 514.908 770.304 505.568C772.296 496.227 775.638 492.907 770.968 486.576C766.297 480.245 771.964 471.591 773.292 467.252C774.62 462.914 776.457 460.014 770.636 446.269C769.308 443.125 767.98 426.945 767.98 426.945C743.986 424.621 748.988 422.274 749.984 411.606C749.984 411.606 755.651 400.937 746.31 398.944C736.969 396.952 736.637 383.273 736.637 383.273C736.637 383.273 738.629 374.95 711.979 374.264C711.979 374.264 696.993 370.59 684.996 378.271C684.996 378.271 678.422 380.064 676.054 389.559C673.686 399.055 667.355 404.987 667.355 404.987L653.676 418.6C653.676 418.6 646.349 424.931 644.003 436.109C641.657 447.287 638.004 452.931 638.004 452.931L630.678 473.583C630.678 473.583 638.004 473.251 642.343 481.242C646.681 489.232 651.684 487.904 651.684 487.904C651.684 487.904 658.346 483.898 661.689 495.563C665.031 507.228 666.027 516.214 669.015 518.561C672.003 520.885 672.358 528.234 672.358 528.234L682.03 532.904C682.03 532.904 685.041 544.237 700.358 545.897C715.697 547.557 725.68 547.225 723.024 561.901C720.368 576.554 718.686 578.9 718.686 578.9L714.347 586.559L710.673 593.885L708.017 599.22C708.017 599.22 694.116 606.613 693.607 606.878C693.695 611.062 694.072 612.855 694.072 612.855L690.685 620.867C690.685 620.867 687.476 647.075 687.144 659.205C689.6 663.189 698.344 661.529 698.344 661.529L709.013 654.534L716.339 663.875L720.014 662.215L725.016 660.555L729.023 662.547L738.031 663.875H746.022L744.694 656.881L742.702 647.208L745.358 640.545C745.247 640.545 744.517 637.956 743.809 635.499Z" fill="#284F51" stroke="#638283" strokeWidth="1.5"/>
<path d="M245.127 51.7416C249.753 40.1872 243.91 27.0171 239.505 19.9561C235.1 12.8951 234.945 6.23252 234.945 6.23252V-7.20329L238.487 -10.0587L240.125 -16.1679C240.125 -16.1679 244.065 -24.9996 244.109 -25.0882C247.894 -24.6898 253.494 -24.4684 258.718 -25.7743C267.727 -28.0321 291.367 -31.0203 291.367 -31.0203L326.273 -42.2869L346.549 -44.5446L374.704 -44.9209L381.832 -43.0395C381.832 -43.0395 392.722 -38.1698 396.086 -30.644C399.451 -23.1182 401.332 -11.4974 401.332 -11.4974C401.332 -11.4974 403.59 -1.35972 406.578 3.13364C409.589 7.62699 411.448 11.3899 412.953 20.0225C414.458 28.655 415.963 39.169 415.963 39.169C415.963 39.169 415.587 47.049 412.2 50.0593C408.814 53.0696 406.202 63.5615 406.202 63.5615C406.202 63.5615 405.073 87.2014 379.175 99.9732C353.278 112.745 348.386 114.604 348.386 114.604L342.011 118.367C342.011 118.367 336.367 120.492 338.669 124.521C338.647 124.521 331.564 127.819 331.564 127.819L319.456 134.769L316.136 139.307L309.783 140.524L301.305 150.817L284.372 149.002L277.112 147.497L271.069 147.806C271.069 147.806 243.666 140.015 240.523 117.26C238.332 101.301 238.708 99.4198 238.708 99.4198L235.676 96.0996C235.676 96.0996 234.746 88.9722 236.163 78.8345C237.247 70.9545 239.749 61.3038 245.127 51.7416Z" fill="#284F51" stroke="#638283" strokeWidth="1.5"/>
<path d="M252.643 297.175C252.643 297.175 254.723 300.318 258.043 306.317C261.386 312.315 266.698 316.653 266.698 316.653L276.703 320.992C276.703 320.992 291.024 335.645 293.039 338.323C295.031 340.98 310.702 357.647 310.702 357.647L320.375 373.65V390.65V406.653C320.375 406.653 320.375 415.662 323.031 420.311C325.687 424.981 326.019 435.008 325.023 443.154C324.027 451.299 322.699 455.97 322.699 455.97L319.711 469.627L316.723 487.954C316.723 487.954 314.908 498.114 309.795 506.791C317.188 502.652 320.043 513.963 322.721 522.285C325.377 530.608 322.721 548.604 322.721 553.274C322.721 567.042 337.374 551.282 337.374 551.282L342.709 545.947L349.703 541.941L355.038 530.608H360.372L369.027 518.943L384.012 502.276H390.343L396.673 495.281L402.672 493.621L421.132 485.962L419.339 477.64L414.669 471.973C414.669 471.973 410.995 465.975 409.003 462.986C407.01 459.976 405.66 440.32 407.674 431.666C409.667 423.011 407.674 423.011 405.682 419.005C403.69 414.998 408.006 407.672 408.006 407.672L404.332 392.686C404.332 392.686 399.662 377.015 400.99 367.032C402.318 357.027 408.98 350.697 408.98 350.697L412.655 342.042L419.981 331.085L421.641 324.378L423.966 316.056C423.966 316.056 424.298 304.723 427.95 295.072C431.602 285.399 424.298 272.738 424.298 272.738C424.298 272.738 424.962 271.41 415.975 241.749C406.988 212.089 441.452 219.415 441.452 219.415L439.194 210.407C439.194 210.407 433.196 204.032 433.948 198.387C434.701 192.765 422.682 194.625 422.682 194.625C422.682 194.625 420.048 193.496 417.037 190.131C414.027 186.745 411.792 191.636 415.909 175.876C420.048 160.116 411.415 146.592 411.415 146.592C411.415 146.592 403.912 137.96 394.903 147.721C385.894 157.482 385.518 152.591 376.885 151.108C368.252 149.602 364.49 144.357 364.49 144.357C364.49 144.357 351.718 134.595 342.355 128.22C340.385 126.892 339.234 125.697 338.636 124.612C338.614 124.612 331.531 127.91 331.531 127.91L319.423 134.861L316.103 139.398L309.75 140.616L301.273 150.908C301.273 150.908 305.5 156.663 307.935 163.016C310.37 169.369 316.103 173.309 320.331 174.504C324.558 175.721 333.036 179.352 330.004 193.562C326.971 207.773 311.255 214.125 311.255 214.125C311.255 214.125 297.643 220.168 294.322 220.478C291.002 220.788 284.937 222.293 283.122 227.428C281.307 232.563 277.677 231.656 273.139 234.091C268.602 236.504 264.972 230.771 262.559 248.611C260.213 266.319 265.946 272.672 252.643 297.175Z" fill="#284F51" stroke="#638283" strokeWidth="1.5"/>
<path d="M539.371 392.697C538.663 390.705 537.976 388.69 537.976 388.69C537.976 388.69 535.32 383.599 531.314 375.609C527.307 367.618 518.653 363.944 518.653 363.944C517.657 354.935 517.989 349.29 529.034 348.604C540.079 347.918 537.667 330.963 537.667 330.963C537.667 330.963 532 329.258 538.663 313.941C545.325 298.602 533.992 298.602 533.992 298.602C533.992 298.602 528.326 298.934 521.065 295.946C513.805 292.935 518.985 283.617 520.645 277.286C522.283 271.022 518.476 259.113 518.387 258.826C510.684 263.319 499.993 263.961 489.523 262.456C476.375 260.574 478.633 251.189 478.633 251.189C478.633 251.189 476.752 247.05 476.375 242.933C475.999 238.816 474.494 234.677 466.99 232.043C459.487 229.409 453.488 223.034 453.488 223.034L447.49 220.776L441.491 219.271C441.491 219.271 407.005 211.944 416.014 241.605C425.023 271.265 424.337 272.593 424.337 272.593C424.337 272.593 431.663 285.255 427.989 294.927C424.337 304.6 424.005 315.911 424.005 315.911L421.68 324.234L420.02 330.941L412.694 341.897L409.019 350.552C409.019 350.552 402.357 356.883 401.029 366.888C399.701 376.892 404.371 392.542 404.371 392.542L408.045 407.527C408.045 407.527 403.707 414.853 405.721 418.86C407.713 422.866 409.728 422.866 407.713 431.521C405.721 440.176 407.049 459.854 409.041 462.842C411.034 465.83 414.708 471.828 414.708 471.828L419.378 477.495L421.171 485.818C421.171 485.818 425.377 490.156 434.032 487.81C442.686 485.486 456.366 492.148 456.366 492.148L483.016 506.137L485.008 510.808L496.673 521.145C496.673 521.145 498.665 525.483 509.002 529.467C519.339 533.474 517.325 511.472 517.325 511.472L520.667 504.809C530.672 485.818 543.333 510.144 543.333 510.144C559.336 503.149 554.002 519.817 554.002 519.817H558.008L559.004 514.15C559.004 514.15 558.672 508.484 562.546 496.154C566.42 483.825 573.68 489.492 574.012 502.817C574.344 516.142 582.002 508.152 588.51 496.154C594.996 484.157 614.673 473.489 614.673 473.489H630.677L638.003 452.837C638.003 452.837 641.678 447.17 644.002 436.014C646.326 424.858 653.675 418.506 653.675 418.506C645.684 413.503 644.002 401.838 643.006 394.512C642.01 387.185 632.669 390.173 632.669 390.173C632.669 390.173 622.332 391.169 619.012 386.167C615.692 381.164 608.011 383.157 608.011 383.157C608.011 383.157 597.342 389.819 593.026 405.823C588.709 421.826 582.246 418.484 582.246 418.484C582.246 418.484 578.372 418.484 569.032 428.157C559.691 437.829 551.368 435.815 551.368 435.815C551.368 435.815 551.368 429.485 551.368 420.83C551.368 412.175 547.694 401.506 547.694 401.506L540.788 396.504C540.743 396.592 540.057 394.667 539.371 392.697Z" fill="#284F51" stroke="#638283" strokeWidth="1.5"/>
<path d="M417.313 813.772C414.944 816.229 412.31 817.823 412.31 817.823C412.31 817.823 403.633 837.434 405.316 849.785C386.833 853.106 368.439 853.836 360.736 848.391C347.965 839.382 334.839 859.281 334.839 859.281L325.83 867.914L322.067 863.42L311.929 862.668C311.929 862.668 304.426 863.044 308.543 851.025C312.682 839.006 299.534 834.889 299.534 834.889C299.534 834.889 286.386 834.512 285.279 823.622C284.15 812.732 275.141 818 275.141 818C275.141 818 264.627 826.256 250.749 817.624C236.87 808.991 237.247 803.369 240.235 800.358C243.245 797.348 246.233 792.855 243.998 786.856C241.762 780.858 243.998 776.718 243.998 776.718C243.998 776.718 244.75 769.215 234.612 766.957C224.475 764.699 223.346 754.562 222.97 749.316C222.593 744.07 219.583 739.554 219.583 739.554L218.83 734.685L214.691 731.674L208.693 726.052L204.199 722.665C204.199 722.665 202.694 708.411 196.696 702.39C190.697 696.392 192.202 687.759 193.685 686.63C195.19 685.501 201.189 686.63 197.072 677.621C192.955 668.612 206.081 667.107 206.081 667.107C206.081 667.107 223.722 670.118 225.98 643.844C225.98 643.844 223.346 637.092 227.861 633.33C232.355 629.567 234.989 627.331 234.989 627.331L251.878 628.46C251.878 628.46 263.52 630.341 266.885 617.193C270.272 604.045 279.878 583.726 287.16 578.524C289.794 576.642 298.051 583.394 293.535 566.505C293.535 566.505 289.042 564.623 291.654 555.991C293.491 549.948 291.831 539.279 287.957 533.568C291.233 523.608 293.004 523.209 303.341 514.886C306.041 512.695 308.277 509.818 310.092 506.741C317.485 502.602 320.34 513.913 323.019 522.235C325.675 530.558 323.019 548.553 323.019 553.224C323.019 566.992 337.672 551.232 337.672 551.232L343.006 545.897L350.001 541.891L355.335 530.558H360.67L369.325 518.893L384.31 502.225H390.64L396.971 495.231L402.969 493.571L421.43 485.912C421.43 485.912 425.635 490.251 434.312 487.904C434.312 487.904 429.642 532.882 434.312 546.561L445.977 558.868C445.977 558.868 455.982 568.895 448.301 587.223C440.643 605.55 443.963 616.219 443.963 616.219C443.963 616.219 443.299 632.555 457.62 634.547C471.941 636.539 471.277 634.547 471.277 634.547C471.277 634.547 490.933 639.881 468.621 651.214C468.621 651.214 457.222 651.547 455.761 662.547L453.636 669.21L448.965 677.201L448.301 686.542L449.629 694.532L448.633 696.856L446.641 709.517C446.641 709.517 439.979 719.19 443.299 727.513C446.641 735.836 449.629 756.841 438.961 772.159C428.292 787.498 420.301 799.495 420.965 805.826C421.297 808.814 419.416 811.625 417.313 813.772Z" fill="#284F51" stroke="#638283" strokeWidth="1.5"/>
<path d="M673.866 894.627C670.413 890.267 666.628 885.486 666.628 885.486L666.296 870.5L652.307 852.837L649.983 845.51L646.973 838.516L642.966 826.519L636.636 821.516L634.976 808.191L625.303 793.538L623.643 782.205L621.982 777.202L623.311 770.208L623.975 761.199L622.314 753.208L623.643 748.538L621.982 739.197L623.643 725.208C623.643 725.208 626.631 699.554 638.296 691.873C649.961 684.214 648.301 687.535 665.632 686.87C682.964 686.206 688.63 670.203 687.302 664.537C687.081 663.585 687.014 661.681 687.081 659.202C689.538 663.208 698.281 661.548 698.281 661.548L708.95 654.554L716.276 663.895L719.951 662.234L724.953 660.574L728.96 662.566L737.969 663.895H745.959L751.958 672.217C751.958 672.217 760.28 676.888 760.612 683.55C760.944 690.213 761.608 697.539 763.623 700.218C764.575 701.479 764.995 707.168 765.172 712.79C765.371 719.032 765.283 725.208 765.283 725.208L779.604 744.2L793.925 753.54C793.925 753.54 797.268 752.212 806.918 753.54C816.591 754.868 821.572 765.869 821.572 765.869L819.557 798.828C818.694 799.736 812.341 806.398 812.341 806.398L796.581 817.665L789.454 827.426L777.435 833.048L754.171 856.312L739.916 867.579L714.395 881.833L698.259 892.347L687.369 896.11L679.489 901.733C679.466 901.71 676.766 898.302 673.866 894.627Z" fill="#284F51" stroke="#638283" strokeWidth="1.5"/>
<path d="M665.845 901.091C652.697 899.01 610.398 892.326 610.398 892.326C610.398 892.326 543.971 877.318 523.32 868.686C502.668 860.053 472.277 843.164 472.277 843.164C472.277 843.164 461.763 832.274 438.499 840.907C429.291 844.315 417.139 847.636 405.009 849.805C403.327 837.454 412.004 817.842 412.004 817.842C412.004 817.842 421.345 812.176 420.659 805.845C419.995 799.515 427.985 787.518 438.654 772.178C449.323 756.839 446.313 735.855 442.993 727.532C439.65 719.21 446.335 709.537 446.335 709.537L448.327 696.876L449.323 694.552L447.995 686.561L448.659 677.22L453.33 669.23L455.454 662.567C456.915 651.566 468.315 651.234 468.315 651.234C490.649 639.901 470.971 634.567 470.971 634.567C470.971 634.567 471.635 636.559 457.314 634.567C442.993 632.574 443.657 616.239 443.657 616.239C443.657 616.239 440.314 605.57 447.995 587.242C455.676 568.915 445.671 558.888 445.671 558.888L434.006 546.581C429.335 532.924 434.006 487.924 434.006 487.924C442.661 485.6 456.34 492.262 456.34 492.262C456.34 492.262 444.011 509.926 443.679 526.261C443.347 542.597 445.007 561.544 465.681 558.888C486.332 556.254 490.339 553.575 490.339 553.575C490.339 553.575 512.341 546.913 525.666 567.233C538.991 587.552 546.65 585.228 546.65 585.228L562.52 585.317L593.642 588.239C593.642 588.239 610.309 591.913 617.636 590.231C624.962 588.571 629.965 584.232 634.967 585.228C639.97 586.224 643.622 585.892 650.971 582.572C658.32 579.252 676.293 575.577 679.303 577.57C682.314 579.562 694.975 578.234 693.957 595.565C692.96 612.897 694.023 612.874 694.023 612.874L690.636 620.887C690.636 620.887 685.966 658.87 687.294 664.537C688.622 670.203 682.956 686.207 665.624 686.871C648.292 687.535 649.953 684.215 638.288 691.873C626.623 699.532 623.634 725.208 623.634 725.208L621.974 739.198L623.634 748.538L622.306 753.209L623.966 761.2L623.302 770.208L621.974 777.203L623.634 782.205L625.294 793.538L634.967 808.192L636.627 821.517L642.958 826.519L646.964 838.516L649.975 845.511L652.299 852.837L666.288 870.501L666.62 885.486L679.48 901.711H669.719C669.697 901.711 668.258 901.49 665.845 901.091Z" fill="#284F51" stroke="#638283" strokeWidth="1.5"/>
<path d="M81.158 131.049L86.3154 140.19L88.4403 146.853C88.4403 146.853 82.9951 154.423 81.2686 161.971C76.7089 181.826 101.146 179.214 101.146 179.214C101.146 179.214 117.171 181.339 119.894 192.76C122.616 204.204 132.001 199.157 136.827 187.05C141.652 174.942 151.347 189.484 151.347 189.484C165.27 197.652 171.003 187.979 171.003 187.979L179.481 181.317C179.481 181.317 181.251 177.62 181.273 177.576C181.273 182.091 181.65 188.51 182.734 197.608C185.656 221.801 172.84 228.774 172.84 228.774L146.079 252.236L143.157 259.563L117.127 286.324L112.368 294.381L102.474 302.084L99.5519 310.517L85.2529 330.992L81.2022 336.481C82.0876 330.549 80.4939 324.108 69.9356 322.935C49.6602 320.677 54.4192 323.223 36.158 294.403C26.3966 279.019 30.5358 277.891 21.9032 275.257C13.2707 272.622 5.39068 255.734 2.00406 234.728C-1.38256 213.7 5.76697 210.335 5.76697 210.335C5.76697 210.335 13.2707 197.187 3.88552 181.804C-5.49962 166.42 11.0129 167.549 11.0129 167.549C11.0129 167.549 33.3247 176.115 23.0321 143.156C17.4098 125.139 35.0513 125.891 35.0513 125.891L44.7684 135.055C44.7684 135.055 52.0065 135.276 55.9022 136.162C67.0802 138.729 73.4329 131.978 73.4329 131.978L81.158 131.049Z" fill="#284F51" stroke="#638283" strokeWidth="1.5"/>
<path d="M256.621 289.134C264.678 271.005 260.473 264.188 262.62 248.472C265.033 230.632 268.663 236.364 273.2 233.952C277.738 231.539 281.368 232.447 283.183 227.289C284.998 222.154 291.041 220.627 294.383 220.339C297.704 220.029 311.316 213.986 311.316 213.986C311.316 213.986 327.032 207.634 330.065 193.423C333.097 179.213 324.619 175.582 320.392 174.365C316.164 173.148 310.409 169.23 307.996 162.877C305.584 156.524 301.334 150.769 301.334 150.769L284.401 148.954L277.14 147.449L271.098 147.759C271.098 147.759 243.695 139.968 240.552 117.213C238.36 101.254 238.737 99.3725 238.737 99.3725L235.704 96.0523C235.704 96.0523 234.774 88.9249 236.191 78.7872C236.191 78.7872 225.124 76.0867 224.836 88.792C224.526 101.497 222.711 112.388 222.711 112.388C222.711 112.388 223.021 119.958 214.233 126.001C205.446 132.043 201.218 136.736 201.218 136.736L194.268 148.379L188.513 156.856L184.573 163.519L183.068 173.812C183.068 173.812 182.16 175.715 181.23 177.619C181.23 182.134 181.607 188.553 182.691 197.651C185.613 221.844 172.797 228.817 172.797 228.817L146.036 252.279L143.114 259.606L117.084 286.367L112.325 294.424L102.431 302.127L99.509 310.56L85.2099 331.035L81.1593 336.524C80.3403 341.992 77.3963 346.994 77.3963 346.994V354.874L81.1593 365.388L85.5862 362.444H95.4583L100.394 360.164H107.987L119.364 349.163H136.341C136.341 349.163 151.614 337.011 158.055 339.291C164.497 341.571 177.025 347.813 195.994 331.035C214.964 314.257 232.649 295.331 252.637 297.213C253.832 295.022 254.851 292.985 255.758 291.059C256.068 290.373 256.356 289.731 256.621 289.134Z" fill="#284F51" stroke="#638283" strokeWidth="1.5"/>
<path d="M134.037 523.888C132.643 521.453 132.665 517.181 136.339 509.832C141.209 500.071 131.846 496.684 131.846 496.684L123.966 491.815C123.966 491.815 114.581 486.192 117.967 473.797C121.354 461.402 121.73 440.019 94.7038 442.454C67.6773 444.889 60.5499 433.622 60.5499 433.622L59.0447 419.744L53.7988 412.24L48.1766 408.854C48.1766 408.854 43.6832 403.608 49.6817 399.469C55.6802 395.329 65.4417 393.094 65.4417 393.094C65.4417 393.094 77.4608 388.6 75.5794 378.086C73.6979 367.572 81.2016 365.315 81.2016 365.315L85.6286 362.371H95.5007L100.437 360.091H108.029L119.406 349.09H136.384C136.384 349.09 151.657 336.938 158.098 339.218C164.539 341.498 177.067 347.74 196.037 330.961C215.006 314.183 232.692 295.258 252.68 297.14C252.68 297.14 254.76 300.283 258.08 306.281C261.423 312.28 266.735 316.618 266.735 316.618L276.74 320.957C276.74 320.957 291.061 335.61 293.075 338.288C295.068 340.944 310.739 357.612 310.739 357.612L320.412 373.615V390.615V406.618C320.412 406.618 320.412 415.627 323.068 420.275C325.724 424.946 326.056 434.973 325.06 443.118C324.064 451.264 322.736 455.934 322.736 455.934L319.748 469.591L316.76 487.919C316.76 487.919 314.945 498.079 309.832 506.756C308.016 509.832 305.803 512.732 303.08 514.901C292.743 523.224 290.995 523.622 287.697 533.583C286.037 531.148 283.978 529.621 281.632 529.732C273.752 530.108 259.497 532.366 259.497 532.366C259.497 532.366 210.336 540.998 183.309 531.613C156.283 522.228 142.028 527.12 142.028 527.12C142.028 527.12 136.229 527.784 134.037 523.888Z" fill="#284F51" stroke="#638283" strokeWidth="1.5"/>
<path d="M81.1533 131.046L85.3368 130.559L92.5748 127.217L99.2595 125.269C99.2595 125.269 101.207 123.033 114.001 116.083C126.795 109.133 126.175 102.448 126.175 102.448C126.175 102.448 127.083 101.054 126.242 91.3143C125.401 81.575 132.639 74.0492 132.639 74.0492L139.589 62.0743C139.589 62.0743 141.537 62.4063 145.72 54.8362C146.938 52.6448 143.773 40.3601 140.165 35.0699C138.881 33.2105 138.305 31.7275 138.084 30.5986L143.529 35.1363C143.529 35.1363 156.301 45.451 157.651 52.512C160.197 65.7486 172.039 62.8268 172.039 62.8268C172.039 62.8268 173.522 62.1407 182.353 61.8751C191.185 61.6094 193.62 56.7176 199.729 54.8141C205.838 52.9105 209.646 56.2971 214.405 60.392C219.164 64.4648 224.321 64.8632 230.032 65.5494C234.304 66.0585 238.044 64.5091 241.586 58.8426C238.554 65.97 236.96 72.8539 236.141 78.7417C236.141 78.7417 225.073 76.0413 224.786 88.7466C224.476 101.452 222.661 112.342 222.661 112.342C222.661 112.342 222.971 119.912 214.183 125.955C205.396 131.998 201.168 136.691 201.168 136.691L194.218 148.333L188.463 156.811L184.523 163.474L183.017 173.766L179.387 181.336L170.91 187.999C170.91 187.999 165.155 197.672 151.254 189.504C151.254 189.504 141.581 174.939 136.734 187.069C131.886 199.199 122.523 204.224 119.801 192.78C117.078 181.336 101.052 179.234 101.052 179.234C101.052 179.234 76.5936 181.845 81.1754 161.991C82.9241 154.42 88.3471 146.873 88.3471 146.873L86.2222 140.21L81.1533 131.046Z" fill="#284F51" stroke="#638283" strokeWidth="1.5"/>
<path d="M181.909 61.9372C173.498 62.2249 172.059 62.8668 172.059 62.8668C172.059 62.8668 160.217 65.7886 157.672 52.552C156.321 45.491 143.55 35.1763 143.55 35.1763L138.104 30.6386C137.684 28.5358 138.503 27.6061 138.503 27.6061L141.292 21.2092L144.346 14.2589L149.637 9.80982L152.426 5.36074L156.321 0.0705376L167.167 -9.66877C167.167 -9.66877 171.351 -17.4602 176.907 -18.3013C182.463 -19.1424 187.487 -24.986 190.829 -27.7529C194.172 -30.5418 199.174 -32.2019 203.911 -31.9363C208.648 -31.6486 226.798 -35.8984 226.798 -35.8984L239.57 -25.7607L244.108 -25.0745C244.086 -25.0081 240.124 -16.1542 240.124 -16.1542L238.486 -10.0451L234.944 -7.18966V6.24612C234.944 6.24612 235.121 12.9087 239.504 19.9697C243.886 27.0306 249.73 40.2008 245.126 51.7552C240.5 63.3095 235.763 66.2977 230.052 65.6115C224.341 64.9254 219.184 64.5269 214.425 60.4541C209.666 56.3814 205.859 52.9947 199.75 54.8762C193.641 56.7798 191.184 61.6716 182.374 61.9372C182.219 61.915 182.064 61.9372 181.909 61.9372Z" fill="#284F51" stroke="#638283" strokeWidth="1.5"/>
<path d="M519.667 258.03C519.247 258.318 518.826 258.584 518.383 258.827C518.428 258.96 522.301 271.001 520.641 277.287C518.981 283.618 513.802 292.959 521.062 295.947C528.322 298.935 533.988 298.603 533.988 298.603C533.988 298.603 545.321 298.603 538.659 313.943C531.996 329.282 537.663 330.964 537.663 330.964C537.663 330.964 540.076 347.919 529.03 348.606C517.985 349.292 517.653 354.936 518.649 363.945C518.649 363.945 527.304 367.619 531.31 375.61C535.317 383.601 537.973 388.692 537.973 388.692L540.74 396.594L547.646 401.596C547.646 401.596 551.32 412.265 551.32 420.92C551.32 429.574 551.32 435.905 551.32 435.905C551.32 435.905 559.643 437.897 568.984 428.246C578.324 418.574 582.198 418.574 582.198 418.574C582.198 418.574 588.661 421.916 592.978 405.912C597.294 389.909 607.963 383.246 607.963 383.246C607.963 383.246 615.621 381.254 618.964 386.257C622.306 391.259 632.621 390.263 632.621 390.263C632.621 390.263 641.962 387.253 642.958 394.602C643.954 401.928 645.614 413.593 653.627 418.596L667.306 404.983C667.306 404.983 673.637 399.051 676.005 389.555C678.373 380.059 684.948 378.266 684.948 378.266C678.617 363.945 682.601 352.28 682.601 352.28C682.601 352.28 686.608 343.625 686.94 334.948C687.272 326.294 697.609 319.609 697.609 319.609C697.609 319.609 697.609 319.609 697.941 296.943C698.273 274.277 685.612 266.618 681.273 260.952C676.935 255.285 671.954 243.311 671.954 243.311L656.194 246.321C656.194 246.321 637.048 256.835 627.663 252.696C618.278 248.556 607.011 251.567 607.011 251.567C607.011 251.567 589.746 256.06 572.481 259.823C555.216 263.586 551.076 251.19 551.076 251.19C551.076 251.19 551.077 246.321 545.078 242.558C539.079 238.795 531.199 246.321 523.674 254.577C522.501 255.905 521.15 257.056 519.667 258.03Z" fill="#FCFF45" stroke="#FCFF45" strokeWidth="1.25"/>
<g filter="url(#filter0_b_1030_16361)">
<rect x="576.983" y="312.709" width="60.8565" height="25.747" fill="white" fill-opacity="0.08"/>
<rect x="576.983" y="312.709" width="60.8565" height="25.747" fill="#325B5D" fill-opacity="0.16"/>
<rect x="577.483" y="313.209" width="59.8565" height="24.747" stroke="white" strokeOpacity="0.2"/>
<path d="M597.771 322.483H598.851V325.873L601.841 322.483H603.151L600.431 325.583L603.331 329.583H602.061L599.711 326.343L598.851 327.303V329.583H597.771V322.483ZM604.47 322.483H605.84L609.12 328.273V322.483H610.2V329.583H608.78L605.55 323.923V329.583H604.47V322.483ZM611.922 322.483H613.002V325.873L615.992 322.483H617.302L614.582 325.583L617.482 329.583H616.212L613.862 326.343L613.002 327.303V329.583H611.922V322.483Z" fill="#0E3E40"/>
</g>
<path d="M508.321 529.314C508.542 529.402 508.764 529.491 508.985 529.579C519.322 533.586 517.308 511.584 517.308 511.584L520.65 504.921C530.655 485.93 543.316 510.256 543.316 510.256C559.319 503.261 553.985 519.929 553.985 519.929H557.991L558.988 514.262C558.988 514.262 558.656 508.596 562.529 496.267C566.403 483.937 573.663 489.604 573.995 502.929C574.327 516.254 581.985 508.264 588.493 496.267C594.979 484.27 614.656 473.601 614.656 473.601H630.66C630.66 473.601 637.986 473.269 642.325 481.259C646.663 489.25 651.666 487.922 651.666 487.922C651.666 487.922 658.328 483.915 661.671 495.58C665.013 507.245 666.009 516.232 668.997 518.578C671.985 520.903 672.34 528.251 672.34 528.251L682.012 532.922C682.012 532.922 685.023 544.255 700.34 545.915C715.679 547.575 725.662 547.243 723.006 561.918C720.35 576.571 718.668 578.918 718.668 578.918L714.329 586.576L710.655 593.903L707.999 599.237L693.921 606.719C693.921 606.719 693.744 606.808 693.589 606.896C693.611 604.351 693.722 600.721 694.01 595.563C695.006 578.232 682.344 579.56 679.356 577.568C676.346 575.575 658.373 579.228 651.024 582.57C643.675 585.912 640.023 586.244 635.02 585.226C630.018 584.208 625.015 588.569 617.689 590.229C610.362 591.889 593.695 588.237 593.695 588.237L562.573 585.315L546.703 585.226C546.703 585.226 539.044 587.55 525.719 567.231C512.394 546.911 490.392 553.573 490.392 553.573C490.392 553.573 486.386 556.23 465.734 558.886C445.082 561.52 443.4 542.573 443.732 526.259C444.064 509.924 456.393 492.26 456.393 492.26L483.043 506.249L485.035 510.92L496.7 521.257C496.656 521.235 498.56 525.374 508.321 529.314Z" fill="#284F51" stroke="#638283" strokeWidth="1.5"/>
<defs>
<filter id="filter0_b_1030_16361" x="510.983" y="246.709" width="192.856" height="157.747" filterUnits="userSpaceOnUse" color-interpolation-filters="sRGB">
<feFlood flood-opacity="0" result="BackgroundImageFix"/>
<feGaussianBlur in="BackgroundImageFix" stdDeviation="33"/>
<feComposite in2="SourceAlpha" operator="in" result="effect1_backgroundBlur_1030_16361"/>
<feBlend mode="normal" in="SourceGraphic" in2="effect1_backgroundBlur_1030_16361" result="shape"/>
</filter>
</defs>
</svg>
