<svg width="1091" height="700" viewBox="0 0 1091 700" fill="none" xmlns="http://www.w3.org/2000/svg">
<path d="M765.147 509.769C764.97 504.147 764.549 498.458 763.597 497.197C761.605 494.541 760.941 487.192 760.587 480.529C760.255 473.867 751.932 469.196 751.932 469.196L745.934 460.874L744.606 453.879L742.613 444.206L745.27 437.544L742.613 428.203C742.613 428.203 752.286 423.2 745.956 413.217C739.625 403.212 750.626 399.56 750.626 399.56C750.626 399.56 756.293 388.227 747.638 379.573C738.983 370.918 747.638 357.571 747.638 357.571C747.638 357.571 752.973 350.244 745.314 341.899C737.655 333.554 743.986 323.572 748.656 320.561C753.327 317.551 761.317 312.571 761.317 312.571C761.317 312.571 768.312 311.907 770.326 302.566C772.318 293.225 775.661 289.905 770.99 283.574C766.32 277.244 771.986 268.589 773.314 264.25C774.642 259.912 776.48 257.012 770.658 243.267C769.33 240.124 768.002 223.943 768.002 223.943C791.996 226.267 792.992 210.286 792.992 210.286C792.992 210.286 805.343 210.994 813.644 207.298C832.613 198.842 829.979 193.973 816.632 186.646C803.285 179.319 816.632 168.982 816.632 168.982L848.617 149.659C872.611 149.659 869.269 124.337 869.269 124.337L875.931 103.353C894.591 74.0244 917.921 85.3574 917.921 85.3574C917.921 85.3574 944.239 99.3465 960.242 88.3456C976.246 77.3446 991.231 86.6855 991.231 86.6855C991.231 86.6855 1006.9 103.353 1022.88 116.988C1038.87 130.623 1054.2 128.343 1076.87 119.356C1099.54 110.37 1137.41 116.988 1137.41 116.988C1137.41 116.988 1131.79 121.481 1132.92 125.244C1134.04 129.007 1136.68 130.114 1133.67 139.499C1130.66 148.884 1140.8 152.271 1140.8 152.271C1140.8 152.271 1142.68 153.023 1142.68 172.922C1142.68 192.822 1144.2 203.336 1144.2 203.336C1144.2 203.336 1152.06 208.582 1153.19 219.472C1154.32 230.362 1152.81 228.857 1158.81 234.856C1164.81 240.854 1161.45 245.37 1161.45 245.37L1162.4 259.624C1162.4 259.624 1178.34 265.999 1173.47 279.147C1168.6 292.295 1163.71 284.393 1171.59 293.402C1179.47 302.411 1174.4 316.289 1174.4 316.289L1171.21 321.535C1171.21 321.535 1173.09 329.792 1164.08 339.177C1155.07 348.562 1156.58 350.443 1156.58 350.443C1156.58 350.443 1161.45 359.076 1124.31 360.581C1087.16 362.086 1074.77 358.699 1045.48 378.599C1016.2 398.498 1002.7 418.397 1002.7 418.397C1002.7 418.397 1001.19 424.772 984.679 432.275C968.167 439.779 960.287 448.035 960.287 448.035L948.644 459.678L925.004 482.566L918.629 491.198L917.5 496.444L910.749 499.831L884.475 525.352L851.826 565.15L843.946 574.159L828.186 586.931L819.642 595.896L821.657 562.937C821.657 562.937 816.654 551.936 807.003 550.608C797.331 549.28 794.01 550.608 794.01 550.608L779.689 541.267L765.368 522.275C765.257 522.187 765.346 516.011 765.147 509.769Z" fill="#284F51" stroke="#638283" strokeWidth="1.5"/>
<path d="M1101.96 114.713C1120.14 113.916 1137.38 116.926 1137.38 116.926C1137.38 116.926 1147.52 109.046 1143 95.1458C1138.49 81.2452 1130.61 74.8704 1120.87 67.743C1111.11 60.6156 1097.98 42.2216 1092.71 33.2128C1087.47 24.2039 1077.33 24.5802 1077.33 24.5802L1073.94 21.5699L1061.17 14.8188L1034.52 5.05734L1018.76 -2.82262L1013.14 -8.06855L1000.37 -19.3351C1000.37 -19.3351 983.853 -26.8388 975.597 -32.4832C967.341 -38.1054 947.442 -30.6017 947.442 -30.6017C947.442 -30.6017 940.314 -32.4832 921.92 -27.2151C903.526 -21.947 905.031 -33.9662 905.031 -33.9662C905.031 -33.9662 901.269 -42.2225 893.389 -60.2402C885.509 -78.2579 828.445 -90.6533 828.445 -90.6533L796.925 -93.6636C796.925 -93.6636 797.302 -96.674 795.42 -82.0208C793.539 -67.3897 799.914 -59.886 799.914 -59.886C799.914 -59.886 801.042 -54.2638 807.041 -36.9987C813.039 -19.7336 814.921 -28.3661 807.041 -12.9825C799.161 2.40119 778.133 -1.33957 778.133 -1.33957C778.133 -1.33957 722.951 -6.58552 707.567 12.5389C685.698 39.7425 671.908 35.8026 671.908 35.8026V40.3401C671.908 40.3401 676.889 52.3151 681.227 57.9816C685.565 63.6481 698.226 71.3067 697.894 93.9727C697.562 116.639 697.562 116.639 697.562 116.639C697.562 116.639 687.225 123.301 686.893 131.978C686.561 140.633 682.555 149.31 682.555 149.31C682.555 149.31 678.571 160.975 684.901 175.296C696.898 167.637 711.884 171.289 711.884 171.289C738.534 171.953 736.542 180.298 736.542 180.298C736.542 180.298 736.874 193.955 746.215 195.97C755.555 197.984 749.889 208.631 749.889 208.631C748.893 219.3 743.89 221.624 767.885 223.97C791.879 226.294 792.875 210.313 792.875 210.313C792.875 210.313 805.226 211.021 813.526 207.325C832.496 198.869 829.862 194 816.515 186.673C803.167 179.346 816.515 169.009 816.515 169.009L848.499 149.686C872.493 149.686 869.151 124.364 869.151 124.364L875.814 103.38C894.473 74.0514 917.803 85.3844 917.803 85.3844C917.803 85.3844 944.121 99.3736 960.125 88.3726C976.128 77.3716 991.114 86.7125 991.114 86.7125C991.114 86.7125 1006.78 103.38 1022.77 117.015C1038.75 130.65 1054.09 128.37 1076.75 119.383C1084.21 116.373 1093.2 115.089 1101.96 114.713Z" fill="#284F51" stroke="#638283" strokeWidth="1.5"/>
<path d="M743.809 432.499C743.189 430.307 742.591 428.204 742.591 428.204C742.591 428.204 752.264 423.202 745.933 413.219C739.603 403.214 750.604 399.562 750.604 399.562C750.604 399.562 756.27 388.229 747.616 379.574C738.961 370.92 747.616 357.572 747.616 357.572C747.616 357.572 752.95 350.246 745.291 341.901C737.633 333.556 743.963 323.573 748.634 320.563C753.304 317.553 761.295 312.572 761.295 312.572C761.295 312.572 768.29 311.908 770.304 302.568C772.296 293.227 775.638 289.907 770.968 283.576C766.297 277.245 771.964 268.591 773.292 264.252C774.62 259.914 776.457 257.014 770.636 243.269C769.308 240.125 767.98 223.945 767.98 223.945C743.986 221.621 748.988 219.274 749.984 208.606C749.984 208.606 755.651 197.937 746.31 195.944C736.969 193.952 736.637 180.273 736.637 180.273C736.637 180.273 738.629 171.95 711.979 171.264C711.979 171.264 696.993 167.59 684.996 175.271C684.996 175.271 678.422 177.064 676.054 186.559C673.686 196.055 667.355 201.987 667.355 201.987L653.676 215.6C653.676 215.6 646.349 221.931 644.003 233.109C641.657 244.287 638.004 249.931 638.004 249.931L630.678 270.583C630.678 270.583 638.004 270.251 642.343 278.242C646.681 286.232 651.684 284.904 651.684 284.904C651.684 284.904 658.346 280.898 661.689 292.563C665.031 304.228 666.027 313.214 669.015 315.561C672.003 317.885 672.358 325.234 672.358 325.234L682.03 329.904C682.03 329.904 685.041 341.237 700.358 342.897C715.697 344.557 725.68 344.225 723.024 358.901C720.368 373.554 718.686 375.9 718.686 375.9L714.347 383.559L710.673 390.885L708.017 396.22C708.017 396.22 694.116 403.613 693.607 403.878C693.695 408.062 694.072 409.855 694.072 409.855L690.685 417.867C690.685 417.867 687.476 444.075 687.144 456.205C689.6 460.189 698.344 458.529 698.344 458.529L709.013 451.534L716.339 460.875L720.014 459.215L725.016 457.555L729.023 459.547L738.031 460.875H746.022L744.694 453.881L742.702 444.208L745.358 437.545C745.247 437.545 744.517 434.956 743.809 432.499Z" fill="#FCFF45" stroke="#FCFF45" strokeWidth="1.25"/>
<g filter="url(#filter0_b_1030_16405)">
<rect x="679.831" y="248.545" width="60.8565" height="25.747" fill="white" fill-opacity="0.08"/>
<rect x="679.831" y="248.545" width="60.8565" height="25.747" fill="#325B5D" fill-opacity="0.16"/>
<rect x="680.331" y="249.045" width="59.8565" height="24.747" stroke="white" strokeOpacity="0.2"/>
<path d="M700.619 258.319H701.699V265.019L701.129 264.429H705.159V265.419H700.619V258.319ZM708.878 265.579C708.218 265.579 707.645 265.422 707.158 265.109C706.678 264.796 706.308 264.359 706.048 263.799C705.795 263.239 705.668 262.599 705.668 261.879C705.668 261.166 705.798 260.529 706.058 259.969C706.325 259.402 706.702 258.959 707.188 258.639C707.675 258.319 708.252 258.159 708.918 258.159C709.752 258.159 710.412 258.376 710.898 258.809C711.385 259.236 711.702 259.816 711.848 260.549L710.718 260.609C710.632 260.142 710.442 259.782 710.148 259.529C709.862 259.276 709.455 259.149 708.928 259.149C708.215 259.149 707.678 259.406 707.318 259.919C706.965 260.426 706.788 261.079 706.788 261.879C706.788 262.412 706.865 262.882 707.018 263.289C707.172 263.696 707.408 264.016 707.728 264.249C708.048 264.476 708.448 264.589 708.928 264.589C709.302 264.589 709.632 264.509 709.918 264.349C710.205 264.182 710.425 263.956 710.578 263.669C710.738 263.376 710.825 263.056 710.838 262.709H708.938V261.799H711.868V265.419H711.128L711.058 263.819L711.198 263.939C711.125 264.259 710.975 264.542 710.748 264.789C710.528 265.036 710.252 265.229 709.918 265.369C709.592 265.509 709.245 265.579 708.878 265.579ZM713.236 258.319H714.606L717.886 264.109V258.319H718.966V265.419H717.546L714.316 259.759V265.419H713.236V258.319Z" fill="#0E3E40"/>
</g>
<path d="M252.643 94.1749C252.643 94.1749 254.723 97.318 258.043 103.317C261.386 109.315 266.698 113.653 266.698 113.653L276.703 117.992C276.703 117.992 291.024 132.645 293.039 135.323C295.031 137.98 310.702 154.647 310.702 154.647L320.375 170.65V187.65V203.653C320.375 203.653 320.375 212.662 323.031 217.311C325.687 221.981 326.019 232.008 325.023 240.154C324.027 248.299 322.699 252.97 322.699 252.97L319.711 266.627L316.723 284.954C316.723 284.954 314.908 295.114 309.795 303.791C317.188 299.652 320.043 310.963 322.721 319.285C325.377 327.608 322.721 345.604 322.721 350.274C322.721 364.042 337.374 348.282 337.374 348.282L342.709 342.947L349.703 338.941L355.038 327.608H360.372L369.027 315.943L384.012 299.276H390.343L396.673 292.281L402.672 290.621L421.132 282.962L419.339 274.64L414.669 268.973C414.669 268.973 410.995 262.975 409.003 259.986C407.01 256.976 405.66 237.32 407.674 228.666C409.667 220.011 407.674 220.011 405.682 216.005C403.69 211.998 408.006 204.672 408.006 204.672L404.332 189.686C404.332 189.686 399.662 174.015 400.99 164.032C402.318 154.027 408.98 147.697 408.98 147.697L412.655 139.042L419.981 128.085L421.641 121.378L423.966 113.056C423.966 113.056 424.298 101.723 427.95 92.072C431.602 82.3992 424.298 69.7381 424.298 69.7381C424.298 69.7381 424.962 68.41 415.975 38.7494C406.988 9.08885 441.452 16.4155 441.452 16.4155L439.194 7.4066C439.194 7.4066 433.196 1.03181 433.948 -4.61256C434.701 -10.2348 422.682 -8.37549 422.682 -8.37549C422.682 -8.37549 420.048 -9.50436 417.037 -12.8688C414.027 -16.2555 411.792 -11.3637 415.909 -27.1236C420.048 -42.8836 411.415 -56.4079 411.415 -56.4079C411.415 -56.4079 403.912 -65.0405 394.903 -55.279C385.894 -45.5176 385.518 -50.4094 376.885 -51.8924C368.252 -53.3976 364.49 -58.6435 364.49 -58.6435C364.49 -58.6435 351.718 -68.4049 342.355 -74.7797C340.385 -76.1078 339.234 -77.3031 338.636 -78.3877C338.614 -78.3877 331.531 -75.0896 331.531 -75.0896L319.423 -68.1393L316.103 -63.6017L309.75 -62.3843L301.273 -52.0916C301.273 -52.0916 305.5 -46.3366 307.935 -39.9839C310.37 -33.6312 316.103 -29.6912 320.331 -28.496C324.558 -27.2786 333.036 -23.6484 330.004 -9.43791C326.971 4.7726 311.255 11.1252 311.255 11.1252C311.255 11.1252 297.643 17.1681 294.322 17.478C291.002 17.7878 284.937 19.293 283.122 24.4282C281.307 29.5635 277.677 28.656 273.139 31.0908C268.602 33.5035 264.972 27.7706 262.559 45.6112C260.213 63.319 265.946 69.6717 252.643 94.1749Z" fill="#284F51" stroke="#638283" strokeWidth="1.5"/>
<path d="M539.371 189.697C538.663 187.705 537.976 185.69 537.976 185.69C537.976 185.69 535.32 180.599 531.314 172.609C527.307 164.618 518.653 160.944 518.653 160.944C517.657 151.935 517.989 146.29 529.034 145.604C540.079 144.918 537.667 127.963 537.667 127.963C537.667 127.963 532 126.258 538.663 110.941C545.325 95.6018 533.992 95.6018 533.992 95.6018C533.992 95.6018 528.326 95.9338 521.065 92.9456C513.805 89.9353 518.985 80.6165 520.645 74.286C522.283 68.0219 518.476 56.1134 518.387 55.8256C510.684 60.319 499.993 60.9609 489.523 59.4558C476.375 57.5743 478.633 48.1891 478.633 48.1891C478.633 48.1891 476.752 44.05 476.375 39.9329C475.999 35.8158 474.494 31.6766 466.99 29.0426C459.487 26.4085 453.488 20.0337 453.488 20.0337L447.49 17.776L441.491 16.2708C441.491 16.2708 407.005 8.94422 416.014 38.6048C425.023 68.2654 424.337 69.5935 424.337 69.5935C424.337 69.5935 431.663 82.2545 427.989 91.9274C424.337 101.6 424.005 112.911 424.005 112.911L421.68 121.234L420.02 127.941L412.694 138.897L409.019 147.552C409.019 147.552 402.357 153.883 401.029 163.888C399.701 173.892 404.371 189.542 404.371 189.542L408.045 204.527C408.045 204.527 403.707 211.853 405.721 215.86C407.713 219.866 409.728 219.866 407.713 228.521C405.721 237.176 407.049 256.854 409.041 259.842C411.034 262.83 414.708 268.828 414.708 268.828L419.378 274.495L421.171 282.818C421.171 282.818 425.377 287.156 434.032 284.81C442.686 282.486 456.366 289.148 456.366 289.148L483.016 303.137L485.008 307.808L496.673 318.145C496.673 318.145 498.665 322.483 509.002 326.467C519.339 330.474 517.325 308.472 517.325 308.472L520.667 301.809C530.672 282.818 543.333 307.144 543.333 307.144C559.336 300.149 554.002 316.817 554.002 316.817H558.008L559.004 311.15C559.004 311.15 558.672 305.484 562.546 293.154C566.42 280.825 573.68 286.492 574.012 299.817C574.344 313.142 582.002 305.152 588.51 293.154C594.996 281.157 614.673 270.489 614.673 270.489H630.677L638.003 249.837C638.003 249.837 641.678 244.17 644.002 233.014C646.326 221.858 653.675 215.506 653.675 215.506C645.684 210.503 644.002 198.838 643.006 191.512C642.01 184.185 632.669 187.173 632.669 187.173C632.669 187.173 622.332 188.169 619.012 183.167C615.692 178.164 608.011 180.157 608.011 180.157C608.011 180.157 597.342 186.819 593.026 202.823C588.709 218.826 582.246 215.484 582.246 215.484C582.246 215.484 578.372 215.484 569.032 225.157C559.691 234.829 551.368 232.815 551.368 232.815C551.368 232.815 551.368 226.485 551.368 217.83C551.368 209.175 547.694 198.506 547.694 198.506L540.788 193.504C540.743 193.592 540.057 191.667 539.371 189.697Z" fill="#284F51" stroke="#638283" strokeWidth="1.5"/>
<path d="M417.313 610.772C414.944 613.229 412.31 614.823 412.31 614.823C412.31 614.823 403.633 634.434 405.316 646.785C386.833 650.106 368.439 650.836 360.736 645.391C347.965 636.382 334.839 656.281 334.839 656.281L325.83 664.914L322.067 660.42L311.929 659.668C311.929 659.668 304.426 660.044 308.543 648.025C312.682 636.006 299.534 631.889 299.534 631.889C299.534 631.889 286.386 631.512 285.279 620.622C284.15 609.732 275.141 615 275.141 615C275.141 615 264.627 623.256 250.749 614.624C236.87 605.991 237.247 600.369 240.235 597.358C243.245 594.348 246.233 589.855 243.998 583.856C241.762 577.858 243.998 573.718 243.998 573.718C243.998 573.718 244.75 566.215 234.612 563.957C224.475 561.699 223.346 551.562 222.97 546.316C222.593 541.07 219.583 536.554 219.583 536.554L218.83 531.685L214.691 528.674L208.693 523.052L204.199 519.665C204.199 519.665 202.694 505.411 196.696 499.39C190.697 493.392 192.202 484.759 193.685 483.63C195.19 482.501 201.189 483.63 197.072 474.621C192.955 465.612 206.081 464.107 206.081 464.107C206.081 464.107 223.722 467.118 225.98 440.844C225.98 440.844 223.346 434.092 227.861 430.33C232.355 426.567 234.989 424.331 234.989 424.331L251.878 425.46C251.878 425.46 263.52 427.341 266.885 414.193C270.272 401.045 279.878 380.726 287.16 375.524C289.794 373.642 298.051 380.394 293.535 363.505C293.535 363.505 289.042 361.623 291.654 352.991C293.491 346.948 291.831 336.279 287.957 330.568C291.233 320.608 293.004 320.209 303.341 311.886C306.041 309.695 308.277 306.818 310.092 303.741C317.485 299.602 320.34 310.913 323.019 319.235C325.675 327.558 323.019 345.553 323.019 350.224C323.019 363.992 337.672 348.232 337.672 348.232L343.006 342.897L350.001 338.891L355.335 327.558H360.67L369.325 315.893L384.31 299.225H390.64L396.971 292.231L402.969 290.571L421.43 282.912C421.43 282.912 425.635 287.251 434.312 284.904C434.312 284.904 429.642 329.882 434.312 343.561L445.977 355.868C445.977 355.868 455.982 365.895 448.301 384.223C440.643 402.55 443.963 413.219 443.963 413.219C443.963 413.219 443.299 429.555 457.62 431.547C471.941 433.539 471.277 431.547 471.277 431.547C471.277 431.547 490.933 436.881 468.621 448.214C468.621 448.214 457.222 448.547 455.761 459.547L453.636 466.21L448.965 474.201L448.301 483.542L449.629 491.532L448.633 493.856L446.641 506.517C446.641 506.517 439.979 516.19 443.299 524.513C446.641 532.836 449.629 553.841 438.961 569.159C428.292 584.498 420.301 596.495 420.965 602.826C421.297 605.814 419.416 608.625 417.313 610.772Z" fill="#284F51" stroke="#638283" strokeWidth="1.5"/>
<path d="M673.866 691.627C670.413 687.267 666.628 682.486 666.628 682.486L666.296 667.5L652.307 649.837L649.983 642.51L646.973 635.516L642.966 623.519L636.636 618.516L634.976 605.191L625.303 590.538L623.643 579.205L621.982 574.202L623.311 567.208L623.975 558.199L622.314 550.208L623.643 545.538L621.982 536.197L623.643 522.208C623.643 522.208 626.631 496.554 638.296 488.873C649.961 481.214 648.301 484.535 665.632 483.87C682.964 483.206 688.63 467.203 687.302 461.537C687.081 460.585 687.014 458.681 687.081 456.202C689.538 460.208 698.281 458.548 698.281 458.548L708.95 451.554L716.276 460.895L719.951 459.234L724.953 457.574L728.96 459.566L737.969 460.895H745.959L751.958 469.217C751.958 469.217 760.28 473.888 760.612 480.55C760.944 487.213 761.608 494.539 763.623 497.218C764.575 498.479 764.995 504.168 765.172 509.79C765.371 516.032 765.283 522.208 765.283 522.208L779.604 541.2L793.925 550.54C793.925 550.54 797.268 549.212 806.918 550.54C816.591 551.868 821.572 562.869 821.572 562.869L819.557 595.828C818.694 596.736 812.341 603.398 812.341 603.398L796.581 614.665L789.454 624.426L777.435 630.048L754.171 653.312L739.916 664.579L714.395 678.833L698.259 689.347L687.369 693.11L679.489 698.733C679.466 698.71 676.766 695.302 673.866 691.627Z" fill="#284F51" stroke="#638283" strokeWidth="1.5"/>
<path d="M665.845 698.091C652.697 696.01 610.398 689.326 610.398 689.326C610.398 689.326 543.971 674.318 523.32 665.686C502.668 657.053 472.277 640.164 472.277 640.164C472.277 640.164 461.763 629.274 438.499 637.907C429.291 641.315 417.139 644.636 405.009 646.805C403.327 634.454 412.004 614.842 412.004 614.842C412.004 614.842 421.345 609.176 420.659 602.845C419.995 596.515 427.985 584.518 438.654 569.178C449.323 553.839 446.313 532.855 442.993 524.532C439.65 516.21 446.335 506.537 446.335 506.537L448.327 493.876L449.323 491.552L447.995 483.561L448.659 474.22L453.33 466.23L455.454 459.567C456.915 448.566 468.315 448.234 468.315 448.234C490.649 436.901 470.971 431.567 470.971 431.567C470.971 431.567 471.635 433.559 457.314 431.567C442.993 429.574 443.657 413.239 443.657 413.239C443.657 413.239 440.314 402.57 447.995 384.242C455.676 365.915 445.671 355.888 445.671 355.888L434.006 343.581C429.335 329.924 434.006 284.924 434.006 284.924C442.661 282.6 456.34 289.262 456.34 289.262C456.34 289.262 444.011 306.926 443.679 323.261C443.347 339.597 445.007 358.544 465.681 355.888C486.332 353.254 490.339 350.575 490.339 350.575C490.339 350.575 512.341 343.913 525.666 364.233C538.991 384.552 546.65 382.228 546.65 382.228L562.52 382.317L593.642 385.239C593.642 385.239 610.309 388.913 617.636 387.231C624.962 385.571 629.965 381.232 634.967 382.228C639.97 383.224 643.622 382.892 650.971 379.572C658.32 376.252 676.293 372.577 679.303 374.57C682.314 376.562 694.975 375.234 693.957 392.565C692.96 409.897 694.023 409.874 694.023 409.874L690.636 417.887C690.636 417.887 685.966 455.87 687.294 461.537C688.622 467.203 682.956 483.207 665.624 483.871C648.292 484.535 649.953 481.215 638.288 488.873C626.623 496.532 623.634 522.208 623.634 522.208L621.974 536.198L623.634 545.538L622.306 550.209L623.966 558.2L623.302 567.208L621.974 574.203L623.634 579.205L625.294 590.538L634.967 605.192L636.627 618.517L642.958 623.519L646.964 635.516L649.975 642.511L652.299 649.837L666.288 667.501L666.62 682.486L679.48 698.711H669.719C669.697 698.711 668.258 698.49 665.845 698.091Z" fill="#284F51" stroke="#638283" strokeWidth="1.5"/>
<path d="M81.158 -71.9514L86.3154 -62.8098L88.4403 -56.1472C88.4403 -56.1472 82.9951 -48.5771 81.2686 -41.0292C76.7089 -21.1743 101.146 -23.7862 101.146 -23.7862C101.146 -23.7862 117.171 -21.6613 119.894 -10.2397C122.616 1.20393 132.001 -3.84277 136.827 -15.9505C141.652 -28.0582 151.347 -13.5156 151.347 -13.5156C165.27 -5.34792 171.003 -15.0209 171.003 -15.0209L179.481 -21.6834C179.481 -21.6834 181.251 -25.3799 181.273 -25.4241C181.273 -20.9087 181.65 -14.4896 182.734 -5.39222C185.656 18.8011 172.84 25.7735 172.84 25.7735L146.079 49.2363L143.157 56.5629L117.127 83.3239L112.368 91.3809L102.474 99.0838L99.5519 107.517L85.2529 127.992L81.2022 133.481C82.0876 127.549 80.4939 121.108 69.9356 119.935C49.6602 117.677 54.4192 120.223 36.158 91.4031C26.3966 76.0194 30.5358 74.8906 21.9032 72.2565C13.2707 69.6225 5.39068 52.7336 2.00406 31.7277C-1.38256 10.6997 5.76697 7.33526 5.76697 7.33526C5.76697 7.33526 13.2707 -5.81274 3.88552 -21.1964C-5.49962 -36.5801 11.0129 -35.4512 11.0129 -35.4512C11.0129 -35.4512 33.3247 -26.8851 23.0321 -59.8437C17.4098 -77.8614 35.0513 -77.1088 35.0513 -77.1088L44.7684 -67.9451C44.7684 -67.9451 52.0065 -67.7237 55.9022 -66.8383C67.0802 -64.2707 73.4329 -71.0218 73.4329 -71.0218L81.158 -71.9514Z" fill="#284F51" stroke="#638283" strokeWidth="1.5"/>
<path d="M256.621 86.1337C264.678 68.0054 260.473 61.1879 262.62 45.4722C265.033 27.6316 268.663 33.3645 273.2 30.9518C277.738 28.5391 281.368 29.4466 283.183 24.2892C284.998 19.1539 291.041 17.6266 294.383 17.3389C297.704 17.029 311.316 10.9862 311.316 10.9862C311.316 10.9862 327.032 4.63359 330.065 -9.57693C333.097 -23.7874 324.619 -27.4176 320.392 -28.635C316.164 -29.8524 310.409 -33.7703 307.996 -40.1229C305.584 -46.4756 301.334 -52.2306 301.334 -52.2306L284.401 -54.0457L277.14 -55.5509L271.098 -55.2409C271.098 -55.2409 243.695 -63.0324 240.552 -85.7869C238.36 -101.746 238.737 -103.628 238.737 -103.628L235.704 -106.948C235.704 -106.948 234.774 -114.075 236.191 -124.213C236.191 -124.213 225.124 -126.913 224.836 -114.208C224.526 -101.503 222.711 -90.6123 222.711 -90.6123C222.711 -90.6123 223.021 -83.0422 214.233 -76.9994C205.446 -70.9566 201.218 -66.2641 201.218 -66.2641L194.268 -54.6212L188.513 -46.1436L184.573 -39.481L183.068 -29.1884C183.068 -29.1884 182.16 -27.2848 181.23 -25.3812C181.23 -20.8657 181.607 -14.4466 182.691 -5.34925C185.613 18.844 172.797 25.8165 172.797 25.8165L146.036 49.2794L143.114 56.606L117.084 83.3669L112.325 91.4239L102.431 99.1268L99.509 107.56L85.2099 128.035L81.1593 133.524C80.3403 138.992 77.3963 143.994 77.3963 143.994V151.874L81.1593 162.388L85.5862 159.444H95.4583L100.394 157.164H107.987L119.364 146.163H136.341C136.341 146.163 151.614 134.011 158.055 136.291C164.497 138.571 177.025 144.813 195.994 128.035C214.964 111.257 232.649 92.3314 252.637 94.2129C253.832 92.0215 254.851 89.9852 255.758 88.0594C256.068 87.3733 256.356 86.7314 256.621 86.1337Z" fill="#284F51" stroke="#638283" strokeWidth="1.5"/>
<path d="M134.037 320.888C132.643 318.453 132.665 314.181 136.339 306.832C141.209 297.071 131.846 293.684 131.846 293.684L123.966 288.815C123.966 288.815 114.581 283.192 117.967 270.797C121.354 258.402 121.73 237.019 94.7038 239.454C67.6773 241.889 60.5499 230.622 60.5499 230.622L59.0447 216.744L53.7988 209.24L48.1766 205.854C48.1766 205.854 43.6832 200.608 49.6817 196.469C55.6802 192.329 65.4417 190.094 65.4417 190.094C65.4417 190.094 77.4608 185.6 75.5794 175.086C73.6979 164.572 81.2016 162.315 81.2016 162.315L85.6286 159.371H95.5007L100.437 157.091H108.029L119.406 146.09H136.384C136.384 146.09 151.657 133.938 158.098 136.218C164.539 138.498 177.067 144.74 196.037 127.961C215.006 111.183 232.692 92.2581 252.68 94.1396C252.68 94.1396 254.76 97.2827 258.08 103.281C261.423 109.28 266.735 113.618 266.735 113.618L276.74 117.957C276.74 117.957 291.061 132.61 293.075 135.288C295.068 137.944 310.739 154.612 310.739 154.612L320.412 170.615V187.615V203.618C320.412 203.618 320.412 212.627 323.068 217.275C325.724 221.946 326.056 231.973 325.06 240.118C324.064 248.264 322.736 252.934 322.736 252.934L319.748 266.591L316.76 284.919C316.76 284.919 314.945 295.079 309.832 303.756C308.016 306.832 305.803 309.732 303.08 311.901C292.743 320.224 290.995 320.622 287.697 330.583C286.037 328.148 283.978 326.621 281.632 326.732C273.752 327.108 259.497 329.366 259.497 329.366C259.497 329.366 210.336 337.998 183.309 328.613C156.283 319.228 142.028 324.12 142.028 324.12C142.028 324.12 136.229 324.784 134.037 320.888Z" fill="#284F51" stroke="#638283" strokeWidth="1.5"/>
<path d="M81.1533 -71.9539L85.3368 -72.4408L92.5748 -75.7832L99.2595 -77.731C99.2595 -77.731 101.207 -79.9666 114.001 -86.917C126.795 -93.8673 126.175 -100.552 126.175 -100.552C126.175 -100.552 127.083 -101.946 126.242 -111.686C125.401 -121.425 132.639 -128.951 132.639 -128.951L139.589 -140.926C139.589 -140.926 141.537 -140.594 145.72 -148.164C146.938 -150.355 143.773 -162.64 140.165 -167.93C138.881 -169.789 138.305 -171.272 138.084 -172.401L143.529 -167.864C143.529 -167.864 156.301 -157.549 157.651 -150.488C160.197 -137.251 172.039 -140.173 172.039 -140.173C172.039 -140.173 173.522 -140.859 182.353 -141.125C191.185 -141.391 193.62 -146.282 199.729 -148.186C205.838 -150.09 209.646 -146.703 214.405 -142.608C219.164 -138.535 224.321 -138.137 230.032 -137.451C234.304 -136.942 238.044 -138.491 241.586 -144.157C238.554 -137.03 236.96 -130.146 236.141 -124.258C236.141 -124.258 225.073 -126.959 224.786 -114.253C224.476 -101.548 222.661 -90.6577 222.661 -90.6577C222.661 -90.6577 222.971 -83.0876 214.183 -77.0448C205.396 -71.0021 201.168 -66.3095 201.168 -66.3095L194.218 -54.6666L188.463 -46.189L184.523 -39.5264L183.017 -29.2337L179.387 -21.6637L170.91 -15.0011C170.91 -15.0011 165.155 -5.32825 151.254 -13.496C151.254 -13.496 141.581 -28.0607 136.734 -15.9308C131.886 -3.80096 122.523 1.22366 119.801 -10.22C117.078 -21.6637 101.052 -23.7665 101.052 -23.7665C101.052 -23.7665 76.5936 -21.1546 81.1754 -41.0095C82.9241 -48.5796 88.3471 -56.1275 88.3471 -56.1275L86.2222 -62.7901L81.1533 -71.9539Z" fill="#284F51" stroke="#638283" strokeWidth="1.5"/>
<path d="M519.667 55.0302C519.247 55.3179 518.826 55.5835 518.383 55.827C518.428 55.9598 522.301 68.0011 520.641 74.2874C518.981 80.6179 513.802 89.9588 521.062 92.947C528.322 95.9351 533.988 95.6032 533.988 95.6032C533.988 95.6032 545.321 95.6031 538.659 110.943C531.996 126.282 537.663 127.964 537.663 127.964C537.663 127.964 540.076 144.919 529.03 145.606C517.985 146.292 517.653 151.936 518.649 160.945C518.649 160.945 527.304 164.619 531.31 172.61C535.317 180.601 537.973 185.692 537.973 185.692L540.74 193.594L547.646 198.596C547.646 198.596 551.32 209.265 551.32 217.92C551.32 226.574 551.32 232.905 551.32 232.905C551.32 232.905 559.643 234.897 568.984 225.246C578.324 215.574 582.198 215.574 582.198 215.574C582.198 215.574 588.661 218.916 592.978 202.912C597.294 186.909 607.963 180.246 607.963 180.246C607.963 180.246 615.621 178.254 618.964 183.257C622.306 188.259 632.621 187.263 632.621 187.263C632.621 187.263 641.962 184.253 642.958 191.602C643.954 198.928 645.614 210.593 653.627 215.596L667.306 201.983C667.306 201.983 673.637 196.051 676.005 186.555C678.373 177.059 684.948 175.266 684.948 175.266C678.617 160.945 682.601 149.28 682.601 149.28C682.601 149.28 686.608 140.625 686.94 131.948C687.272 123.294 697.609 116.609 697.609 116.609C697.609 116.609 697.609 116.609 697.941 93.9431C698.273 71.2771 685.612 63.6184 681.273 57.9519C676.935 52.2854 671.954 40.3105 671.954 40.3105L656.194 43.3209C656.194 43.3209 637.048 53.8349 627.663 49.6957C618.278 45.5565 607.011 48.5668 607.011 48.5668C607.011 48.5668 589.746 53.0602 572.481 56.8231C555.216 60.586 551.076 48.1905 551.076 48.1905C551.076 48.1905 551.077 43.3208 545.078 39.5579C539.079 35.795 531.199 43.3208 523.674 51.5771C522.501 52.9052 521.15 54.0563 519.667 55.0302Z" fill="#284F51" stroke="#638283" strokeWidth="1.5"/>
<path d="M508.321 326.314C508.542 326.402 508.764 326.491 508.985 326.579C519.322 330.586 517.308 308.584 517.308 308.584L520.65 301.921C530.655 282.93 543.316 307.256 543.316 307.256C559.319 300.261 553.985 316.929 553.985 316.929H557.991L558.988 311.262C558.988 311.262 558.656 305.596 562.529 293.267C566.403 280.937 573.663 286.604 573.995 299.929C574.327 313.254 581.985 305.264 588.493 293.267C594.979 281.27 614.656 270.601 614.656 270.601H630.66C630.66 270.601 637.986 270.269 642.325 278.259C646.663 286.25 651.666 284.922 651.666 284.922C651.666 284.922 658.328 280.915 661.671 292.58C665.013 304.245 666.009 313.232 668.997 315.578C671.985 317.903 672.34 325.251 672.34 325.251L682.012 329.922C682.012 329.922 685.023 341.255 700.34 342.915C715.679 344.575 725.662 344.243 723.006 358.918C720.35 373.571 718.668 375.918 718.668 375.918L714.329 383.576L710.655 390.903L707.999 396.237L693.921 403.719C693.921 403.719 693.744 403.808 693.589 403.896C693.611 401.351 693.722 397.721 694.01 392.563C695.006 375.232 682.344 376.56 679.356 374.568C676.346 372.575 658.373 376.228 651.024 379.57C643.675 382.912 640.023 383.244 635.02 382.226C630.018 381.208 625.015 385.569 617.689 387.229C610.362 388.889 593.695 385.237 593.695 385.237L562.573 382.315L546.703 382.226C546.703 382.226 539.044 384.55 525.719 364.231C512.394 343.911 490.392 350.573 490.392 350.573C490.392 350.573 486.386 353.23 465.734 355.886C445.082 358.52 443.4 339.573 443.732 323.259C444.064 306.924 456.393 289.26 456.393 289.26L483.043 303.249L485.035 307.92L496.7 318.257C496.656 318.235 498.56 322.374 508.321 326.314Z" fill="#284F51" stroke="#638283" strokeWidth="1.5"/>
<defs>
<filter id="filter0_b_1030_16405" x="613.831" y="182.545" width="192.856" height="157.747" filterUnits="userSpaceOnUse" color-interpolation-filters="sRGB">
<feFlood flood-opacity="0" result="BackgroundImageFix"/>
<feGaussianBlur in="BackgroundImageFix" stdDeviation="33"/>
<feComposite in2="SourceAlpha" operator="in" result="effect1_backgroundBlur_1030_16405"/>
<feBlend mode="normal" in="SourceGraphic" in2="effect1_backgroundBlur_1030_16405" result="shape"/>
</filter>
</defs>
</svg>
