<svg width="1103" height="438" viewBox="0 0 1103 438" fill="none" xmlns="http://www.w3.org/2000/svg">
<path d="M765.147 247.769C764.97 242.147 764.549 236.458 763.597 235.197C761.605 232.541 760.941 225.192 760.587 218.529C760.255 211.867 751.932 207.196 751.932 207.196L745.934 198.874L744.606 191.879L742.613 182.206L745.27 175.544L742.613 166.203C742.613 166.203 752.286 161.2 745.956 151.217C739.625 141.212 750.626 137.56 750.626 137.56C750.626 137.56 756.293 126.227 747.638 117.573C738.983 108.918 747.638 95.5706 747.638 95.5706C747.638 95.5706 752.973 88.244 745.314 79.8992C737.655 71.5544 743.986 61.5716 748.656 58.5613C753.327 55.551 761.317 50.5706 761.317 50.5706C761.317 50.5706 768.312 49.9066 770.326 40.5658C772.318 31.2249 775.661 27.9047 770.99 21.5742C766.32 15.2436 771.986 6.5889 773.314 2.25049C774.642 -2.08792 776.48 -4.98759 770.658 -18.7333C769.33 -21.8764 768.002 -38.0569 768.002 -38.0569C791.996 -35.7327 792.992 -51.7141 792.992 -51.7141C792.992 -51.7141 805.343 -51.0058 813.644 -54.7023C832.613 -63.1578 829.979 -68.0274 816.632 -75.354C803.285 -82.6806 816.632 -93.0175 816.632 -93.0175L848.617 -112.341C872.611 -112.341 869.269 -137.663 869.269 -137.663L875.931 -158.647C894.591 -187.976 917.921 -176.643 917.921 -176.643C917.921 -176.643 944.239 -162.653 960.242 -173.654C976.246 -184.655 991.231 -175.315 991.231 -175.315C991.231 -175.315 1006.9 -158.647 1022.88 -145.012C1038.87 -131.377 1054.2 -133.657 1076.87 -142.644C1099.54 -151.63 1137.41 -145.012 1137.41 -145.012C1137.41 -145.012 1131.79 -140.519 1132.92 -136.756C1134.04 -132.993 1136.68 -131.886 1133.67 -122.501C1130.66 -113.116 1140.8 -109.729 1140.8 -109.729C1140.8 -109.729 1142.68 -108.977 1142.68 -89.0775C1142.68 -69.1784 1144.2 -58.6643 1144.2 -58.6643C1144.2 -58.6643 1152.06 -53.4185 1153.19 -42.5282C1154.32 -31.6379 1152.81 -33.143 1158.81 -27.1445C1164.81 -21.146 1161.45 -16.6305 1161.45 -16.6305L1162.4 -2.37567C1162.4 -2.37567 1178.34 3.99916 1173.47 17.1472C1168.6 30.2953 1163.71 22.3931 1171.59 31.4019C1179.47 40.4108 1174.4 54.2893 1174.4 54.2893L1171.21 59.5352C1171.21 59.5352 1173.09 67.7915 1164.08 77.1767C1155.07 86.5618 1156.58 88.4432 1156.58 88.4432C1156.58 88.4432 1161.45 97.0758 1124.31 98.5809C1087.16 100.086 1074.77 96.6995 1045.48 116.599C1016.2 136.498 1002.7 156.397 1002.7 156.397C1002.7 156.397 1001.19 162.772 984.679 170.275C968.167 177.779 960.287 186.035 960.287 186.035L948.644 197.678L925.004 220.566L918.629 229.198L917.5 234.444L910.749 237.831L884.475 263.352L851.826 303.15L843.946 312.159L828.186 324.931L819.642 333.896L821.657 300.937C821.657 300.937 816.654 289.936 807.003 288.608C797.331 287.28 794.01 288.608 794.01 288.608L779.689 279.267L765.368 260.275C765.257 260.187 765.346 254.011 765.147 247.769Z" fill="#284F51" stroke="#638283" strokeWidth="1.5"/>
<path d="M743.809 170.499C743.189 168.307 742.591 166.204 742.591 166.204C742.591 166.204 752.264 161.202 745.933 151.219C739.603 141.214 750.604 137.562 750.604 137.562C750.604 137.562 756.27 126.229 747.616 117.574C738.961 108.92 747.616 95.5724 747.616 95.5724C747.616 95.5724 752.95 88.2458 745.291 79.901C737.633 71.5562 743.963 61.5735 748.634 58.5631C753.304 55.5528 761.295 50.5725 761.295 50.5725C761.295 50.5725 768.29 49.9084 770.304 40.5676C772.296 31.2267 775.638 27.9065 770.968 21.576C766.297 15.2455 771.964 6.59074 773.292 2.25233C774.62 -2.08608 776.457 -4.98576 770.636 -18.7314C769.308 -21.8746 767.98 -38.055 767.98 -38.055C743.986 -40.3792 748.988 -42.7255 749.984 -53.3945C749.984 -53.3945 755.651 -64.0634 746.31 -66.0556C736.969 -68.0477 736.637 -81.7269 736.637 -81.7269C736.637 -81.7269 738.629 -90.0496 711.979 -90.7358C711.979 -90.7358 696.993 -94.4102 684.996 -86.7294C684.996 -86.7294 678.422 -84.9365 676.054 -75.4407C673.686 -65.9449 667.355 -60.0128 667.355 -60.0128L653.676 -46.3999C653.676 -46.3999 646.349 -40.0693 644.003 -28.8913C641.657 -17.7132 638.004 -12.0689 638.004 -12.0689L630.678 8.58283C630.678 8.58283 638.004 8.25086 642.343 16.2415C646.681 24.2322 651.684 22.904 651.684 22.904C651.684 22.904 658.346 18.8977 661.689 30.5627C665.031 42.2277 666.027 51.2144 669.015 53.5607C672.003 55.8848 672.358 63.2335 672.358 63.2335L682.03 67.904C682.03 67.904 685.041 79.237 700.358 80.8971C715.697 82.5572 725.68 82.2252 723.024 96.9006C720.368 111.554 718.686 113.9 718.686 113.9L714.347 121.559L710.673 128.885L708.017 134.22C708.017 134.22 694.116 141.613 693.607 141.878C693.695 146.062 694.072 147.855 694.072 147.855L690.685 155.867C690.685 155.867 687.476 182.075 687.144 194.205C689.6 198.189 698.344 196.529 698.344 196.529L709.013 189.534L716.339 198.875L720.014 197.215L725.016 195.555L729.023 197.547L738.031 198.875H746.022L744.694 191.881L742.702 182.208L745.358 175.545C745.247 175.545 744.517 172.956 743.809 170.499Z" fill="#284F51" stroke="#638283" strokeWidth="1.5"/>
<path d="M252.643 -167.825C252.643 -167.825 254.723 -164.682 258.043 -158.683C261.386 -152.685 266.698 -148.347 266.698 -148.347L276.703 -144.008C276.703 -144.008 291.024 -129.355 293.039 -126.677C295.031 -124.02 310.702 -107.353 310.702 -107.353L320.375 -91.3496V-74.3501V-58.3466C320.375 -58.3466 320.375 -49.3378 323.031 -44.6895C325.687 -40.019 326.019 -29.9921 325.023 -21.8465C324.027 -13.7009 322.699 -9.03043 322.699 -9.03043L319.711 4.62674L316.723 22.9543C316.723 22.9543 314.908 33.1141 309.795 41.791C317.188 37.6518 320.043 48.9626 322.721 57.2853C325.377 65.6079 322.721 83.6035 322.721 88.2739C322.721 102.042 337.374 86.2818 337.374 86.2818L342.709 80.9473L349.703 76.9409L355.038 65.608H360.372L369.027 53.943L384.012 37.2755H390.343L396.673 30.2809L402.672 28.6208L421.132 20.9621L419.339 12.6395L414.669 6.97302C414.669 6.97302 410.995 0.974518 409.003 -2.01367C407.01 -5.02402 405.66 -24.6797 407.674 -33.3344C409.667 -41.9891 407.674 -41.9891 405.682 -45.9955C403.69 -50.0019 408.006 -57.3285 408.006 -57.3285L404.332 -72.3137C404.332 -72.3137 399.662 -87.9851 400.99 -97.9678C402.318 -107.973 408.98 -114.303 408.98 -114.303L412.655 -122.958L419.981 -133.915L421.641 -140.622L423.966 -148.944C423.966 -148.944 424.298 -160.277 427.95 -169.928C431.602 -179.601 424.298 -192.262 424.298 -192.262C424.298 -192.262 424.962 -193.59 415.975 -223.251C406.988 -252.911 441.452 -245.585 441.452 -245.585L439.194 -254.593C439.194 -254.593 433.196 -260.968 433.948 -266.613C434.701 -272.235 422.682 -270.375 422.682 -270.375C422.682 -270.375 420.048 -271.504 417.037 -274.869C414.027 -278.255 411.792 -273.364 415.909 -289.124C420.048 -304.884 411.415 -318.408 411.415 -318.408C411.415 -318.408 403.912 -327.04 394.903 -317.279C385.894 -307.518 385.518 -312.409 376.885 -313.892C368.252 -315.398 364.49 -320.643 364.49 -320.643C364.49 -320.643 351.718 -330.405 342.355 -336.78C340.385 -338.108 339.234 -339.303 338.636 -340.388C338.614 -340.388 331.531 -337.09 331.531 -337.09L319.423 -330.139L316.103 -325.602L309.75 -324.384L301.273 -314.092C301.273 -314.092 305.5 -308.337 307.935 -301.984C310.37 -295.631 316.103 -291.691 320.331 -290.496C324.558 -289.279 333.036 -285.648 330.004 -271.438C326.971 -257.227 311.255 -250.875 311.255 -250.875C311.255 -250.875 297.643 -244.832 294.322 -244.522C291.002 -244.212 284.937 -242.707 283.122 -237.572C281.307 -232.437 277.677 -233.344 273.139 -230.909C268.602 -228.496 264.972 -234.229 262.559 -216.389C260.213 -198.681 265.946 -192.328 252.643 -167.825Z" fill="#284F51" stroke="#638283" strokeWidth="1.5"/>
<path d="M539.371 -72.3033C538.663 -74.2955 537.976 -76.3097 537.976 -76.3097C537.976 -76.3097 535.32 -81.4007 531.314 -89.3914C527.307 -97.382 518.653 -101.056 518.653 -101.056C517.657 -110.065 517.989 -115.71 529.034 -116.396C540.079 -117.082 537.667 -134.037 537.667 -134.037C537.667 -134.037 532 -135.742 538.663 -151.059C545.325 -166.398 533.992 -166.398 533.992 -166.398C533.992 -166.398 528.326 -166.066 521.065 -169.054C513.805 -172.065 518.985 -181.383 520.645 -187.714C522.283 -193.978 518.476 -205.887 518.387 -206.174C510.684 -201.681 499.993 -201.039 489.523 -202.544C476.375 -204.426 478.633 -213.811 478.633 -213.811C478.633 -213.811 476.752 -217.95 476.375 -222.067C475.999 -226.184 474.494 -230.323 466.99 -232.957C459.487 -235.591 453.488 -241.966 453.488 -241.966L447.49 -244.224L441.491 -245.729C441.491 -245.729 407.005 -253.056 416.014 -223.395C425.023 -193.735 424.337 -192.407 424.337 -192.407C424.337 -192.407 431.663 -179.745 427.989 -170.073C424.337 -160.4 424.005 -149.089 424.005 -149.089L421.68 -140.766L420.02 -134.059L412.694 -123.103L409.019 -114.448C409.019 -114.448 402.357 -108.117 401.029 -98.1125C399.701 -88.1076 404.371 -72.4583 404.371 -72.4583L408.045 -57.4731C408.045 -57.4731 403.707 -50.1465 405.721 -46.1401C407.713 -42.1337 409.728 -42.1337 407.713 -33.479C405.721 -24.8244 407.049 -5.1465 409.041 -2.15831C411.034 0.82988 414.708 6.8284 414.708 6.8284L419.378 12.4949L421.171 20.8175C421.171 20.8175 425.377 25.156 434.032 22.8097C442.686 20.4855 456.366 27.1481 456.366 27.1481L483.016 41.1373L485.008 45.8077L496.673 56.1446C496.673 56.1446 498.665 60.483 509.002 64.4673C519.339 68.4736 517.325 46.4717 517.325 46.4717L520.667 39.8092C530.672 20.8175 543.333 45.1436 543.333 45.1436C559.336 38.1491 554.002 54.8165 554.002 54.8165H558.008L559.004 49.15C559.004 49.15 558.672 43.4835 562.546 31.1545C566.42 18.8254 573.68 24.4919 574.012 37.817C574.344 51.1422 582.002 43.1515 588.51 31.1545C594.996 19.1574 614.673 8.48851 614.673 8.48851H630.677L638.003 -12.1633C638.003 -12.1633 641.678 -17.8298 644.002 -28.9857C646.326 -40.1416 653.675 -46.4942 653.675 -46.4942C645.684 -51.4967 644.002 -63.1617 643.006 -70.4884C642.01 -77.815 632.669 -74.8267 632.669 -74.8267C632.669 -74.8267 622.332 -73.8307 619.012 -78.8331C615.692 -83.8356 608.011 -81.8434 608.011 -81.8434C608.011 -81.8434 597.342 -75.1809 593.026 -59.1775C588.709 -43.174 582.246 -46.5164 582.246 -46.5164C582.246 -46.5164 578.372 -46.5164 569.032 -36.8435C559.691 -27.1706 551.368 -29.1849 551.368 -29.1849C551.368 -29.1849 551.368 -35.5154 551.368 -44.1701C551.368 -52.8248 547.694 -63.4938 547.694 -63.4938L540.788 -68.4962C540.743 -68.4076 540.057 -70.3334 539.371 -72.3033Z" fill="#284F51" stroke="#638283" strokeWidth="1.5"/>
<path d="M417.313 348.772C414.944 351.229 412.31 352.823 412.31 352.823C412.31 352.823 403.633 372.434 405.316 384.785C386.833 388.106 368.439 388.836 360.736 383.391C347.965 374.382 334.839 394.281 334.839 394.281L325.83 402.914L322.067 398.42L311.929 397.668C311.929 397.668 304.426 398.044 308.543 386.025C312.682 374.006 299.534 369.889 299.534 369.889C299.534 369.889 286.386 369.512 285.279 358.622C284.15 347.732 275.141 353 275.141 353C275.141 353 264.627 361.256 250.749 352.624C236.87 343.991 237.247 338.369 240.235 335.358C243.245 332.348 246.233 327.855 243.998 321.856C241.762 315.858 243.998 311.718 243.998 311.718C243.998 311.718 244.75 304.215 234.612 301.957C224.475 299.699 223.346 289.562 222.97 284.316C222.593 279.07 219.583 274.554 219.583 274.554L218.83 269.685L214.691 266.674L208.693 261.052L204.199 257.665C204.199 257.665 202.694 243.411 196.696 237.39C190.697 231.392 192.202 222.759 193.685 221.63C195.19 220.501 201.189 221.63 197.072 212.621C192.955 203.612 206.081 202.107 206.081 202.107C206.081 202.107 223.722 205.118 225.98 178.844C225.98 178.844 223.346 172.092 227.861 168.33C232.355 164.567 234.989 162.331 234.989 162.331L251.878 163.46C251.878 163.46 263.52 165.341 266.885 152.193C270.272 139.045 279.878 118.726 287.16 113.524C289.794 111.642 298.051 118.394 293.535 101.505C293.535 101.505 289.042 99.6233 291.654 90.9908C293.491 84.948 291.831 74.279 287.957 68.5682C291.233 58.6076 293.004 58.2092 303.341 49.8865C306.041 47.6952 308.277 44.8177 310.092 41.7409C317.485 37.6017 320.34 48.9126 323.019 57.2352C325.675 65.5579 323.019 83.5535 323.019 88.2239C323.019 101.992 337.672 86.2318 337.672 86.2318L343.006 80.8973L350.001 76.8909L355.335 65.5579H360.67L369.325 53.8929L384.31 37.2254H390.64L396.971 30.2308L402.969 28.5707L421.43 20.9121C421.43 20.9121 425.635 25.2505 434.312 22.9042C434.312 22.9042 429.642 67.882 434.312 81.5613L445.977 93.8682C445.977 93.8682 455.982 103.895 448.301 122.223C440.643 140.55 443.963 151.219 443.963 151.219C443.963 151.219 443.299 167.555 457.62 169.547C471.941 171.539 471.277 169.547 471.277 169.547C471.277 169.547 490.933 174.881 468.621 186.214C468.621 186.214 457.222 186.547 455.761 197.547L453.636 204.21L448.965 212.201L448.301 221.542L449.629 229.532L448.633 231.856L446.641 244.517C446.641 244.517 439.979 254.19 443.299 262.513C446.641 270.836 449.629 291.841 438.961 307.159C428.292 322.498 420.301 334.495 420.965 340.826C421.297 343.814 419.416 346.625 417.313 348.772Z" fill="#284F51" stroke="#638283" strokeWidth="1.5"/>
<path d="M673.866 429.627C670.413 425.267 666.628 420.486 666.628 420.486L666.296 405.5L652.307 387.837L649.983 380.51L646.973 373.516L642.966 361.519L636.636 356.516L634.976 343.191L625.303 328.538L623.643 317.205L621.982 312.202L623.311 305.208L623.975 296.199L622.314 288.208L623.643 283.538L621.982 274.197L623.643 260.208C623.643 260.208 626.631 234.554 638.296 226.873C649.961 219.214 648.301 222.535 665.632 221.87C682.964 221.206 688.63 205.203 687.302 199.537C687.081 198.585 687.014 196.681 687.081 194.202C689.538 198.208 698.281 196.548 698.281 196.548L708.95 189.554L716.276 198.895L719.951 197.234L724.953 195.574L728.96 197.566L737.969 198.895H745.959L751.958 207.217C751.958 207.217 760.28 211.888 760.612 218.55C760.944 225.213 761.608 232.539 763.623 235.218C764.575 236.479 764.995 242.168 765.172 247.79C765.371 254.032 765.283 260.208 765.283 260.208L779.604 279.2L793.925 288.54C793.925 288.54 797.268 287.212 806.918 288.54C816.591 289.868 821.572 300.869 821.572 300.869L819.557 333.828C818.694 334.736 812.341 341.398 812.341 341.398L796.581 352.665L789.454 362.426L777.435 368.048L754.171 391.312L739.916 402.579L714.395 416.833L698.259 427.347L687.369 431.11L679.489 436.733C679.466 436.71 676.766 433.302 673.866 429.627Z" fill="#FCFF45" stroke="#FCFF45"/>
<g filter="url(#filter0_b_1030_16449)">
<rect x="679.328" y="282.937" width="60.8565" height="25.747" fill="white" fill-opacity="0.08"/>
<rect x="679.328" y="282.937" width="60.8565" height="25.747" fill="#325B5D" fill-opacity="0.16"/>
<rect x="679.828" y="283.437" width="59.8565" height="24.747" stroke="white" strokeOpacity="0.2"/>
<path d="M700.616 292.71H701.696V299.41L701.126 298.82H705.156V299.81H700.616V292.71ZM708.875 299.97C708.215 299.97 707.642 299.813 707.155 299.5C706.675 299.187 706.305 298.75 706.045 298.19C705.792 297.63 705.665 296.99 705.665 296.27C705.665 295.557 705.795 294.92 706.055 294.36C706.322 293.793 706.699 293.35 707.185 293.03C707.672 292.71 708.249 292.55 708.915 292.55C709.749 292.55 710.409 292.767 710.895 293.2C711.382 293.627 711.699 294.207 711.845 294.94L710.715 295C710.629 294.533 710.439 294.173 710.145 293.92C709.859 293.667 709.452 293.54 708.925 293.54C708.212 293.54 707.675 293.797 707.315 294.31C706.962 294.817 706.785 295.47 706.785 296.27C706.785 296.803 706.862 297.273 707.015 297.68C707.169 298.087 707.405 298.407 707.725 298.64C708.045 298.867 708.445 298.98 708.925 298.98C709.299 298.98 709.629 298.9 709.915 298.74C710.202 298.573 710.422 298.347 710.575 298.06C710.735 297.767 710.822 297.447 710.835 297.1H708.935V296.19H711.865V299.81H711.125L711.055 298.21L711.195 298.33C711.122 298.65 710.972 298.933 710.745 299.18C710.525 299.427 710.249 299.62 709.915 299.76C709.589 299.9 709.242 299.97 708.875 299.97ZM715.813 299.97C715.253 299.97 714.763 299.87 714.343 299.67C713.93 299.463 713.6 299.177 713.353 298.81C713.113 298.437 712.973 298.007 712.933 297.52L714.043 297.45C714.09 297.783 714.187 298.067 714.333 298.3C714.48 298.527 714.677 298.7 714.923 298.82C715.177 298.933 715.48 298.99 715.833 298.99C716.3 298.99 716.657 298.903 716.903 298.73C717.157 298.55 717.283 298.297 717.283 297.97C717.283 297.757 717.233 297.573 717.133 297.42C717.033 297.267 716.847 297.127 716.573 297C716.307 296.873 715.917 296.747 715.403 296.62C714.817 296.48 714.357 296.327 714.023 296.16C713.697 295.993 713.457 295.787 713.303 295.54C713.157 295.293 713.083 294.983 713.083 294.61C713.083 294.21 713.18 293.853 713.373 293.54C713.573 293.227 713.857 292.983 714.223 292.81C714.597 292.637 715.037 292.55 715.543 292.55C716.07 292.55 716.527 292.65 716.913 292.85C717.3 293.043 717.607 293.313 717.833 293.66C718.06 294.007 718.2 294.407 718.253 294.86L717.153 294.92C717.113 294.647 717.027 294.407 716.893 294.2C716.76 293.987 716.577 293.823 716.343 293.71C716.117 293.59 715.843 293.53 715.523 293.53C715.117 293.53 714.793 293.627 714.553 293.82C714.313 294.007 714.193 294.257 714.193 294.57C714.193 294.777 714.24 294.947 714.333 295.08C714.433 295.213 714.603 295.33 714.843 295.43C715.083 295.53 715.443 295.637 715.923 295.75C716.53 295.89 717.013 296.06 717.373 296.26C717.74 296.46 718 296.697 718.153 296.97C718.313 297.237 718.393 297.55 718.393 297.91C718.393 298.323 718.283 298.687 718.063 299C717.85 299.307 717.547 299.547 717.153 299.72C716.767 299.887 716.32 299.97 715.813 299.97Z" fill="#0E3E40"/>
</g>
<path d="M665.845 436.091C652.697 434.01 610.398 427.326 610.398 427.326C610.398 427.326 543.971 412.318 523.32 403.686C502.668 395.053 472.277 378.164 472.277 378.164C472.277 378.164 461.763 367.274 438.499 375.907C429.291 379.315 417.139 382.636 405.009 384.805C403.327 372.454 412.004 352.842 412.004 352.842C412.004 352.842 421.345 347.176 420.659 340.845C419.995 334.515 427.985 322.518 438.654 307.178C449.323 291.839 446.313 270.855 442.993 262.532C439.65 254.21 446.335 244.537 446.335 244.537L448.327 231.876L449.323 229.552L447.995 221.561L448.659 212.22L453.33 204.23L455.454 197.567C456.915 186.566 468.315 186.234 468.315 186.234C490.649 174.901 470.971 169.567 470.971 169.567C470.971 169.567 471.635 171.559 457.314 169.567C442.993 167.574 443.657 151.239 443.657 151.239C443.657 151.239 440.314 140.57 447.995 122.242C455.676 103.915 445.671 93.8878 445.671 93.8878L434.006 81.5809C429.335 67.9237 434.006 22.9238 434.006 22.9238C442.661 20.5996 456.34 27.2622 456.34 27.2622C456.34 27.2622 444.011 44.9257 443.679 61.2612C443.347 77.5966 445.007 96.544 465.681 93.8878C486.332 91.2538 490.339 88.5755 490.339 88.5755C490.339 88.5755 512.341 81.9129 525.666 102.233C538.991 122.552 546.65 120.228 546.65 120.228L562.52 120.317L593.642 123.239C593.642 123.239 610.309 126.913 617.636 125.231C624.962 123.571 629.965 119.232 634.967 120.228C639.97 121.224 643.622 120.892 650.971 117.572C658.32 114.252 676.293 110.577 679.303 112.57C682.314 114.562 694.975 113.234 693.957 130.565C692.96 147.897 694.023 147.874 694.023 147.874L690.636 155.887C690.636 155.887 685.966 193.87 687.294 199.537C688.622 205.203 682.956 221.207 665.624 221.871C648.292 222.535 649.953 219.215 638.288 226.873C626.623 234.532 623.634 260.208 623.634 260.208L621.974 274.198L623.634 283.538L622.306 288.209L623.966 296.2L623.302 305.208L621.974 312.203L623.634 317.205L625.294 328.538L634.967 343.192L636.627 356.517L642.958 361.519L646.964 373.516L649.975 380.511L652.299 387.837L666.288 405.501L666.62 420.486L679.48 436.711H669.719C669.697 436.711 668.258 436.49 665.845 436.091Z" fill="#284F51" stroke="#638283" strokeWidth="1.5"/>
<path d="M134.037 58.888C132.643 56.4532 132.665 52.1812 136.339 44.8324C141.209 35.071 131.846 31.6844 131.846 31.6844L123.966 26.8148C123.966 26.8148 114.581 21.1925 117.967 8.79703C121.354 -3.59843 121.73 -24.9806 94.7038 -22.5458C67.6773 -20.111 60.5499 -31.3775 60.5499 -31.3775L59.0447 -45.256L53.7988 -52.7597L48.1766 -56.1463C48.1766 -56.1463 43.6832 -61.3922 49.6817 -65.5314C55.6802 -69.6706 65.4417 -71.9063 65.4417 -71.9063C65.4417 -71.9063 77.4608 -76.3996 75.5794 -86.9136C73.6979 -97.4276 81.2016 -99.6854 81.2016 -99.6854L85.6286 -102.629H95.5007L100.437 -104.909H108.029L119.406 -115.91H136.384C136.384 -115.91 151.657 -128.062 158.098 -125.782C164.539 -123.502 177.067 -117.26 196.037 -134.039C215.006 -150.817 232.692 -169.742 252.68 -167.86C252.68 -167.86 254.76 -164.717 258.08 -158.719C261.423 -152.72 266.735 -148.382 266.735 -148.382L276.74 -144.043C276.74 -144.043 291.061 -129.39 293.075 -126.712C295.068 -124.056 310.739 -107.388 310.739 -107.388L320.412 -91.3849V-74.3853V-58.382C320.412 -58.382 320.412 -49.3731 323.068 -44.7248C325.724 -40.0543 326.056 -30.0273 325.06 -21.8817C324.064 -13.7361 322.736 -9.06573 322.736 -9.06573L319.748 4.59145L316.76 22.919C316.76 22.919 314.945 33.0789 309.832 41.7557C308.016 44.8324 305.803 47.7321 303.08 49.9013C292.743 58.224 290.995 58.6224 287.697 68.583C286.037 66.1482 283.978 64.6209 281.632 64.7316C273.752 65.1079 259.497 67.3656 259.497 67.3656C259.497 67.3656 210.336 75.9981 183.309 66.613C156.283 57.2279 142.028 62.1196 142.028 62.1196C142.028 62.1196 136.229 62.7837 134.037 58.888Z" fill="#284F51" stroke="#638283" strokeWidth="1.5"/>
<path d="M508.321 64.3138C508.542 64.4023 508.764 64.4909 508.985 64.5794C519.322 68.5858 517.308 46.5838 517.308 46.5838L520.65 39.9213C530.655 20.9296 543.316 45.2557 543.316 45.2557C559.319 38.2612 553.985 54.9286 553.985 54.9286H557.991L558.988 49.2621C558.988 49.2621 558.656 43.5956 562.529 31.2666C566.403 18.9375 573.663 24.604 573.995 37.9291C574.327 51.2543 581.985 43.2636 588.493 31.2666C594.979 19.2695 614.656 8.60059 614.656 8.60059H630.66C630.66 8.60059 637.986 8.26855 642.325 16.2592C646.663 24.2498 651.666 22.9218 651.666 22.9218C651.666 22.9218 658.328 18.9154 661.671 30.5804C665.013 42.2454 666.009 51.2321 668.997 53.5784C671.985 55.9026 672.34 63.2513 672.34 63.2513L682.012 67.9217C682.012 67.9217 685.023 79.2548 700.34 80.9149C715.679 82.575 725.662 82.2429 723.006 96.9183C720.35 111.571 718.668 113.918 718.668 113.918L714.329 121.576L710.655 128.903L707.999 134.237L693.921 141.719C693.921 141.719 693.744 141.808 693.589 141.896C693.611 139.351 693.722 135.721 694.01 130.563C695.006 113.232 682.344 114.56 679.356 112.568C676.346 110.575 658.373 114.228 651.024 117.57C643.675 120.912 640.023 121.244 635.02 120.226C630.018 119.208 625.015 123.569 617.689 125.229C610.362 126.889 593.695 123.237 593.695 123.237L562.573 120.315L546.703 120.226C546.703 120.226 539.044 122.55 525.719 102.231C512.394 81.9109 490.392 88.5735 490.392 88.5735C490.392 88.5735 486.386 91.2296 465.734 93.8858C445.082 96.5198 443.4 77.5725 443.732 61.2592C444.064 44.9237 456.393 27.2602 456.393 27.2602L483.043 41.2494L485.035 45.9198L496.7 56.2567C496.656 56.2346 498.56 60.3738 508.321 64.3138Z" fill="#284F51" stroke="#638283" strokeWidth="1.5"/>
<defs>
<filter id="filter0_b_1030_16449" x="613.328" y="216.937" width="192.857" height="157.747" filterUnits="userSpaceOnUse" color-interpolation-filters="sRGB">
<feFlood flood-opacity="0" result="BackgroundImageFix"/>
<feGaussianBlur in="BackgroundImageFix" stdDeviation="33"/>
<feComposite in2="SourceAlpha" operator="in" result="effect1_backgroundBlur_1030_16449"/>
<feBlend mode="normal" in="SourceGraphic" in2="effect1_backgroundBlur_1030_16449" result="shape"/>
</filter>
</defs>
</svg>
