<svg width="728" height="700" viewBox="0 0 728 700" fill="none" xmlns="http://www.w3.org/2000/svg">
<path d="M59.2225 -28.6676C57.1197 -31.9879 55.2382 -34.9318 55.2382 -34.9318L53.3568 -43.5644L43.5954 -52.1969L42.4665 -69.462L52.6042 -85.5982L52.9805 -106.25C52.9805 -106.25 56.7434 -115.635 61.9893 -118.645C67.2353 -121.656 83.7699 -136.663 83.7699 -136.663L110.044 -153.928C110.044 -153.928 124.675 -159.927 122.439 -176.816C122.439 -176.816 113.807 -184.319 122.439 -195.962C131.072 -207.605 126.202 -199.725 126.202 -199.725L131.072 -214.732L137.823 -210.239H147.961C147.961 -210.239 147.208 -212.873 155.088 -208.734C162.968 -204.595 170.095 -203.112 170.095 -203.112L178.728 -195.984H192.607L208.366 -193.727C208.366 -193.727 215.118 -193.727 218.128 -186.223C221.138 -178.719 226.008 -169.71 226.008 -169.71V-157.691L215.87 -146.048L216.246 -135.534L213.612 -131.041V-116.41L232.006 -104.391C232.006 -104.391 239.51 -102.509 239.51 -91.6189C239.51 -80.7286 237.629 -79.5997 237.629 -79.5997L234.995 -55.5835C234.995 -55.5835 230.501 -34.1792 230.125 -27.0518C229.749 -19.9244 228.62 -13.1733 226.738 -10.9156C226.738 -10.9156 208.566 -6.6657 203.851 -6.95345C199.114 -7.2412 194.112 -5.55896 190.769 -2.76999C187.427 0.0189972 182.425 5.86255 176.847 6.68153C171.291 7.52266 167.107 15.3141 167.107 15.3141L156.261 25.0534L152.366 30.3436L149.577 34.7927L144.286 39.2418L141.232 46.1921L138.443 52.589C138.443 52.589 136.495 54.8246 140.103 60.0927C143.711 65.3829 146.876 77.6677 145.659 79.859C141.475 87.4291 139.527 87.0971 139.527 87.0971L132.577 99.072C132.577 99.072 125.339 106.576 126.18 116.337C127.021 126.076 126.114 127.471 126.114 127.471C126.114 127.471 126.733 134.156 113.94 141.106C101.146 148.056 99.1979 150.292 99.1979 150.292L92.5132 152.24L85.2751 155.582L73.3002 156.977C73.3002 156.977 66.9475 163.705 55.7695 161.16C51.8737 160.275 44.6357 160.053 44.6357 160.053L34.9185 150.889L42.7985 141.881L43.9274 132.119L40.917 123.863L43.9274 107.35L42.4222 90.4616C42.4222 90.4616 42.0459 80.7002 39.7882 78.0661C37.5304 75.4321 36.7778 64.5639 40.917 59.6721C45.0562 54.8025 51.4311 48.0293 41.6696 39.3967C31.9082 30.7642 31.9082 30.7642 31.9082 30.7642C31.9082 30.7642 33.4134 17.2619 45.0562 17.9924C56.6991 18.745 73.9642 19.1213 72.4591 1.85617C70.9539 -15.4089 64.9554 -19.5481 64.9554 -19.5481C64.9554 -19.5481 61.9229 -24.4178 59.2225 -28.6676Z" fill="#284F51" stroke="#638283" stroke-width="1.5"/>
<path d="M1101.96 342.713C1120.14 341.916 1137.38 344.926 1137.38 344.926C1137.38 344.926 1147.52 337.046 1143 323.146C1138.49 309.245 1130.61 302.87 1120.87 295.743C1111.11 288.616 1097.98 270.222 1092.71 261.213C1087.47 252.204 1077.33 252.58 1077.33 252.58L1073.94 249.57L1061.17 242.819L1034.52 233.057L1018.76 225.177L1013.14 219.931L1000.37 208.665C1000.37 208.665 983.853 201.161 975.597 195.517C967.341 189.895 947.442 197.398 947.442 197.398C947.442 197.398 940.314 195.517 921.92 200.785C903.526 206.053 905.031 194.034 905.031 194.034C905.031 194.034 901.269 185.778 893.389 167.76C885.509 149.742 828.445 137.347 828.445 137.347L796.925 134.336C796.925 134.336 797.302 131.326 795.42 145.979C793.539 160.61 799.914 168.114 799.914 168.114C799.914 168.114 801.042 173.736 807.041 191.001C813.039 208.266 814.921 199.634 807.041 215.018C799.161 230.401 778.133 226.66 778.133 226.66C778.133 226.66 722.951 221.414 707.567 240.539C685.698 267.743 671.908 263.803 671.908 263.803V268.34C671.908 268.34 676.889 280.315 681.227 285.982C685.565 291.648 698.226 299.307 697.894 321.973C697.562 344.639 697.562 344.639 697.562 344.639C697.562 344.639 687.225 351.301 686.893 359.978C686.561 368.633 682.555 377.31 682.555 377.31C682.555 377.31 678.571 388.975 684.901 403.296C696.898 395.637 711.884 399.289 711.884 399.289C738.534 399.953 736.542 408.298 736.542 408.298C736.542 408.298 736.874 421.955 746.215 423.97C755.555 425.984 749.889 436.631 749.889 436.631C748.893 447.3 743.89 449.624 767.885 451.97C791.879 454.294 792.875 438.313 792.875 438.313C792.875 438.313 805.226 439.021 813.526 435.325C832.496 426.869 829.862 422 816.515 414.673C803.167 407.346 816.515 397.009 816.515 397.009L848.499 377.686C872.493 377.686 869.151 352.364 869.151 352.364L875.814 331.38C894.473 302.051 917.803 313.384 917.803 313.384C917.803 313.384 944.121 327.374 960.125 316.373C976.128 305.372 991.114 314.712 991.114 314.712C991.114 314.712 1006.78 331.38 1022.77 345.015C1038.75 358.65 1054.09 356.37 1076.75 347.383C1084.21 344.373 1093.2 343.089 1101.96 342.713Z" fill="#284F51" stroke="#638283" stroke-width="1.5"/>
<path d="M743.809 660.499C743.189 658.307 742.591 656.204 742.591 656.204C742.591 656.204 752.264 651.202 745.933 641.219C739.603 631.214 750.604 627.562 750.604 627.562C750.604 627.562 756.27 616.229 747.616 607.574C738.961 598.92 747.616 585.572 747.616 585.572C747.616 585.572 752.95 578.246 745.291 569.901C737.633 561.556 743.963 551.573 748.634 548.563C753.304 545.553 761.295 540.572 761.295 540.572C761.295 540.572 768.29 539.908 770.304 530.568C772.296 521.227 775.638 517.907 770.968 511.576C766.297 505.245 771.964 496.591 773.292 492.252C774.62 487.914 776.457 485.014 770.636 471.269C769.308 468.125 767.98 451.945 767.98 451.945C743.986 449.621 748.988 447.274 749.984 436.606C749.984 436.606 755.651 425.937 746.31 423.944C736.969 421.952 736.637 408.273 736.637 408.273C736.637 408.273 738.629 399.95 711.979 399.264C711.979 399.264 696.993 395.59 684.996 403.271C684.996 403.271 678.422 405.064 676.054 414.559C673.686 424.055 667.355 429.987 667.355 429.987L653.676 443.6C653.676 443.6 646.349 449.931 644.003 461.109C641.657 472.287 638.004 477.931 638.004 477.931L630.678 498.583C630.678 498.583 638.004 498.251 642.343 506.242C646.681 514.232 651.684 512.904 651.684 512.904C651.684 512.904 658.346 508.898 661.689 520.563C665.031 532.228 666.027 541.214 669.015 543.561C672.003 545.885 672.358 553.234 672.358 553.234L682.03 557.904C682.03 557.904 685.041 569.237 700.358 570.897C715.697 572.557 725.68 572.225 723.024 586.901C720.368 601.554 718.686 603.9 718.686 603.9L714.347 611.559L710.673 618.885L708.017 624.22C708.017 624.22 694.116 631.613 693.607 631.878C693.695 636.062 694.072 637.855 694.072 637.855L690.685 645.867C690.685 645.867 687.476 672.075 687.144 684.205C689.6 688.189 698.344 686.529 698.344 686.529L709.013 679.534L716.339 688.875L720.014 687.215L725.016 685.555L729.023 687.547L738.031 688.875H746.022L744.694 681.881L742.702 672.208L745.358 665.545C745.247 665.545 744.517 662.956 743.809 660.499Z" fill="#284F51" stroke="#638283" stroke-width="1.5"/>
<path d="M245.127 76.7416C249.753 65.1872 243.91 52.0171 239.505 44.9561C235.1 37.8951 234.945 31.2325 234.945 31.2325V17.7967L238.487 14.9413L240.125 8.83213C240.125 8.83213 244.065 0.000362396 244.109 -0.0881767C247.894 0.310249 253.494 0.531601 258.718 -0.774349C267.727 -3.03209 291.367 -6.02028 291.367 -6.02028L326.273 -17.2869L346.549 -19.5446L374.704 -19.9209L381.832 -18.0395C381.832 -18.0395 392.722 -13.1698 396.086 -5.64399C399.451 1.88183 401.332 13.5026 401.332 13.5026C401.332 13.5026 403.59 23.6403 406.578 28.1336C409.589 32.627 411.448 36.3899 412.953 45.0225C414.458 53.655 415.963 64.169 415.963 64.169C415.963 64.169 415.587 72.049 412.2 75.0593C408.814 78.0696 406.202 88.5615 406.202 88.5615C406.202 88.5615 405.073 112.201 379.175 124.973C353.278 137.745 348.386 139.604 348.386 139.604L342.011 143.367C342.011 143.367 336.367 145.492 338.669 149.521C338.647 149.521 331.564 152.819 331.564 152.819L319.456 159.769L316.136 164.307L309.783 165.524L301.305 175.817L284.372 174.002L277.112 172.497L271.069 172.806C271.069 172.806 243.666 165.015 240.523 142.26C238.332 126.301 238.708 124.42 238.708 124.42L235.676 121.1C235.676 121.1 234.746 113.972 236.163 103.834C237.247 95.9545 239.749 86.3038 245.127 76.7416Z" fill="#284F51" stroke="#638283" stroke-width="1.5"/>
<path d="M252.643 322.175C252.643 322.175 254.723 325.318 258.043 331.317C261.386 337.315 266.698 341.653 266.698 341.653L276.703 345.992C276.703 345.992 291.024 360.645 293.039 363.323C295.031 365.98 310.702 382.647 310.702 382.647L320.375 398.65V415.65V431.653C320.375 431.653 320.375 440.662 323.031 445.311C325.687 449.981 326.019 460.008 325.023 468.154C324.027 476.299 322.699 480.97 322.699 480.97L319.711 494.627L316.723 512.954C316.723 512.954 314.908 523.114 309.795 531.791C317.188 527.652 320.043 538.963 322.721 547.285C325.377 555.608 322.721 573.604 322.721 578.274C322.721 592.042 337.374 576.282 337.374 576.282L342.709 570.947L349.703 566.941L355.038 555.608H360.372L369.027 543.943L384.012 527.276H390.343L396.673 520.281L402.672 518.621L421.132 510.962L419.339 502.64L414.669 496.973C414.669 496.973 410.995 490.975 409.003 487.986C407.01 484.976 405.66 465.32 407.674 456.666C409.667 448.011 407.674 448.011 405.682 444.005C403.69 439.998 408.006 432.672 408.006 432.672L404.332 417.686C404.332 417.686 399.662 402.015 400.99 392.032C402.318 382.027 408.98 375.697 408.98 375.697L412.655 367.042L419.981 356.085L421.641 349.378L423.966 341.056C423.966 341.056 424.298 329.723 427.95 320.072C431.602 310.399 424.298 297.738 424.298 297.738C424.298 297.738 424.962 296.41 415.975 266.749C406.988 237.089 441.452 244.415 441.452 244.415L439.194 235.407C439.194 235.407 433.196 229.032 433.948 223.387C434.701 217.765 422.682 219.625 422.682 219.625C422.682 219.625 420.048 218.496 417.037 215.131C414.027 211.745 411.792 216.636 415.909 200.876C420.048 185.116 411.415 171.592 411.415 171.592C411.415 171.592 403.912 162.96 394.903 172.721C385.894 182.482 385.518 177.591 376.885 176.108C368.252 174.602 364.49 169.357 364.49 169.357C364.49 169.357 351.718 159.595 342.355 153.22C340.385 151.892 339.234 150.697 338.636 149.612C338.614 149.612 331.531 152.91 331.531 152.91L319.423 159.861L316.103 164.398L309.75 165.616L301.273 175.908C301.273 175.908 305.5 181.663 307.935 188.016C310.37 194.369 316.103 198.309 320.331 199.504C324.558 200.721 333.036 204.352 330.004 218.562C326.971 232.773 311.255 239.125 311.255 239.125C311.255 239.125 297.643 245.168 294.322 245.478C291.002 245.788 284.937 247.293 283.122 252.428C281.307 257.563 277.677 256.656 273.139 259.091C268.602 261.504 264.972 255.771 262.559 273.611C260.213 291.319 265.946 297.672 252.643 322.175Z" fill="#FCFF45" stroke="#FCFF45" stroke-width="1.25"/>
<g filter="url(#filter0_b_1030_16922)">
<rect x="317.01" y="307.489" width="60.8565" height="25.747" fill="white" fill-opacity="0.08"/>
<rect x="317.01" y="307.489" width="60.8565" height="25.747" fill="#325B5D" fill-opacity="0.16"/>
<rect x="317.51" y="307.989" width="59.8565" height="24.747" stroke="white" stroke-opacity="0.2"/>
<path d="M336.298 317.262H337.778L339.888 323.092L341.998 317.262H343.478V324.362H342.398V319.162L340.488 324.352H339.288L337.378 319.162V324.362H336.298V317.262ZM347.115 317.262H348.495L351.055 324.362H349.895L349.255 322.512H346.355L345.705 324.362H344.555L347.115 317.262ZM348.915 321.532L347.805 318.292L346.695 321.532H348.915ZM352.128 317.262H353.498L356.778 323.052V317.262H357.858V324.362H356.438L353.208 318.702V324.362H352.128V317.262Z" fill="#0E3E40"/>
</g>
<path d="M539.371 417.697C538.663 415.705 537.976 413.69 537.976 413.69C537.976 413.69 535.32 408.599 531.314 400.609C527.307 392.618 518.653 388.944 518.653 388.944C517.657 379.935 517.989 374.29 529.034 373.604C540.079 372.918 537.667 355.963 537.667 355.963C537.667 355.963 532 354.258 538.663 338.941C545.325 323.602 533.992 323.602 533.992 323.602C533.992 323.602 528.326 323.934 521.065 320.946C513.805 317.935 518.985 308.617 520.645 302.286C522.283 296.022 518.476 284.113 518.387 283.826C510.684 288.319 499.993 288.961 489.523 287.456C476.375 285.574 478.633 276.189 478.633 276.189C478.633 276.189 476.752 272.05 476.375 267.933C475.999 263.816 474.494 259.677 466.99 257.043C459.487 254.409 453.488 248.034 453.488 248.034L447.49 245.776L441.491 244.271C441.491 244.271 407.005 236.944 416.014 266.605C425.023 296.265 424.337 297.593 424.337 297.593C424.337 297.593 431.663 310.255 427.989 319.927C424.337 329.6 424.005 340.911 424.005 340.911L421.68 349.234L420.02 355.941L412.694 366.897L409.019 375.552C409.019 375.552 402.357 381.883 401.029 391.888C399.701 401.892 404.371 417.542 404.371 417.542L408.045 432.527C408.045 432.527 403.707 439.853 405.721 443.86C407.713 447.866 409.728 447.866 407.713 456.521C405.721 465.176 407.049 484.854 409.041 487.842C411.034 490.83 414.708 496.828 414.708 496.828L419.378 502.495L421.171 510.818C421.171 510.818 425.377 515.156 434.032 512.81C442.686 510.486 456.366 517.148 456.366 517.148L483.016 531.137L485.008 535.808L496.673 546.145C496.673 546.145 498.665 550.483 509.002 554.467C519.339 558.474 517.325 536.472 517.325 536.472L520.667 529.809C530.672 510.818 543.333 535.144 543.333 535.144C559.336 528.149 554.002 544.817 554.002 544.817H558.008L559.004 539.15C559.004 539.15 558.672 533.484 562.546 521.154C566.42 508.825 573.68 514.492 574.012 527.817C574.344 541.142 582.002 533.152 588.51 521.154C594.996 509.157 614.673 498.489 614.673 498.489H630.677L638.003 477.837C638.003 477.837 641.678 472.17 644.002 461.014C646.326 449.858 653.675 443.506 653.675 443.506C645.684 438.503 644.002 426.838 643.006 419.512C642.01 412.185 632.669 415.173 632.669 415.173C632.669 415.173 622.332 416.169 619.012 411.167C615.692 406.164 608.011 408.157 608.011 408.157C608.011 408.157 597.342 414.819 593.026 430.823C588.709 446.826 582.246 443.484 582.246 443.484C582.246 443.484 578.372 443.484 569.032 453.157C559.691 462.829 551.368 460.815 551.368 460.815C551.368 460.815 551.368 454.485 551.368 445.83C551.368 437.175 547.694 426.506 547.694 426.506L540.788 421.504C540.743 421.592 540.057 419.667 539.371 417.697Z" fill="#284F51" stroke="#638283" stroke-width="1.5"/>
<path d="M417.313 838.772C414.944 841.229 412.31 842.823 412.31 842.823C412.31 842.823 403.633 862.434 405.316 874.785C386.833 878.106 368.439 878.836 360.736 873.391C347.965 864.382 334.839 884.281 334.839 884.281L325.83 892.914L322.067 888.42L311.929 887.668C311.929 887.668 304.426 888.044 308.543 876.025C312.682 864.006 299.534 859.889 299.534 859.889C299.534 859.889 286.386 859.512 285.279 848.622C284.15 837.732 275.141 843 275.141 843C275.141 843 264.627 851.256 250.749 842.624C236.87 833.991 237.247 828.369 240.235 825.358C243.245 822.348 246.233 817.855 243.998 811.856C241.762 805.858 243.998 801.718 243.998 801.718C243.998 801.718 244.75 794.215 234.612 791.957C224.475 789.699 223.346 779.562 222.97 774.316C222.593 769.07 219.583 764.554 219.583 764.554L218.83 759.685L214.691 756.674L208.693 751.052L204.199 747.665C204.199 747.665 202.694 733.411 196.696 727.39C190.697 721.392 192.202 712.759 193.685 711.63C195.19 710.501 201.189 711.63 197.072 702.621C192.955 693.612 206.081 692.107 206.081 692.107C206.081 692.107 223.722 695.118 225.98 668.844C225.98 668.844 223.346 662.092 227.861 658.33C232.355 654.567 234.989 652.331 234.989 652.331L251.878 653.46C251.878 653.46 263.52 655.341 266.885 642.193C270.272 629.045 279.878 608.726 287.16 603.524C289.794 601.642 298.051 608.394 293.535 591.505C293.535 591.505 289.042 589.623 291.654 580.991C293.491 574.948 291.831 564.279 287.957 558.568C291.233 548.608 293.004 548.209 303.341 539.886C306.041 537.695 308.277 534.818 310.092 531.741C317.485 527.602 320.34 538.913 323.019 547.235C325.675 555.558 323.019 573.553 323.019 578.224C323.019 591.992 337.672 576.232 337.672 576.232L343.006 570.897L350.001 566.891L355.335 555.558H360.67L369.325 543.893L384.31 527.225H390.64L396.971 520.231L402.969 518.571L421.43 510.912C421.43 510.912 425.635 515.251 434.312 512.904C434.312 512.904 429.642 557.882 434.312 571.561L445.977 583.868C445.977 583.868 455.982 593.895 448.301 612.223C440.643 630.55 443.963 641.219 443.963 641.219C443.963 641.219 443.299 657.555 457.62 659.547C471.941 661.539 471.277 659.547 471.277 659.547C471.277 659.547 490.933 664.881 468.621 676.214C468.621 676.214 457.222 676.547 455.761 687.547L453.636 694.21L448.965 702.201L448.301 711.542L449.629 719.532L448.633 721.856L446.641 734.517C446.641 734.517 439.979 744.19 443.299 752.513C446.641 760.836 449.629 781.841 438.961 797.159C428.292 812.498 420.301 824.495 420.965 830.826C421.297 833.814 419.416 836.625 417.313 838.772Z" fill="#284F51" stroke="#638283" stroke-width="1.5"/>
<path d="M673.866 919.627C670.413 915.267 666.628 910.486 666.628 910.486L666.296 895.5L652.307 877.837L649.983 870.51L646.973 863.516L642.966 851.519L636.636 846.516L634.976 833.191L625.303 818.538L623.643 807.205L621.982 802.202L623.311 795.208L623.975 786.199L622.314 778.208L623.643 773.538L621.982 764.197L623.643 750.208C623.643 750.208 626.631 724.554 638.296 716.873C649.961 709.214 648.301 712.535 665.632 711.87C682.964 711.206 688.63 695.203 687.302 689.537C687.081 688.585 687.014 686.681 687.081 684.202C689.538 688.208 698.281 686.548 698.281 686.548L708.95 679.554L716.276 688.895L719.951 687.234L724.953 685.574L728.96 687.566L737.969 688.895H745.959L751.958 697.217C751.958 697.217 760.28 701.888 760.612 708.55C760.944 715.213 761.608 722.539 763.623 725.218C764.575 726.479 764.995 732.168 765.172 737.79C765.371 744.032 765.283 750.208 765.283 750.208L779.604 769.2L793.925 778.54C793.925 778.54 797.268 777.212 806.918 778.54C816.591 779.868 821.572 790.869 821.572 790.869L819.557 823.828C818.694 824.736 812.341 831.398 812.341 831.398L796.581 842.665L789.454 852.426L777.435 858.048L754.171 881.312L739.916 892.579L714.395 906.833L698.259 917.347L687.369 921.11L679.489 926.733C679.466 926.71 676.766 923.302 673.866 919.627Z" fill="#284F51" stroke="#638283" stroke-width="1.5"/>
<path d="M665.845 926.091C652.697 924.01 610.398 917.326 610.398 917.326C610.398 917.326 543.971 902.318 523.32 893.686C502.668 885.053 472.277 868.164 472.277 868.164C472.277 868.164 461.763 857.274 438.499 865.907C429.291 869.315 417.139 872.636 405.009 874.805C403.327 862.454 412.004 842.842 412.004 842.842C412.004 842.842 421.345 837.176 420.659 830.845C419.995 824.515 427.985 812.518 438.654 797.178C449.323 781.839 446.313 760.855 442.993 752.532C439.65 744.21 446.335 734.537 446.335 734.537L448.327 721.876L449.323 719.552L447.995 711.561L448.659 702.22L453.33 694.23L455.454 687.567C456.915 676.566 468.315 676.234 468.315 676.234C490.649 664.901 470.971 659.567 470.971 659.567C470.971 659.567 471.635 661.559 457.314 659.567C442.993 657.574 443.657 641.239 443.657 641.239C443.657 641.239 440.314 630.57 447.995 612.242C455.676 593.915 445.671 583.888 445.671 583.888L434.006 571.581C429.335 557.924 434.006 512.924 434.006 512.924C442.661 510.6 456.34 517.262 456.34 517.262C456.34 517.262 444.011 534.926 443.679 551.261C443.347 567.597 445.007 586.544 465.681 583.888C486.332 581.254 490.339 578.575 490.339 578.575C490.339 578.575 512.341 571.913 525.666 592.233C538.991 612.552 546.65 610.228 546.65 610.228L562.52 610.317L593.642 613.239C593.642 613.239 610.309 616.913 617.636 615.231C624.962 613.571 629.965 609.232 634.967 610.228C639.97 611.224 643.622 610.892 650.971 607.572C658.32 604.252 676.293 600.577 679.303 602.57C682.314 604.562 694.975 603.234 693.957 620.565C692.96 637.897 694.023 637.874 694.023 637.874L690.636 645.887C690.636 645.887 685.966 683.87 687.294 689.537C688.622 695.203 682.956 711.207 665.624 711.871C648.292 712.535 649.953 709.215 638.288 716.873C626.623 724.532 623.634 750.208 623.634 750.208L621.974 764.198L623.634 773.538L622.306 778.209L623.966 786.2L623.302 795.208L621.974 802.203L623.634 807.205L625.294 818.538L634.967 833.192L636.627 846.517L642.958 851.519L646.964 863.516L649.975 870.511L652.299 877.837L666.288 895.501L666.62 910.486L679.48 926.711H669.719C669.697 926.711 668.258 926.49 665.845 926.091Z" fill="#284F51" stroke="#638283" stroke-width="1.5"/>
<path d="M81.158 156.049L86.3154 165.19L88.4403 171.853C88.4403 171.853 82.9951 179.423 81.2686 186.971C76.7089 206.826 101.146 204.214 101.146 204.214C101.146 204.214 117.171 206.339 119.894 217.76C122.616 229.204 132.001 224.157 136.827 212.05C141.652 199.942 151.347 214.484 151.347 214.484C165.27 222.652 171.003 212.979 171.003 212.979L179.481 206.317C179.481 206.317 181.251 202.62 181.273 202.576C181.273 207.091 181.65 213.51 182.734 222.608C185.656 246.801 172.84 253.774 172.84 253.774L146.079 277.236L143.157 284.563L117.127 311.324L112.368 319.381L102.474 327.084L99.5519 335.517L85.2529 355.992L81.2022 361.481C82.0876 355.549 80.4939 349.108 69.9356 347.935C49.6602 345.677 54.4192 348.223 36.158 319.403C26.3966 304.019 30.5358 302.891 21.9032 300.257C13.2707 297.622 5.39068 280.734 2.00406 259.728C-1.38256 238.7 5.76697 235.335 5.76697 235.335C5.76697 235.335 13.2707 222.187 3.88552 206.804C-5.49962 191.42 11.0129 192.549 11.0129 192.549C11.0129 192.549 33.3247 201.115 23.0321 168.156C17.4098 150.139 35.0513 150.891 35.0513 150.891L44.7684 160.055C44.7684 160.055 52.0065 160.276 55.9022 161.162C67.0802 163.729 73.4329 156.978 73.4329 156.978L81.158 156.049Z" fill="#284F51" stroke="#638283" stroke-width="1.5"/>
<path d="M256.621 314.134C264.679 296.005 260.473 289.188 262.62 273.472C265.033 255.632 268.663 261.364 273.2 258.952C277.738 256.539 281.368 257.447 283.183 252.289C284.998 247.154 291.041 245.627 294.383 245.339C297.704 245.029 311.316 238.986 311.316 238.986C311.316 238.986 327.032 232.634 330.065 218.423C333.097 204.213 324.619 200.582 320.392 199.365C316.164 198.148 310.409 194.23 307.996 187.877C305.584 181.524 301.334 175.769 301.334 175.769L284.401 173.954L277.14 172.449L271.098 172.759C271.098 172.759 243.695 164.968 240.552 142.213C238.36 126.254 238.737 124.372 238.737 124.372L235.704 121.052C235.704 121.052 234.774 113.925 236.191 103.787C236.191 103.787 225.124 101.087 224.836 113.792C224.526 126.497 222.711 137.388 222.711 137.388C222.711 137.388 223.021 144.958 214.233 151.001C205.446 157.043 201.218 161.736 201.218 161.736L194.268 173.379L188.513 181.856L184.573 188.519L183.068 198.812C183.068 198.812 182.16 200.715 181.231 202.619C181.231 207.134 181.607 213.553 182.691 222.651C185.613 246.844 172.797 253.817 172.797 253.817L146.036 277.279L143.114 284.606L117.084 311.367L112.325 319.424L102.431 327.127L99.509 335.56L85.2099 356.035L81.1593 361.524C80.3403 366.992 77.3964 371.994 77.3964 371.994V379.874L81.1593 390.388L85.5862 387.444H95.4583L100.394 385.164H107.987L119.364 374.163H136.341C136.341 374.163 151.614 362.011 158.055 364.291C164.497 366.571 177.025 372.813 195.994 356.035C214.964 339.257 232.65 320.331 252.637 322.213C253.832 320.022 254.851 317.985 255.758 316.059C256.068 315.373 256.356 314.731 256.621 314.134Z" fill="#284F51" stroke="#638283" stroke-width="1.5"/>
<path d="M134.037 548.888C132.643 546.453 132.665 542.181 136.339 534.832C141.209 525.071 131.846 521.684 131.846 521.684L123.966 516.815C123.966 516.815 114.581 511.192 117.967 498.797C121.354 486.402 121.73 465.019 94.7038 467.454C67.6773 469.889 60.5499 458.622 60.5499 458.622L59.0447 444.744L53.7988 437.24L48.1766 433.854C48.1766 433.854 43.6832 428.608 49.6817 424.469C55.6802 420.329 65.4417 418.094 65.4417 418.094C65.4417 418.094 77.4608 413.6 75.5794 403.086C73.6979 392.572 81.2016 390.315 81.2016 390.315L85.6286 387.371H95.5007L100.437 385.091H108.029L119.406 374.09H136.384C136.384 374.09 151.657 361.938 158.098 364.218C164.539 366.498 177.067 372.74 196.037 355.961C215.006 339.183 232.692 320.258 252.68 322.14C252.68 322.14 254.76 325.283 258.08 331.281C261.423 337.28 266.735 341.618 266.735 341.618L276.74 345.957C276.74 345.957 291.061 360.61 293.075 363.288C295.068 365.944 310.739 382.612 310.739 382.612L320.412 398.615V415.615V431.618C320.412 431.618 320.412 440.627 323.068 445.275C325.724 449.946 326.056 459.973 325.06 468.118C324.064 476.264 322.736 480.934 322.736 480.934L319.748 494.591L316.76 512.919C316.76 512.919 314.945 523.079 309.832 531.756C308.016 534.832 305.803 537.732 303.08 539.901C292.743 548.224 290.995 548.622 287.697 558.583C286.037 556.148 283.978 554.621 281.632 554.732C273.752 555.108 259.497 557.366 259.497 557.366C259.497 557.366 210.336 565.998 183.309 556.613C156.283 547.228 142.028 552.12 142.028 552.12C142.028 552.12 136.229 552.784 134.037 548.888Z" fill="#284F51" stroke="#638283" stroke-width="1.5"/>
<path d="M81.1533 156.046L85.3368 155.559L92.5748 152.217L99.2595 150.269C99.2595 150.269 101.207 148.034 114.001 141.083C126.795 134.133 126.175 127.448 126.175 127.448C126.175 127.448 127.083 126.054 126.242 116.315C125.401 106.575 132.639 99.0494 132.639 99.0494L139.589 87.0745C139.589 87.0745 141.537 87.4065 145.72 79.8364C146.938 77.6451 143.773 65.3603 140.165 60.0701C138.881 58.2108 138.305 56.7277 138.084 55.5989L143.529 60.1365C143.529 60.1365 156.301 70.4513 157.651 77.5123C160.197 90.7489 172.039 87.8271 172.039 87.8271C172.039 87.8271 173.522 87.1409 182.353 86.8753C191.185 86.6097 193.62 81.7179 199.729 79.8143C205.838 77.9107 209.646 81.2973 214.405 85.3923C219.164 89.4651 224.321 89.8635 230.032 90.5496C234.304 91.0587 238.044 89.5093 241.586 83.8428C238.554 90.9702 236.96 97.8541 236.141 103.742C236.141 103.742 225.073 101.042 224.786 113.747C224.476 126.452 222.661 137.343 222.661 137.343C222.661 137.343 222.971 144.913 214.183 150.955C205.396 156.998 201.168 161.691 201.168 161.691L194.218 173.334L188.463 181.811L184.523 188.474L183.017 198.766L179.387 206.337L170.91 212.999C170.91 212.999 165.155 222.672 151.254 214.504C151.254 214.504 141.581 199.94 136.734 212.069C131.886 224.199 122.523 229.224 119.801 217.78C117.078 206.337 101.052 204.234 101.052 204.234C101.052 204.234 76.5936 206.846 81.1754 186.991C82.9241 179.421 88.3471 171.873 88.3471 171.873L86.2222 165.21L81.1533 156.046Z" fill="#284F51" stroke="#638283" stroke-width="1.5"/>
<path d="M508.321 554.314C508.542 554.402 508.764 554.491 508.985 554.579C519.322 558.586 517.308 536.584 517.308 536.584L520.65 529.921C530.655 510.93 543.316 535.256 543.316 535.256C559.319 528.261 553.985 544.929 553.985 544.929H557.991L558.988 539.262C558.988 539.262 558.656 533.596 562.529 521.267C566.403 508.937 573.663 514.604 573.995 527.929C574.327 541.254 581.985 533.264 588.493 521.267C594.979 509.27 614.656 498.601 614.656 498.601H630.66C630.66 498.601 637.986 498.269 642.325 506.259C646.663 514.25 651.666 512.922 651.666 512.922C651.666 512.922 658.328 508.915 661.671 520.58C665.013 532.245 666.009 541.232 668.997 543.578C671.985 545.903 672.34 553.251 672.34 553.251L682.012 557.922C682.012 557.922 685.023 569.255 700.34 570.915C715.679 572.575 725.662 572.243 723.006 586.918C720.35 601.571 718.668 603.918 718.668 603.918L714.329 611.576L710.655 618.903L707.999 624.237L693.921 631.719C693.921 631.719 693.744 631.808 693.589 631.896C693.611 629.351 693.722 625.721 694.01 620.563C695.006 603.232 682.344 604.56 679.356 602.568C676.346 600.575 658.373 604.228 651.024 607.57C643.675 610.912 640.023 611.244 635.02 610.226C630.018 609.208 625.015 613.569 617.689 615.229C610.362 616.889 593.695 613.237 593.695 613.237L562.573 610.315L546.703 610.226C546.703 610.226 539.044 612.55 525.719 592.231C512.394 571.911 490.392 578.573 490.392 578.573C490.392 578.573 486.386 581.23 465.734 583.886C445.082 586.52 443.4 567.573 443.732 551.259C444.064 534.924 456.393 517.26 456.393 517.26L483.043 531.249L485.035 535.92L496.7 546.257C496.656 546.235 498.56 550.374 508.321 554.314Z" fill="#284F51" stroke="#638283" stroke-width="1.5"/>
<path d="M519.667 283.03C519.247 283.318 518.826 283.584 518.383 283.827C518.428 283.96 522.301 296.001 520.641 302.287C518.981 308.618 513.802 317.959 521.062 320.947C528.322 323.935 533.988 323.603 533.988 323.603C533.988 323.603 545.321 323.603 538.659 338.943C531.996 354.282 537.663 355.964 537.663 355.964C537.663 355.964 540.076 372.919 529.03 373.606C517.985 374.292 517.653 379.936 518.649 388.945C518.649 388.945 527.304 392.619 531.31 400.61C535.317 408.601 537.973 413.692 537.973 413.692L540.74 421.594L547.646 426.596C547.646 426.596 551.32 437.265 551.32 445.92C551.32 454.574 551.32 460.905 551.32 460.905C551.32 460.905 559.643 462.897 568.984 453.246C578.324 443.574 582.198 443.574 582.198 443.574C582.198 443.574 588.661 446.916 592.978 430.912C597.294 414.909 607.963 408.246 607.963 408.246C607.963 408.246 615.621 406.254 618.964 411.257C622.306 416.259 632.621 415.263 632.621 415.263C632.621 415.263 641.962 412.253 642.958 419.602C643.954 426.928 645.614 438.593 653.627 443.596L667.306 429.983C667.306 429.983 673.637 424.051 676.005 414.555C678.373 405.059 684.948 403.266 684.948 403.266C678.617 388.945 682.601 377.28 682.601 377.28C682.601 377.28 686.608 368.625 686.94 359.948C687.272 351.294 697.609 344.609 697.609 344.609C697.609 344.609 697.609 344.609 697.941 321.943C698.273 299.277 685.612 291.618 681.273 285.952C676.935 280.285 671.954 268.311 671.954 268.311L656.194 271.321C656.194 271.321 637.048 281.835 627.663 277.696C618.278 273.556 607.011 276.567 607.011 276.567C607.011 276.567 589.746 281.06 572.481 284.823C555.216 288.586 551.076 276.19 551.076 276.19C551.076 276.19 551.077 271.321 545.078 267.558C539.079 263.795 531.199 271.321 523.674 279.577C522.501 280.905 521.15 282.056 519.667 283.03Z" fill="#284F51" stroke="#638283" stroke-width="1.5"/>
<path d="M181.909 86.9372C173.498 87.2249 172.059 87.8668 172.059 87.8668C172.059 87.8668 160.217 90.7886 157.672 77.552C156.321 70.491 143.55 60.1763 143.55 60.1763L138.104 55.6386C137.684 53.5358 138.503 52.6061 138.503 52.6061L141.292 46.2092L144.346 39.2589L149.637 34.8098L152.426 30.3607L156.321 25.0705L167.167 15.3312C167.167 15.3312 171.351 7.53981 176.907 6.69869C182.463 5.85756 187.487 0.0139799 190.829 -2.75286C194.172 -5.54184 199.174 -7.20195 203.911 -6.93633C208.648 -6.64858 226.798 -10.8984 226.798 -10.8984L239.57 -0.76075L244.108 -0.074544C244.086 -0.00813961 240.124 8.84576 240.124 8.84576L238.486 14.9549L234.944 17.8103V31.2461C234.944 31.2461 235.121 37.9087 239.504 44.9697C243.886 52.0306 249.73 65.2008 245.126 76.7552C240.5 88.3095 235.763 91.2977 230.052 90.6115C224.341 89.9254 219.184 89.5269 214.425 85.4541C209.666 81.3814 205.859 77.9947 199.75 79.8762C193.641 81.7798 191.184 86.6716 182.374 86.9372C182.219 86.915 182.064 86.9372 181.909 86.9372Z" fill="#284F51" stroke="#638283" stroke-width="1.5"/>
<defs>
<filter id="filter0_b_1030_16922" x="251.01" y="241.489" width="192.856" height="157.747" filterUnits="userSpaceOnUse" color-interpolation-filters="sRGB">
<feFlood flood-opacity="0" result="BackgroundImageFix"/>
<feGaussianBlur in="BackgroundImageFix" stdDeviation="33"/>
<feComposite in2="SourceAlpha" operator="in" result="effect1_backgroundBlur_1030_16922"/>
<feBlend mode="normal" in="SourceGraphic" in2="effect1_backgroundBlur_1030_16922" result="shape"/>
</filter>
</defs>
</svg>
