<svg width="942" height="688" viewBox="0 0 942 688" fill="none" xmlns="http://www.w3.org/2000/svg">
<path d="M765.147 497.769C764.97 492.147 764.549 486.458 763.597 485.197C761.605 482.541 760.941 475.192 760.587 468.529C760.255 461.867 751.932 457.196 751.932 457.196L745.934 448.874L744.606 441.879L742.613 432.206L745.27 425.544L742.613 416.203C742.613 416.203 752.286 411.2 745.956 401.217C739.625 391.212 750.626 387.56 750.626 387.56C750.626 387.56 756.293 376.227 747.638 367.573C738.983 358.918 747.638 345.571 747.638 345.571C747.638 345.571 752.973 338.244 745.314 329.899C737.655 321.554 743.986 311.572 748.656 308.561C753.327 305.551 761.317 300.571 761.317 300.571C761.317 300.571 768.312 299.907 770.326 290.566C772.318 281.225 775.661 277.905 770.99 271.574C766.32 265.244 771.986 256.589 773.314 252.25C774.642 247.912 776.48 245.012 770.658 231.267C769.33 228.124 768.002 211.943 768.002 211.943C791.996 214.267 792.992 198.286 792.992 198.286C792.992 198.286 805.343 198.994 813.644 195.298C832.613 186.842 829.979 181.973 816.632 174.646C803.285 167.319 816.632 156.982 816.632 156.982L848.617 137.659C872.611 137.659 869.269 112.337 869.269 112.337L875.931 91.3529C894.591 62.0244 917.921 73.3574 917.921 73.3574C917.921 73.3574 944.239 87.3465 960.242 76.3456C976.246 65.3446 991.231 74.6855 991.231 74.6855C991.231 74.6855 1006.9 91.3529 1022.88 104.988C1038.87 118.623 1054.2 116.343 1076.87 107.356C1099.54 98.3697 1137.41 104.988 1137.41 104.988C1137.41 104.988 1131.79 109.481 1132.92 113.244C1134.04 117.007 1136.68 118.114 1133.67 127.499C1130.66 136.884 1140.8 140.271 1140.8 140.271C1140.8 140.271 1142.68 141.023 1142.68 160.922C1142.68 180.822 1144.2 191.336 1144.2 191.336C1144.2 191.336 1152.06 196.582 1153.19 207.472C1154.32 218.362 1152.81 216.857 1158.81 222.856C1164.81 228.854 1161.45 233.37 1161.45 233.37L1162.4 247.624C1162.4 247.624 1178.34 253.999 1173.47 267.147C1168.6 280.295 1163.71 272.393 1171.59 281.402C1179.47 290.411 1174.4 304.289 1174.4 304.289L1171.21 309.535C1171.21 309.535 1173.09 317.792 1164.08 327.177C1155.07 336.562 1156.58 338.443 1156.58 338.443C1156.58 338.443 1161.45 347.076 1124.31 348.581C1087.16 350.086 1074.77 346.699 1045.48 366.599C1016.2 386.498 1002.7 406.397 1002.7 406.397C1002.7 406.397 1001.19 412.772 984.679 420.275C968.167 427.779 960.287 436.035 960.287 436.035L948.644 447.678L925.004 470.566L918.629 479.198L917.5 484.444L910.749 487.831L884.475 513.352L851.826 553.15L843.946 562.159L828.186 574.931L819.642 583.896L821.657 550.937C821.657 550.937 816.654 539.936 807.003 538.608C797.331 537.28 794.01 538.608 794.01 538.608L779.689 529.267L765.368 510.275C765.257 510.187 765.346 504.011 765.147 497.769Z" fill="#284F51" stroke="#638283" strokeWidth="1.5"/>
<path d="M1101.96 102.713C1120.14 101.916 1137.38 104.926 1137.38 104.926C1137.38 104.926 1147.52 97.0465 1143 83.1458C1138.49 69.2452 1130.61 62.8704 1120.87 55.743C1111.11 48.6156 1097.98 30.2216 1092.71 21.2128C1087.47 12.2039 1077.33 12.5802 1077.33 12.5802L1073.94 9.56985L1061.17 2.81879L1034.52 -6.94266L1018.76 -14.8226L1013.14 -20.0686L1000.37 -31.3351C1000.37 -31.3351 983.853 -38.8388 975.597 -44.4832C967.341 -50.1054 947.442 -42.6017 947.442 -42.6017C947.442 -42.6017 940.314 -44.4832 921.92 -39.2151C903.526 -33.947 905.031 -45.9662 905.031 -45.9662C905.031 -45.9662 901.269 -54.2225 893.389 -72.2402C885.509 -90.2579 828.445 -102.653 828.445 -102.653L796.925 -105.664C796.925 -105.664 797.302 -108.674 795.42 -94.0208C793.539 -79.3897 799.914 -71.886 799.914 -71.886C799.914 -71.886 801.042 -66.2638 807.041 -48.9987C813.039 -31.7336 814.921 -40.3661 807.041 -24.9825C799.161 -9.59881 778.133 -13.3396 778.133 -13.3396C778.133 -13.3396 722.951 -18.5855 707.567 0.53891C685.698 27.7425 671.908 23.8026 671.908 23.8026V28.3401C671.908 28.3401 676.889 40.3151 681.227 45.9816C685.565 51.6481 698.226 59.3067 697.894 81.9727C697.562 104.639 697.562 104.639 697.562 104.639C697.562 104.639 687.225 111.301 686.893 119.978C686.561 128.633 682.555 137.31 682.555 137.31C682.555 137.31 678.571 148.975 684.901 163.296C696.898 155.637 711.884 159.289 711.884 159.289C738.534 159.953 736.542 168.298 736.542 168.298C736.542 168.298 736.874 181.955 746.215 183.97C755.555 185.984 749.889 196.631 749.889 196.631C748.893 207.3 743.89 209.624 767.885 211.97C791.879 214.294 792.875 198.313 792.875 198.313C792.875 198.313 805.226 199.021 813.526 195.325C832.496 186.869 829.862 182 816.515 174.673C803.167 167.346 816.515 157.009 816.515 157.009L848.499 137.686C872.493 137.686 869.151 112.364 869.151 112.364L875.814 91.38C894.473 62.0514 917.803 73.3844 917.803 73.3844C917.803 73.3844 944.121 87.3736 960.125 76.3726C976.128 65.3716 991.114 74.7125 991.114 74.7125C991.114 74.7125 1006.78 91.38 1022.77 105.015C1038.75 118.65 1054.09 116.37 1076.75 107.383C1084.21 104.373 1093.2 103.089 1101.96 102.713Z" fill="#284F51" stroke="#638283" strokeWidth="1.5"/>
<path d="M743.809 420.499C743.189 418.307 742.591 416.204 742.591 416.204C742.591 416.204 752.264 411.202 745.933 401.219C739.603 391.214 750.604 387.562 750.604 387.562C750.604 387.562 756.27 376.229 747.616 367.574C738.961 358.92 747.616 345.572 747.616 345.572C747.616 345.572 752.95 338.246 745.291 329.901C737.633 321.556 743.963 311.573 748.634 308.563C753.304 305.553 761.295 300.572 761.295 300.572C761.295 300.572 768.29 299.908 770.304 290.568C772.296 281.227 775.638 277.907 770.968 271.576C766.297 265.245 771.964 256.591 773.292 252.252C774.62 247.914 776.457 245.014 770.636 231.269C769.308 228.125 767.98 211.945 767.98 211.945C743.986 209.621 748.988 207.274 749.984 196.606C749.984 196.606 755.651 185.937 746.31 183.944C736.969 181.952 736.637 168.273 736.637 168.273C736.637 168.273 738.629 159.95 711.979 159.264C711.979 159.264 696.993 155.59 684.996 163.271C684.996 163.271 678.422 165.064 676.054 174.559C673.686 184.055 667.355 189.987 667.355 189.987L653.676 203.6C653.676 203.6 646.349 209.931 644.003 221.109C641.657 232.287 638.004 237.931 638.004 237.931L630.678 258.583C630.678 258.583 638.004 258.251 642.343 266.242C646.681 274.232 651.684 272.904 651.684 272.904C651.684 272.904 658.346 268.898 661.689 280.563C665.031 292.228 666.027 301.214 669.015 303.561C672.003 305.885 672.358 313.234 672.358 313.234L682.03 317.904C682.03 317.904 685.041 329.237 700.358 330.897C715.697 332.557 725.68 332.225 723.024 346.901C720.368 361.554 718.686 363.9 718.686 363.9L714.347 371.559L710.673 378.885L708.017 384.22C708.017 384.22 694.116 391.613 693.607 391.878C693.695 396.062 694.072 397.855 694.072 397.855L690.685 405.867C690.685 405.867 687.476 432.075 687.144 444.205C689.6 448.189 698.344 446.529 698.344 446.529L709.013 439.534L716.339 448.875L720.014 447.215L725.016 445.555L729.023 447.547L738.031 448.875H746.022L744.694 441.881L742.702 432.208L745.358 425.545C745.247 425.545 744.517 422.956 743.809 420.499Z" fill="#284F51" stroke="#638283" strokeWidth="1.5"/>
<path d="M252.643 82.1749C252.643 82.1749 254.723 85.318 258.043 91.3165C261.386 97.315 266.698 101.653 266.698 101.653L276.703 105.992C276.703 105.992 291.024 120.645 293.039 123.323C295.031 125.98 310.702 142.647 310.702 142.647L320.375 158.65V175.65V191.653C320.375 191.653 320.375 200.662 323.031 205.311C325.687 209.981 326.019 220.008 325.023 228.154C324.027 236.299 322.699 240.97 322.699 240.97L319.711 254.627L316.723 272.954C316.723 272.954 314.908 283.114 309.795 291.791C317.188 287.652 320.043 298.963 322.721 307.285C325.377 315.608 322.721 333.604 322.721 338.274C322.721 352.042 337.374 336.282 337.374 336.282L342.709 330.947L349.703 326.941L355.038 315.608H360.372L369.027 303.943L384.012 287.276H390.343L396.673 280.281L402.672 278.621L421.132 270.962L419.339 262.64L414.669 256.973C414.669 256.973 410.995 250.975 409.003 247.986C407.01 244.976 405.66 225.32 407.674 216.666C409.667 208.011 407.674 208.011 405.682 204.005C403.69 199.998 408.006 192.672 408.006 192.672L404.332 177.686C404.332 177.686 399.662 162.015 400.99 152.032C402.318 142.027 408.98 135.697 408.98 135.697L412.655 127.042L419.981 116.085L421.641 109.378L423.966 101.056C423.966 101.056 424.298 89.7228 427.95 80.072C431.602 70.3992 424.298 57.7381 424.298 57.7381C424.298 57.7381 424.962 56.41 415.975 26.7494C406.988 -2.91115 441.452 4.41547 441.452 4.41547L439.194 -4.5934C439.194 -4.5934 433.196 -10.9682 433.948 -16.6126C434.701 -22.2348 422.682 -20.3755 422.682 -20.3755C422.682 -20.3755 420.048 -21.5044 417.037 -24.8688C414.027 -28.2555 411.792 -23.3637 415.909 -39.1236C420.048 -54.8836 411.415 -68.4079 411.415 -68.4079C411.415 -68.4079 403.912 -77.0405 394.903 -67.279C385.894 -57.5176 385.518 -62.4094 376.885 -63.8924C368.252 -65.3976 364.49 -70.6435 364.49 -70.6435C364.49 -70.6435 351.718 -80.4049 342.355 -86.7797C340.385 -88.1078 339.234 -89.3031 338.636 -90.3877C338.614 -90.3877 331.531 -87.0896 331.531 -87.0896L319.423 -80.1393L316.103 -75.6017L309.75 -74.3843L301.273 -64.0916C301.273 -64.0916 305.5 -58.3366 307.935 -51.9839C310.37 -45.6312 316.103 -41.6912 320.331 -40.496C324.558 -39.2786 333.036 -35.6484 330.004 -21.4379C326.971 -7.2274 311.255 -0.874779 311.255 -0.874779C311.255 -0.874779 297.643 5.16807 294.322 5.47796C291.002 5.78784 284.937 7.29297 283.122 12.4282C281.307 17.5635 277.677 16.656 273.139 19.0908C268.602 21.5035 264.972 15.7706 262.559 33.6112C260.213 51.319 265.946 57.6717 252.643 82.1749Z" fill="#284F51" stroke="#638283" strokeWidth="1.5"/>
<path d="M539.371 177.697C538.663 175.705 537.976 173.69 537.976 173.69C537.976 173.69 535.32 168.599 531.314 160.609C527.307 152.618 518.653 148.944 518.653 148.944C517.657 139.935 517.989 134.29 529.034 133.604C540.079 132.918 537.667 115.963 537.667 115.963C537.667 115.963 532 114.258 538.663 98.9412C545.325 83.6018 533.992 83.6018 533.992 83.6018C533.992 83.6018 528.326 83.9338 521.065 80.9456C513.805 77.9353 518.985 68.6165 520.645 62.286C522.283 56.0219 518.476 44.1134 518.387 43.8256C510.684 48.319 499.993 48.9609 489.523 47.4558C476.375 45.5743 478.633 36.1891 478.633 36.1891C478.633 36.1891 476.752 32.05 476.375 27.9329C475.999 23.8158 474.494 19.6766 466.99 17.0426C459.487 14.4085 453.488 8.0337 453.488 8.0337L447.49 5.77598L441.491 4.27084C441.491 4.27084 407.005 -3.05578 416.014 26.6048C425.023 56.2654 424.337 57.5935 424.337 57.5935C424.337 57.5935 431.663 70.2545 427.989 79.9274C424.337 89.6003 424.005 100.911 424.005 100.911L421.68 109.234L420.02 115.941L412.694 126.897L409.019 135.552C409.019 135.552 402.357 141.883 401.029 151.888C399.701 161.892 404.371 177.542 404.371 177.542L408.045 192.527C408.045 192.527 403.707 199.853 405.721 203.86C407.713 207.866 409.728 207.866 407.713 216.521C405.721 225.176 407.049 244.854 409.041 247.842C411.034 250.83 414.708 256.828 414.708 256.828L419.378 262.495L421.171 270.818C421.171 270.818 425.377 275.156 434.032 272.81C442.686 270.486 456.366 277.148 456.366 277.148L483.016 291.137L485.008 295.808L496.673 306.145C496.673 306.145 498.665 310.483 509.002 314.467C519.339 318.474 517.325 296.472 517.325 296.472L520.667 289.809C530.672 270.818 543.333 295.144 543.333 295.144C559.336 288.149 554.002 304.817 554.002 304.817H558.008L559.004 299.15C559.004 299.15 558.672 293.484 562.546 281.154C566.42 268.825 573.68 274.492 574.012 287.817C574.344 301.142 582.002 293.152 588.51 281.154C594.996 269.157 614.673 258.489 614.673 258.489H630.677L638.003 237.837C638.003 237.837 641.678 232.17 644.002 221.014C646.326 209.858 653.675 203.506 653.675 203.506C645.684 198.503 644.002 186.838 643.006 179.512C642.01 172.185 632.669 175.173 632.669 175.173C632.669 175.173 622.332 176.169 619.012 171.167C615.692 166.164 608.011 168.157 608.011 168.157C608.011 168.157 597.342 174.819 593.026 190.823C588.709 206.826 582.246 203.484 582.246 203.484C582.246 203.484 578.372 203.484 569.032 213.157C559.691 222.829 551.368 220.815 551.368 220.815C551.368 220.815 551.368 214.485 551.368 205.83C551.368 197.175 547.694 186.506 547.694 186.506L540.788 181.504C540.743 181.592 540.057 179.667 539.371 177.697Z" fill="#284F51" stroke="#638283" strokeWidth="1.5"/>
<path d="M417.313 598.772C414.944 601.229 412.31 602.823 412.31 602.823C412.31 602.823 403.633 622.434 405.316 634.785C386.833 638.106 368.439 638.836 360.736 633.391C347.965 624.382 334.839 644.281 334.839 644.281L325.83 652.914L322.067 648.42L311.929 647.668C311.929 647.668 304.426 648.044 308.543 636.025C312.682 624.006 299.534 619.889 299.534 619.889C299.534 619.889 286.386 619.512 285.279 608.622C284.15 597.732 275.141 603 275.141 603C275.141 603 264.627 611.256 250.749 602.624C236.87 593.991 237.247 588.369 240.235 585.358C243.245 582.348 246.233 577.855 243.998 571.856C241.762 565.858 243.998 561.718 243.998 561.718C243.998 561.718 244.75 554.215 234.612 551.957C224.475 549.699 223.346 539.562 222.97 534.316C222.593 529.07 219.583 524.554 219.583 524.554L218.83 519.685L214.691 516.674L208.693 511.052L204.199 507.665C204.199 507.665 202.694 493.411 196.696 487.39C190.697 481.392 192.202 472.759 193.685 471.63C195.19 470.501 201.189 471.63 197.072 462.621C192.955 453.612 206.081 452.107 206.081 452.107C206.081 452.107 223.722 455.118 225.98 428.844C225.98 428.844 223.346 422.092 227.861 418.33C232.355 414.567 234.989 412.331 234.989 412.331L251.878 413.46C251.878 413.46 263.52 415.341 266.885 402.193C270.272 389.045 279.878 368.726 287.16 363.524C289.794 361.642 298.051 368.394 293.535 351.505C293.535 351.505 289.042 349.623 291.654 340.991C293.491 334.948 291.831 324.279 287.957 318.568C291.233 308.608 293.004 308.209 303.341 299.886C306.041 297.695 308.277 294.818 310.092 291.741C317.485 287.602 320.34 298.913 323.019 307.235C325.675 315.558 323.019 333.553 323.019 338.224C323.019 351.992 337.672 336.232 337.672 336.232L343.006 330.897L350.001 326.891L355.335 315.558H360.67L369.325 303.893L384.31 287.225H390.64L396.971 280.231L402.969 278.571L421.43 270.912C421.43 270.912 425.635 275.251 434.312 272.904C434.312 272.904 429.642 317.882 434.312 331.561L445.977 343.868C445.977 343.868 455.982 353.895 448.301 372.223C440.643 390.55 443.963 401.219 443.963 401.219C443.963 401.219 443.299 417.555 457.62 419.547C471.941 421.539 471.277 419.547 471.277 419.547C471.277 419.547 490.933 424.881 468.621 436.214C468.621 436.214 457.222 436.547 455.761 447.547L453.636 454.21L448.965 462.201L448.301 471.542L449.629 479.532L448.633 481.856L446.641 494.517C446.641 494.517 439.979 504.19 443.299 512.513C446.641 520.836 449.629 541.841 438.961 557.159C428.292 572.498 420.301 584.495 420.965 590.826C421.297 593.814 419.416 596.625 417.313 598.772Z" fill="#284F51" stroke="#638283" strokeWidth="1.5"/>
<path d="M673.866 679.627C670.413 675.267 666.628 670.486 666.628 670.486L666.296 655.5L652.307 637.837L649.983 630.51L646.973 623.516L642.966 611.519L636.636 606.516L634.976 593.191L625.303 578.538L623.643 567.205L621.982 562.202L623.311 555.208L623.975 546.199L622.314 538.208L623.643 533.538L621.982 524.197L623.643 510.208C623.643 510.208 626.631 484.554 638.296 476.873C649.961 469.214 648.301 472.535 665.632 471.87C682.964 471.206 688.63 455.203 687.302 449.537C687.081 448.585 687.014 446.681 687.081 444.202C689.538 448.208 698.281 446.548 698.281 446.548L708.95 439.554L716.276 448.895L719.951 447.234L724.953 445.574L728.96 447.566L737.969 448.895H745.959L751.958 457.217C751.958 457.217 760.28 461.888 760.612 468.55C760.944 475.213 761.608 482.539 763.623 485.218C764.575 486.479 764.995 492.168 765.172 497.79C765.371 504.032 765.283 510.208 765.283 510.208L779.604 529.2L793.925 538.54C793.925 538.54 797.268 537.212 806.918 538.54C816.591 539.868 821.572 550.869 821.572 550.869L819.557 583.828C818.694 584.736 812.341 591.398 812.341 591.398L796.581 602.665L789.454 612.426L777.435 618.048L754.171 641.312L739.916 652.579L714.395 666.833L698.259 677.347L687.369 681.11L679.489 686.733C679.466 686.71 676.766 683.302 673.866 679.627Z" fill="#284F51" stroke="#638283" strokeWidth="1.5"/>
<path d="M665.845 686.091C652.697 684.01 610.398 677.326 610.398 677.326C610.398 677.326 543.971 662.318 523.32 653.686C502.668 645.053 472.277 628.164 472.277 628.164C472.277 628.164 461.763 617.274 438.499 625.907C429.291 629.315 417.139 632.636 405.009 634.805C403.327 622.454 412.004 602.842 412.004 602.842C412.004 602.842 421.345 597.176 420.659 590.845C419.995 584.515 427.985 572.518 438.654 557.178C449.323 541.839 446.313 520.855 442.993 512.532C439.65 504.21 446.335 494.537 446.335 494.537L448.327 481.876L449.323 479.552L447.995 471.561L448.659 462.22L453.33 454.23L455.454 447.567C456.915 436.566 468.315 436.234 468.315 436.234C490.649 424.901 470.971 419.567 470.971 419.567C470.971 419.567 471.635 421.559 457.314 419.567C442.993 417.574 443.657 401.239 443.657 401.239C443.657 401.239 440.314 390.57 447.995 372.242C455.676 353.915 445.671 343.888 445.671 343.888L434.006 331.581C429.335 317.924 434.006 272.924 434.006 272.924C442.661 270.6 456.34 277.262 456.34 277.262C456.34 277.262 444.011 294.926 443.679 311.261C443.347 327.597 445.007 346.544 465.681 343.888C486.332 341.254 490.339 338.575 490.339 338.575C490.339 338.575 512.341 331.913 525.666 352.233C538.991 372.552 546.65 370.228 546.65 370.228L562.52 370.317L593.642 373.239C593.642 373.239 610.309 376.913 617.636 375.231C624.962 373.571 629.965 369.232 634.967 370.228C639.97 371.224 643.622 370.892 650.971 367.572C658.32 364.252 676.293 360.577 679.303 362.57C682.314 364.562 694.975 363.234 693.957 380.565C692.96 397.897 694.023 397.874 694.023 397.874L690.636 405.887C690.636 405.887 685.966 443.87 687.294 449.537C688.622 455.203 682.956 471.207 665.624 471.871C648.292 472.535 649.953 469.215 638.288 476.873C626.623 484.532 623.634 510.208 623.634 510.208L621.974 524.198L623.634 533.538L622.306 538.209L623.966 546.2L623.302 555.208L621.974 562.203L623.634 567.205L625.294 578.538L634.967 593.192L636.627 606.517L642.958 611.519L646.964 623.516L649.975 630.511L652.299 637.837L666.288 655.501L666.62 670.486L679.48 686.711H669.719C669.697 686.711 668.258 686.49 665.845 686.091Z" fill="#284F51" stroke="#638283" strokeWidth="1.5"/>
<path d="M81.158 -83.9514L86.3154 -74.8098L88.4403 -68.1472C88.4403 -68.1472 82.9951 -60.5771 81.2686 -53.0292C76.7089 -33.1743 101.146 -35.7862 101.146 -35.7862C101.146 -35.7862 117.171 -33.6613 119.894 -22.2397C122.616 -10.7961 132.001 -15.8428 136.827 -27.9505C141.652 -40.0582 151.347 -25.5156 151.347 -25.5156C165.27 -17.3479 171.003 -27.0209 171.003 -27.0209L179.481 -33.6834C179.481 -33.6834 181.251 -37.3799 181.273 -37.4241C181.273 -32.9087 181.65 -26.4896 182.734 -17.3922C185.656 6.80106 172.84 13.7735 172.84 13.7735L146.079 37.2363L143.157 44.5629L117.127 71.3239L112.368 79.3809L102.474 87.0838L99.5519 95.5172L85.2529 115.992L81.2022 121.481C82.0876 115.549 80.4939 109.108 69.9356 107.935C49.6602 105.677 54.4192 108.223 36.158 79.4031C26.3966 64.0194 30.5358 62.8906 21.9032 60.2565C13.2707 57.6225 5.39068 40.7336 2.00406 19.7277C-1.38256 -1.30029 5.76697 -4.66474 5.76697 -4.66474C5.76697 -4.66474 13.2707 -17.8127 3.88552 -33.1964C-5.49962 -48.5801 11.0129 -47.4512 11.0129 -47.4512C11.0129 -47.4512 33.3247 -38.8851 23.0321 -71.8437C17.4098 -89.8614 35.0513 -89.1088 35.0513 -89.1088L44.7684 -79.9451C44.7684 -79.9451 52.0065 -79.7237 55.9022 -78.8383C67.0802 -76.2707 73.4329 -83.0218 73.4329 -83.0218L81.158 -83.9514Z" fill="#284F51" stroke="#638283" strokeWidth="1.5"/>
<path d="M256.621 74.1337C264.679 56.0054 260.473 49.1879 262.62 33.4722C265.033 15.6316 268.663 21.3645 273.2 18.9518C277.738 16.5391 281.368 17.4466 283.183 12.2892C284.998 7.15395 291.041 5.62662 294.383 5.33887C297.704 5.02898 311.316 -1.01379 311.316 -1.01379C311.316 -1.01379 327.032 -7.36641 330.065 -21.5769C333.097 -35.7874 324.619 -39.4176 320.392 -40.635C316.164 -41.8524 310.409 -45.7703 307.996 -52.1229C305.584 -58.4756 301.334 -64.2306 301.334 -64.2306L284.401 -66.0457L277.14 -67.5509L271.098 -67.2409C271.098 -67.2409 243.695 -75.0324 240.552 -97.7869C238.36 -113.746 238.737 -115.628 238.737 -115.628L235.704 -118.948C235.704 -118.948 234.774 -126.075 236.191 -136.213C236.191 -136.213 225.124 -138.913 224.836 -126.208C224.526 -113.503 222.711 -102.612 222.711 -102.612C222.711 -102.612 223.021 -95.0422 214.233 -88.9994C205.446 -82.9566 201.218 -78.2641 201.218 -78.2641L194.268 -66.6212L188.513 -58.1436L184.573 -51.481L183.068 -41.1884C183.068 -41.1884 182.16 -39.2848 181.231 -37.3812C181.231 -32.8657 181.607 -26.4466 182.691 -17.3493C185.613 6.84404 172.797 13.8165 172.797 13.8165L146.036 37.2794L143.114 44.606L117.084 71.3669L112.325 79.4239L102.431 87.1268L99.509 95.5602L85.2099 116.035L81.1593 121.524C80.3403 126.992 77.3964 131.994 77.3964 131.994V139.874L81.1593 150.388L85.5862 147.444H95.4583L100.394 145.164H107.987L119.364 134.163H136.341C136.341 134.163 151.614 122.011 158.055 124.291C164.497 126.571 177.025 132.813 195.994 116.035C214.964 99.2567 232.65 80.3314 252.637 82.2129C253.832 80.0215 254.851 77.9852 255.758 76.0594C256.068 75.3733 256.356 74.7314 256.621 74.1337Z" fill="#284F51" stroke="#638283" strokeWidth="1.5"/>
<path d="M134.037 308.888C132.643 306.453 132.665 302.181 136.339 294.832C141.209 285.071 131.846 281.684 131.846 281.684L123.966 276.815C123.966 276.815 114.581 271.192 117.967 258.797C121.354 246.402 121.73 225.019 94.7038 227.454C67.6773 229.889 60.5499 218.622 60.5499 218.622L59.0447 204.744L53.7988 197.24L48.1766 193.854C48.1766 193.854 43.6832 188.608 49.6817 184.469C55.6802 180.329 65.4417 178.094 65.4417 178.094C65.4417 178.094 77.4608 173.6 75.5794 163.086C73.6979 152.572 81.2016 150.315 81.2016 150.315L85.6286 147.371H95.5007L100.437 145.091H108.029L119.406 134.09H136.384C136.384 134.09 151.657 121.938 158.098 124.218C164.539 126.498 177.067 132.74 196.037 115.961C215.006 99.1833 232.692 80.2581 252.68 82.1396C252.68 82.1396 254.76 85.2827 258.08 91.2812C261.423 97.2798 266.735 101.618 266.735 101.618L276.74 105.957C276.74 105.957 291.061 120.61 293.075 123.288C295.068 125.944 310.739 142.612 310.739 142.612L320.412 158.615V175.615V191.618C320.412 191.618 320.412 200.627 323.068 205.275C325.724 209.946 326.056 219.973 325.06 228.118C324.064 236.264 322.736 240.934 322.736 240.934L319.748 254.591L316.76 272.919C316.76 272.919 314.945 283.079 309.832 291.756C308.016 294.832 305.803 297.732 303.08 299.901C292.743 308.224 290.995 308.622 287.697 318.583C286.037 316.148 283.978 314.621 281.632 314.732C273.752 315.108 259.497 317.366 259.497 317.366C259.497 317.366 210.336 325.998 183.309 316.613C156.283 307.228 142.028 312.12 142.028 312.12C142.028 312.12 136.229 312.784 134.037 308.888Z" fill="#284F51" stroke="#638283" strokeWidth="1.5"/>
<path d="M508.321 314.314C508.542 314.402 508.764 314.491 508.985 314.579C519.322 318.586 517.308 296.584 517.308 296.584L520.65 289.921C530.655 270.93 543.316 295.256 543.316 295.256C559.319 288.261 553.985 304.929 553.985 304.929H557.991L558.988 299.262C558.988 299.262 558.656 293.596 562.529 281.267C566.403 268.937 573.663 274.604 573.995 287.929C574.327 301.254 581.985 293.264 588.493 281.267C594.979 269.27 614.656 258.601 614.656 258.601H630.66C630.66 258.601 637.986 258.269 642.325 266.259C646.663 274.25 651.666 272.922 651.666 272.922C651.666 272.922 658.328 268.915 661.671 280.58C665.013 292.245 666.009 301.232 668.997 303.578C671.985 305.903 672.34 313.251 672.34 313.251L682.012 317.922C682.012 317.922 685.023 329.255 700.34 330.915C715.679 332.575 725.662 332.243 723.006 346.918C720.35 361.571 718.668 363.918 718.668 363.918L714.329 371.576L710.655 378.903L707.999 384.237L693.921 391.719C693.921 391.719 693.744 391.808 693.589 391.896C693.611 389.351 693.722 385.721 694.01 380.563C695.006 363.232 682.344 364.56 679.356 362.568C676.346 360.575 658.373 364.228 651.024 367.57C643.675 370.912 640.023 371.244 635.02 370.226C630.018 369.208 625.015 373.569 617.689 375.229C610.362 376.889 593.695 373.237 593.695 373.237L562.573 370.315L546.703 370.226C546.703 370.226 539.044 372.55 525.719 352.231C512.394 331.911 490.392 338.573 490.392 338.573C490.392 338.573 486.386 341.23 465.734 343.886C445.082 346.52 443.4 327.573 443.732 311.259C444.064 294.924 456.393 277.26 456.393 277.26L483.043 291.249L485.035 295.92L496.7 306.257C496.656 306.235 498.56 310.374 508.321 314.314Z" fill="#FCFF45" stroke="#FCFF45" strokeWidth="1.25"/>
<g filter="url(#filter0_b_1030_17259)">
<rect x="546.685" y="312.552" width="60.8565" height="25.747" fill="white" fill-opacity="0.08"/>
<rect x="546.685" y="312.552" width="60.8565" height="25.747" fill="#325B5D" fill-opacity="0.16"/>
<rect x="547.185" y="313.052" width="59.8565" height="24.747" stroke="white" strokeOpacity="0.2"/>
<path d="M568.473 322.326H569.953L572.063 328.156L574.173 322.326H575.653V329.426H574.573V324.226L572.663 329.416H571.463L569.553 324.226V329.426H568.473V322.326ZM577.126 322.326H578.206V329.426H577.126V322.326ZM579.928 322.326H581.008V325.716L583.998 322.326H585.308L582.588 325.426L585.488 329.426H584.218L581.868 326.186L581.008 327.146V329.426H579.928V322.326Z" fill="#0E3E40"/>
</g>
<path d="M519.667 43.0302C519.247 43.3179 518.826 43.5835 518.383 43.827C518.428 43.9598 522.301 56.0011 520.641 62.2874C518.981 68.6179 513.802 77.9588 521.062 80.947C528.322 83.9351 533.988 83.6032 533.988 83.6032C533.988 83.6032 545.321 83.6031 538.659 98.9425C531.996 114.282 537.663 115.964 537.663 115.964C537.663 115.964 540.076 132.919 529.03 133.606C517.985 134.292 517.653 139.936 518.649 148.945C518.649 148.945 527.304 152.619 531.31 160.61C535.317 168.601 537.973 173.692 537.973 173.692L540.74 181.594L547.646 186.596C547.646 186.596 551.32 197.265 551.32 205.92C551.32 214.574 551.32 220.905 551.32 220.905C551.32 220.905 559.643 222.897 568.984 213.246C578.324 203.574 582.198 203.574 582.198 203.574C582.198 203.574 588.661 206.916 592.978 190.912C597.294 174.909 607.963 168.246 607.963 168.246C607.963 168.246 615.621 166.254 618.964 171.257C622.306 176.259 632.621 175.263 632.621 175.263C632.621 175.263 641.962 172.253 642.958 179.602C643.954 186.928 645.614 198.593 653.627 203.596L667.306 189.983C667.306 189.983 673.637 184.051 676.005 174.555C678.373 165.059 684.948 163.266 684.948 163.266C678.617 148.945 682.601 137.28 682.601 137.28C682.601 137.28 686.608 128.625 686.94 119.948C687.272 111.294 697.609 104.609 697.609 104.609C697.609 104.609 697.609 104.609 697.941 81.9431C698.273 59.2771 685.612 51.6184 681.273 45.9519C676.935 40.2854 671.954 28.3105 671.954 28.3105L656.194 31.3209C656.194 31.3209 637.048 41.8349 627.663 37.6957C618.278 33.5565 607.011 36.5668 607.011 36.5668C607.011 36.5668 589.746 41.0602 572.481 44.8231C555.216 48.586 551.076 36.1905 551.076 36.1905C551.076 36.1905 551.077 31.3208 545.078 27.5579C539.079 23.795 531.199 31.3208 523.674 39.5771C522.501 40.9052 521.15 42.0563 519.667 43.0302Z" fill="#284F51" stroke="#638283" strokeWidth="1.5"/>
<defs>
<filter id="filter0_b_1030_17259" x="480.685" y="246.552" width="192.856" height="157.747" filterUnits="userSpaceOnUse" color-interpolation-filters="sRGB">
<feFlood flood-opacity="0" result="BackgroundImageFix"/>
<feGaussianBlur in="BackgroundImageFix" stdDeviation="33"/>
<feComposite in2="SourceAlpha" operator="in" result="effect1_backgroundBlur_1030_17259"/>
<feBlend mode="normal" in="SourceGraphic" in2="effect1_backgroundBlur_1030_17259" result="shape"/>
</filter>
</defs>
</svg>
