<svg width="885" height="700" viewBox="0 0 885 700" fill="none" xmlns="http://www.w3.org/2000/svg">
<path d="M59.2225 -108.668C57.1197 -111.988 55.2382 -114.932 55.2382 -114.932L53.3568 -123.564L43.5954 -132.197L42.4665 -149.462L52.6042 -165.598L52.9805 -186.25C52.9805 -186.25 56.7434 -195.635 61.9893 -198.645C67.2353 -201.656 83.7699 -216.663 83.7699 -216.663L110.044 -233.928C110.044 -233.928 124.675 -239.927 122.439 -256.816C122.439 -256.816 113.807 -264.319 122.439 -275.962C131.072 -287.605 126.202 -279.725 126.202 -279.725L131.072 -294.732L137.823 -290.239H147.961C147.961 -290.239 147.208 -292.873 155.088 -288.734C162.968 -284.595 170.095 -283.112 170.095 -283.112L178.728 -275.984H192.607L208.366 -273.727C208.366 -273.727 215.118 -273.727 218.128 -266.223C221.138 -258.719 226.008 -249.71 226.008 -249.71V-237.691L215.87 -226.048L216.246 -215.534L213.612 -211.041V-196.41L232.006 -184.391C232.006 -184.391 239.51 -182.509 239.51 -171.619C239.51 -160.729 237.629 -159.6 237.629 -159.6L234.995 -135.584C234.995 -135.584 230.501 -114.179 230.125 -107.052C229.749 -99.9244 228.62 -93.1733 226.738 -90.9156C226.738 -90.9156 208.566 -86.6657 203.851 -86.9534C199.114 -87.2412 194.112 -85.559 190.769 -82.77C187.427 -79.981 182.425 -74.1375 176.847 -73.3185C171.291 -72.4773 167.107 -64.6859 167.107 -64.6859L156.261 -54.9466L152.366 -49.6564L149.577 -45.2073L144.286 -40.7582L141.232 -33.8079L138.443 -27.411C138.443 -27.411 136.495 -25.1754 140.103 -19.9073C143.711 -14.6171 146.876 -2.33228 145.659 -0.140961C141.475 7.42914 139.527 7.09711 139.527 7.09711L132.577 19.072C132.577 19.072 125.339 26.5757 126.18 36.3372C127.021 46.0764 126.114 47.4709 126.114 47.4709C126.114 47.4709 126.733 54.1556 113.94 61.106C101.146 68.0563 99.1979 70.2919 99.1979 70.2919L92.5132 72.2397L85.2751 75.582L73.3002 76.9765C73.3002 76.9765 66.9475 83.7055 55.7695 81.16C51.8737 80.2746 44.6357 80.0532 44.6357 80.0532L34.9185 70.8895L42.7985 61.8806L43.9274 52.1193L40.917 43.8629L43.9274 27.3505L42.4222 10.4616C42.4222 10.4616 42.0459 0.700165 39.7882 -1.93387C37.5304 -4.5679 36.7778 -15.4361 40.917 -20.3279C45.0562 -25.1975 51.4311 -31.9707 41.6696 -40.6033C31.9082 -49.2358 31.9082 -49.2358 31.9082 -49.2358C31.9082 -49.2358 33.4134 -62.7381 45.0562 -62.0076C56.6991 -61.255 73.9642 -60.8787 72.4591 -78.1438C70.9539 -95.4089 64.9554 -99.5481 64.9554 -99.5481C64.9554 -99.5481 61.9229 -104.418 59.2225 -108.668Z" fill="#284F51" stroke="#638283" stroke-width="1.5"/>
<path d="M765.147 657.769C764.97 652.147 764.549 646.458 763.597 645.197C761.605 642.541 760.941 635.192 760.587 628.529C760.255 621.867 751.932 617.196 751.932 617.196L745.934 608.874L744.606 601.879L742.613 592.206L745.27 585.544L742.613 576.203C742.613 576.203 752.286 571.2 745.956 561.217C739.625 551.212 750.626 547.56 750.626 547.56C750.626 547.56 756.293 536.227 747.638 527.573C738.983 518.918 747.638 505.571 747.638 505.571C747.638 505.571 752.973 498.244 745.314 489.899C737.655 481.554 743.986 471.572 748.656 468.561C753.327 465.551 761.317 460.571 761.317 460.571C761.317 460.571 768.312 459.907 770.326 450.566C772.318 441.225 775.661 437.905 770.99 431.574C766.32 425.244 771.986 416.589 773.314 412.25C774.642 407.912 776.48 405.012 770.658 391.267C769.33 388.124 768.002 371.943 768.002 371.943C791.996 374.267 792.992 358.286 792.992 358.286C792.992 358.286 805.343 358.994 813.644 355.298C832.613 346.842 829.979 341.973 816.632 334.646C803.285 327.319 816.632 316.982 816.632 316.982L848.617 297.659C872.611 297.659 869.269 272.337 869.269 272.337L875.931 251.353C894.591 222.024 917.921 233.357 917.921 233.357C917.921 233.357 944.239 247.347 960.242 236.346C976.246 225.345 991.231 234.685 991.231 234.685C991.231 234.685 1006.9 251.353 1022.88 264.988C1038.87 278.623 1054.2 276.343 1076.87 267.356C1099.54 258.37 1137.41 264.988 1137.41 264.988C1137.41 264.988 1131.79 269.481 1132.92 273.244C1134.04 277.007 1136.68 278.114 1133.67 287.499C1130.66 296.884 1140.8 300.271 1140.8 300.271C1140.8 300.271 1142.68 301.023 1142.68 320.922C1142.68 340.822 1144.2 351.336 1144.2 351.336C1144.2 351.336 1152.06 356.582 1153.19 367.472C1154.32 378.362 1152.81 376.857 1158.81 382.856C1164.81 388.854 1161.45 393.37 1161.45 393.37L1162.4 407.624C1162.4 407.624 1178.34 413.999 1173.47 427.147C1168.6 440.295 1163.71 432.393 1171.59 441.402C1179.47 450.411 1174.4 464.289 1174.4 464.289L1171.21 469.535C1171.21 469.535 1173.09 477.792 1164.08 487.177C1155.07 496.562 1156.58 498.443 1156.58 498.443C1156.58 498.443 1161.45 507.076 1124.31 508.581C1087.16 510.086 1074.77 506.699 1045.48 526.599C1016.2 546.498 1002.7 566.397 1002.7 566.397C1002.7 566.397 1001.19 572.772 984.679 580.275C968.167 587.779 960.287 596.035 960.287 596.035L948.644 607.678L925.004 630.566L918.629 639.198L917.5 644.444L910.749 647.831L884.475 673.352L851.826 713.15L843.946 722.159L828.186 734.931L819.642 743.896L821.657 710.937C821.657 710.937 816.654 699.936 807.003 698.608C797.331 697.28 794.01 698.608 794.01 698.608L779.689 689.267L765.368 670.275C765.257 670.187 765.346 664.011 765.147 657.769Z" fill="#284F51" stroke="#638283" stroke-width="1.5"/>
<path d="M1101.96 262.713C1120.14 261.916 1137.38 264.926 1137.38 264.926C1137.38 264.926 1147.52 257.046 1143 243.146C1138.49 229.245 1130.61 222.87 1120.87 215.743C1111.11 208.616 1097.98 190.222 1092.71 181.213C1087.47 172.204 1077.33 172.58 1077.33 172.58L1073.94 169.57L1061.17 162.819L1034.52 153.057L1018.76 145.177L1013.14 139.931L1000.37 128.665C1000.37 128.665 983.853 121.161 975.597 115.517C967.341 109.895 947.442 117.398 947.442 117.398C947.442 117.398 940.314 115.517 921.92 120.785C903.526 126.053 905.031 114.034 905.031 114.034C905.031 114.034 901.269 105.778 893.389 87.7598C885.509 69.7421 828.445 57.3467 828.445 57.3467L796.925 54.3364C796.925 54.3364 797.302 51.326 795.42 65.9792C793.539 80.6103 799.914 88.114 799.914 88.114C799.914 88.114 801.042 93.7362 807.041 111.001C813.039 128.266 814.921 119.634 807.041 135.018C799.161 150.401 778.133 146.66 778.133 146.66C778.133 146.66 722.951 141.414 707.567 160.539C685.698 187.743 671.908 183.803 671.908 183.803V188.34C671.908 188.34 676.889 200.315 681.227 205.982C685.565 211.648 698.226 219.307 697.894 241.973C697.562 264.639 697.562 264.639 697.562 264.639C697.562 264.639 687.225 271.301 686.893 279.978C686.561 288.633 682.555 297.31 682.555 297.31C682.555 297.31 678.571 308.975 684.901 323.296C696.898 315.637 711.884 319.289 711.884 319.289C738.534 319.953 736.542 328.298 736.542 328.298C736.542 328.298 736.874 341.955 746.215 343.97C755.555 345.984 749.889 356.631 749.889 356.631C748.893 367.3 743.89 369.624 767.885 371.97C791.879 374.294 792.875 358.313 792.875 358.313C792.875 358.313 805.226 359.021 813.526 355.325C832.496 346.869 829.862 342 816.515 334.673C803.167 327.346 816.515 317.009 816.515 317.009L848.499 297.686C872.493 297.686 869.151 272.364 869.151 272.364L875.814 251.38C894.473 222.051 917.803 233.384 917.803 233.384C917.803 233.384 944.121 247.374 960.125 236.373C976.128 225.372 991.114 234.712 991.114 234.712C991.114 234.712 1006.78 251.38 1022.77 265.015C1038.75 278.65 1054.09 276.37 1076.75 267.383C1084.21 264.373 1093.2 263.089 1101.96 262.713Z" fill="#284F51" stroke="#638283" stroke-width="1.5"/>
<path d="M743.809 580.499C743.189 578.307 742.591 576.204 742.591 576.204C742.591 576.204 752.264 571.202 745.933 561.219C739.603 551.214 750.604 547.562 750.604 547.562C750.604 547.562 756.27 536.229 747.616 527.574C738.961 518.92 747.616 505.572 747.616 505.572C747.616 505.572 752.95 498.246 745.291 489.901C737.633 481.556 743.963 471.573 748.634 468.563C753.304 465.553 761.295 460.572 761.295 460.572C761.295 460.572 768.29 459.908 770.304 450.568C772.296 441.227 775.638 437.907 770.968 431.576C766.297 425.245 771.964 416.591 773.292 412.252C774.62 407.914 776.457 405.014 770.636 391.269C769.308 388.125 767.98 371.945 767.98 371.945C743.986 369.621 748.988 367.274 749.984 356.606C749.984 356.606 755.651 345.937 746.31 343.944C736.969 341.952 736.637 328.273 736.637 328.273C736.637 328.273 738.629 319.95 711.979 319.264C711.979 319.264 696.993 315.59 684.996 323.271C684.996 323.271 678.422 325.064 676.054 334.559C673.686 344.055 667.355 349.987 667.355 349.987L653.676 363.6C653.676 363.6 646.349 369.931 644.003 381.109C641.657 392.287 638.004 397.931 638.004 397.931L630.678 418.583C630.678 418.583 638.004 418.251 642.343 426.242C646.681 434.232 651.684 432.904 651.684 432.904C651.684 432.904 658.346 428.898 661.689 440.563C665.031 452.228 666.027 461.214 669.015 463.561C672.003 465.885 672.358 473.234 672.358 473.234L682.03 477.904C682.03 477.904 685.041 489.237 700.358 490.897C715.697 492.557 725.68 492.225 723.024 506.901C720.368 521.554 718.686 523.9 718.686 523.9L714.347 531.559L710.673 538.885L708.017 544.22C708.017 544.22 694.116 551.613 693.607 551.878C693.695 556.062 694.072 557.855 694.072 557.855L690.685 565.867C690.685 565.867 687.476 592.075 687.144 604.205C689.6 608.189 698.344 606.529 698.344 606.529L709.013 599.534L716.339 608.875L720.014 607.215L725.016 605.555L729.023 607.547L738.031 608.875H746.022L744.694 601.881L742.702 592.208L745.358 585.545C745.247 585.545 744.517 582.956 743.809 580.499Z" fill="#284F51" stroke="#638283" stroke-width="1.5"/>
<path d="M245.127 -3.25843C249.753 -14.8128 243.91 -27.9829 239.505 -35.0439C235.1 -42.1049 234.945 -48.7675 234.945 -48.7675V-62.2033L238.487 -65.0587L240.125 -71.1679C240.125 -71.1679 244.065 -79.9996 244.109 -80.0882C247.894 -79.6898 253.494 -79.4684 258.718 -80.7743C267.727 -83.0321 291.367 -86.0203 291.367 -86.0203L326.273 -97.2869L346.549 -99.5446L374.704 -99.9209L381.832 -98.0395C381.832 -98.0395 392.722 -93.1698 396.086 -85.644C399.451 -78.1182 401.332 -66.4974 401.332 -66.4974C401.332 -66.4974 403.59 -56.3597 406.578 -51.8664C409.589 -47.373 411.448 -43.6101 412.953 -34.9775C414.458 -26.345 415.963 -15.831 415.963 -15.831C415.963 -15.831 415.587 -7.95102 412.2 -4.94069C408.814 -1.93037 406.202 8.56152 406.202 8.56152C406.202 8.56152 405.073 32.2014 379.175 44.9732C353.278 57.7449 348.386 59.6043 348.386 59.6043L342.011 63.3672C342.011 63.3672 336.367 65.4921 338.669 69.5207C338.647 69.5207 331.564 72.8187 331.564 72.8187L319.456 79.7691L316.136 84.3067L309.783 85.524L301.305 95.8168L284.372 94.0017L277.112 92.4965L271.069 92.8064C271.069 92.8064 243.666 85.015 240.523 62.2604C238.332 46.3013 238.708 44.4198 238.708 44.4198L235.676 41.0996C235.676 41.0996 234.746 33.9722 236.163 23.8345C237.247 15.9545 239.749 6.30379 245.127 -3.25843Z" fill="#284F51" stroke="#638283" stroke-width="1.5"/>
<path d="M252.643 242.175C252.643 242.175 254.723 245.318 258.043 251.317C261.386 257.315 266.698 261.653 266.698 261.653L276.703 265.992C276.703 265.992 291.024 280.645 293.039 283.323C295.031 285.98 310.702 302.647 310.702 302.647L320.375 318.65V335.65V351.653C320.375 351.653 320.375 360.662 323.031 365.311C325.687 369.981 326.019 380.008 325.023 388.154C324.027 396.299 322.699 400.97 322.699 400.97L319.711 414.627L316.723 432.954C316.723 432.954 314.908 443.114 309.795 451.791C317.188 447.652 320.043 458.963 322.721 467.285C325.377 475.608 322.721 493.604 322.721 498.274C322.721 512.042 337.374 496.282 337.374 496.282L342.709 490.947L349.703 486.941L355.038 475.608H360.372L369.027 463.943L384.012 447.276H390.343L396.673 440.281L402.672 438.621L421.132 430.962L419.339 422.64L414.669 416.973C414.669 416.973 410.995 410.975 409.003 407.986C407.01 404.976 405.66 385.32 407.674 376.666C409.667 368.011 407.674 368.011 405.682 364.005C403.69 359.998 408.006 352.672 408.006 352.672L404.332 337.686C404.332 337.686 399.662 322.015 400.99 312.032C402.318 302.027 408.98 295.697 408.98 295.697L412.655 287.042L419.981 276.085L421.641 269.378L423.966 261.056C423.966 261.056 424.298 249.723 427.95 240.072C431.602 230.399 424.298 217.738 424.298 217.738C424.298 217.738 424.962 216.41 415.975 186.749C406.988 157.089 441.452 164.415 441.452 164.415L439.194 155.407C439.194 155.407 433.196 149.032 433.948 143.387C434.701 137.765 422.682 139.625 422.682 139.625C422.682 139.625 420.048 138.496 417.037 135.131C414.027 131.745 411.792 136.636 415.909 120.876C420.048 105.116 411.415 91.5921 411.415 91.5921C411.415 91.5921 403.912 82.9595 394.903 92.721C385.894 102.482 385.518 97.5906 376.885 96.1076C368.252 94.6024 364.49 89.3565 364.49 89.3565C364.49 89.3565 351.718 79.5951 342.355 73.2203C340.385 71.8922 339.234 70.6969 338.636 69.6123C338.614 69.6123 331.531 72.9104 331.531 72.9104L319.423 79.8607L316.103 84.3983L309.75 85.6157L301.273 95.9084C301.273 95.9084 305.5 101.663 307.935 108.016C310.37 114.369 316.103 118.309 320.331 119.504C324.558 120.721 333.036 124.352 330.004 138.562C326.971 152.773 311.255 159.125 311.255 159.125C311.255 159.125 297.643 165.168 294.322 165.478C291.002 165.788 284.937 167.293 283.122 172.428C281.307 177.563 277.677 176.656 273.139 179.091C268.602 181.504 264.972 175.771 262.559 193.611C260.213 211.319 265.946 217.672 252.643 242.175Z" fill="#284F51" stroke="#638283" stroke-width="1.5"/>
<path d="M539.371 337.697C538.663 335.705 537.976 333.69 537.976 333.69C537.976 333.69 535.32 328.599 531.314 320.609C527.307 312.618 518.653 308.944 518.653 308.944C517.657 299.935 517.989 294.29 529.034 293.604C540.079 292.918 537.667 275.963 537.667 275.963C537.667 275.963 532 274.258 538.663 258.941C545.325 243.602 533.992 243.602 533.992 243.602C533.992 243.602 528.326 243.934 521.065 240.946C513.805 237.935 518.985 228.617 520.645 222.286C522.283 216.022 518.476 204.113 518.387 203.826C510.684 208.319 499.993 208.961 489.523 207.456C476.375 205.574 478.633 196.189 478.633 196.189C478.633 196.189 476.752 192.05 476.375 187.933C475.999 183.816 474.494 179.677 466.99 177.043C459.487 174.409 453.488 168.034 453.488 168.034L447.49 165.776L441.491 164.271C441.491 164.271 407.005 156.944 416.014 186.605C425.023 216.265 424.337 217.593 424.337 217.593C424.337 217.593 431.663 230.255 427.989 239.927C424.337 249.6 424.005 260.911 424.005 260.911L421.68 269.234L420.02 275.941L412.694 286.897L409.019 295.552C409.019 295.552 402.357 301.883 401.029 311.888C399.701 321.892 404.371 337.542 404.371 337.542L408.045 352.527C408.045 352.527 403.707 359.853 405.721 363.86C407.713 367.866 409.728 367.866 407.713 376.521C405.721 385.176 407.049 404.854 409.041 407.842C411.034 410.83 414.708 416.828 414.708 416.828L419.378 422.495L421.171 430.818C421.171 430.818 425.377 435.156 434.032 432.81C442.686 430.486 456.366 437.148 456.366 437.148L483.016 451.137L485.008 455.808L496.673 466.145C496.673 466.145 498.665 470.483 509.002 474.467C519.339 478.474 517.325 456.472 517.325 456.472L520.667 449.809C530.672 430.818 543.333 455.144 543.333 455.144C559.336 448.149 554.002 464.817 554.002 464.817H558.008L559.004 459.15C559.004 459.15 558.672 453.484 562.546 441.154C566.42 428.825 573.68 434.492 574.012 447.817C574.344 461.142 582.002 453.152 588.51 441.154C594.996 429.157 614.673 418.489 614.673 418.489H630.677L638.003 397.837C638.003 397.837 641.678 392.17 644.002 381.014C646.326 369.858 653.675 363.506 653.675 363.506C645.684 358.503 644.002 346.838 643.006 339.512C642.01 332.185 632.669 335.173 632.669 335.173C632.669 335.173 622.332 336.169 619.012 331.167C615.692 326.164 608.011 328.157 608.011 328.157C608.011 328.157 597.342 334.819 593.026 350.823C588.709 366.826 582.246 363.484 582.246 363.484C582.246 363.484 578.372 363.484 569.032 373.157C559.691 382.829 551.368 380.815 551.368 380.815C551.368 380.815 551.368 374.485 551.368 365.83C551.368 357.175 547.694 346.506 547.694 346.506L540.788 341.504C540.743 341.592 540.057 339.667 539.371 337.697Z" fill="#FCFF45" stroke="#FCFF45" stroke-width="1.25"/>
<g filter="url(#filter0_b_1030_17194)">
<rect x="442.922" y="332.985" width="60.8565" height="25.747" fill="white" fill-opacity="0.08"/>
<rect x="442.922" y="332.985" width="60.8565" height="25.747" fill="#325B5D" fill-opacity="0.16"/>
<rect x="443.422" y="333.485" width="59.8565" height="24.747" stroke="white" stroke-opacity="0.2"/>
<path d="M463.711 342.759H466.361C466.894 342.759 467.354 342.849 467.741 343.029C468.127 343.202 468.424 343.455 468.631 343.789C468.837 344.115 468.941 344.509 468.941 344.969C468.941 345.429 468.837 345.829 468.631 346.169C468.424 346.502 468.127 346.759 467.741 346.939C467.354 347.112 466.894 347.199 466.361 347.199H464.791V349.859H463.711V342.759ZM466.331 346.219C466.817 346.219 467.187 346.112 467.441 345.899C467.694 345.685 467.821 345.375 467.821 344.969C467.821 344.562 467.694 344.259 467.441 344.059C467.187 343.852 466.817 343.749 466.331 343.749H464.791V346.219H466.331ZM471.451 342.759H472.831L475.391 349.859H474.231L473.591 348.009H470.691L470.041 349.859H468.891L471.451 342.759ZM473.251 347.029L472.141 343.789L471.031 347.029H473.251ZM476.465 342.759H477.835L481.115 348.549V342.759H482.195V349.859H480.775L477.545 344.199V349.859H476.465V342.759Z" fill="#0E3E40"/>
</g>
<path d="M417.313 758.772C414.944 761.229 412.31 762.823 412.31 762.823C412.31 762.823 403.633 782.434 405.316 794.785C386.833 798.106 368.439 798.836 360.736 793.391C347.965 784.382 334.839 804.281 334.839 804.281L325.83 812.914L322.067 808.42L311.929 807.668C311.929 807.668 304.426 808.044 308.543 796.025C312.682 784.006 299.534 779.889 299.534 779.889C299.534 779.889 286.386 779.512 285.279 768.622C284.15 757.732 275.141 763 275.141 763C275.141 763 264.627 771.256 250.749 762.624C236.87 753.991 237.247 748.369 240.235 745.358C243.245 742.348 246.233 737.855 243.998 731.856C241.762 725.858 243.998 721.718 243.998 721.718C243.998 721.718 244.75 714.215 234.612 711.957C224.475 709.699 223.346 699.562 222.97 694.316C222.593 689.07 219.583 684.554 219.583 684.554L218.83 679.685L214.691 676.674L208.693 671.052L204.199 667.665C204.199 667.665 202.694 653.411 196.696 647.39C190.697 641.392 192.202 632.759 193.685 631.63C195.19 630.501 201.189 631.63 197.072 622.621C192.955 613.612 206.081 612.107 206.081 612.107C206.081 612.107 223.722 615.118 225.98 588.844C225.98 588.844 223.346 582.092 227.861 578.33C232.355 574.567 234.989 572.331 234.989 572.331L251.878 573.46C251.878 573.46 263.52 575.341 266.885 562.193C270.272 549.045 279.878 528.726 287.16 523.524C289.794 521.642 298.051 528.394 293.535 511.505C293.535 511.505 289.042 509.623 291.654 500.991C293.491 494.948 291.831 484.279 287.957 478.568C291.233 468.608 293.004 468.209 303.341 459.886C306.041 457.695 308.277 454.818 310.092 451.741C317.485 447.602 320.34 458.913 323.019 467.235C325.675 475.558 323.019 493.553 323.019 498.224C323.019 511.992 337.672 496.232 337.672 496.232L343.006 490.897L350.001 486.891L355.335 475.558H360.67L369.325 463.893L384.31 447.225H390.64L396.971 440.231L402.969 438.571L421.43 430.912C421.43 430.912 425.635 435.251 434.312 432.904C434.312 432.904 429.642 477.882 434.312 491.561L445.977 503.868C445.977 503.868 455.982 513.895 448.301 532.223C440.643 550.55 443.963 561.219 443.963 561.219C443.963 561.219 443.299 577.555 457.62 579.547C471.941 581.539 471.277 579.547 471.277 579.547C471.277 579.547 490.933 584.881 468.621 596.214C468.621 596.214 457.222 596.547 455.761 607.547L453.636 614.21L448.965 622.201L448.301 631.542L449.629 639.532L448.633 641.856L446.641 654.517C446.641 654.517 439.979 664.19 443.299 672.513C446.641 680.836 449.629 701.841 438.961 717.159C428.292 732.498 420.301 744.495 420.965 750.826C421.297 753.814 419.416 756.625 417.313 758.772Z" fill="#284F51" stroke="#638283" stroke-width="1.5"/>
<path d="M673.866 839.627C670.413 835.267 666.628 830.486 666.628 830.486L666.296 815.5L652.307 797.837L649.983 790.51L646.973 783.516L642.966 771.519L636.636 766.516L634.976 753.191L625.303 738.538L623.643 727.205L621.982 722.202L623.311 715.208L623.975 706.199L622.314 698.208L623.643 693.538L621.982 684.197L623.643 670.208C623.643 670.208 626.631 644.554 638.296 636.873C649.961 629.214 648.301 632.535 665.632 631.87C682.964 631.206 688.63 615.203 687.302 609.537C687.081 608.585 687.014 606.681 687.081 604.202C689.538 608.208 698.281 606.548 698.281 606.548L708.95 599.554L716.276 608.895L719.951 607.234L724.953 605.574L728.96 607.566L737.969 608.895H745.959L751.958 617.217C751.958 617.217 760.28 621.888 760.612 628.55C760.944 635.213 761.608 642.539 763.623 645.218C764.575 646.479 764.995 652.168 765.172 657.79C765.371 664.032 765.283 670.208 765.283 670.208L779.604 689.2L793.925 698.54C793.925 698.54 797.268 697.212 806.918 698.54C816.591 699.868 821.572 710.869 821.572 710.869L819.557 743.828C818.694 744.736 812.341 751.398 812.341 751.398L796.581 762.665L789.454 772.426L777.435 778.048L754.171 801.312L739.916 812.579L714.395 826.833L698.259 837.347L687.369 841.11L679.489 846.733C679.466 846.71 676.766 843.302 673.866 839.627Z" fill="#284F51" stroke="#638283" stroke-width="1.5"/>
<path d="M665.845 846.091C652.697 844.01 610.398 837.326 610.398 837.326C610.398 837.326 543.971 822.318 523.32 813.686C502.668 805.053 472.277 788.164 472.277 788.164C472.277 788.164 461.763 777.274 438.499 785.907C429.291 789.315 417.139 792.636 405.009 794.805C403.327 782.454 412.004 762.842 412.004 762.842C412.004 762.842 421.345 757.176 420.659 750.845C419.995 744.515 427.985 732.518 438.654 717.178C449.323 701.839 446.313 680.855 442.993 672.532C439.65 664.21 446.335 654.537 446.335 654.537L448.327 641.876L449.323 639.552L447.995 631.561L448.659 622.22L453.33 614.23L455.454 607.567C456.915 596.566 468.315 596.234 468.315 596.234C490.649 584.901 470.971 579.567 470.971 579.567C470.971 579.567 471.635 581.559 457.314 579.567C442.993 577.574 443.657 561.239 443.657 561.239C443.657 561.239 440.314 550.57 447.995 532.242C455.676 513.915 445.671 503.888 445.671 503.888L434.006 491.581C429.335 477.924 434.006 432.924 434.006 432.924C442.661 430.6 456.34 437.262 456.34 437.262C456.34 437.262 444.011 454.926 443.679 471.261C443.347 487.597 445.007 506.544 465.681 503.888C486.332 501.254 490.339 498.575 490.339 498.575C490.339 498.575 512.341 491.913 525.666 512.233C538.991 532.552 546.65 530.228 546.65 530.228L562.52 530.317L593.642 533.239C593.642 533.239 610.309 536.913 617.636 535.231C624.962 533.571 629.965 529.232 634.967 530.228C639.97 531.224 643.622 530.892 650.971 527.572C658.32 524.252 676.293 520.577 679.303 522.57C682.314 524.562 694.975 523.234 693.957 540.565C692.96 557.897 694.023 557.874 694.023 557.874L690.636 565.887C690.636 565.887 685.966 603.87 687.294 609.537C688.622 615.203 682.956 631.207 665.624 631.871C648.292 632.535 649.953 629.215 638.288 636.873C626.623 644.532 623.634 670.208 623.634 670.208L621.974 684.198L623.634 693.538L622.306 698.209L623.966 706.2L623.302 715.208L621.974 722.203L623.634 727.205L625.294 738.538L634.967 753.192L636.627 766.517L642.958 771.519L646.964 783.516L649.975 790.511L652.299 797.837L666.288 815.501L666.62 830.486L679.48 846.711H669.719C669.697 846.711 668.258 846.49 665.845 846.091Z" fill="#284F51" stroke="#638283" stroke-width="1.5"/>
<path d="M81.158 76.0486L86.3154 85.1902L88.4403 91.8528C88.4403 91.8528 82.9951 99.4229 81.2686 106.971C76.7089 126.826 101.146 124.214 101.146 124.214C101.146 124.214 117.171 126.339 119.894 137.76C122.616 149.204 132.001 144.157 136.827 132.05C141.652 119.942 151.347 134.484 151.347 134.484C165.27 142.652 171.003 132.979 171.003 132.979L179.481 126.317C179.481 126.317 181.251 122.62 181.273 122.576C181.273 127.091 181.65 133.51 182.734 142.608C185.656 166.801 172.84 173.774 172.84 173.774L146.079 197.236L143.157 204.563L117.127 231.324L112.368 239.381L102.474 247.084L99.5519 255.517L85.2529 275.992L81.2022 281.481C82.0876 275.549 80.4939 269.108 69.9356 267.935C49.6602 265.677 54.4192 268.223 36.158 239.403C26.3966 224.019 30.5358 222.891 21.9032 220.257C13.2707 217.622 5.39068 200.734 2.00406 179.728C-1.38256 158.7 5.76697 155.335 5.76697 155.335C5.76697 155.335 13.2707 142.187 3.88552 126.804C-5.49962 111.42 11.0129 112.549 11.0129 112.549C11.0129 112.549 33.3247 121.115 23.0321 88.1563C17.4098 70.1386 35.0513 70.8912 35.0513 70.8912L44.7684 80.0549C44.7684 80.0549 52.0065 80.2763 55.9022 81.1617C67.0802 83.7293 73.4329 76.9782 73.4329 76.9782L81.158 76.0486Z" fill="#284F51" stroke="#638283" stroke-width="1.5"/>
<path d="M256.621 234.134C264.679 216.005 260.473 209.188 262.62 193.472C265.033 175.632 268.663 181.364 273.2 178.952C277.738 176.539 281.368 177.447 283.183 172.289C284.998 167.154 291.041 165.627 294.383 165.339C297.704 165.029 311.316 158.986 311.316 158.986C311.316 158.986 327.032 152.634 330.065 138.423C333.097 124.213 324.619 120.582 320.392 119.365C316.164 118.148 310.409 114.23 307.996 107.877C305.584 101.524 301.334 95.7694 301.334 95.7694L284.401 93.9543L277.14 92.4491L271.098 92.7591C271.098 92.7591 243.695 84.9676 240.552 62.2131C238.36 46.2539 238.737 44.3725 238.737 44.3725L235.704 41.0523C235.704 41.0523 234.774 33.9249 236.191 23.7872C236.191 23.7872 225.124 21.0867 224.836 33.792C224.526 46.4974 222.711 57.3877 222.711 57.3877C222.711 57.3877 223.021 64.9578 214.233 71.0006C205.446 77.0434 201.218 81.7359 201.218 81.7359L194.268 93.3788L188.513 101.856L184.573 108.519L183.068 118.812C183.068 118.812 182.16 120.715 181.231 122.619C181.231 127.134 181.607 133.553 182.691 142.651C185.613 166.844 172.797 173.817 172.797 173.817L146.036 197.279L143.114 204.606L117.084 231.367L112.325 239.424L102.431 247.127L99.509 255.56L85.2099 276.035L81.1593 281.524C80.3403 286.992 77.3964 291.994 77.3964 291.994V299.874L81.1593 310.388L85.5862 307.444H95.4583L100.394 305.164H107.987L119.364 294.163H136.341C136.341 294.163 151.614 282.011 158.055 284.291C164.497 286.571 177.025 292.813 195.994 276.035C214.964 259.257 232.65 240.331 252.637 242.213C253.832 240.022 254.851 237.985 255.758 236.059C256.068 235.373 256.356 234.731 256.621 234.134Z" fill="#284F51" stroke="#638283" stroke-width="1.5"/>
<path d="M134.037 468.888C132.643 466.453 132.665 462.181 136.339 454.832C141.209 445.071 131.846 441.684 131.846 441.684L123.966 436.815C123.966 436.815 114.581 431.192 117.967 418.797C121.354 406.402 121.73 385.019 94.7038 387.454C67.6773 389.889 60.5499 378.622 60.5499 378.622L59.0447 364.744L53.7988 357.24L48.1766 353.854C48.1766 353.854 43.6832 348.608 49.6817 344.469C55.6802 340.329 65.4417 338.094 65.4417 338.094C65.4417 338.094 77.4608 333.6 75.5794 323.086C73.6979 312.572 81.2016 310.315 81.2016 310.315L85.6286 307.371H95.5007L100.437 305.091H108.029L119.406 294.09H136.384C136.384 294.09 151.657 281.938 158.098 284.218C164.539 286.498 177.067 292.74 196.037 275.961C215.006 259.183 232.692 240.258 252.68 242.14C252.68 242.14 254.76 245.283 258.08 251.281C261.423 257.28 266.735 261.618 266.735 261.618L276.74 265.957C276.74 265.957 291.061 280.61 293.075 283.288C295.068 285.944 310.739 302.612 310.739 302.612L320.412 318.615V335.615V351.618C320.412 351.618 320.412 360.627 323.068 365.275C325.724 369.946 326.056 379.973 325.06 388.118C324.064 396.264 322.736 400.934 322.736 400.934L319.748 414.591L316.76 432.919C316.76 432.919 314.945 443.079 309.832 451.756C308.016 454.832 305.803 457.732 303.08 459.901C292.743 468.224 290.995 468.622 287.697 478.583C286.037 476.148 283.978 474.621 281.632 474.732C273.752 475.108 259.497 477.366 259.497 477.366C259.497 477.366 210.336 485.998 183.309 476.613C156.283 467.228 142.028 472.12 142.028 472.12C142.028 472.12 136.229 472.784 134.037 468.888Z" fill="#284F51" stroke="#638283" stroke-width="1.5"/>
<path d="M81.1533 76.0464L85.3368 75.5594L92.5748 72.2171L99.2595 70.2692C99.2595 70.2692 101.207 68.0336 114.001 61.0833C126.795 54.133 126.175 47.4483 126.175 47.4483C126.175 47.4483 127.083 46.0538 126.242 36.3145C125.401 26.5752 132.639 19.0494 132.639 19.0494L139.589 7.0745C139.589 7.0745 141.537 7.40651 145.72 -0.163574C146.938 -2.35491 143.773 -14.6397 140.165 -19.9299C138.881 -21.7892 138.305 -23.2723 138.084 -24.4011L143.529 -19.8635C143.529 -19.8635 156.301 -9.54872 157.651 -2.48773C160.197 10.7489 172.039 7.82708 172.039 7.82708C172.039 7.82708 173.522 7.14091 182.353 6.8753C191.185 6.60968 193.62 1.71789 199.729 -0.185696C205.838 -2.08928 209.646 1.29734 214.405 5.39227C219.164 9.46507 224.321 9.86346 230.032 10.5496C234.304 11.0587 238.044 9.50931 241.586 3.84281C238.554 10.9702 236.96 17.8541 236.141 23.742C236.141 23.742 225.073 21.0415 224.786 33.7469C224.476 46.4522 222.661 57.3425 222.661 57.3425C222.661 57.3425 222.971 64.9126 214.183 70.9554C205.396 76.9982 201.168 81.6908 201.168 81.6908L194.218 93.3336L188.463 101.811L184.523 108.474L183.017 118.766L179.387 126.337L170.91 132.999C170.91 132.999 165.155 142.672 151.254 134.504C151.254 134.504 141.581 119.94 136.734 132.069C131.886 144.199 122.523 149.224 119.801 137.78C117.078 126.337 101.052 124.234 101.052 124.234C101.052 124.234 76.5936 126.846 81.1754 106.991C82.9241 99.4207 88.3471 91.8728 88.3471 91.8728L86.2222 85.2102L81.1533 76.0464Z" fill="#284F51" stroke="#638283" stroke-width="1.5"/>
<path d="M508.321 474.314C508.542 474.402 508.764 474.491 508.985 474.579C519.322 478.586 517.308 456.584 517.308 456.584L520.65 449.921C530.655 430.93 543.316 455.256 543.316 455.256C559.319 448.261 553.985 464.929 553.985 464.929H557.991L558.988 459.262C558.988 459.262 558.656 453.596 562.529 441.267C566.403 428.937 573.663 434.604 573.995 447.929C574.327 461.254 581.985 453.264 588.493 441.267C594.979 429.27 614.656 418.601 614.656 418.601H630.66C630.66 418.601 637.986 418.269 642.325 426.259C646.663 434.25 651.666 432.922 651.666 432.922C651.666 432.922 658.328 428.915 661.671 440.58C665.013 452.245 666.009 461.232 668.997 463.578C671.985 465.903 672.34 473.251 672.34 473.251L682.012 477.922C682.012 477.922 685.023 489.255 700.34 490.915C715.679 492.575 725.662 492.243 723.006 506.918C720.35 521.571 718.668 523.918 718.668 523.918L714.329 531.576L710.655 538.903L707.999 544.237L693.921 551.719C693.921 551.719 693.744 551.808 693.589 551.896C693.611 549.351 693.722 545.721 694.01 540.563C695.006 523.232 682.344 524.56 679.356 522.568C676.346 520.575 658.373 524.228 651.024 527.57C643.675 530.912 640.023 531.244 635.02 530.226C630.018 529.208 625.015 533.569 617.689 535.229C610.362 536.889 593.695 533.237 593.695 533.237L562.573 530.315L546.703 530.226C546.703 530.226 539.044 532.55 525.719 512.231C512.394 491.911 490.392 498.573 490.392 498.573C490.392 498.573 486.386 501.23 465.734 503.886C445.082 506.52 443.4 487.573 443.732 471.259C444.064 454.924 456.393 437.26 456.393 437.26L483.043 451.249L485.035 455.92L496.7 466.257C496.656 466.235 498.56 470.374 508.321 474.314Z" fill="#284F51" stroke="#638283" stroke-width="1.5"/>
<path d="M519.667 203.03C519.247 203.318 518.826 203.584 518.383 203.827C518.428 203.96 522.301 216.001 520.641 222.287C518.981 228.618 513.802 237.959 521.062 240.947C528.322 243.935 533.988 243.603 533.988 243.603C533.988 243.603 545.321 243.603 538.659 258.943C531.996 274.282 537.663 275.964 537.663 275.964C537.663 275.964 540.076 292.919 529.03 293.606C517.985 294.292 517.653 299.936 518.649 308.945C518.649 308.945 527.304 312.619 531.31 320.61C535.317 328.601 537.973 333.692 537.973 333.692L540.74 341.594L547.646 346.596C547.646 346.596 551.32 357.265 551.32 365.92C551.32 374.574 551.32 380.905 551.32 380.905C551.32 380.905 559.643 382.897 568.984 373.246C578.324 363.574 582.198 363.574 582.198 363.574C582.198 363.574 588.661 366.916 592.978 350.912C597.294 334.909 607.963 328.246 607.963 328.246C607.963 328.246 615.621 326.254 618.964 331.257C622.306 336.259 632.621 335.263 632.621 335.263C632.621 335.263 641.962 332.253 642.958 339.602C643.954 346.928 645.614 358.593 653.627 363.596L667.306 349.983C667.306 349.983 673.637 344.051 676.005 334.555C678.373 325.059 684.948 323.266 684.948 323.266C678.617 308.945 682.601 297.28 682.601 297.28C682.601 297.28 686.608 288.625 686.94 279.948C687.272 271.294 697.609 264.609 697.609 264.609C697.609 264.609 697.609 264.609 697.941 241.943C698.273 219.277 685.612 211.618 681.273 205.952C676.935 200.285 671.954 188.311 671.954 188.311L656.194 191.321C656.194 191.321 637.048 201.835 627.663 197.696C618.278 193.556 607.011 196.567 607.011 196.567C607.011 196.567 589.746 201.06 572.481 204.823C555.216 208.586 551.076 196.19 551.076 196.19C551.076 196.19 551.077 191.321 545.078 187.558C539.079 183.795 531.199 191.321 523.674 199.577C522.501 200.905 521.15 202.056 519.667 203.03Z" fill="#284F51" stroke="#638283" stroke-width="1.5"/>
<path d="M181.909 6.93717C173.498 7.22492 172.059 7.86683 172.059 7.86683C172.059 7.86683 160.217 10.7886 157.672 -2.44798C156.321 -9.50896 143.55 -19.8237 143.55 -19.8237L138.104 -24.3614C137.684 -26.4642 138.503 -27.3939 138.503 -27.3939L141.292 -33.7908L144.346 -40.7411L149.637 -45.1902L152.426 -49.6393L156.321 -54.9295L167.167 -64.6688C167.167 -64.6688 171.351 -72.4602 176.907 -73.3013C182.463 -74.1424 187.487 -79.986 190.829 -82.7529C194.172 -85.5418 199.174 -87.2019 203.911 -86.9363C208.648 -86.6486 226.798 -90.8984 226.798 -90.8984L239.57 -80.7607L244.108 -80.0745C244.086 -80.0081 240.124 -71.1542 240.124 -71.1542L238.486 -65.0451L234.944 -62.1897V-48.7539C234.944 -48.7539 235.121 -42.0913 239.504 -35.0303C243.886 -27.9694 249.73 -14.7992 245.126 -3.24483C240.5 8.30951 235.763 11.2977 230.052 10.6115C224.341 9.92537 219.184 9.52694 214.425 5.45415C209.666 1.38136 205.859 -2.00527 199.75 -0.123817C193.641 1.77977 191.184 6.67155 182.374 6.93717C182.219 6.91504 182.064 6.93717 181.909 6.93717Z" fill="#284F51" stroke="#638283" stroke-width="1.5"/>
<defs>
<filter id="filter0_b_1030_17194" x="376.922" y="266.985" width="192.857" height="157.747" filterUnits="userSpaceOnUse" color-interpolation-filters="sRGB">
<feFlood flood-opacity="0" result="BackgroundImageFix"/>
<feGaussianBlur in="BackgroundImageFix" stdDeviation="33"/>
<feComposite in2="SourceAlpha" operator="in" result="effect1_backgroundBlur_1030_17194"/>
<feBlend mode="normal" in="SourceGraphic" in2="effect1_backgroundBlur_1030_17194" result="shape"/>
</filter>
</defs>
</svg>
