<svg width="444" height="700" viewBox="0 0 444 700" fill="none" xmlns="http://www.w3.org/2000/svg">
<path d="M59.2225 34.3324C57.1197 31.0121 55.2382 28.0682 55.2382 28.0682L53.3568 19.4356L43.5954 10.8031L42.4665 -6.46202L52.6042 -22.5982L52.9805 -43.25C52.9805 -43.25 56.7434 -52.6351 61.9893 -55.6454C67.2353 -58.6558 83.7699 -73.6631 83.7699 -73.6631L110.044 -90.9282C110.044 -90.9282 124.675 -96.9268 122.439 -113.816C122.439 -113.816 113.807 -121.319 122.439 -132.962C131.072 -144.605 126.202 -136.725 126.202 -136.725L131.072 -151.732L137.823 -147.239H147.961C147.961 -147.239 147.208 -149.873 155.088 -145.734C162.968 -141.595 170.095 -140.112 170.095 -140.112L178.728 -132.984H192.607L208.366 -130.727C208.366 -130.727 215.118 -130.727 218.128 -123.223C221.138 -115.719 226.008 -106.71 226.008 -106.71V-94.6912L215.87 -83.0483L216.246 -72.5343L213.612 -68.0409V-53.4099L232.006 -41.3907C232.006 -41.3907 239.51 -39.5092 239.51 -28.6189C239.51 -17.7286 237.629 -16.5997 237.629 -16.5997L234.995 7.41649C234.995 7.41649 230.501 28.8208 230.125 35.9482C229.749 43.0756 228.62 49.8267 226.738 52.0844C226.738 52.0844 208.566 56.3343 203.851 56.0466C199.114 55.7588 194.112 57.441 190.769 60.23C187.427 63.019 182.425 68.8625 176.847 69.6815C171.291 70.5227 167.107 78.3141 167.107 78.3141L156.261 88.0534L152.366 93.3436L149.577 97.7927L144.286 102.242L141.232 109.192L138.443 115.589C138.443 115.589 136.495 117.825 140.103 123.093C143.711 128.383 146.876 140.668 145.659 142.859C141.475 150.429 139.527 150.097 139.527 150.097L132.577 162.072C132.577 162.072 125.339 169.576 126.18 179.337C127.021 189.076 126.114 190.471 126.114 190.471C126.114 190.471 126.733 197.156 113.94 204.106C101.146 211.056 99.1979 213.292 99.1979 213.292L92.5132 215.24L85.2751 218.582L73.3002 219.977C73.3002 219.977 66.9475 226.705 55.7695 224.16C51.8737 223.275 44.6357 223.053 44.6357 223.053L34.9185 213.889L42.7985 204.881L43.9274 195.119L40.917 186.863L43.9274 170.35L42.4222 153.462C42.4222 153.462 42.0459 143.7 39.7882 141.066C37.5304 138.432 36.7778 127.564 40.917 122.672C45.0562 117.802 51.4311 111.029 41.6696 102.397C31.9082 93.7642 31.9082 93.7642 31.9082 93.7642C31.9082 93.7642 33.4134 80.2619 45.0562 80.9924C56.6991 81.745 73.9642 82.1213 72.4591 64.8562C70.9539 47.5911 64.9554 43.4519 64.9554 43.4519C64.9554 43.4519 61.9229 38.5822 59.2225 34.3324Z" fill="#284F51" stroke="#638283" stroke-width="1.5"/>
<path d="M245.127 139.742C249.753 128.187 243.91 115.017 239.505 107.956C235.1 100.895 234.945 94.2325 234.945 94.2325V80.7967L238.487 77.9413L240.125 71.8321C240.125 71.8321 244.065 63.0004 244.109 62.9118C247.894 63.3102 253.494 63.5316 258.718 62.2257C267.727 59.9679 291.367 56.9797 291.367 56.9797L326.273 45.7131L346.549 43.4554L374.704 43.0791L381.832 44.9605C381.832 44.9605 392.722 49.8302 396.086 57.356C399.451 64.8818 401.332 76.5026 401.332 76.5026C401.332 76.5026 403.59 86.6403 406.578 91.1336C409.589 95.627 411.448 99.3899 412.953 108.022C414.458 116.655 415.963 127.169 415.963 127.169C415.963 127.169 415.587 135.049 412.2 138.059C408.814 141.07 406.202 151.562 406.202 151.562C406.202 151.562 405.073 175.201 379.175 187.973C353.278 200.745 348.386 202.604 348.386 202.604L342.011 206.367C342.011 206.367 336.367 208.492 338.669 212.521C338.647 212.521 331.564 215.819 331.564 215.819L319.456 222.769L316.136 227.307L309.783 228.524L301.305 238.817L284.372 237.002L277.112 235.497L271.069 235.806C271.069 235.806 243.666 228.015 240.523 205.26C238.332 189.301 238.708 187.42 238.708 187.42L235.676 184.1C235.676 184.1 234.746 176.972 236.163 166.834C237.247 158.955 239.749 149.304 245.127 139.742Z" fill="#284F51" stroke="#638283" stroke-width="1.5"/>
<path d="M252.643 385.175C252.643 385.175 254.723 388.318 258.043 394.317C261.386 400.315 266.698 404.653 266.698 404.653L276.703 408.992C276.703 408.992 291.024 423.645 293.039 426.323C295.031 428.98 310.702 445.647 310.702 445.647L320.375 461.65V478.65V494.653C320.375 494.653 320.375 503.662 323.031 508.311C325.687 512.981 326.019 523.008 325.023 531.154C324.027 539.299 322.699 543.97 322.699 543.97L319.711 557.627L316.723 575.954C316.723 575.954 314.908 586.114 309.795 594.791C317.188 590.652 320.043 601.963 322.721 610.285C325.377 618.608 322.721 636.604 322.721 641.274C322.721 655.042 337.374 639.282 337.374 639.282L342.709 633.947L349.703 629.941L355.038 618.608H360.372L369.027 606.943L384.012 590.276H390.343L396.673 583.281L402.672 581.621L421.132 573.962L419.339 565.64L414.669 559.973C414.669 559.973 410.995 553.975 409.003 550.986C407.01 547.976 405.66 528.32 407.674 519.666C409.667 511.011 407.674 511.011 405.682 507.005C403.69 502.998 408.006 495.672 408.006 495.672L404.332 480.686C404.332 480.686 399.662 465.015 400.99 455.032C402.318 445.027 408.98 438.697 408.98 438.697L412.655 430.042L419.981 419.085L421.641 412.378L423.966 404.056C423.966 404.056 424.298 392.723 427.95 383.072C431.602 373.399 424.298 360.738 424.298 360.738C424.298 360.738 424.962 359.41 415.975 329.749C406.988 300.089 441.452 307.415 441.452 307.415L439.194 298.407C439.194 298.407 433.196 292.032 433.948 286.387C434.701 280.765 422.682 282.625 422.682 282.625C422.682 282.625 420.048 281.496 417.037 278.131C414.027 274.745 411.792 279.636 415.909 263.876C420.048 248.116 411.415 234.592 411.415 234.592C411.415 234.592 403.912 225.96 394.903 235.721C385.894 245.482 385.518 240.591 376.885 239.108C368.252 237.602 364.49 232.357 364.49 232.357C364.49 232.357 351.718 222.595 342.355 216.22C340.385 214.892 339.234 213.697 338.636 212.612C338.614 212.612 331.531 215.91 331.531 215.91L319.423 222.861L316.103 227.398L309.75 228.616L301.273 238.908C301.273 238.908 305.5 244.663 307.935 251.016C310.37 257.369 316.103 261.309 320.331 262.504C324.558 263.721 333.036 267.352 330.004 281.562C326.971 295.773 311.255 302.125 311.255 302.125C311.255 302.125 297.643 308.168 294.322 308.478C291.002 308.788 284.937 310.293 283.122 315.428C281.307 320.563 277.677 319.656 273.139 322.091C268.602 324.504 264.972 318.771 262.559 336.611C260.213 354.319 265.946 360.672 252.643 385.175Z" fill="#284F51" stroke="#638283" stroke-width="1.5"/>
<path d="M539.371 480.697C538.663 478.705 537.976 476.69 537.976 476.69C537.976 476.69 535.32 471.599 531.314 463.609C527.307 455.618 518.653 451.944 518.653 451.944C517.657 442.935 517.989 437.29 529.034 436.604C540.079 435.918 537.667 418.963 537.667 418.963C537.667 418.963 532 417.258 538.663 401.941C545.325 386.602 533.992 386.602 533.992 386.602C533.992 386.602 528.326 386.934 521.065 383.946C513.805 380.935 518.985 371.617 520.645 365.286C522.283 359.022 518.476 347.113 518.387 346.826C510.684 351.319 499.993 351.961 489.523 350.456C476.375 348.574 478.633 339.189 478.633 339.189C478.633 339.189 476.752 335.05 476.375 330.933C475.999 326.816 474.494 322.677 466.99 320.043C459.487 317.409 453.488 311.034 453.488 311.034L447.49 308.776L441.491 307.271C441.491 307.271 407.005 299.944 416.014 329.605C425.023 359.265 424.337 360.593 424.337 360.593C424.337 360.593 431.663 373.255 427.989 382.927C424.337 392.6 424.005 403.911 424.005 403.911L421.68 412.234L420.02 418.941L412.694 429.897L409.019 438.552C409.019 438.552 402.357 444.883 401.029 454.888C399.701 464.892 404.371 480.542 404.371 480.542L408.045 495.527C408.045 495.527 403.707 502.853 405.721 506.86C407.713 510.866 409.728 510.866 407.713 519.521C405.721 528.176 407.049 547.854 409.041 550.842C411.034 553.83 414.708 559.828 414.708 559.828L419.378 565.495L421.171 573.818C421.171 573.818 425.377 578.156 434.032 575.81C442.686 573.486 456.366 580.148 456.366 580.148L483.016 594.137L485.008 598.808L496.673 609.145C496.673 609.145 498.665 613.483 509.002 617.467C519.339 621.474 517.325 599.472 517.325 599.472L520.667 592.809C530.672 573.818 543.333 598.144 543.333 598.144C559.336 591.149 554.002 607.817 554.002 607.817H558.008L559.004 602.15C559.004 602.15 558.672 596.484 562.546 584.154C566.42 571.825 573.68 577.492 574.012 590.817C574.344 604.142 582.002 596.152 588.51 584.154C594.996 572.157 614.673 561.489 614.673 561.489H630.677L638.003 540.837C638.003 540.837 641.678 535.17 644.002 524.014C646.326 512.858 653.675 506.506 653.675 506.506C645.684 501.503 644.002 489.838 643.006 482.512C642.01 475.185 632.669 478.173 632.669 478.173C632.669 478.173 622.332 479.169 619.012 474.167C615.692 469.164 608.011 471.157 608.011 471.157C608.011 471.157 597.342 477.819 593.026 493.823C588.709 509.826 582.246 506.484 582.246 506.484C582.246 506.484 578.372 506.484 569.032 516.157C559.691 525.829 551.368 523.815 551.368 523.815C551.368 523.815 551.368 517.485 551.368 508.83C551.368 500.175 547.694 489.506 547.694 489.506L540.788 484.504C540.743 484.592 540.057 482.667 539.371 480.697Z" fill="#284F51" stroke="#638283" stroke-width="1.5"/>
<path d="M417.313 901.772C414.944 904.229 412.31 905.823 412.31 905.823C412.31 905.823 403.633 925.434 405.316 937.785C386.833 941.106 368.439 941.836 360.736 936.391C347.965 927.382 334.839 947.281 334.839 947.281L325.83 955.914L322.067 951.42L311.929 950.668C311.929 950.668 304.426 951.044 308.543 939.025C312.682 927.006 299.534 922.889 299.534 922.889C299.534 922.889 286.386 922.512 285.279 911.622C284.15 900.732 275.141 906 275.141 906C275.141 906 264.627 914.256 250.749 905.624C236.87 896.991 237.247 891.369 240.235 888.358C243.245 885.348 246.233 880.855 243.998 874.856C241.762 868.858 243.998 864.718 243.998 864.718C243.998 864.718 244.75 857.215 234.612 854.957C224.475 852.699 223.346 842.562 222.97 837.316C222.593 832.07 219.583 827.554 219.583 827.554L218.83 822.685L214.691 819.674L208.693 814.052L204.199 810.665C204.199 810.665 202.694 796.411 196.696 790.39C190.697 784.392 192.202 775.759 193.685 774.63C195.19 773.501 201.189 774.63 197.072 765.621C192.955 756.612 206.081 755.107 206.081 755.107C206.081 755.107 223.722 758.118 225.98 731.844C225.98 731.844 223.346 725.092 227.861 721.33C232.355 717.567 234.989 715.331 234.989 715.331L251.878 716.46C251.878 716.46 263.52 718.341 266.885 705.193C270.272 692.045 279.878 671.726 287.16 666.524C289.794 664.642 298.051 671.394 293.535 654.505C293.535 654.505 289.042 652.623 291.654 643.991C293.491 637.948 291.831 627.279 287.957 621.568C291.233 611.608 293.004 611.209 303.341 602.886C306.041 600.695 308.277 597.818 310.092 594.741C317.485 590.602 320.34 601.913 323.019 610.235C325.675 618.558 323.019 636.553 323.019 641.224C323.019 654.992 337.672 639.232 337.672 639.232L343.006 633.897L350.001 629.891L355.335 618.558H360.67L369.325 606.893L384.31 590.225H390.64L396.971 583.231L402.969 581.571L421.43 573.912C421.43 573.912 425.635 578.251 434.312 575.904C434.312 575.904 429.642 620.882 434.312 634.561L445.977 646.868C445.977 646.868 455.982 656.895 448.301 675.223C440.643 693.55 443.963 704.219 443.963 704.219C443.963 704.219 443.299 720.555 457.62 722.547C471.941 724.539 471.277 722.547 471.277 722.547C471.277 722.547 490.933 727.881 468.621 739.214C468.621 739.214 457.222 739.547 455.761 750.547L453.636 757.21L448.965 765.201L448.301 774.542L449.629 782.532L448.633 784.856L446.641 797.517C446.641 797.517 439.979 807.19 443.299 815.513C446.641 823.836 449.629 844.841 438.961 860.159C428.292 875.498 420.301 887.495 420.965 893.826C421.297 896.814 419.416 899.625 417.313 901.772Z" fill="#284F51" stroke="#638283" stroke-width="1.5"/>
<path d="M665.845 989.091C652.697 987.01 610.398 980.326 610.398 980.326C610.398 980.326 543.971 965.318 523.32 956.686C502.668 948.053 472.277 931.164 472.277 931.164C472.277 931.164 461.763 920.274 438.499 928.907C429.291 932.315 417.139 935.636 405.009 937.805C403.327 925.454 412.004 905.842 412.004 905.842C412.004 905.842 421.345 900.176 420.659 893.845C419.995 887.515 427.985 875.518 438.654 860.178C449.323 844.839 446.313 823.855 442.993 815.532C439.65 807.21 446.335 797.537 446.335 797.537L448.327 784.876L449.323 782.552L447.995 774.561L448.659 765.22L453.33 757.23L455.454 750.567C456.915 739.566 468.315 739.234 468.315 739.234C490.649 727.901 470.971 722.567 470.971 722.567C470.971 722.567 471.635 724.559 457.314 722.567C442.993 720.574 443.657 704.239 443.657 704.239C443.657 704.239 440.314 693.57 447.995 675.242C455.676 656.915 445.671 646.888 445.671 646.888L434.006 634.581C429.335 620.924 434.006 575.924 434.006 575.924C442.661 573.6 456.34 580.262 456.34 580.262C456.34 580.262 444.011 597.926 443.679 614.261C443.347 630.597 445.007 649.544 465.681 646.888C486.332 644.254 490.339 641.575 490.339 641.575C490.339 641.575 512.341 634.913 525.666 655.233C538.991 675.552 546.65 673.228 546.65 673.228L562.52 673.317L593.642 676.239C593.642 676.239 610.309 679.913 617.636 678.231C624.962 676.571 629.965 672.232 634.967 673.228C639.97 674.224 643.622 673.892 650.971 670.572C658.32 667.252 676.293 663.577 679.303 665.57C682.314 667.562 694.975 666.234 693.957 683.565C692.96 700.897 694.023 700.874 694.023 700.874L690.636 708.887C690.636 708.887 685.966 746.87 687.294 752.537C688.622 758.203 682.956 774.207 665.624 774.871C648.292 775.535 649.953 772.215 638.288 779.873C626.623 787.532 623.634 813.208 623.634 813.208L621.974 827.198L623.634 836.538L622.306 841.209L623.966 849.2L623.302 858.208L621.974 865.203L623.634 870.205L625.294 881.538L634.967 896.192L636.627 909.517L642.958 914.519L646.964 926.516L649.975 933.511L652.299 940.837L666.288 958.501L666.62 973.486L679.48 989.711H669.719C669.697 989.711 668.258 989.49 665.845 989.091Z" fill="#284F51" stroke="#638283" stroke-width="1.5"/>
<path d="M81.158 219.049L86.3154 228.19L88.4403 234.853C88.4403 234.853 82.9951 242.423 81.2686 249.971C76.7089 269.826 101.146 267.214 101.146 267.214C101.146 267.214 117.171 269.339 119.894 280.76C122.616 292.204 132.001 287.157 136.827 275.05C141.652 262.942 151.347 277.484 151.347 277.484C165.27 285.652 171.003 275.979 171.003 275.979L179.481 269.317C179.481 269.317 181.251 265.62 181.273 265.576C181.273 270.091 181.65 276.51 182.734 285.608C185.656 309.801 172.84 316.774 172.84 316.774L146.079 340.236L143.157 347.563L117.127 374.324L112.368 382.381L102.474 390.084L99.5519 398.517L85.2529 418.992L81.2022 424.481C82.0876 418.549 80.4939 412.108 69.9356 410.935C49.6602 408.677 54.4192 411.223 36.158 382.403C26.3966 367.019 30.5358 365.891 21.9032 363.257C13.2707 360.622 5.39068 343.734 2.00406 322.728C-1.38256 301.7 5.76697 298.335 5.76697 298.335C5.76697 298.335 13.2707 285.187 3.88552 269.804C-5.49962 254.42 11.0129 255.549 11.0129 255.549C11.0129 255.549 33.3247 264.115 23.0321 231.156C17.4098 213.139 35.0513 213.891 35.0513 213.891L44.7684 223.055C44.7684 223.055 52.0065 223.276 55.9022 224.162C67.0802 226.729 73.4329 219.978 73.4329 219.978L81.158 219.049Z" fill="#FCFF45" stroke="#FCFF45" stroke-width="1.25"/>
<g filter="url(#filter0_b_1030_17389)">
<rect x="47.8126" y="305.234" width="60.8565" height="25.747" fill="white" fill-opacity="0.08"/>
<rect x="47.8126" y="305.234" width="60.8565" height="25.747" fill="#325B5D" fill-opacity="0.16"/>
<rect x="48.3126" y="305.734" width="59.8565" height="24.747" stroke="white" stroke-opacity="0.2"/>
<path d="M70.6008 315.008H73.4308C73.9308 315.008 74.3642 315.095 74.7308 315.268C75.1042 315.441 75.3908 315.691 75.5908 316.018C75.7908 316.338 75.8908 316.715 75.8908 317.148C75.8908 317.461 75.8208 317.745 75.6808 317.998C75.5408 318.251 75.3508 318.455 75.1108 318.608C74.8708 318.761 74.6175 318.848 74.3508 318.868L74.3008 318.778C74.7475 318.778 75.0942 318.881 75.3408 319.088C75.5875 319.288 75.7308 319.605 75.7708 320.038L75.9608 322.108H74.8708L74.7008 320.178C74.6808 319.885 74.5808 319.671 74.4008 319.538C74.2275 319.405 73.9475 319.338 73.5608 319.338H71.6808V322.108H70.6008V315.008ZM73.4508 318.348C73.8575 318.348 74.1775 318.248 74.4108 318.048C74.6508 317.841 74.7708 317.551 74.7708 317.178C74.7708 316.798 74.6475 316.508 74.4008 316.308C74.1608 316.101 73.8142 315.998 73.3608 315.998H71.6808V318.348H73.4508ZM77.4075 315.008H78.4875V322.108H77.4075V315.008ZM82.0702 319.258L79.5702 315.008H80.8102L82.6102 318.178L84.4002 315.008H85.6402L83.1502 319.258V322.108H82.0702V319.258Z" fill="#0E3E40"/>
</g>
<path d="M256.621 377.134C264.679 359.005 260.473 352.188 262.62 336.472C265.033 318.632 268.663 324.364 273.2 321.952C277.738 319.539 281.368 320.447 283.183 315.289C284.998 310.154 291.041 308.627 294.383 308.339C297.704 308.029 311.316 301.986 311.316 301.986C311.316 301.986 327.032 295.634 330.065 281.423C333.097 267.213 324.619 263.582 320.392 262.365C316.164 261.148 310.409 257.23 307.996 250.877C305.584 244.524 301.334 238.769 301.334 238.769L284.401 236.954L277.14 235.449L271.098 235.759C271.098 235.759 243.695 227.968 240.552 205.213C238.36 189.254 238.737 187.372 238.737 187.372L235.704 184.052C235.704 184.052 234.774 176.925 236.191 166.787C236.191 166.787 225.124 164.087 224.836 176.792C224.526 189.497 222.711 200.388 222.711 200.388C222.711 200.388 223.021 207.958 214.233 214.001C205.446 220.043 201.218 224.736 201.218 224.736L194.268 236.379L188.513 244.856L184.573 251.519L183.068 261.812C183.068 261.812 182.16 263.715 181.231 265.619C181.231 270.134 181.607 276.553 182.691 285.651C185.613 309.844 172.797 316.817 172.797 316.817L146.036 340.279L143.114 347.606L117.084 374.367L112.325 382.424L102.431 390.127L99.509 398.56L85.2099 419.035L81.1593 424.524C80.3403 429.992 77.3964 434.994 77.3964 434.994V442.874L81.1593 453.388L85.5862 450.444H95.4583L100.394 448.164H107.987L119.364 437.163H136.341C136.341 437.163 151.614 425.011 158.055 427.291C164.497 429.571 177.025 435.813 195.994 419.035C214.964 402.257 232.65 383.331 252.637 385.213C253.832 383.022 254.851 380.985 255.758 379.059C256.068 378.373 256.356 377.731 256.621 377.134Z" fill="#284F51" stroke="#638283" stroke-width="1.5"/>
<path d="M134.037 611.888C132.643 609.453 132.665 605.181 136.339 597.832C141.209 588.071 131.846 584.684 131.846 584.684L123.966 579.815C123.966 579.815 114.581 574.192 117.967 561.797C121.354 549.402 121.73 528.019 94.7038 530.454C67.6773 532.889 60.5499 521.622 60.5499 521.622L59.0447 507.744L53.7988 500.24L48.1766 496.854C48.1766 496.854 43.6832 491.608 49.6817 487.469C55.6802 483.329 65.4417 481.094 65.4417 481.094C65.4417 481.094 77.4608 476.6 75.5794 466.086C73.6979 455.572 81.2016 453.315 81.2016 453.315L85.6286 450.371H95.5007L100.437 448.091H108.029L119.406 437.09H136.384C136.384 437.09 151.657 424.938 158.098 427.218C164.539 429.498 177.067 435.74 196.037 418.961C215.006 402.183 232.692 383.258 252.68 385.14C252.68 385.14 254.76 388.283 258.08 394.281C261.423 400.28 266.735 404.618 266.735 404.618L276.74 408.957C276.74 408.957 291.061 423.61 293.075 426.288C295.068 428.944 310.739 445.612 310.739 445.612L320.412 461.615V478.615V494.618C320.412 494.618 320.412 503.627 323.068 508.275C325.724 512.946 326.056 522.973 325.06 531.118C324.064 539.264 322.736 543.934 322.736 543.934L319.748 557.591L316.76 575.919C316.76 575.919 314.945 586.079 309.832 594.756C308.016 597.832 305.803 600.732 303.08 602.901C292.743 611.224 290.995 611.622 287.697 621.583C286.037 619.148 283.978 617.621 281.632 617.732C273.752 618.108 259.497 620.366 259.497 620.366C259.497 620.366 210.336 628.998 183.309 619.613C156.283 610.228 142.028 615.12 142.028 615.12C142.028 615.12 136.229 615.784 134.037 611.888Z" fill="#284F51" stroke="#638283" stroke-width="1.5"/>
<path d="M81.1533 219.046L85.3368 218.559L92.5748 215.217L99.2595 213.269C99.2595 213.269 101.207 211.033 114.001 204.083C126.795 197.133 126.175 190.448 126.175 190.448C126.175 190.448 127.083 189.054 126.242 179.314C125.401 169.575 132.639 162.049 132.639 162.049L139.589 150.074C139.589 150.074 141.537 150.406 145.72 142.836C146.938 140.645 143.773 128.36 140.165 123.07C138.881 121.211 138.305 119.728 138.084 118.599L143.529 123.136C143.529 123.136 156.301 133.451 157.651 140.512C160.197 153.749 172.039 150.827 172.039 150.827C172.039 150.827 173.522 150.141 182.353 149.875C191.185 149.609 193.62 144.718 199.729 142.814C205.838 140.91 209.646 144.297 214.405 148.392C219.164 152.465 224.321 152.863 230.032 153.549C234.304 154.058 238.044 152.509 241.586 146.843C238.554 153.97 236.96 160.854 236.141 166.742C236.141 166.742 225.073 164.041 224.786 176.747C224.476 189.452 222.661 200.342 222.661 200.342C222.661 200.342 222.971 207.912 214.183 213.955C205.396 219.998 201.168 224.691 201.168 224.691L194.218 236.333L188.463 244.811L184.523 251.474L183.017 261.766L179.387 269.336L170.91 275.999C170.91 275.999 165.155 285.672 151.254 277.504C151.254 277.504 141.581 262.939 136.734 275.069C131.886 287.199 122.523 292.224 119.801 280.78C117.078 269.336 101.052 267.234 101.052 267.234C101.052 267.234 76.5936 269.845 81.1754 249.991C82.9241 242.42 88.3471 234.873 88.3471 234.873L86.2222 228.21L81.1533 219.046Z" fill="#284F51" stroke="#638283" stroke-width="1.5"/>
<path d="M508.321 617.314C508.542 617.402 508.764 617.491 508.985 617.579C519.322 621.586 517.308 599.584 517.308 599.584L520.65 592.921C530.655 573.93 543.316 598.256 543.316 598.256C559.319 591.261 553.985 607.929 553.985 607.929H557.991L558.988 602.262C558.988 602.262 558.656 596.596 562.529 584.267C566.403 571.937 573.663 577.604 573.995 590.929C574.327 604.254 581.985 596.264 588.493 584.267C594.979 572.27 614.656 561.601 614.656 561.601H630.66C630.66 561.601 637.986 561.269 642.325 569.259C646.663 577.25 651.666 575.922 651.666 575.922C651.666 575.922 658.328 571.915 661.671 583.58C665.013 595.245 666.009 604.232 668.997 606.578C671.985 608.903 672.34 616.251 672.34 616.251L682.012 620.922C682.012 620.922 685.023 632.255 700.34 633.915C715.679 635.575 725.662 635.243 723.006 649.918C720.35 664.571 718.668 666.918 718.668 666.918L714.329 674.576L710.655 681.903L707.999 687.237L693.921 694.719C693.921 694.719 693.744 694.808 693.589 694.896C693.611 692.351 693.722 688.721 694.01 683.563C695.006 666.232 682.344 667.56 679.356 665.568C676.346 663.575 658.373 667.228 651.024 670.57C643.675 673.912 640.023 674.244 635.02 673.226C630.018 672.208 625.015 676.569 617.689 678.229C610.362 679.889 593.695 676.237 593.695 676.237L562.573 673.315L546.703 673.226C546.703 673.226 539.044 675.55 525.719 655.231C512.394 634.911 490.392 641.573 490.392 641.573C490.392 641.573 486.386 644.23 465.734 646.886C445.082 649.52 443.4 630.573 443.732 614.259C444.064 597.924 456.393 580.26 456.393 580.26L483.043 594.249L485.035 598.92L496.7 609.257C496.656 609.235 498.56 613.374 508.321 617.314Z" fill="#284F51" stroke="#638283" stroke-width="1.5"/>
<path d="M181.909 149.937C173.498 150.225 172.059 150.867 172.059 150.867C172.059 150.867 160.217 153.789 157.672 140.552C156.321 133.491 143.55 123.176 143.55 123.176L138.104 118.639C137.684 116.536 138.503 115.606 138.503 115.606L141.292 109.209L144.346 102.259L149.637 97.8098L152.426 93.3607L156.321 88.0705L167.167 78.3312C167.167 78.3312 171.351 70.5398 176.907 69.6987C182.463 68.8576 187.487 63.014 190.829 60.2471C194.172 57.4582 199.174 55.7981 203.911 56.0637C208.648 56.3514 226.798 52.1016 226.798 52.1016L239.57 62.2393L244.108 62.9255C244.086 62.9919 240.124 71.8458 240.124 71.8458L238.486 77.9549L234.944 80.8103V94.2461C234.944 94.2461 235.121 100.909 239.504 107.97C243.886 115.031 249.73 128.201 245.126 139.755C240.5 151.31 235.763 154.298 230.052 153.612C224.341 152.925 219.184 152.527 214.425 148.454C209.666 144.381 205.859 140.995 199.75 142.876C193.641 144.78 191.184 149.672 182.374 149.937C182.219 149.915 182.064 149.937 181.909 149.937Z" fill="#284F51" stroke="#638283" stroke-width="1.5"/>
<defs>
<filter id="filter0_b_1030_17389" x="-18.1874" y="239.234" width="192.856" height="157.747" filterUnits="userSpaceOnUse" color-interpolation-filters="sRGB">
<feFlood flood-opacity="0" result="BackgroundImageFix"/>
<feGaussianBlur in="BackgroundImageFix" stdDeviation="33"/>
<feComposite in2="SourceAlpha" operator="in" result="effect1_backgroundBlur_1030_17389"/>
<feBlend mode="normal" in="SourceGraphic" in2="effect1_backgroundBlur_1030_17389" result="shape"/>
</filter>
</defs>
</svg>
