<svg width="923" height="549" viewBox="0 0 923 549" fill="none" xmlns="http://www.w3.org/2000/svg">
<path d="M765.147 358.769C764.97 353.147 764.549 347.458 763.597 346.197C761.605 343.541 760.941 336.192 760.587 329.529C760.255 322.867 751.932 318.196 751.932 318.196L745.934 309.874L744.606 302.879L742.613 293.206L745.27 286.544L742.613 277.203C742.613 277.203 752.286 272.2 745.956 262.217C739.625 252.212 750.626 248.56 750.626 248.56C750.626 248.56 756.293 237.227 747.638 228.573C738.983 219.918 747.638 206.571 747.638 206.571C747.638 206.571 752.973 199.244 745.314 190.899C737.655 182.554 743.986 172.572 748.656 169.561C753.327 166.551 761.317 161.571 761.317 161.571C761.317 161.571 768.312 160.907 770.326 151.566C772.318 142.225 775.661 138.905 770.99 132.574C766.32 126.244 771.986 117.589 773.314 113.25C774.642 108.912 776.48 106.012 770.658 92.2667C769.33 89.1236 768.002 72.9431 768.002 72.9431C791.996 75.2673 792.992 59.2859 792.992 59.2859C792.992 59.2859 805.343 59.9942 813.644 56.2977C832.613 47.8422 829.979 42.9726 816.632 35.646C803.285 28.3194 816.632 17.9825 816.632 17.9825L848.617 -1.34113C872.611 -1.34113 869.269 -26.6633 869.269 -26.6633L875.931 -47.6471C894.591 -76.9756 917.921 -65.6426 917.921 -65.6426C917.921 -65.6426 944.239 -51.6535 960.242 -62.6544C976.246 -73.6554 991.231 -64.3145 991.231 -64.3145C991.231 -64.3145 1006.9 -47.6471 1022.88 -34.0121C1038.87 -20.377 1054.2 -22.6569 1076.87 -31.6436C1099.54 -40.6303 1137.41 -34.0121 1137.41 -34.0121C1137.41 -34.0121 1131.79 -29.5187 1132.92 -25.7558C1134.04 -21.9929 1136.68 -20.8862 1133.67 -11.501C1130.66 -2.11591 1140.8 1.27076 1140.8 1.27076C1140.8 1.27076 1142.68 2.02331 1142.68 21.9225C1142.68 41.8216 1144.2 52.3357 1144.2 52.3357C1144.2 52.3357 1152.06 57.5815 1153.19 68.4718C1154.32 79.3621 1152.81 77.857 1158.81 83.8555C1164.81 89.854 1161.45 94.3695 1161.45 94.3695L1162.4 108.624C1162.4 108.624 1178.34 114.999 1173.47 128.147C1168.6 141.295 1163.71 133.393 1171.59 142.402C1179.47 151.411 1174.4 165.289 1174.4 165.289L1171.21 170.535C1171.21 170.535 1173.09 178.792 1164.08 188.177C1155.07 197.562 1156.58 199.443 1156.58 199.443C1156.58 199.443 1161.45 208.076 1124.31 209.581C1087.16 211.086 1074.77 207.699 1045.48 227.599C1016.2 247.498 1002.7 267.397 1002.7 267.397C1002.7 267.397 1001.19 273.772 984.679 281.275C968.167 288.779 960.287 297.035 960.287 297.035L948.644 308.678L925.004 331.566L918.629 340.198L917.5 345.444L910.749 348.831L884.475 374.352L851.826 414.15L843.946 423.159L828.186 435.931L819.642 444.896L821.657 411.937C821.657 411.937 816.654 400.936 807.003 399.608C797.331 398.28 794.01 399.608 794.01 399.608L779.689 390.267L765.368 371.275C765.257 371.187 765.346 365.011 765.147 358.769Z" fill="#284F51" stroke="#638283" stroke-width="1.5"/>
<path d="M1101.96 -36.2871C1120.14 -37.0839 1137.38 -34.0736 1137.38 -34.0736C1137.38 -34.0736 1147.52 -41.9535 1143 -55.8542C1138.49 -69.7548 1130.61 -76.1296 1120.87 -83.257C1111.11 -90.3844 1097.98 -108.778 1092.71 -117.787C1087.47 -126.796 1077.33 -126.42 1077.33 -126.42L1073.94 -129.43L1061.17 -136.181L1034.52 -145.943L1018.76 -153.823L1013.14 -159.069L1000.37 -170.335C1000.37 -170.335 983.853 -177.839 975.597 -183.483C967.341 -189.105 947.442 -181.602 947.442 -181.602C947.442 -181.602 940.314 -183.483 921.92 -178.215C903.526 -172.947 905.031 -184.966 905.031 -184.966C905.031 -184.966 901.269 -193.222 893.389 -211.24C885.509 -229.258 828.445 -241.653 828.445 -241.653L796.925 -244.664C796.925 -244.664 797.302 -247.674 795.42 -233.021C793.539 -218.39 799.914 -210.886 799.914 -210.886C799.914 -210.886 801.042 -205.264 807.041 -187.999C813.039 -170.734 814.921 -179.366 807.041 -163.982C799.161 -148.599 778.133 -152.34 778.133 -152.34C778.133 -152.34 722.951 -157.586 707.567 -138.461C685.698 -111.257 671.908 -115.197 671.908 -115.197V-110.66C671.908 -110.66 676.889 -98.6849 681.227 -93.0184C685.565 -87.3519 698.226 -79.6933 697.894 -57.0273C697.562 -34.3613 697.562 -34.3613 697.562 -34.3613C697.562 -34.3613 687.225 -27.6988 686.893 -19.022C686.561 -10.3673 682.555 -1.69043 682.555 -1.69043C682.555 -1.69043 678.571 9.97458 684.901 24.2958C696.898 16.6371 711.884 20.2894 711.884 20.2894C738.534 20.9534 736.542 29.2982 736.542 29.2982C736.542 29.2982 736.874 42.9554 746.215 44.9696C755.555 46.9839 749.889 57.6307 749.889 57.6307C748.893 68.2997 743.89 70.6238 767.885 72.9701C791.879 75.2942 792.875 59.313 792.875 59.313C792.875 59.313 805.226 60.0212 813.526 56.3247C832.496 47.8693 829.862 42.9996 816.515 35.673C803.167 28.3464 816.515 18.0095 816.515 18.0095L848.499 -1.31416C872.493 -1.31416 869.151 -26.6363 869.151 -26.6363L875.814 -47.62C894.473 -76.9486 917.803 -65.6156 917.803 -65.6156C917.803 -65.6156 944.121 -51.6264 960.125 -62.6274C976.128 -73.6284 991.114 -64.2875 991.114 -64.2875C991.114 -64.2875 1006.78 -47.62 1022.77 -33.985C1038.75 -20.35 1054.09 -22.6299 1076.75 -31.6167C1084.21 -34.627 1093.2 -35.9108 1101.96 -36.2871Z" fill="#284F51" stroke="#638283" stroke-width="1.5"/>
<path d="M743.809 281.499C743.189 279.307 742.591 277.204 742.591 277.204C742.591 277.204 752.264 272.202 745.933 262.219C739.603 252.214 750.604 248.562 750.604 248.562C750.604 248.562 756.27 237.229 747.616 228.574C738.961 219.92 747.616 206.572 747.616 206.572C747.616 206.572 752.95 199.246 745.291 190.901C737.633 182.556 743.963 172.573 748.634 169.563C753.304 166.553 761.295 161.572 761.295 161.572C761.295 161.572 768.29 160.908 770.304 151.568C772.296 142.227 775.638 138.907 770.968 132.576C766.297 126.245 771.964 117.591 773.292 113.252C774.62 108.914 776.457 106.014 770.636 92.2686C769.308 89.1254 767.98 72.945 767.98 72.945C743.986 70.6208 748.988 68.2745 749.984 57.6055C749.984 57.6055 755.651 46.9366 746.31 44.9444C736.969 42.9523 736.637 29.2731 736.637 29.2731C736.637 29.2731 738.629 20.9504 711.979 20.2642C711.979 20.2642 696.993 16.5898 684.996 24.2706C684.996 24.2706 678.422 26.0635 676.054 35.5593C673.686 45.0551 667.355 50.9872 667.355 50.9872L653.676 64.6001C653.676 64.6001 646.349 70.9307 644.003 82.1087C641.657 93.2868 638.004 98.9311 638.004 98.9311L630.678 119.583C630.678 119.583 638.004 119.251 642.343 127.242C646.681 135.232 651.684 133.904 651.684 133.904C651.684 133.904 658.346 129.898 661.689 141.563C665.031 153.228 666.027 162.214 669.015 164.561C672.003 166.885 672.358 174.234 672.358 174.234L682.03 178.904C682.03 178.904 685.041 190.237 700.358 191.897C715.697 193.557 725.68 193.225 723.024 207.901C720.368 222.554 718.686 224.9 718.686 224.9L714.347 232.559L710.673 239.885L708.017 245.22C708.017 245.22 694.116 252.613 693.607 252.878C693.695 257.062 694.072 258.855 694.072 258.855L690.685 266.867C690.685 266.867 687.476 293.075 687.144 305.205C689.6 309.189 698.344 307.529 698.344 307.529L709.013 300.534L716.339 309.875L720.014 308.215L725.016 306.555L729.023 308.547L738.031 309.875H746.022L744.694 302.881L742.702 293.208L745.358 286.545C745.247 286.545 744.517 283.956 743.809 281.499Z" fill="#284F51" stroke="#638283" stroke-width="1.5"/>
<path d="M252.643 -56.8251C252.643 -56.8251 254.723 -53.682 258.043 -47.6835C261.386 -41.685 266.698 -37.3466 266.698 -37.3466L276.703 -33.0082C276.703 -33.0082 291.024 -18.3549 293.039 -15.6766C295.031 -13.0205 310.702 3.64703 310.702 3.64703L320.375 19.6504V36.6499V52.6534C320.375 52.6534 320.375 61.6622 323.031 66.3105C325.687 70.981 326.019 81.0079 325.023 89.1535C324.027 97.2991 322.699 101.97 322.699 101.97L319.711 115.627L316.723 133.954C316.723 133.954 314.908 144.114 309.795 152.791C317.188 148.652 320.043 159.963 322.721 168.285C325.377 176.608 322.721 194.604 322.721 199.274C322.721 213.042 337.374 197.282 337.374 197.282L342.709 191.947L349.703 187.941L355.038 176.608H360.372L369.027 164.943L384.012 148.276H390.343L396.673 141.281L402.672 139.621L421.132 131.962L419.339 123.64L414.669 117.973C414.669 117.973 410.995 111.975 409.003 108.986C407.01 105.976 405.66 86.3203 407.674 77.6656C409.667 69.0109 407.674 69.0109 405.682 65.0045C403.69 60.9981 408.006 53.6715 408.006 53.6715L404.332 38.6863C404.332 38.6863 399.662 23.0149 400.99 13.0322C402.318 3.02724 408.98 -3.30331 408.98 -3.30331L412.655 -11.958L419.981 -22.9147L421.641 -29.6216L423.966 -37.9442C423.966 -37.9442 424.298 -49.2772 427.95 -58.928C431.602 -68.6008 424.298 -81.2619 424.298 -81.2619C424.298 -81.2619 424.962 -82.59 415.975 -112.251C406.988 -141.911 441.452 -134.585 441.452 -134.585L439.194 -143.593C439.194 -143.593 433.196 -149.968 433.948 -155.613C434.701 -161.235 422.682 -159.375 422.682 -159.375C422.682 -159.375 420.048 -160.504 417.037 -163.869C414.027 -167.255 411.792 -162.364 415.909 -178.124C420.048 -193.884 411.415 -207.408 411.415 -207.408C411.415 -207.408 403.912 -216.04 394.903 -206.279C385.894 -196.518 385.518 -201.409 376.885 -202.892C368.252 -204.398 364.49 -209.643 364.49 -209.643C364.49 -209.643 351.718 -219.405 342.355 -225.78C340.385 -227.108 339.234 -228.303 338.636 -229.388C338.614 -229.388 331.531 -226.09 331.531 -226.09L319.423 -219.139L316.103 -214.602L309.75 -213.384L301.273 -203.092C301.273 -203.092 305.5 -197.337 307.935 -190.984C310.37 -184.631 316.103 -180.691 320.331 -179.496C324.558 -178.279 333.036 -174.648 330.004 -160.438C326.971 -146.227 311.255 -139.875 311.255 -139.875C311.255 -139.875 297.643 -133.832 294.322 -133.522C291.002 -133.212 284.937 -131.707 283.122 -126.572C281.307 -121.437 277.677 -122.344 273.139 -119.909C268.602 -117.496 264.972 -123.229 262.559 -105.389C260.213 -87.681 265.946 -81.3283 252.643 -56.8251Z" fill="#284F51" stroke="#638283" stroke-width="1.5"/>
<path d="M539.371 38.6967C538.663 36.7045 537.976 34.6903 537.976 34.6903C537.976 34.6903 535.32 29.5993 531.314 21.6086C527.307 13.618 518.653 9.94356 518.653 9.94356C517.657 0.934708 517.989 -4.70963 529.034 -5.39581C540.079 -6.08199 537.667 -23.0372 537.667 -23.0372C537.667 -23.0372 532 -24.7416 538.663 -40.0588C545.325 -55.3982 533.992 -55.3982 533.992 -55.3982C533.992 -55.3982 528.326 -55.0662 521.065 -58.0544C513.805 -61.0647 518.985 -70.3835 520.645 -76.714C522.283 -82.9781 518.476 -94.8866 518.387 -95.1744C510.684 -90.681 499.993 -90.0391 489.523 -91.5442C476.375 -93.4257 478.633 -102.811 478.633 -102.811C478.633 -102.811 476.752 -106.95 476.375 -111.067C475.999 -115.184 474.494 -119.323 466.99 -121.957C459.487 -124.591 453.488 -130.966 453.488 -130.966L447.49 -133.224L441.491 -134.729C441.491 -134.729 407.005 -142.056 416.014 -112.395C425.023 -82.7346 424.337 -81.4065 424.337 -81.4065C424.337 -81.4065 431.663 -68.7455 427.989 -59.0726C424.337 -49.3997 424.005 -38.0888 424.005 -38.0888L421.68 -29.7662L420.02 -23.0594L412.694 -12.1026L409.019 -3.44794C409.019 -3.44794 402.357 2.88261 401.029 12.8875C399.701 22.8924 404.371 38.5417 404.371 38.5417L408.045 53.5269C408.045 53.5269 403.707 60.8535 405.721 64.8599C407.713 68.8663 409.728 68.8663 407.713 77.521C405.721 86.1756 407.049 105.854 409.041 108.842C411.034 111.83 414.708 117.828 414.708 117.828L419.378 123.495L421.171 131.818C421.171 131.818 425.377 136.156 434.032 133.81C442.686 131.486 456.366 138.148 456.366 138.148L483.016 152.137L485.008 156.808L496.673 167.145C496.673 167.145 498.665 171.483 509.002 175.467C519.339 179.474 517.325 157.472 517.325 157.472L520.667 150.809C530.672 131.818 543.333 156.144 543.333 156.144C559.336 149.149 554.002 165.817 554.002 165.817H558.008L559.004 160.15C559.004 160.15 558.672 154.484 562.546 142.154C566.42 129.825 573.68 135.492 574.012 148.817C574.344 162.142 582.002 154.152 588.51 142.154C594.996 130.157 614.673 119.489 614.673 119.489H630.677L638.003 98.8367C638.003 98.8367 641.678 93.1702 644.002 82.0143C646.326 70.8584 653.675 64.5058 653.675 64.5058C645.684 59.5033 644.002 47.8383 643.006 40.5116C642.01 33.185 632.669 36.1733 632.669 36.1733C632.669 36.1733 622.332 37.1693 619.012 32.1669C615.692 27.1644 608.011 29.1566 608.011 29.1566C608.011 29.1566 597.342 35.8191 593.026 51.8225C588.709 67.826 582.246 64.4836 582.246 64.4836C582.246 64.4836 578.372 64.4836 569.032 74.1565C559.691 83.8294 551.368 81.8151 551.368 81.8151C551.368 81.8151 551.368 75.4846 551.368 66.8299C551.368 58.1752 547.694 47.5062 547.694 47.5062L540.788 42.5038C540.743 42.5924 540.057 40.6666 539.371 38.6967Z" fill="#284F51" stroke="#638283" stroke-width="1.5"/>
<path d="M417.313 459.772C414.944 462.229 412.31 463.823 412.31 463.823C412.31 463.823 403.633 483.434 405.316 495.785C386.833 499.106 368.439 499.836 360.736 494.391C347.965 485.382 334.839 505.281 334.839 505.281L325.83 513.914L322.067 509.42L311.929 508.668C311.929 508.668 304.426 509.044 308.543 497.025C312.682 485.006 299.534 480.889 299.534 480.889C299.534 480.889 286.386 480.512 285.279 469.622C284.15 458.732 275.141 464 275.141 464C275.141 464 264.627 472.256 250.749 463.624C236.87 454.991 237.247 449.369 240.235 446.358C243.245 443.348 246.233 438.855 243.998 432.856C241.762 426.858 243.998 422.718 243.998 422.718C243.998 422.718 244.75 415.215 234.612 412.957C224.475 410.699 223.346 400.562 222.97 395.316C222.593 390.07 219.583 385.554 219.583 385.554L218.83 380.685L214.691 377.674L208.693 372.052L204.199 368.665C204.199 368.665 202.694 354.411 196.696 348.39C190.697 342.392 192.202 333.759 193.685 332.63C195.19 331.501 201.189 332.63 197.072 323.621C192.955 314.612 206.081 313.107 206.081 313.107C206.081 313.107 223.722 316.118 225.98 289.844C225.98 289.844 223.346 283.092 227.861 279.33C232.355 275.567 234.989 273.331 234.989 273.331L251.878 274.46C251.878 274.46 263.52 276.341 266.885 263.193C270.272 250.045 279.878 229.726 287.16 224.524C289.794 222.642 298.051 229.394 293.535 212.505C293.535 212.505 289.042 210.623 291.654 201.991C293.491 195.948 291.831 185.279 287.957 179.568C291.233 169.608 293.004 169.209 303.341 160.886C306.041 158.695 308.277 155.818 310.092 152.741C317.485 148.602 320.34 159.913 323.019 168.235C325.675 176.558 323.019 194.553 323.019 199.224C323.019 212.992 337.672 197.232 337.672 197.232L343.006 191.897L350.001 187.891L355.335 176.558H360.67L369.325 164.893L384.31 148.225H390.64L396.971 141.231L402.969 139.571L421.43 131.912C421.43 131.912 425.635 136.251 434.312 133.904C434.312 133.904 429.642 178.882 434.312 192.561L445.977 204.868C445.977 204.868 455.982 214.895 448.301 233.223C440.643 251.55 443.963 262.219 443.963 262.219C443.963 262.219 443.299 278.555 457.62 280.547C471.941 282.539 471.277 280.547 471.277 280.547C471.277 280.547 490.933 285.881 468.621 297.214C468.621 297.214 457.222 297.547 455.761 308.547L453.636 315.21L448.965 323.201L448.301 332.542L449.629 340.532L448.633 342.856L446.641 355.517C446.641 355.517 439.979 365.19 443.299 373.513C446.641 381.836 449.629 402.841 438.961 418.159C428.292 433.498 420.301 445.495 420.965 451.826C421.297 454.814 419.416 457.625 417.313 459.772Z" fill="#284F51" stroke="#638283" stroke-width="1.5"/>
<path d="M673.866 540.627C670.413 536.267 666.628 531.486 666.628 531.486L666.296 516.5L652.307 498.837L649.983 491.51L646.973 484.516L642.966 472.519L636.636 467.516L634.976 454.191L625.303 439.538L623.643 428.205L621.982 423.202L623.311 416.208L623.975 407.199L622.314 399.208L623.643 394.538L621.982 385.197L623.643 371.208C623.643 371.208 626.631 345.554 638.296 337.873C649.961 330.214 648.301 333.535 665.632 332.87C682.964 332.206 688.63 316.203 687.302 310.537C687.081 309.585 687.014 307.681 687.081 305.202C689.538 309.208 698.281 307.548 698.281 307.548L708.95 300.554L716.276 309.895L719.951 308.234L724.953 306.574L728.96 308.566L737.969 309.895H745.959L751.958 318.217C751.958 318.217 760.28 322.888 760.612 329.55C760.944 336.213 761.608 343.539 763.623 346.218C764.575 347.479 764.995 353.168 765.172 358.79C765.371 365.032 765.283 371.208 765.283 371.208L779.604 390.2L793.925 399.54C793.925 399.54 797.268 398.212 806.918 399.54C816.591 400.868 821.572 411.869 821.572 411.869L819.557 444.828C818.694 445.736 812.341 452.398 812.341 452.398L796.581 463.665L789.454 473.426L777.435 479.048L754.171 502.312L739.916 513.579L714.395 527.833L698.259 538.347L687.369 542.11L679.489 547.733C679.466 547.71 676.766 544.302 673.866 540.627Z" fill="#284F51" stroke="#638283" stroke-width="1.5"/>
<path d="M665.845 547.091C652.697 545.01 610.398 538.326 610.398 538.326C610.398 538.326 543.971 523.318 523.32 514.686C502.668 506.053 472.277 489.164 472.277 489.164C472.277 489.164 461.763 478.274 438.499 486.907C429.291 490.315 417.139 493.636 405.009 495.805C403.327 483.454 412.004 463.842 412.004 463.842C412.004 463.842 421.345 458.176 420.659 451.845C419.995 445.515 427.985 433.518 438.654 418.178C449.323 402.839 446.313 381.855 442.993 373.532C439.65 365.21 446.335 355.537 446.335 355.537L448.327 342.876L449.323 340.552L447.995 332.561L448.659 323.22L453.33 315.23L455.454 308.567C456.915 297.566 468.315 297.234 468.315 297.234C490.649 285.901 470.971 280.567 470.971 280.567C470.971 280.567 471.635 282.559 457.314 280.567C442.993 278.574 443.657 262.239 443.657 262.239C443.657 262.239 440.314 251.57 447.995 233.242C455.676 214.915 445.671 204.888 445.671 204.888L434.006 192.581C429.335 178.924 434.006 133.924 434.006 133.924C442.661 131.6 456.34 138.262 456.34 138.262C456.34 138.262 444.011 155.926 443.679 172.261C443.347 188.597 445.007 207.544 465.681 204.888C486.332 202.254 490.339 199.575 490.339 199.575C490.339 199.575 512.341 192.913 525.666 213.233C538.991 233.552 546.65 231.228 546.65 231.228L562.52 231.317L593.642 234.239C593.642 234.239 610.309 237.913 617.636 236.231C624.962 234.571 629.965 230.232 634.967 231.228C639.97 232.224 643.622 231.892 650.971 228.572C658.32 225.252 676.293 221.577 679.303 223.57C682.314 225.562 694.975 224.234 693.957 241.565C692.96 258.897 694.023 258.874 694.023 258.874L690.636 266.887C690.636 266.887 685.966 304.87 687.294 310.537C688.622 316.203 682.956 332.207 665.624 332.871C648.292 333.535 649.953 330.215 638.288 337.873C626.623 345.532 623.634 371.208 623.634 371.208L621.974 385.198L623.634 394.538L622.306 399.209L623.966 407.2L623.302 416.208L621.974 423.203L623.634 428.205L625.294 439.538L634.967 454.192L636.627 467.517L642.958 472.519L646.964 484.516L649.975 491.511L652.299 498.837L666.288 516.501L666.62 531.486L679.48 547.711H669.719C669.697 547.711 668.258 547.49 665.845 547.091Z" fill="#FCFF45" stroke="#FCFF45" stroke-width="0.5"/>
<g filter="url(#filter0_b_1030_16703)">
<rect x="519.484" y="340.59" width="60.8565" height="25.747" fill="white" fill-opacity="0.08"/>
<rect x="519.484" y="340.59" width="60.8565" height="25.747" fill="#325B5D" fill-opacity="0.16"/>
<rect x="519.984" y="341.09" width="59.8565" height="24.747" stroke="white" stroke-opacity="0.2"/>
<path d="M542.852 357.624C542.292 357.624 541.802 357.524 541.382 357.324C540.969 357.117 540.639 356.831 540.392 356.464C540.152 356.091 540.012 355.661 539.972 355.174L541.082 355.104C541.129 355.437 541.226 355.721 541.372 355.954C541.519 356.181 541.716 356.354 541.962 356.474C542.216 356.587 542.519 356.644 542.872 356.644C543.339 356.644 543.696 356.557 543.942 356.384C544.196 356.204 544.322 355.951 544.322 355.624C544.322 355.411 544.272 355.227 544.172 355.074C544.072 354.921 543.886 354.781 543.612 354.654C543.346 354.527 542.956 354.401 542.442 354.274C541.856 354.134 541.396 353.981 541.062 353.814C540.736 353.647 540.496 353.441 540.342 353.194C540.196 352.947 540.122 352.637 540.122 352.264C540.122 351.864 540.219 351.507 540.412 351.194C540.612 350.881 540.896 350.637 541.262 350.464C541.636 350.291 542.076 350.204 542.582 350.204C543.109 350.204 543.566 350.304 543.952 350.504C544.339 350.697 544.646 350.967 544.872 351.314C545.099 351.661 545.239 352.061 545.292 352.514L544.192 352.574C544.152 352.301 544.066 352.061 543.932 351.854C543.799 351.641 543.616 351.477 543.382 351.364C543.156 351.244 542.882 351.184 542.562 351.184C542.156 351.184 541.832 351.281 541.592 351.474C541.352 351.661 541.232 351.911 541.232 352.224C541.232 352.431 541.279 352.601 541.372 352.734C541.472 352.867 541.642 352.984 541.882 353.084C542.122 353.184 542.482 353.291 542.962 353.404C543.569 353.544 544.052 353.714 544.412 353.914C544.779 354.114 545.039 354.351 545.192 354.624C545.352 354.891 545.432 355.204 545.432 355.564C545.432 355.977 545.322 356.341 545.102 356.654C544.889 356.961 544.586 357.201 544.192 357.374C543.806 357.541 543.359 357.624 542.852 357.624ZM546.61 350.364H547.69V353.784L547.17 353.404H551.49L550.97 353.784V350.364H552.05V357.464H550.97V354.004L551.49 354.384H547.17L547.69 354.004V357.464H546.61V350.364ZM553.524 350.364H555.804C556.918 350.364 557.774 350.674 558.374 351.294C558.974 351.907 559.274 352.784 559.274 353.924C559.274 355.057 558.978 355.931 558.384 356.544C557.798 357.157 556.958 357.464 555.864 357.464H553.524V350.364ZM555.804 356.474C556.591 356.474 557.178 356.264 557.564 355.844C557.958 355.417 558.154 354.777 558.154 353.924C558.154 353.064 557.958 352.421 557.564 351.994C557.178 351.567 556.591 351.354 555.804 351.354H554.604V356.474H555.804Z" fill="#0E3E40"/>
</g>
<path d="M256.621 -64.8663C264.679 -82.9946 260.473 -89.8121 262.62 -105.528C265.033 -123.368 268.663 -117.636 273.2 -120.048C277.738 -122.461 281.368 -121.553 283.183 -126.711C284.998 -131.846 291.041 -133.373 294.383 -133.661C297.704 -133.971 311.316 -140.014 311.316 -140.014C311.316 -140.014 327.032 -146.366 330.065 -160.577C333.097 -174.787 324.619 -178.418 320.392 -179.635C316.164 -180.852 310.409 -184.77 307.996 -191.123C305.584 -197.476 301.334 -203.231 301.334 -203.231L284.401 -205.046L277.14 -206.551L271.098 -206.241C271.098 -206.241 243.695 -214.032 240.552 -236.787C238.36 -252.746 238.737 -254.628 238.737 -254.628L235.704 -257.948C235.704 -257.948 234.774 -265.075 236.191 -275.213C236.191 -275.213 225.124 -277.913 224.836 -265.208C224.526 -252.503 222.711 -241.612 222.711 -241.612C222.711 -241.612 223.021 -234.042 214.233 -227.999C205.446 -221.957 201.218 -217.264 201.218 -217.264L194.268 -205.621L188.513 -197.144L184.573 -190.481L183.068 -180.188C183.068 -180.188 182.16 -178.285 181.231 -176.381C181.231 -171.866 181.607 -165.447 182.691 -156.349C185.613 -132.156 172.797 -125.183 172.797 -125.183L146.036 -101.721L143.114 -94.394L117.084 -67.6331L112.325 -59.5761L102.431 -51.8732L99.509 -43.4398L85.2099 -22.9652L81.1593 -17.4758C80.3403 -12.0085 77.3964 -7.00607 77.3964 -7.00607V0.873962L81.1593 11.388L85.5862 8.44403H95.4583L100.394 6.16415H107.987L119.364 -4.83682H136.341C136.341 -4.83682 151.614 -16.9888 158.055 -14.7089C164.497 -12.429 177.025 -6.18707 195.994 -22.9652C214.964 -39.7433 232.65 -58.6686 252.637 -56.7871C253.832 -58.9785 254.851 -61.0148 255.758 -62.9406C256.068 -63.6267 256.356 -64.2686 256.621 -64.8663Z" fill="#284F51" stroke="#638283" stroke-width="1.5"/>
<path d="M134.037 169.888C132.643 167.453 132.665 163.181 136.339 155.832C141.209 146.071 131.846 142.684 131.846 142.684L123.966 137.815C123.966 137.815 114.581 132.192 117.967 119.797C121.354 107.402 121.73 86.0194 94.7038 88.4542C67.6773 90.889 60.5499 79.6225 60.5499 79.6225L59.0447 65.744L53.7988 58.2403L48.1766 54.8537C48.1766 54.8537 43.6832 49.6078 49.6817 45.4686C55.6802 41.3294 65.4417 39.0937 65.4417 39.0937C65.4417 39.0937 77.4608 34.6004 75.5794 24.0864C73.6979 13.5724 81.2016 11.3146 81.2016 11.3146L85.6286 8.3707H95.5007L100.437 6.09082H108.029L119.406 -4.91016H136.384C136.384 -4.91016 151.657 -17.0621 158.098 -14.7822C164.539 -12.5024 177.067 -6.26038 196.037 -23.0385C215.006 -39.8167 232.692 -58.7419 252.68 -56.8604C252.68 -56.8604 254.76 -53.7173 258.08 -47.7188C261.423 -41.7202 266.735 -37.3819 266.735 -37.3819L276.74 -33.0434C276.74 -33.0434 291.061 -18.3902 293.075 -15.7119C295.068 -13.0558 310.739 3.61174 310.739 3.61174L320.412 19.6151V36.6147V52.618C320.412 52.618 320.412 61.6269 323.068 66.2752C325.724 70.9457 326.056 80.9727 325.06 89.1183C324.064 97.2639 322.736 101.934 322.736 101.934L319.748 115.591L316.76 133.919C316.76 133.919 314.945 144.079 309.832 152.756C308.016 155.832 305.803 158.732 303.08 160.901C292.743 169.224 290.995 169.622 287.697 179.583C286.037 177.148 283.978 175.621 281.632 175.732C273.752 176.108 259.497 178.366 259.497 178.366C259.497 178.366 210.336 186.998 183.309 177.613C156.283 168.228 142.028 173.12 142.028 173.12C142.028 173.12 136.229 173.784 134.037 169.888Z" fill="#284F51" stroke="#638283" stroke-width="1.5"/>
<path d="M508.321 175.314C508.542 175.402 508.764 175.491 508.985 175.579C519.322 179.586 517.308 157.584 517.308 157.584L520.65 150.921C530.655 131.93 543.316 156.256 543.316 156.256C559.319 149.261 553.985 165.929 553.985 165.929H557.991L558.988 160.262C558.988 160.262 558.656 154.596 562.529 142.267C566.403 129.937 573.663 135.604 573.995 148.929C574.327 162.254 581.985 154.264 588.493 142.267C594.979 130.27 614.656 119.601 614.656 119.601H630.66C630.66 119.601 637.986 119.269 642.325 127.259C646.663 135.25 651.666 133.922 651.666 133.922C651.666 133.922 658.328 129.915 661.671 141.58C665.013 153.245 666.009 162.232 668.997 164.578C671.985 166.903 672.34 174.251 672.34 174.251L682.012 178.922C682.012 178.922 685.023 190.255 700.34 191.915C715.679 193.575 725.662 193.243 723.006 207.918C720.35 222.571 718.668 224.918 718.668 224.918L714.329 232.576L710.655 239.903L707.999 245.237L693.921 252.719C693.921 252.719 693.744 252.808 693.589 252.896C693.611 250.351 693.722 246.721 694.01 241.563C695.006 224.232 682.344 225.56 679.356 223.568C676.346 221.575 658.373 225.228 651.024 228.57C643.675 231.912 640.023 232.244 635.02 231.226C630.018 230.208 625.015 234.569 617.689 236.229C610.362 237.889 593.695 234.237 593.695 234.237L562.573 231.315L546.703 231.226C546.703 231.226 539.044 233.55 525.719 213.231C512.394 192.911 490.392 199.573 490.392 199.573C490.392 199.573 486.386 202.23 465.734 204.886C445.082 207.52 443.4 188.573 443.732 172.259C444.064 155.924 456.393 138.26 456.393 138.26L483.043 152.249L485.035 156.92L496.7 167.257C496.656 167.235 498.56 171.374 508.321 175.314Z" fill="#284F51" stroke="#638283" stroke-width="1.5"/>
<path d="M519.667 -95.9698C519.247 -95.6821 518.826 -95.4165 518.383 -95.173C518.428 -95.0402 522.301 -82.9989 520.641 -76.7126C518.981 -70.3821 513.802 -61.0412 521.062 -58.053C528.322 -55.0649 533.988 -55.3968 533.988 -55.3968C533.988 -55.3968 545.321 -55.3969 538.659 -40.0575C531.996 -24.7181 537.663 -23.0359 537.663 -23.0359C537.663 -23.0359 540.076 -6.08062 529.03 -5.39445C517.985 -4.70827 517.653 0.936073 518.649 9.94492C518.649 9.94492 527.304 13.6193 531.31 21.61C535.317 29.6006 537.973 34.6916 537.973 34.6916L540.74 42.5937L547.646 47.5961C547.646 47.5961 551.32 58.2651 551.32 66.9198C551.32 75.5745 551.32 81.905 551.32 81.905C551.32 81.905 559.643 83.8972 568.984 74.2464C578.324 64.5735 582.198 64.5735 582.198 64.5735C582.198 64.5735 588.661 67.9159 592.978 51.9124C597.294 35.909 607.963 29.2464 607.963 29.2464C607.963 29.2464 615.621 27.2543 618.964 32.2568C622.306 37.2592 632.621 36.2632 632.621 36.2632C632.621 36.2632 641.962 33.2528 642.958 40.6015C643.954 47.9282 645.614 59.5932 653.627 64.5956L667.306 50.9828C667.306 50.9828 673.637 45.0506 676.005 35.5548C678.373 26.059 684.948 24.2661 684.948 24.2661C678.617 9.94492 682.601 -1.72007 682.601 -1.72007C682.601 -1.72007 686.608 -10.3747 686.94 -19.0516C687.272 -27.7062 697.609 -34.391 697.609 -34.391C697.609 -34.391 697.609 -34.391 697.941 -57.0569C698.273 -79.7229 685.612 -87.3816 681.273 -93.0481C676.935 -98.7146 671.954 -110.689 671.954 -110.689L656.194 -107.679C656.194 -107.679 637.048 -97.1651 627.663 -101.304C618.278 -105.444 607.011 -102.433 607.011 -102.433C607.011 -102.433 589.746 -97.9398 572.481 -94.1769C555.216 -90.414 551.076 -102.81 551.076 -102.81C551.076 -102.81 551.077 -107.679 545.078 -111.442C539.079 -115.205 531.199 -107.679 523.674 -99.4229C522.501 -98.0948 521.15 -96.9437 519.667 -95.9698Z" fill="#284F51" stroke="#638283" stroke-width="1.5"/>
<defs>
<filter id="filter0_b_1030_16703" x="453.484" y="274.59" width="192.856" height="157.747" filterUnits="userSpaceOnUse" color-interpolation-filters="sRGB">
<feFlood flood-opacity="0" result="BackgroundImageFix"/>
<feGaussianBlur in="BackgroundImageFix" stdDeviation="33"/>
<feComposite in2="SourceAlpha" operator="in" result="effect1_backgroundBlur_1030_16703"/>
<feBlend mode="normal" in="SourceGraphic" in2="effect1_backgroundBlur_1030_16703" result="shape"/>
</filter>
</defs>
</svg>
