<svg width="1177" height="692" viewBox="0 0 1177 692" fill="none" xmlns="http://www.w3.org/2000/svg">
<path d="M765.147 501.769C764.97 496.147 764.549 490.458 763.597 489.197C761.605 486.541 760.941 479.192 760.587 472.529C760.255 465.867 751.932 461.196 751.932 461.196L745.934 452.874L744.606 445.879L742.613 436.206L745.27 429.544L742.613 420.203C742.613 420.203 752.286 415.2 745.956 405.217C739.625 395.212 750.626 391.56 750.626 391.56C750.626 391.56 756.293 380.227 747.638 371.573C738.983 362.918 747.638 349.571 747.638 349.571C747.638 349.571 752.973 342.244 745.314 333.899C737.655 325.554 743.986 315.572 748.656 312.561C753.327 309.551 761.317 304.571 761.317 304.571C761.317 304.571 768.312 303.907 770.326 294.566C772.318 285.225 775.661 281.905 770.99 275.574C766.32 269.244 771.986 260.589 773.314 256.25C774.642 251.912 776.48 249.012 770.658 235.267C769.33 232.124 768.002 215.943 768.002 215.943C791.996 218.267 792.992 202.286 792.992 202.286C792.992 202.286 805.343 202.994 813.644 199.298C832.613 190.842 829.979 185.973 816.632 178.646C803.285 171.319 816.632 160.982 816.632 160.982L848.617 141.659C872.611 141.659 869.269 116.337 869.269 116.337L875.931 95.3529C894.591 66.0244 917.921 77.3574 917.921 77.3574C917.921 77.3574 944.239 91.3465 960.242 80.3456C976.246 69.3446 991.231 78.6855 991.231 78.6855C991.231 78.6855 1006.9 95.3529 1022.88 108.988C1038.87 122.623 1054.2 120.343 1076.87 111.356C1099.54 102.37 1137.41 108.988 1137.41 108.988C1137.41 108.988 1131.79 113.481 1132.92 117.244C1134.04 121.007 1136.68 122.114 1133.67 131.499C1130.66 140.884 1140.8 144.271 1140.8 144.271C1140.8 144.271 1142.68 145.023 1142.68 164.922C1142.68 184.822 1144.2 195.336 1144.2 195.336C1144.2 195.336 1152.06 200.582 1153.19 211.472C1154.32 222.362 1152.81 220.857 1158.81 226.856C1164.81 232.854 1161.45 237.37 1161.45 237.37L1162.4 251.624C1162.4 251.624 1178.34 257.999 1173.47 271.147C1168.6 284.295 1163.71 276.393 1171.58 285.402C1179.46 294.411 1174.4 308.289 1174.4 308.289L1171.21 313.535C1171.21 313.535 1173.09 321.792 1164.08 331.177C1155.07 340.562 1156.58 342.443 1156.58 342.443C1156.58 342.443 1161.45 351.076 1124.31 352.581C1087.16 354.086 1074.77 350.699 1045.48 370.599C1016.2 390.498 1002.7 410.397 1002.7 410.397C1002.7 410.397 1001.19 416.772 984.679 424.275C968.167 431.779 960.287 440.035 960.287 440.035L948.644 451.678L925.004 474.566L918.629 483.198L917.5 488.444L910.749 491.831L884.475 517.352L851.826 557.15L843.946 566.159L828.186 578.931L819.642 587.896L821.657 554.937C821.657 554.937 816.654 543.936 807.003 542.608C797.331 541.28 794.01 542.608 794.01 542.608L779.689 533.267L765.368 514.275C765.257 514.187 765.346 508.011 765.147 501.769Z" fill="#FCFF45" stroke="#FCFF45" strokeWidth="1.25"/>
<g filter="url(#filter0_b_1030_16273)">
<rect x="928.989" y="261.925" width="60.8565" height="25.747" fill="white" fill-opacity="0.08"/>
<rect x="928.989" y="261.925" width="60.8565" height="25.747" fill="#325B5D" fill-opacity="0.16"/>
<rect x="929.489" y="262.425" width="59.8565" height="24.747" stroke="white" strokeOpacity="0.2"/>
<path d="M948.637 271.698H949.797L951.177 277.308L952.557 271.698H953.647L955.037 277.308L956.407 271.698H957.567L955.687 278.798H954.417L953.097 273.618L951.777 278.798H950.527L948.637 271.698ZM959.771 271.698H961.151L963.711 278.798H962.551L961.911 276.948H959.011L958.361 278.798H957.211L959.771 271.698ZM961.571 275.968L960.461 272.728L959.351 275.968H961.571ZM967.013 278.958C966.453 278.958 965.963 278.858 965.543 278.658C965.13 278.451 964.8 278.165 964.553 277.798C964.313 277.425 964.173 276.995 964.133 276.508L965.243 276.438C965.29 276.771 965.387 277.055 965.533 277.288C965.68 277.515 965.877 277.688 966.123 277.808C966.377 277.921 966.68 277.978 967.033 277.978C967.5 277.978 967.857 277.891 968.103 277.718C968.357 277.538 968.483 277.285 968.483 276.958C968.483 276.745 968.433 276.561 968.333 276.408C968.233 276.255 968.047 276.115 967.773 275.988C967.507 275.861 967.117 275.735 966.603 275.608C966.017 275.468 965.557 275.315 965.223 275.148C964.897 274.981 964.657 274.775 964.503 274.528C964.357 274.281 964.283 273.971 964.283 273.598C964.283 273.198 964.38 272.841 964.573 272.528C964.773 272.215 965.057 271.971 965.423 271.798C965.797 271.625 966.237 271.538 966.743 271.538C967.27 271.538 967.727 271.638 968.113 271.838C968.5 272.031 968.807 272.301 969.033 272.648C969.26 272.995 969.4 273.395 969.453 273.848L968.353 273.908C968.313 273.635 968.227 273.395 968.093 273.188C967.96 272.975 967.777 272.811 967.543 272.698C967.317 272.578 967.043 272.518 966.723 272.518C966.317 272.518 965.993 272.615 965.753 272.808C965.513 272.995 965.393 273.245 965.393 273.558C965.393 273.765 965.44 273.935 965.533 274.068C965.633 274.201 965.803 274.318 966.043 274.418C966.283 274.518 966.643 274.625 967.123 274.738C967.73 274.878 968.213 275.048 968.573 275.248C968.94 275.448 969.2 275.685 969.353 275.958C969.513 276.225 969.593 276.538 969.593 276.898C969.593 277.311 969.483 277.675 969.263 277.988C969.05 278.295 968.747 278.535 968.353 278.708C967.967 278.875 967.52 278.958 967.013 278.958Z" fill="#0E3E40"/>
</g>
<path d="M1101.96 106.713C1120.14 105.916 1137.38 108.926 1137.38 108.926C1137.38 108.926 1147.52 101.046 1143 87.1458C1138.49 73.2452 1130.61 66.8704 1120.87 59.743C1111.11 52.6156 1097.98 34.2216 1092.71 25.2128C1087.47 16.2039 1077.33 16.5802 1077.33 16.5802L1073.94 13.5699L1061.17 6.81879L1034.52 -2.94266L1018.76 -10.8226L1013.14 -16.0686L1000.37 -27.3351C1000.37 -27.3351 983.853 -34.8388 975.597 -40.4832C967.341 -46.1054 947.442 -38.6017 947.442 -38.6017C947.442 -38.6017 940.314 -40.4832 921.92 -35.2151C903.526 -29.947 905.031 -41.9662 905.031 -41.9662C905.031 -41.9662 901.269 -50.2225 893.389 -68.2402C885.509 -86.2579 828.445 -98.6533 828.445 -98.6533L796.925 -101.664C796.925 -101.664 797.302 -104.674 795.42 -90.0208C793.539 -75.3897 799.914 -67.886 799.914 -67.886C799.914 -67.886 801.042 -62.2638 807.041 -44.9987C813.039 -27.7336 814.921 -36.3661 807.041 -20.9825C799.161 -5.59881 778.133 -9.33957 778.133 -9.33957C778.133 -9.33957 722.951 -14.5855 707.567 4.53891C685.698 31.7425 671.908 27.8026 671.908 27.8026V32.3401C671.908 32.3401 676.889 44.3151 681.227 49.9816C685.565 55.6481 698.226 63.3067 697.894 85.9727C697.562 108.639 697.562 108.639 697.562 108.639C697.562 108.639 687.225 115.301 686.893 123.978C686.561 132.633 682.555 141.31 682.555 141.31C682.555 141.31 678.571 152.975 684.901 167.296C696.898 159.637 711.884 163.289 711.884 163.289C738.534 163.953 736.542 172.298 736.542 172.298C736.542 172.298 736.874 185.955 746.215 187.97C755.555 189.984 749.889 200.631 749.889 200.631C748.893 211.3 743.89 213.624 767.885 215.97C791.879 218.294 792.875 202.313 792.875 202.313C792.875 202.313 805.226 203.021 813.526 199.325C832.496 190.869 829.862 186 816.515 178.673C803.167 171.346 816.515 161.009 816.515 161.009L848.499 141.686C872.493 141.686 869.151 116.364 869.151 116.364L875.814 95.38C894.473 66.0514 917.803 77.3844 917.803 77.3844C917.803 77.3844 944.121 91.3736 960.125 80.3726C976.128 69.3716 991.114 78.7125 991.114 78.7125C991.114 78.7125 1006.78 95.38 1022.77 109.015C1038.75 122.65 1054.09 120.37 1076.75 111.383C1084.21 108.373 1093.2 107.089 1101.96 106.713Z" fill="#284F51" stroke="#638283" strokeWidth="1.5"/>
<path d="M743.809 424.499C743.189 422.307 742.591 420.204 742.591 420.204C742.591 420.204 752.264 415.202 745.933 405.219C739.603 395.214 750.604 391.562 750.604 391.562C750.604 391.562 756.27 380.229 747.616 371.574C738.961 362.92 747.616 349.572 747.616 349.572C747.616 349.572 752.95 342.246 745.291 333.901C737.633 325.556 743.963 315.573 748.634 312.563C753.304 309.553 761.295 304.572 761.295 304.572C761.295 304.572 768.29 303.908 770.304 294.568C772.296 285.227 775.638 281.907 770.968 275.576C766.297 269.245 771.964 260.591 773.292 256.252C774.62 251.914 776.457 249.014 770.636 235.269C769.308 232.125 767.98 215.945 767.98 215.945C743.986 213.621 748.988 211.274 749.984 200.606C749.984 200.606 755.651 189.937 746.31 187.944C736.969 185.952 736.637 172.273 736.637 172.273C736.637 172.273 738.629 163.95 711.979 163.264C711.979 163.264 696.993 159.59 684.996 167.271C684.996 167.271 678.422 169.064 676.054 178.559C673.686 188.055 667.355 193.987 667.355 193.987L653.676 207.6C653.676 207.6 646.349 213.931 644.003 225.109C641.657 236.287 638.004 241.931 638.004 241.931L630.678 262.583C630.678 262.583 638.004 262.251 642.343 270.242C646.681 278.232 651.684 276.904 651.684 276.904C651.684 276.904 658.346 272.898 661.689 284.563C665.031 296.228 666.027 305.214 669.015 307.561C672.003 309.885 672.358 317.234 672.358 317.234L682.03 321.904C682.03 321.904 685.041 333.237 700.358 334.897C715.697 336.557 725.68 336.225 723.024 350.901C720.368 365.554 718.686 367.9 718.686 367.9L714.347 375.559L710.673 382.885L708.017 388.22C708.017 388.22 694.116 395.613 693.607 395.878C693.695 400.062 694.072 401.855 694.072 401.855L690.685 409.867C690.685 409.867 687.476 436.075 687.144 448.205C689.6 452.189 698.344 450.529 698.344 450.529L709.013 443.534L716.339 452.875L720.014 451.215L725.016 449.555L729.023 451.547L738.031 452.875H746.022L744.694 445.881L742.702 436.208L745.358 429.545C745.247 429.545 744.517 426.956 743.809 424.499Z" fill="#284F51" stroke="#638283" strokeWidth="1.5"/>
<path d="M252.643 86.1749C252.643 86.1749 254.723 89.318 258.043 95.3165C261.386 101.315 266.698 105.653 266.698 105.653L276.703 109.992C276.703 109.992 291.024 124.645 293.039 127.323C295.031 129.98 310.702 146.647 310.702 146.647L320.375 162.65V179.65V195.653C320.375 195.653 320.375 204.662 323.031 209.311C325.687 213.981 326.019 224.008 325.023 232.154C324.027 240.299 322.699 244.97 322.699 244.97L319.711 258.627L316.723 276.954C316.723 276.954 314.908 287.114 309.795 295.791C317.188 291.652 320.043 302.963 322.721 311.285C325.377 319.608 322.721 337.604 322.721 342.274C322.721 356.042 337.374 340.282 337.374 340.282L342.709 334.947L349.703 330.941L355.038 319.608H360.372L369.027 307.943L384.012 291.276H390.343L396.673 284.281L402.672 282.621L421.132 274.962L419.339 266.64L414.669 260.973C414.669 260.973 410.995 254.975 409.003 251.986C407.01 248.976 405.66 229.32 407.674 220.666C409.667 212.011 407.674 212.011 405.682 208.005C403.69 203.998 408.006 196.672 408.006 196.672L404.332 181.686C404.332 181.686 399.662 166.015 400.99 156.032C402.318 146.027 408.98 139.697 408.98 139.697L412.655 131.042L419.981 120.085L421.641 113.378L423.966 105.056C423.966 105.056 424.298 93.7228 427.95 84.072C431.602 74.3992 424.298 61.7381 424.298 61.7381C424.298 61.7381 424.962 60.41 415.975 30.7494C406.988 1.08885 441.452 8.41547 441.452 8.41547L439.194 -0.593399C439.194 -0.593399 433.196 -6.96819 433.948 -12.6126C434.701 -18.2348 422.682 -16.3755 422.682 -16.3755C422.682 -16.3755 420.048 -17.5044 417.037 -20.8688C414.027 -24.2555 411.792 -19.3637 415.909 -35.1236C420.048 -50.8836 411.415 -64.4079 411.415 -64.4079C411.415 -64.4079 403.912 -73.0405 394.903 -63.279C385.894 -53.5176 385.518 -58.4094 376.885 -59.8924C368.252 -61.3976 364.49 -66.6435 364.49 -66.6435C364.49 -66.6435 351.718 -76.4049 342.355 -82.7797C340.385 -84.1078 339.234 -85.3031 338.636 -86.3877C338.614 -86.3877 331.531 -83.0896 331.531 -83.0896L319.423 -76.1393L316.103 -71.6017L309.75 -70.3843L301.273 -60.0916C301.273 -60.0916 305.5 -54.3366 307.935 -47.9839C310.37 -41.6312 316.103 -37.6912 320.331 -36.496C324.558 -35.2786 333.036 -31.6484 330.004 -17.4379C326.971 -3.2274 311.255 3.12522 311.255 3.12522C311.255 3.12522 297.643 9.16807 294.322 9.47796C291.002 9.78784 284.937 11.293 283.122 16.4282C281.307 21.5635 277.677 20.656 273.139 23.0908C268.602 25.5035 264.972 19.7706 262.559 37.6112C260.213 55.319 265.946 61.6717 252.643 86.1749Z" fill="#284F51" stroke="#638283" strokeWidth="1.5"/>
<path d="M539.371 181.697C538.663 179.705 537.976 177.69 537.976 177.69C537.976 177.69 535.32 172.599 531.314 164.609C527.307 156.618 518.653 152.944 518.653 152.944C517.657 143.935 517.989 138.29 529.034 137.604C540.079 136.918 537.667 119.963 537.667 119.963C537.667 119.963 532 118.258 538.663 102.941C545.325 87.6018 533.992 87.6018 533.992 87.6018C533.992 87.6018 528.326 87.9338 521.065 84.9456C513.805 81.9353 518.985 72.6165 520.645 66.286C522.283 60.0219 518.476 48.1134 518.387 47.8256C510.684 52.319 499.993 52.9609 489.523 51.4558C476.375 49.5743 478.633 40.1891 478.633 40.1891C478.633 40.1891 476.752 36.05 476.375 31.9329C475.999 27.8158 474.494 23.6766 466.99 21.0426C459.487 18.4085 453.488 12.0337 453.488 12.0337L447.49 9.77598L441.491 8.27084C441.491 8.27084 407.005 0.944224 416.014 30.6048C425.023 60.2654 424.337 61.5935 424.337 61.5935C424.337 61.5935 431.663 74.2545 427.989 83.9274C424.337 93.6003 424.005 104.911 424.005 104.911L421.68 113.234L420.02 119.941L412.694 130.897L409.019 139.552C409.019 139.552 402.357 145.883 401.029 155.888C399.701 165.892 404.371 181.542 404.371 181.542L408.045 196.527C408.045 196.527 403.707 203.853 405.721 207.86C407.713 211.866 409.728 211.866 407.713 220.521C405.721 229.176 407.049 248.854 409.041 251.842C411.034 254.83 414.708 260.828 414.708 260.828L419.378 266.495L421.171 274.818C421.171 274.818 425.377 279.156 434.032 276.81C442.686 274.486 456.366 281.148 456.366 281.148L483.016 295.137L485.008 299.808L496.673 310.145C496.673 310.145 498.665 314.483 509.002 318.467C519.339 322.474 517.325 300.472 517.325 300.472L520.667 293.809C530.672 274.818 543.333 299.144 543.333 299.144C559.336 292.149 554.002 308.817 554.002 308.817H558.008L559.004 303.15C559.004 303.15 558.672 297.484 562.546 285.154C566.42 272.825 573.68 278.492 574.012 291.817C574.344 305.142 582.002 297.152 588.51 285.154C594.996 273.157 614.673 262.489 614.673 262.489H630.677L638.003 241.837C638.003 241.837 641.678 236.17 644.002 225.014C646.326 213.858 653.675 207.506 653.675 207.506C645.684 202.503 644.002 190.838 643.006 183.512C642.01 176.185 632.669 179.173 632.669 179.173C632.669 179.173 622.332 180.169 619.012 175.167C615.692 170.164 608.011 172.157 608.011 172.157C608.011 172.157 597.342 178.819 593.026 194.823C588.709 210.826 582.246 207.484 582.246 207.484C582.246 207.484 578.372 207.484 569.032 217.157C559.691 226.829 551.368 224.815 551.368 224.815C551.368 224.815 551.368 218.485 551.368 209.83C551.368 201.175 547.694 190.506 547.694 190.506L540.788 185.504C540.743 185.592 540.057 183.667 539.371 181.697Z" fill="#284F51" stroke="#638283" strokeWidth="1.5"/>
<path d="M417.313 602.772C414.944 605.229 412.31 606.823 412.31 606.823C412.31 606.823 403.633 626.434 405.316 638.785C386.833 642.106 368.439 642.836 360.736 637.391C347.965 628.382 334.839 648.281 334.839 648.281L325.83 656.914L322.067 652.42L311.929 651.668C311.929 651.668 304.426 652.044 308.543 640.025C312.682 628.006 299.534 623.889 299.534 623.889C299.534 623.889 286.386 623.512 285.279 612.622C284.15 601.732 275.141 607 275.141 607C275.141 607 264.627 615.256 250.749 606.624C236.87 597.991 237.247 592.369 240.235 589.358C243.245 586.348 246.233 581.855 243.998 575.856C241.762 569.858 243.998 565.718 243.998 565.718C243.998 565.718 244.75 558.215 234.612 555.957C224.475 553.699 223.346 543.562 222.97 538.316C222.593 533.07 219.583 528.554 219.583 528.554L218.83 523.685L214.691 520.674L208.693 515.052L204.199 511.665C204.199 511.665 202.694 497.411 196.696 491.39C190.697 485.392 192.202 476.759 193.685 475.63C195.19 474.501 201.189 475.63 197.072 466.621C192.955 457.612 206.081 456.107 206.081 456.107C206.081 456.107 223.722 459.118 225.98 432.844C225.98 432.844 223.346 426.092 227.861 422.33C232.355 418.567 234.989 416.331 234.989 416.331L251.878 417.46C251.878 417.46 263.52 419.341 266.885 406.193C270.272 393.045 279.878 372.726 287.16 367.524C289.794 365.642 298.051 372.394 293.535 355.505C293.535 355.505 289.042 353.623 291.654 344.991C293.491 338.948 291.831 328.279 287.957 322.568C291.233 312.608 293.004 312.209 303.341 303.886C306.041 301.695 308.277 298.818 310.092 295.741C317.485 291.602 320.34 302.913 323.019 311.235C325.675 319.558 323.019 337.553 323.019 342.224C323.019 355.992 337.672 340.232 337.672 340.232L343.006 334.897L350.001 330.891L355.335 319.558H360.67L369.325 307.893L384.31 291.225H390.64L396.971 284.231L402.969 282.571L421.43 274.912C421.43 274.912 425.635 279.251 434.312 276.904C434.312 276.904 429.642 321.882 434.312 335.561L445.977 347.868C445.977 347.868 455.982 357.895 448.301 376.223C440.643 394.55 443.963 405.219 443.963 405.219C443.963 405.219 443.299 421.555 457.62 423.547C471.941 425.539 471.277 423.547 471.277 423.547C471.277 423.547 490.933 428.881 468.621 440.214C468.621 440.214 457.222 440.547 455.761 451.547L453.636 458.21L448.965 466.201L448.301 475.542L449.629 483.532L448.633 485.856L446.641 498.517C446.641 498.517 439.979 508.19 443.299 516.513C446.641 524.836 449.629 545.841 438.961 561.159C428.292 576.498 420.301 588.495 420.965 594.826C421.297 597.814 419.416 600.625 417.313 602.772Z" fill="#284F51" stroke="#638283" strokeWidth="1.5"/>
<path d="M673.866 683.627C670.413 679.267 666.628 674.486 666.628 674.486L666.296 659.5L652.307 641.837L649.983 634.51L646.973 627.516L642.966 615.519L636.636 610.516L634.976 597.191L625.303 582.538L623.643 571.205L621.982 566.202L623.311 559.208L623.975 550.199L622.314 542.208L623.643 537.538L621.982 528.197L623.643 514.208C623.643 514.208 626.631 488.554 638.296 480.873C649.961 473.214 648.301 476.535 665.632 475.87C682.964 475.206 688.63 459.203 687.302 453.537C687.081 452.585 687.014 450.681 687.081 448.202C689.538 452.208 698.281 450.548 698.281 450.548L708.95 443.554L716.276 452.895L719.951 451.234L724.953 449.574L728.96 451.566L737.969 452.895H745.959L751.958 461.217C751.958 461.217 760.28 465.888 760.612 472.55C760.944 479.213 761.608 486.539 763.623 489.218C764.575 490.479 764.995 496.168 765.172 501.79C765.371 508.032 765.283 514.208 765.283 514.208L779.604 533.2L793.925 542.54C793.925 542.54 797.268 541.212 806.918 542.54C816.591 543.868 821.572 554.869 821.572 554.869L819.557 587.828C818.694 588.736 812.341 595.398 812.341 595.398L796.581 606.665L789.454 616.426L777.435 622.048L754.171 645.312L739.916 656.579L714.395 670.833L698.259 681.347L687.369 685.11L679.489 690.733C679.466 690.71 676.766 687.302 673.866 683.627Z" fill="#284F51" stroke="#638283" strokeWidth="1.5"/>
<path d="M665.845 690.091C652.697 688.01 610.398 681.326 610.398 681.326C610.398 681.326 543.971 666.318 523.32 657.686C502.668 649.053 472.277 632.164 472.277 632.164C472.277 632.164 461.763 621.274 438.499 629.907C429.291 633.315 417.139 636.636 405.009 638.805C403.327 626.454 412.004 606.842 412.004 606.842C412.004 606.842 421.345 601.176 420.659 594.845C419.995 588.515 427.985 576.518 438.654 561.178C449.323 545.839 446.313 524.855 442.993 516.532C439.65 508.21 446.335 498.537 446.335 498.537L448.327 485.876L449.323 483.552L447.995 475.561L448.659 466.22L453.33 458.23L455.454 451.567C456.915 440.566 468.315 440.234 468.315 440.234C490.649 428.901 470.971 423.567 470.971 423.567C470.971 423.567 471.635 425.559 457.314 423.567C442.993 421.574 443.657 405.239 443.657 405.239C443.657 405.239 440.314 394.57 447.995 376.242C455.676 357.915 445.671 347.888 445.671 347.888L434.006 335.581C429.335 321.924 434.006 276.924 434.006 276.924C442.661 274.6 456.34 281.262 456.34 281.262C456.34 281.262 444.011 298.926 443.679 315.261C443.347 331.597 445.007 350.544 465.681 347.888C486.332 345.254 490.339 342.575 490.339 342.575C490.339 342.575 512.341 335.913 525.666 356.233C538.991 376.552 546.65 374.228 546.65 374.228L562.52 374.317L593.642 377.239C593.642 377.239 610.309 380.913 617.636 379.231C624.962 377.571 629.965 373.232 634.967 374.228C639.97 375.224 643.622 374.892 650.971 371.572C658.32 368.252 676.293 364.577 679.303 366.57C682.314 368.562 694.975 367.234 693.957 384.565C692.96 401.897 694.023 401.874 694.023 401.874L690.636 409.887C690.636 409.887 685.966 447.87 687.294 453.537C688.622 459.203 682.956 475.207 665.624 475.871C648.292 476.535 649.953 473.215 638.288 480.873C626.623 488.532 623.634 514.208 623.634 514.208L621.974 528.198L623.634 537.538L622.306 542.209L623.966 550.2L623.302 559.208L621.974 566.203L623.634 571.205L625.294 582.538L634.967 597.192L636.627 610.517L642.958 615.519L646.964 627.516L649.975 634.511L652.299 641.837L666.288 659.501L666.62 674.486L679.48 690.711H669.719C669.697 690.711 668.258 690.49 665.845 690.091Z" fill="#284F51" stroke="#638283" strokeWidth="1.5"/>
<path d="M81.158 -79.9514L86.3154 -70.8098L88.4403 -64.1472C88.4403 -64.1472 82.9951 -56.5771 81.2686 -49.0292C76.7089 -29.1743 101.146 -31.7862 101.146 -31.7862C101.146 -31.7862 117.171 -29.6613 119.894 -18.2397C122.616 -6.79607 132.001 -11.8428 136.827 -23.9505C141.652 -36.0582 151.347 -21.5156 151.347 -21.5156C165.27 -13.3479 171.003 -23.0209 171.003 -23.0209L179.481 -29.6834C179.481 -29.6834 181.251 -33.3799 181.273 -33.4241C181.273 -28.9087 181.65 -22.4896 182.734 -13.3922C185.656 10.8011 172.84 17.7735 172.84 17.7735L146.079 41.2363L143.157 48.5629L117.127 75.3239L112.368 83.3809L102.474 91.0838L99.5519 99.5172L85.2529 119.992L81.2022 125.481C82.0876 119.549 80.4939 113.108 69.9356 111.935C49.6602 109.677 54.4192 112.223 36.158 83.4031C26.3966 68.0194 30.5358 66.8906 21.9032 64.2565C13.2707 61.6225 5.39068 44.7336 2.00406 23.7277C-1.38256 2.69971 5.76697 -0.664742 5.76697 -0.664742C5.76697 -0.664742 13.2707 -13.8127 3.88552 -29.1964C-5.49962 -44.5801 11.0129 -43.4512 11.0129 -43.4512C11.0129 -43.4512 33.3247 -34.8851 23.0321 -67.8437C17.4098 -85.8614 35.0513 -85.1088 35.0513 -85.1088L44.7684 -75.9451C44.7684 -75.9451 52.0065 -75.7237 55.9022 -74.8383C67.0802 -72.2707 73.4329 -79.0218 73.4329 -79.0218L81.158 -79.9514Z" fill="#284F51" stroke="#638283" strokeWidth="1.5"/>
<path d="M256.621 78.1337C264.678 60.0054 260.473 53.1879 262.62 37.4722C265.033 19.6316 268.663 25.3645 273.2 22.9518C277.738 20.5391 281.368 21.4466 283.183 16.2892C284.998 11.1539 291.041 9.62662 294.383 9.33887C297.704 9.02898 311.316 2.98621 311.316 2.98621C311.316 2.98621 327.032 -3.36641 330.065 -17.5769C333.097 -31.7874 324.619 -35.4176 320.392 -36.635C316.164 -37.8524 310.409 -41.7703 307.996 -48.1229C305.584 -54.4756 301.334 -60.2306 301.334 -60.2306L284.401 -62.0457L277.14 -63.5509L271.098 -63.2409C271.098 -63.2409 243.695 -71.0324 240.552 -93.7869C238.36 -109.746 238.737 -111.628 238.737 -111.628L235.704 -114.948C235.704 -114.948 234.774 -122.075 236.191 -132.213C236.191 -132.213 225.124 -134.913 224.836 -122.208C224.526 -109.503 222.711 -98.6123 222.711 -98.6123C222.711 -98.6123 223.021 -91.0422 214.233 -84.9994C205.446 -78.9566 201.218 -74.2641 201.218 -74.2641L194.268 -62.6212L188.513 -54.1436L184.573 -47.481L183.068 -37.1884C183.068 -37.1884 182.16 -35.2848 181.23 -33.3812C181.23 -28.8657 181.607 -22.4466 182.691 -13.3493C185.613 10.844 172.797 17.8165 172.797 17.8165L146.036 41.2794L143.114 48.606L117.084 75.3669L112.325 83.4239L102.431 91.1268L99.509 99.5602L85.2099 120.035L81.1593 125.524C80.3403 130.992 77.3963 135.994 77.3963 135.994V143.874L81.1593 154.388L85.5862 151.444H95.4583L100.394 149.164H107.987L119.364 138.163H136.341C136.341 138.163 151.614 126.011 158.055 128.291C164.497 130.571 177.025 136.813 195.994 120.035C214.964 103.257 232.649 84.3314 252.637 86.2129C253.832 84.0215 254.851 81.9852 255.758 80.0594C256.068 79.3733 256.356 78.7314 256.621 78.1337Z" fill="#284F51" stroke="#638283" strokeWidth="1.5"/>
<path d="M134.037 312.888C132.643 310.453 132.665 306.181 136.339 298.832C141.209 289.071 131.846 285.684 131.846 285.684L123.966 280.815C123.966 280.815 114.581 275.192 117.967 262.797C121.354 250.402 121.73 229.019 94.7038 231.454C67.6773 233.889 60.5499 222.622 60.5499 222.622L59.0447 208.744L53.7988 201.24L48.1766 197.854C48.1766 197.854 43.6832 192.608 49.6817 188.469C55.6802 184.329 65.4417 182.094 65.4417 182.094C65.4417 182.094 77.4608 177.6 75.5794 167.086C73.6979 156.572 81.2016 154.315 81.2016 154.315L85.6286 151.371H95.5007L100.437 149.091H108.029L119.406 138.09H136.384C136.384 138.09 151.657 125.938 158.098 128.218C164.539 130.498 177.067 136.74 196.037 119.961C215.006 103.183 232.692 84.2581 252.68 86.1396C252.68 86.1396 254.76 89.2827 258.08 95.2812C261.423 101.28 266.735 105.618 266.735 105.618L276.74 109.957C276.74 109.957 291.061 124.61 293.075 127.288C295.068 129.944 310.739 146.612 310.739 146.612L320.412 162.615V179.615V195.618C320.412 195.618 320.412 204.627 323.068 209.275C325.724 213.946 326.056 223.973 325.06 232.118C324.064 240.264 322.736 244.934 322.736 244.934L319.748 258.591L316.76 276.919C316.76 276.919 314.945 287.079 309.832 295.756C308.016 298.832 305.803 301.732 303.08 303.901C292.743 312.224 290.995 312.622 287.697 322.583C286.037 320.148 283.978 318.621 281.632 318.732C273.752 319.108 259.497 321.366 259.497 321.366C259.497 321.366 210.336 329.998 183.309 320.613C156.283 311.228 142.028 316.12 142.028 316.12C142.028 316.12 136.229 316.784 134.037 312.888Z" fill="#284F51" stroke="#638283" strokeWidth="1.5"/>
<path d="M519.667 47.0302C519.247 47.3179 518.826 47.5835 518.383 47.827C518.428 47.9598 522.301 60.0011 520.641 66.2874C518.981 72.6179 513.802 81.9588 521.062 84.947C528.322 87.9351 533.988 87.6032 533.988 87.6032C533.988 87.6032 545.321 87.6031 538.659 102.943C531.996 118.282 537.663 119.964 537.663 119.964C537.663 119.964 540.076 136.919 529.03 137.606C517.985 138.292 517.653 143.936 518.649 152.945C518.649 152.945 527.304 156.619 531.31 164.61C535.317 172.601 537.973 177.692 537.973 177.692L540.74 185.594L547.646 190.596C547.646 190.596 551.32 201.265 551.32 209.92C551.32 218.574 551.32 224.905 551.32 224.905C551.32 224.905 559.643 226.897 568.984 217.246C578.324 207.574 582.198 207.574 582.198 207.574C582.198 207.574 588.661 210.916 592.978 194.912C597.294 178.909 607.963 172.246 607.963 172.246C607.963 172.246 615.621 170.254 618.964 175.257C622.306 180.259 632.621 179.263 632.621 179.263C632.621 179.263 641.962 176.253 642.958 183.602C643.954 190.928 645.614 202.593 653.627 207.596L667.306 193.983C667.306 193.983 673.637 188.051 676.005 178.555C678.373 169.059 684.948 167.266 684.948 167.266C678.617 152.945 682.601 141.28 682.601 141.28C682.601 141.28 686.608 132.625 686.94 123.948C687.272 115.294 697.609 108.609 697.609 108.609C697.609 108.609 697.609 108.609 697.941 85.9431C698.273 63.2771 685.612 55.6184 681.273 49.9519C676.935 44.2854 671.954 32.3105 671.954 32.3105L656.194 35.3209C656.194 35.3209 637.048 45.8349 627.663 41.6957C618.278 37.5565 607.011 40.5668 607.011 40.5668C607.011 40.5668 589.746 45.0602 572.481 48.8231C555.216 52.586 551.076 40.1905 551.076 40.1905C551.076 40.1905 551.077 35.3208 545.078 31.5579C539.079 27.795 531.199 35.3208 523.674 43.5771C522.501 44.9052 521.15 46.0563 519.667 47.0302Z" fill="#284F51" stroke="#638283" strokeWidth="1.5"/>
<path d="M508.321 318.314C508.542 318.402 508.764 318.491 508.985 318.579C519.322 322.586 517.308 300.584 517.308 300.584L520.65 293.921C530.655 274.93 543.316 299.256 543.316 299.256C559.319 292.261 553.985 308.929 553.985 308.929H557.991L558.988 303.262C558.988 303.262 558.656 297.596 562.529 285.267C566.403 272.937 573.663 278.604 573.995 291.929C574.327 305.254 581.985 297.264 588.493 285.267C594.979 273.27 614.656 262.601 614.656 262.601H630.66C630.66 262.601 637.986 262.269 642.325 270.259C646.663 278.25 651.666 276.922 651.666 276.922C651.666 276.922 658.328 272.915 661.671 284.58C665.013 296.245 666.009 305.232 668.997 307.578C671.985 309.903 672.34 317.251 672.34 317.251L682.012 321.922C682.012 321.922 685.023 333.255 700.34 334.915C715.679 336.575 725.662 336.243 723.006 350.918C720.35 365.571 718.668 367.918 718.668 367.918L714.329 375.576L710.655 382.903L707.999 388.237L693.921 395.719C693.921 395.719 693.744 395.808 693.589 395.896C693.611 393.351 693.722 389.721 694.01 384.563C695.006 367.232 682.344 368.56 679.356 366.568C676.346 364.575 658.373 368.228 651.024 371.57C643.675 374.912 640.023 375.244 635.02 374.226C630.018 373.208 625.015 377.569 617.689 379.229C610.362 380.889 593.695 377.237 593.695 377.237L562.573 374.315L546.703 374.226C546.703 374.226 539.044 376.55 525.719 356.231C512.394 335.911 490.392 342.573 490.392 342.573C490.392 342.573 486.386 345.23 465.734 347.886C445.082 350.52 443.4 331.573 443.732 315.259C444.064 298.924 456.393 281.26 456.393 281.26L483.043 295.249L485.035 299.92L496.7 310.257C496.656 310.235 498.56 314.374 508.321 318.314Z" fill="#284F51" stroke="#638283" strokeWidth="1.5"/>
<defs>
<filter id="filter0_b_1030_16273" x="862.989" y="195.925" width="192.856" height="157.747" filterUnits="userSpaceOnUse" color-interpolation-filters="sRGB">
<feFlood flood-opacity="0" result="BackgroundImageFix"/>
<feGaussianBlur in="BackgroundImageFix" stdDeviation="33"/>
<feComposite in2="SourceAlpha" operator="in" result="effect1_backgroundBlur_1030_16273"/>
<feBlend mode="normal" in="SourceGraphic" in2="effect1_backgroundBlur_1030_16273" result="shape"/>
</filter>
</defs>
</svg>
