<svg width="17" height="16" viewBox="0 0 17 16" fill="none" xmlns="http://www.w3.org/2000/svg">
<path d="M14.2972 4.17143L10.2972 0.171429C10.1829 0.0571428 10.0686 0 9.89718 0H4.1829C3.55432 0 3.04004 0.514286 3.04004 1.14286V14.8571C3.04004 15.4857 3.55432 16 4.1829 16H13.3258C13.9543 16 14.4686 15.4857 14.4686 14.8571V4.57143C14.4686 4.4 14.4115 4.28571 14.2972 4.17143ZM9.89718 1.37143L13.0972 4.57143H9.89718V1.37143ZM13.3258 14.8571H4.1829V1.14286H8.75432V4.57143C8.75432 5.2 9.26861 5.71429 9.89718 5.71429H13.3258V14.8571Z" fill="currentColor" fill-opacity="0.6"/>
<path d="M5.32568 11.4286H12.1828V12.5714H5.32568V11.4286ZM5.32568 8H12.1828V9.14286H5.32568V8Z" fill="currentColor" fill-opacity="0.6"/>
</svg>
